<svg xmlns="http://www.w3.org/2000/svg" width="250" height="168" viewBox="0 0 250 168">
    <g fill="none" fill-rule="nonzero">
        <path fill="#EFF2FA" d="M240.74 167.03H9.26c-5.115 0-9.26-4.154-9.26-9.279V9.28C0 4.154 4.145 0 9.26 0h231.48c5.115 0 9.26 4.154 9.26 9.28V157.75c0 5.125-4.146 9.28-9.26 9.28z"/>
        <g fill="#EE5A2A">
            <path d="M161.525 21.29H87.404a4.637 4.637 0 0 1-4.633-4.64 4.637 4.637 0 0 1 4.633-4.641h74.121a4.637 4.637 0 0 1 4.633 4.64 4.637 4.637 0 0 1-4.633 4.64zM172.618 39.687H75.334a4.637 4.637 0 0 1-4.633-4.64 4.637 4.637 0 0 1 4.633-4.64h97.284a4.637 4.637 0 0 1 4.633 4.64 4.637 4.637 0 0 1-4.633 4.64z"/>
        </g>
        <path fill="#959CB3" d="M23.723 89.496h-9.265a4.637 4.637 0 0 1-4.633-4.64 4.637 4.637 0 0 1 4.633-4.64h9.265a4.637 4.637 0 0 1 4.633 4.64 4.637 4.637 0 0 1-4.633 4.64z"/>
        <path fill="#C7CFE2" d="M97.845 89.496H42.254a4.637 4.637 0 0 1-4.633-4.64 4.637 4.637 0 0 1 4.633-4.64h55.59a4.637 4.637 0 0 1 4.634 4.64 4.637 4.637 0 0 1-4.633 4.64z"/>
        <path fill="#959CB3" d="M23.723 108.021h-9.265a4.637 4.637 0 0 1-4.633-4.64 4.637 4.637 0 0 1 4.633-4.64h9.265a4.637 4.637 0 0 1 4.633 4.64 4.637 4.637 0 0 1-4.633 4.64zM23.723 70.881h-9.265a4.637 4.637 0 0 1-4.633-4.64 4.637 4.637 0 0 1 4.633-4.64h9.265a4.637 4.637 0 0 1 4.633 4.64 4.637 4.637 0 0 1-4.633 4.64z"/>
        <path fill="#C7CFE2" d="M111.761 108.021h-69.49a4.637 4.637 0 0 1-4.632-4.64 4.637 4.637 0 0 1 4.633-4.64h69.49a4.637 4.637 0 0 1 4.632 4.64 4.637 4.637 0 0 1-4.633 4.64zM111.761 70.881h-69.49a4.637 4.637 0 0 1-4.632-4.64 4.637 4.637 0 0 1 4.633-4.64h69.49a4.637 4.637 0 0 1 4.632 4.64 4.637 4.637 0 0 1-4.633 4.64z"/>
        <path fill="#959CB3" d="M23.723 126.419h-9.265a4.637 4.637 0 0 1-4.633-4.64 4.637 4.637 0 0 1 4.633-4.641h9.265a4.637 4.637 0 0 1 4.633 4.64 4.637 4.637 0 0 1-4.633 4.64zM23.723 144.816h-9.265a4.637 4.637 0 0 1-4.633-4.64 4.637 4.637 0 0 1 4.633-4.64h9.265a4.637 4.637 0 0 1 4.633 4.64 4.637 4.637 0 0 1-4.633 4.64z"/>
        <path fill="#C7CFE2" d="M79.333 126.419H42.272a4.637 4.637 0 0 1-4.633-4.64 4.637 4.637 0 0 1 4.633-4.641h37.06a4.637 4.637 0 0 1 4.634 4.64 4.637 4.637 0 0 1-4.633 4.64zM108.518 144.816H45.515c-4.35 0-7.876-2.078-7.876-4.64 0-2.563 3.527-4.64 7.876-4.64h63.003c4.35 0 7.876 2.077 7.876 4.64 0 2.563-3.527 4.64-7.876 4.64z"/>
        <g>
            <path fill="#EE5A2A" d="M223.417 131.105h-46.179c-1.417 0-2.566-1.119-2.566-2.499V63.634c0-1.38 1.15-2.499 2.566-2.499h46.179c1.417 0 2.566 1.12 2.566 2.5v64.972c0 1.38-1.15 2.498-2.566 2.498z"/>
            <path fill="#694B4B" d="M200.057 67.496c-23.658 0-21.035 28.461-20.927 49.086a2.198 2.198 0 0 0 1.09 1.884c2.623 1.563 9.823 5.218 19.837 5.218 10.015 0 17.215-3.655 19.837-5.218a2.198 2.198 0 0 0 1.091-1.884c.108-20.624 2.731-49.086-20.928-49.086z"/>
            <path fill="#5A4146" d="M198.896 67.496c-22.414 1.222-19.873 28.892-19.765 49.079.004.78.424 1.483 1.111 1.885 2.67 1.565 10.005 5.224 20.206 5.224l6.09-41.445"/>
            <path fill="#694B4B" d="M200.481 67.496c-13.527 0-14.466 16.08-14.466 16.08 7.796-1.294 12.587 1.94 20.478-1.294l-6.012 41.402c10.07 0 17.31-3.655 19.946-5.218a2.196 2.196 0 0 0 1.097-1.884c.109-20.624 2.747-49.086-21.043-49.086z"/>
            <path fill="#785550" d="M220.986 116.605c.094-17.737 2.041-41.248-12.524-47.518-.254 1.297-.714 4.92.482 7.27 3.01 5.92 6.02 5.92 9.03 10.36 3.01 16.278-5.751 33.555-8.662 35.907 5.157-1.206 8.852-3.113 10.575-4.134a2.198 2.198 0 0 0 1.1-1.885z"/>
            <path fill="#E6AF78" d="M223.196 121.178l-13.466-5.5a2.958 2.958 0 0 1-1.857-2.731v-3.575h-15.091v3.575a2.959 2.959 0 0 1-1.857 2.731l-13.466 5.5c-1.687.689-2.787 2.305-2.787 4.096v3.847c0 1.388 1.15 2.514 2.566 2.514h46.179c1.417 0 2.566-1.126 2.566-2.514v-3.847c0-1.791-1.1-3.407-2.787-4.096z"/>
            <path fill="#707487" d="M223.196 121.094l-13.02-5.36-9.849 4.2-9.848-4.2-13.02 5.36a4.473 4.473 0 0 0-2.787 4.13v3.876c0 1.4 1.15 2.535 2.566 2.535h46.179c1.417 0 2.566-1.135 2.566-2.535v-3.877c0-1.806-1.1-3.435-2.787-4.13z"/>
            <path fill="#D29B6E" d="M208.159 109.372h-14.974v3.536a2.927 2.927 0 0 1-1.843 2.702l-2.087.85c15.97 3.98 18.904-7.088 18.904-7.088z"/>
            <g fill="#5B5D6E">
                <path d="M182.05 126.754l-6.043-4.732a4.402 4.402 0 0 0-1.295 3.103v3.853c0 1.392 1.146 2.52 2.56 2.52h6.472v-1.285a4.395 4.395 0 0 0-1.694-3.46zM225.893 128.978v-3.853a4.402 4.402 0 0 0-1.276-3.085l-6.061 4.714a4.421 4.421 0 0 0-1.695 3.472v1.272h6.473c1.413 0 2.559-1.128 2.559-2.52zM200.528 128.978h-.451a1.27 1.27 0 0 1-1.28-1.26v-7.848h3.011v7.848a1.27 1.27 0 0 1-1.28 1.26z"/>
                <path d="M200.303 119.867l-8.616-6.362a1.216 1.216 0 0 0-1.724.29l-1.703 2.514 5.282 7.282a1.217 1.217 0 0 0 1.732.237l5.029-3.961z"/>
                <path d="M200.303 119.867l8.615-6.362a1.216 1.216 0 0 1 1.725.29l1.702 2.514-5.282 7.282a1.217 1.217 0 0 1-1.732.237l-5.028-3.961z"/>
            </g>
            <path fill="#F0C087" d="M207.728 80.748c-7.512 7.496-22.253 1.5-22.253 13.493l.932 8.834a5.996 5.996 0 0 0 3.067 4.7l8.553 4.742a4.515 4.515 0 0 0 4.378 0l8.554-4.742a5.996 5.996 0 0 0 3.066-4.7l1.077-10.492c.076-.746.093-1.496.067-2.244-.561-3.817-5.939-6.592-7.441-9.59z"/>
            <path fill="#E6AF78" d="M185.475 94.25l.94 8.84a5.998 5.998 0 0 0 3.087 4.701l8.616 4.745c.951.524 2.042.66 3.081.457 0 0-4.344-1.305-6.929-8.243-.792-2.125-1.891-13.376-.946-14.751 1.87-2.718 12.295-3 15.375-8.042a8.345 8.345 0 0 1-.42-.563l-.034-.046c-.134-.2-.255-.4-.357-.6-7.566 7.501-22.413 1.5-22.413 13.501z"/>
            <path fill="#C7CFE2" d="M215.72 144.357h-30.245c-2.088 0-3.781-1.661-3.781-3.71 0-2.05 1.693-3.71 3.78-3.71h30.245c2.088 0 3.781 1.66 3.781 3.71s-1.693 3.71-3.78 3.71zM209.239 152.838h-17.283c-1.193 0-2.16-.949-2.16-2.12 0-1.17.967-2.12 2.16-2.12h17.283c1.193 0 2.16.95 2.16 2.12 0 1.171-.967 2.12-2.16 2.12z"/>
        </g>
    </g>
</svg>
