<svg xmlns="http://www.w3.org/2000/svg" width="147" height="26" viewBox="0 0 147 26">
    <g fill="none" fill-rule="evenodd">
        <path fill="#EB5A29" d="M5.184 18L10 4H4.817L0 18zM37.25 8L38 6h-4.25L33 8z"/>
        <path fill="#EB5A29" d="M43.629 16.53c-1.742 0-2.616-.362-2.382-1.337l.746-2.562c.341-.83.963-.83 3.029-.817l-1.393 4.717zm-18.69 0c-1.743 0-2.618-.362-2.38-1.337l.776-2.666c.338-.832.686-.711 2.998-.713L24.94 16.53zm23.11.005l2.092-7.089-6.908-.003c-1.719 0-3.163.514-4.326 1.53-1.287 1.118-1.93 2.652-1.93 4.585 0 .41.083.63.168.977h-1.83l2.103-7.089h-4.021l-2.116 7.09h-1.926l2.097-7.09h-6.908c-1.719 0-3.162.51-4.33 1.527-1.285 1.118-1.926 2.652-1.926 4.585 0 .404.079.624.164.968h-1.559l-2.654-5.195c4.474-1.999 7.853-3.915 7.853-6.595C22.092 1.57 18.785 0 14.462 0H1.396L0 3.018l12.757.002c2.57 0 4.424 1.02 4.424 2.648 0 2.967-8.283 4.97-8.579 5.03l.008.016h-.005l4.18 8.18 8.81-.005c1.278 0 2.194-.292 3.073-1.438 0 .96.673 1.441 1.976 1.441h3.933l-1.619 5.424s-.067.179-.349.179-.346-.179-.346-.179l.459-1.512H24.7l-.58 2.008S24.974 26 28.491 26c3.513 0 4.365-1.188 4.365-1.188l1.76-5.923h5.671c1.278 0 2.192-.292 3.072-1.438 0 .96.67 1.441 1.977 1.441h4.963L51 16.535h-2.95z"/>
        <path fill="#2B2E31" d="M90.923 13.217l-.701 2.108c-.386.962-1.481 1.4-3.132 1.397l1.389-4.412c1.506 0 2.678-.01 2.444.907zm-12.167-.154l-.942 2.92c-.108.346-.5.784-.938.784h-1.578c-.304 0-.605-.31-.47-.744l.943-2.917c.11-.348.5-.783.938-.783h1.578c.306 0 .606.313.469.74zM103.978 4l-3.995 12.767h-1.139l2.1-6.695h-2.395v-.003l-9.366-.001L91.084 4h-4.016l-1.877 6.072-7.797.004c-1.748 0-3.164.477-4.222 1.265-.978.743-1.58 1.767-1.786 3.078-.04.231-.06.466-.06.703 0 .674.203 1.122.493 1.65h-2.216l2.518-8.056c.158-.452.24-.862.24-1.235 0-.647-.24-1.142-.719-1.48a1.766 1.766 0 0 0-.884-.34c-.704-.07-1.236.108-1.609.34-.212.148-.647.577-1.301 1.29l-4.365 5.052 1.667-4.979c.17-.478.736-2.688-1.507-2.867-1.827-.145-3.037 1.188-3.686 2.004l-4.205 4.805L58.03 4h-4.326L49 18.999h1.949c1.033 0 1.617-.078 2.464-.994l6.904-8.398-2.11 6.779c-.141.392-.219.756-.219 1.09 0 .876.459 1.37 1.365 1.48.156.025.31.043.451.043.758 0 1.453-.386 2.09-1.162l5.545-6.878-1.754 5.617c-.169.474-.248.86-.248 1.157 0 .839.663 1.254 2 1.254h4.214l1.564-.002h3.917c1.613-.007 2.802-.196 3.81-.98 1.056-.823 1.647-1.958 1.754-3.408.031-.369-.037-.81-.2-1.314-.17-.508-.401-.784-.663-.973h2.653l-1.259 4.025c-.533 1.706.108 2.66 1.42 2.66l2.138.005c1.998 0 3.492-.4 4.985-1.255 2.036-1.17 2.923-2.853 3.32-5.435l1.135.002-1.515 4.831-.014.027c-.038.131-.06.266-.06.404 0 .786.649 1.422 1.444 1.422H103.303L108 4h-4.022z"/>
        <path fill="#2B2E31" d="M93.25 7l-.62.378h3.318l-.134.412h-3.853l-.67.413h4.39l-.135.413h-4.928L90 9h9.314L100 7zM126.209 9c-1.244 0-2.257.478-3.04 1.424-.781.95-1.169 1.989-1.169 3.122 0 .694.259 1.28.776 1.75.518.468 1.202.704 2.046.704.689 0 1.35-.184 1.983-.555.63-.373 1.157-.935 1.57-1.686.413-.753.625-1.486.625-2.202 0-.794-.265-1.417-.787-1.875-.527-.454-1.194-.682-2.004-.682"/>
        <path fill="#2B2E31" d="M142.415 17.822h-2.333l2.6-8.838-5.4 8.838h-2.264l.01-8.85-2.597 8.85h-2.334l3.117-10.642h3.646l.078 7.404 4.544-7.404h4.04l-3.107 10.642zm-14.743-.823c-1.024.549-2.19.82-3.488.82-1.124 0-2.07-.217-2.832-.652-.763-.434-1.307-.973-1.625-1.613a4.342 4.342 0 0 1-.478-1.947c0-.606.107-1.248.322-1.925a6.405 6.405 0 0 1 1.284-2.343c.572-.666 1.295-1.192 2.17-1.576.87-.385 1.866-.58 2.983-.58 1.493 0 2.698.398 3.62 1.186.92.79 1.382 1.836 1.382 3.139 0 1.086-.3 2.137-.9 3.148A6.139 6.139 0 0 1 127.672 17zm-11.129-.126c-.974.61-2.118.913-3.424.913-1.473 0-2.627-.378-3.457-1.132-.826-.758-1.242-1.852-1.242-3.286 0-1.165.276-2.23.83-3.195a5.592 5.592 0 0 1 2.314-2.22 6.866 6.866 0 0 1 3.222-.77c1.304 0 2.359.295 3.164.889.802.597 1.278 1.407 1.423 2.433l-2.379.196c-.127-.596-.383-1.028-.758-1.298-.374-.266-.873-.404-1.498-.404a3.72 3.72 0 0 0-1.923.533c-.592.354-1.063.907-1.422 1.658-.355.756-.534 1.507-.534 2.257 0 .818.23 1.457.693 1.899.464.452 1.042.672 1.732.672a3.15 3.15 0 0 0 1.763-.528c.532-.358.928-.881 1.193-1.575l2.5.319c-.488 1.152-1.22 2.035-2.197 2.639zm-9.228 1.55h-2.305l.606-2.094h2.305l-.606 2.094zM107.765 6L104 19h39.238L147 6h-39.235z"/>
    </g>
</svg>
