<svg xmlns="http://www.w3.org/2000/svg" xmlns:xlink="http://www.w3.org/1999/xlink" width="125" height="22" viewBox="0 0 125 22">
    <defs>
        <path id="a" d="M42.713 21.104H0V.144h42.713z"/>
    </defs>
    <g fill="none" fill-rule="evenodd">
        <path fill="#FEFEFE" d="M4.429 15.555L8.095 3.604H4.149L.481 15.555zM31.58 7.022l.594-1.938h-3.366l-.595 1.938z"/>
        <g transform="translate(0 .18)">
            <mask id="b" fill="#fff">
                <use xlink:href="#a"/>
            </mask>
            <path fill="#FEFEFE" d="M36.54 13.47c-1.459 0-2.192-.292-1.995-1.078l.624-2.065c.286-.67.807-.67 2.537-.659l-1.167 3.803zm-15.653 0c-1.46 0-2.193-.292-1.994-1.078l.65-2.149c.283-.67.575-.573 2.511-.575l-1.167 3.803zm19.355.004l1.751-5.714-5.785-.003c-1.44 0-2.649.414-3.623 1.233-1.078.902-1.617 2.139-1.617 3.697 0 .33.07.507.141.787h-1.533l1.762-5.714H27.97l-1.772 5.714h-1.613L26.34 7.76h-5.785c-1.44 0-2.648.411-3.626 1.23-1.076.902-1.614 2.139-1.614 3.697 0 .325.066.503.138.78h-1.306l-2.223-4.188c3.747-1.611 6.578-3.156 6.578-5.316 0-2.553-2.77-3.818-6.391-3.818H1.169L0 2.577l10.684.003c2.153 0 3.705.821 3.705 2.134 0 2.392-6.937 4.006-7.185 4.056l.006.012h-.003l3.5 6.593 7.378-.003c1.071 0 1.838-.235 2.575-1.16 0 .774.563 1.162 1.655 1.162h3.293l-1.355 4.373s-.057.144-.293.144-.29-.144-.29-.144l.385-1.22h-3.368l-.485 1.62s.713.957 3.66.957c2.942 0 3.655-.957 3.655-.957l1.475-4.775h4.749c1.07 0 1.836-.235 2.572-1.16 0 .774.562 1.162 1.656 1.162h4.157l.587-1.9h-2.471z" mask="url(#b)"/>
        </g>
        <path fill="#FEFEFE" d="M76.057 10.622l-.588 1.798c-.322.82-1.24 1.195-2.623 1.192l1.163-3.764c1.263 0 2.244-.009 2.048.774zm-10.193-.131l-.789 2.49c-.09.295-.42.67-.786.67h-1.322c-.255 0-.507-.265-.394-.635l.79-2.489c.093-.296.42-.668.786-.668h1.322c.256 0 .508.267.393.632zm21.13-7.732L83.647 13.65h-.954l1.759-5.71h-2.007v-.003L74.6 7.936l1.593-5.177h-3.365l-1.572 5.18-6.532.004c-1.464 0-2.65.407-3.537 1.079-.82.633-1.324 1.507-1.496 2.625-.033.198-.05.397-.05.6 0 .575.17.957.413 1.407h-1.857l2.11-6.872c.132-.386.2-.735.2-1.053 0-.552-.2-.974-.601-1.262a1.46 1.46 0 0 0-.74-.29c-.59-.06-1.036.092-1.349.29-.178.126-.543.491-1.09 1.1l-3.657 4.309 1.397-4.247c.143-.408.617-2.293-1.263-2.446-1.53-.123-2.544 1.014-3.088 1.71l-3.522 4.099L48.5 2.759h-3.624l-3.94 12.795h1.633c.865 0 1.354-.066 2.064-.848l5.783-7.164-1.767 5.783a2.81 2.81 0 0 0-.183.93c0 .747.384 1.169 1.144 1.262.13.022.259.037.377.037.635 0 1.217-.33 1.75-.99l4.647-5.869-1.47 4.792c-.142.405-.208.734-.208.987 0 .716.555 1.07 1.676 1.07h3.53l1.31-.002h3.281c1.352-.006 2.348-.167 3.193-.836.884-.702 1.379-1.67 1.468-2.907.027-.315-.03-.69-.167-1.121-.142-.433-.336-.669-.555-.83h2.222L69.61 13.28c-.447 1.456.09 2.27 1.19 2.27l1.79.004c1.674 0 2.925-.34 4.177-1.07 1.705-.998 2.448-2.434 2.78-4.637l.951.002-1.269 4.12-.011.024a1.212 1.212 0 0 0 1.16 1.558h6.05l3.935-12.793h-3.37z"/>
        <path fill="#FEFEFE" d="M79.439 5.074l-.535.364h2.856l-.115.397h-3.316l-.577.398h3.778l-.116.398h-4.24L76.64 7h8.015l.59-1.927zM106.265 7.457c-1.03 0-1.87.39-2.52 1.163-.646.777-.968 1.626-.968 2.552 0 .568.215 1.046.644 1.43.429.383.996.576 1.695.576.57 0 1.118-.15 1.643-.453.522-.305.959-.765 1.3-1.378.343-.617.52-1.215.52-1.8 0-.649-.22-1.159-.653-1.532-.437-.372-.99-.558-1.66-.558"/>
        <path fill="#FEFEFE" d="M120.377 14.603h-1.982l2.21-7.117-4.59 7.117h-1.924l.01-7.127-2.208 7.127h-1.984l2.649-8.57h3.098l.066 5.962 3.862-5.962h3.434l-2.64 8.57zm-12.529-.663c-.87.442-1.86.66-2.964.66-.955 0-1.76-.174-2.407-.524-.648-.35-1.11-.784-1.381-1.3a3.349 3.349 0 0 1-.406-1.568c0-.488.09-1.005.273-1.55.238-.723.6-1.354 1.092-1.887.486-.536 1.1-.96 1.843-1.269.74-.31 1.587-.468 2.536-.468 1.269 0 2.292.322 3.076.956.782.636 1.175 1.48 1.175 2.528 0 .874-.255 1.72-.765 2.535a5.106 5.106 0 0 1-2.072 1.887zm-9.458-.102c-.828.491-1.8.735-2.91.735-1.251 0-2.232-.303-2.938-.91-.702-.611-1.055-1.492-1.055-2.647 0-.939.234-1.796.705-2.573a4.653 4.653 0 0 1 1.967-1.788 6.102 6.102 0 0 1 2.738-.62c1.108 0 2.004.238 2.689.716a2.812 2.812 0 0 1 1.209 1.959l-2.021.158c-.109-.48-.326-.828-.645-1.046-.318-.213-.742-.325-1.273-.325-.58 0-1.126.145-1.634.43-.503.285-.904.73-1.209 1.335-.302.609-.453 1.213-.453 1.818 0 .659.195 1.173.588 1.529.395.364.886.54 1.472.54.541 0 1.045-.14 1.499-.424.452-.289.789-.71 1.014-1.268l2.124.256c-.415.927-1.036 1.639-1.867 2.125zm-7.842 1.249h-1.96l.516-1.687h1.959l-.515 1.687zm.382-10.005l-3.2 10.47h33.347l3.196-10.47H90.93z"/>
    </g>
</svg>
