<svg xmlns="http://www.w3.org/2000/svg" xmlns:xlink="http://www.w3.org/1999/xlink" width="128" height="128" viewBox="0 0 128 128">
    <defs>
        <path id="c" d="M98.556 55.469s-3.254 1.341-11.39 1.341c0 0-27.244.24-37.888.24-10.644 0-37.888-.24-37.888-.24C3.254 56.81 0 55.47 0 55.47h98.556z"/>
        <filter id="a" width="186.2%" height="5472.9%" x="-43.1%" y="-2623.3%" filterUnits="objectBoundingBox">
            <feGaussianBlur in="SourceGraphic" stdDeviation="12.5 0"/>
        </filter>
        <filter id="b" width="192.3%" height="5852.2%" x="-46.2%" y="-2812.9%" filterUnits="objectBoundingBox">
            <feOffset dy="1" in="SourceAlpha" result="shadowOffsetOuter1"/>
            <feGaussianBlur in="shadowOffsetOuter1" result="shadowBlurOuter1" stdDeviation="2.5"/>
            <feColorMatrix in="shadowBlurOuter1" values="0 0 0 0 0 0 0 0 0 0 0 0 0 0 0 0 0 0 1 0"/>
        </filter>
        <linearGradient id="e" x1="50%" x2="50%" y1="100%" y2="95.361%">
            <stop offset="0%"/>
            <stop offset="100%" stop-opacity="0"/>
        </linearGradient>
        <path id="d" d="M11.748 0H86.65c1.543 0 2.839 1.3 2.839 2.848v50.149c0 1.547-.01 2.848-1.577 2.848H10.644c-1.587 0-1.735-1.301-1.735-2.848V2.847C8.91 1.302 10.205 0 11.748 0z"/>
        <path id="f" d="M11.906 5.869h74.587v44.119H11.906z"/>
        <path id="g" d="M11.906 5.65h74.587v44.119H11.906z"/>
        <linearGradient id="h" x1="50%" x2="50%" y1="99.741%" y2="0%">
            <stop offset="0%" stop-color="#D0D0D0"/>
            <stop offset="100%" stop-color="#E7E7E7"/>
        </linearGradient>
        <linearGradient id="j" x1="100%" x2="0%" y1="59.021%" y2="59.021%">
            <stop offset="0%"/>
            <stop offset="49.649%" stop-color="#FFF" stop-opacity=".5"/>
            <stop offset="100%"/>
        </linearGradient>
        <path id="i" d="M.079 54.895h98.556v1H.079z"/>
        <filter id="k" width="101%" height="200%" x="-.5%" y="-50%" filterUnits="objectBoundingBox">
            <feOffset dy="1" in="SourceAlpha" result="shadowOffsetInner1"/>
            <feComposite in="shadowOffsetInner1" in2="SourceAlpha" k2="-1" k3="1" operator="arithmetic" result="shadowInnerInner1"/>
            <feColorMatrix in="shadowInnerInner1" values="0 0 0 0 1 0 0 0 0 1 0 0 0 0 1 0 0 0 0.300000012 0"/>
        </filter>
        <linearGradient id="m" x1="50%" x2="50%" y1="2.057%" y2="100%">
            <stop offset="0%"/>
            <stop offset="100%" stop-color="#999"/>
        </linearGradient>
        <linearGradient id="n" x1="50%" x2="50%" y1="50%" y2="0%">
            <stop offset="0%" stop-opacity="0"/>
            <stop offset="100%"/>
        </linearGradient>
        <linearGradient id="o" x1="50%" x2="50%" y1="20.793%" y2="100%">
            <stop offset="0%" stop-color="#FFF" stop-opacity="-.064"/>
            <stop offset="0%" stop-color="#FFF" stop-opacity="0"/>
            <stop offset="100%" stop-color="#FFF"/>
        </linearGradient>
        <path id="l" d="M49.278 55.686c-3.582 0-8.525-.087-9.461-.263v-.528h18.922v.528c-.936.176-5.879.263-9.461.263z"/>
        <filter id="p" width="947.1%" height="550%" x="-423.5%" y="-131.2%" filterUnits="objectBoundingBox">
            <feOffset dy="30" in="SourceAlpha" result="shadowOffsetOuter1"/>
            <feGaussianBlur in="shadowOffsetOuter1" result="shadowBlurOuter1" stdDeviation="19"/>
            <feColorMatrix in="shadowBlurOuter1" result="shadowMatrixOuter1" values="0 0 0 0 0 0 0 0 0 0 0 0 0 0 0 0 0 0 0.200000003 0"/>
            <feMerge>
                <feMergeNode in="shadowMatrixOuter1"/>
                <feMergeNode in="SourceGraphic"/>
            </feMerge>
        </filter>
        <linearGradient id="q" x1="50%" x2="50%" y1="0%" y2="100%">
            <stop offset="0%" stop-color="#ECEFF0"/>
            <stop offset="100%" stop-color="#EDEFF0"/>
        </linearGradient>
        <rect id="r" width="15.346" height="31.432" x=".12" rx="2"/>
        <filter id="s" width="113%" height="106.4%" x="-6.5%" y="-3.2%" filterUnits="objectBoundingBox">
            <feGaussianBlur in="SourceAlpha" result="shadowBlurInner1" stdDeviation="1"/>
            <feOffset in="shadowBlurInner1" result="shadowOffsetInner1"/>
            <feComposite in="shadowOffsetInner1" in2="SourceAlpha" k2="-1" k3="1" operator="arithmetic" result="shadowInnerInner1"/>
            <feColorMatrix in="shadowInnerInner1" values="0 0 0 0 0 0 0 0 0 0 0 0 0 0 0 0 0 0 0.200000003 0"/>
        </filter>
        <rect id="t" width="14.866" height="30.958" x=".36" y=".237" rx="2"/>
        <rect id="v" width="14.626" height="30.72" x=".48" y=".356" rx="2"/>
        <filter id="u" width="117.1%" height="108.1%" x="-8.5%" y="-4.1%" filterUnits="objectBoundingBox">
            <feGaussianBlur in="SourceAlpha" result="shadowBlurInner1" stdDeviation=".5"/>
            <feOffset dy="1" in="shadowBlurInner1" result="shadowOffsetInner1"/>
            <feComposite in="shadowOffsetInner1" in2="SourceAlpha" k2="-1" k3="1" operator="arithmetic" result="shadowInnerInner1"/>
            <feColorMatrix in="shadowInnerInner1" values="0 0 0 0 1 0 0 0 0 1 0 0 0 0 1 0 0 0 1 0"/>
        </filter>
        <linearGradient id="w" x1="50%" x2="50%" y1="100%" y2="0%">
            <stop offset="0%" stop-color="#E0E2E3" stop-opacity="0"/>
            <stop offset="100%" stop-color="#DADDDF"/>
        </linearGradient>
        <linearGradient id="y" x1="50%" x2="50%" y1="50%" y2="72.262%">
            <stop offset="0%" stop-color="#FFF" stop-opacity=".5"/>
            <stop offset="100%" stop-color="#FFF"/>
        </linearGradient>
        <ellipse id="x" cx="7.793" cy="29.416" rx="1.079" ry="1.068"/>
        <filter id="z" width="146.3%" height="146.8%" x="-23.2%" y="-23.4%" filterUnits="objectBoundingBox">
            <feOffset dy="1" in="SourceAlpha" result="shadowOffsetInner1"/>
            <feComposite in="shadowOffsetInner1" in2="SourceAlpha" k2="-1" k3="1" operator="arithmetic" result="shadowInnerInner1"/>
            <feColorMatrix in="shadowInnerInner1" values="0 0 0 0 0 0 0 0 0 0 0 0 0 0 0 0 0 0 0.02 0"/>
        </filter>
        <linearGradient id="A" x1="50%" x2="50%" y1="100%" y2="0%">
            <stop offset="0%" stop-color="#E0E2E3" stop-opacity="0"/>
            <stop offset="100%" stop-color="#E6E9EB"/>
        </linearGradient>
        <path id="B" d="M6.604 1.898h2.258c.072 0 .13.055.13.123a.127.127 0 0 1-.13.124H6.604a.127.127 0 0 1-.13-.124c0-.068.058-.123.13-.123z"/>
        <filter id="C" width="139.7%" height="200%" x="-19.9%" y="-50%" filterUnits="objectBoundingBox">
            <feOffset dy="1" in="SourceAlpha" result="shadowOffsetInner1"/>
            <feComposite in="shadowOffsetInner1" in2="SourceAlpha" k2="-1" k3="1" operator="arithmetic" result="shadowInnerInner1"/>
            <feColorMatrix in="shadowInnerInner1" values="0 0 0 0 0 0 0 0 0 0 0 0 0 0 0 0 0 0 0.01 0"/>
        </filter>
        <rect id="D" width="13.667" height="23.96" rx=".6"/>
        <path id="F" d="M29.692 4.86C20.922 5.22 14.918.894 14.918.894S8.913 5.22.144 4.86c0 0-2.646 24.264 14.774 29.55 17.379-5.286 14.774-29.55 14.774-29.55z"/>
        <filter id="E" width="126.8%" height="123.9%" x="-13.4%" y="-6%" filterUnits="objectBoundingBox">
            <feOffset dy="2" in="SourceAlpha" result="shadowOffsetOuter1"/>
            <feGaussianBlur in="shadowOffsetOuter1" result="shadowBlurOuter1" stdDeviation="1"/>
            <feColorMatrix in="shadowBlurOuter1" values="0 0 0 0 0 0 0 0 0 0 0 0 0 0 0 0 0 0 0.12 0"/>
        </filter>
        <filter id="G" width="200%" height="227.3%" x="-50%" y="-45.5%" filterUnits="objectBoundingBox">
            <feOffset dy="2" in="SourceAlpha" result="shadowOffsetOuter1"/>
            <feGaussianBlur in="shadowOffsetOuter1" result="shadowBlurOuter1" stdDeviation="2"/>
            <feColorMatrix in="shadowBlurOuter1" result="shadowMatrixOuter1" values="0 0 0 0 0 0 0 0 0 0 0 0 0 0 0 0 0 0 0.5 0"/>
            <feMerge>
                <feMergeNode in="shadowMatrixOuter1"/>
                <feMergeNode in="SourceGraphic"/>
            </feMerge>
        </filter>
        <linearGradient id="H" x1="49.972%" x2="49.972%" y1="-38.367%" y2="111.38%">
            <stop offset="25.95%" stop-color="#FFF" stop-opacity="0"/>
            <stop offset="55.82%" stop-color="#FFF" stop-opacity=".5"/>
            <stop offset="78.5%" stop-color="#FFF" stop-opacity="0"/>
        </linearGradient>
        <linearGradient id="I" x1="50.015%" x2="50.015%" y1="-8.524%" y2="108.999%">
            <stop offset="25.95%" stop-color="#FFF" stop-opacity="0"/>
            <stop offset="55.82%" stop-color="#FFF" stop-opacity=".5"/>
            <stop offset="78.5%" stop-color="#FFF" stop-opacity="0"/>
        </linearGradient>
        <rect id="J" width="68.64" height="10.56" rx="2"/>
    </defs>
    <g fill="none" fill-rule="evenodd">
        <g transform="translate(14.763 27.04)">
            <use fill="#000" filter="url(#b)" opacity=".1" xlink:href="#c"/>
            <use fill="#EEE" xlink:href="#d"/>
            <use fill="url(#e)" fill-opacity=".1" style="mix-blend-mode:multiply" xlink:href="#d"/>
            <path stroke="#FFF" stroke-opacity=".25" stroke-width="3.75" d="M10.83 53.97h76.762c.015-.211.022-.52.022-.973V2.847c0-.512-.458-.972-.964-.972H11.748c-.506 0-.964.46-.964.973v50.149c0 .446.018.765.046.973z"/>
            <use fill="#38454F" xlink:href="#f"/>
            <path stroke="#38454F" stroke-width="1.25" d="M12.531 6.275h73.337v42.869H12.531z"/>
            <path fill="url(#h)" d="M98.635 55.212s-3.254 1.61-11.354 1.519c-.036.09-27.28.38-37.845.38-10.723 0-37.968-.29-38.003-.38-8.1.09-11.354-1.52-11.354-1.52h98.556z"/>
            <g>
                <use fill="#F2F2F2" xlink:href="#i"/>
                <use fill="url(#j)" fill-opacity=".02" style="mix-blend-mode:multiply" xlink:href="#i"/>
                <use fill="#000" filter="url(#k)" xlink:href="#i"/>
            </g>
            <g>
                <use fill="#FAFAFA" xlink:href="#l"/>
                <use fill="url(#m)" fill-opacity=".03" style="mix-blend-mode:multiply" xlink:href="#l"/>
                <use fill="url(#n)" fill-opacity=".04" style="mix-blend-mode:multiply" xlink:href="#l"/>
                <use fill="url(#o)" fill-opacity=".3" style="mix-blend-mode:soft-light" xlink:href="#l"/>
            </g>
        </g>
        <g filter="url(#p)" transform="translate(28.22 51.854)">
            <g fill="#DDD">
                <path d="M.156 4.033c-.014 0 0 .008 0 0v1.305c0-.009-.014 0 0 0-.114 0-.156-.026-.156 0V4.033c0 .025.042 0 .156 0zM15.585 6.642h.156c-.026 0 0 .025 0 0v2.372c0-.024-.026 0 0 0h-.156c.01 0 0-.008 0 0V6.642c0 .008.01 0 0 0zM0 9.608h.156c-.008 0 0 .008 0 0v2.372c0-.008-.008 0 0 0H0c.023 0 0-.025 0 0V9.608c0 .024.023 0 0 0zM0 6.76h.156c-.008 0 0 .009 0 0v2.373c0-.008-.008 0 0 0H0c.023 0 0-.024 0 0V6.761c0 .024.023 0 0 0z"/>
            </g>
            <use fill="url(#q)" xlink:href="#r"/>
            <use fill="#000" fill-opacity=".04" style="mix-blend-mode:multiply" xlink:href="#r"/>
            <use fill="#000" filter="url(#s)" xlink:href="#r"/>
            <use fill="url(#q)" xlink:href="#t"/>
            <use fill="#FFF" fill-opacity=".8" style="mix-blend-mode:screen" xlink:href="#t"/>
            <use fill="#000" filter="url(#u)" xlink:href="#v"/>
            <use stroke="#000" stroke-opacity=".1" stroke-width=".5" xlink:href="#v"/>
            <ellipse cx="7.793" cy="29.416" fill="#E7E8E8" rx="1.199" ry="1.186"/>
            <use fill="url(#w)" xlink:href="#x"/>
            <use fill="url(#y)" fill-opacity=".3" style="mix-blend-mode:screen" xlink:href="#x"/>
            <use fill="#000" filter="url(#z)" xlink:href="#x"/>
            <path fill="#E7E8E8" d="M6.604 1.898h2.258c.072 0 .13.055.13.123a.127.127 0 0 1-.13.124H6.604a.127.127 0 0 1-.13-.124c0-.068.058-.123.13-.123z"/>
            <g>
                <use fill="url(#A)" xlink:href="#B"/>
                <use fill="#000" filter="url(#C)" xlink:href="#B"/>
            </g>
            <ellipse cx="5.4" cy="2.021" fill="#E7E8E8" rx="1" ry="1"/>
            <ellipse cx="7.798" cy=".954" fill="#E7E8E8" opacity=".4" rx="1" ry="1"/>
            <g transform="translate(.96 3.796)">
                <use fill="#37444E" xlink:href="#D"/>
            </g>
        </g>
        <g fill-rule="nonzero">
            <path fill="#D3D6D6" d="M103.563 59.395c-8.769.36-14.774-3.964-14.774-3.964s-6.004 4.324-14.774 3.964c0 0-2.645 24.264 14.774 29.549 17.38-5.285 14.774-29.55 14.774-29.55z"/>
            <g transform="translate(73.872 55.43)">
                <use fill="#000" filter="url(#E)" xlink:href="#F"/>
                <use fill="#ECF0F0" fill-rule="evenodd" xlink:href="#F"/>
            </g>
            <path fill="#F05B29" d="M88.334 87.195c-5.681-2.15-9.435-7.017-11.155-14.467-.801-3.468-.974-6.795-.977-8.975l-.002-1.09 1.087-.089a28.54 28.54 0 0 0 10.914-3.18l.553-.292.553.292a28.533 28.533 0 0 0 10.91 3.18l1.088.09-.004 1.091c-.007 2.178-.184 5.503-.987 8.971-1.726 7.45-5.475 12.318-11.142 14.469l-.419.159-.419-.159z"/>
            <path fill="#E7ECED" d="M88.733 86.097c-5.291-2.003-8.795-6.581-10.422-13.628-.764-3.307-.943-6.487-.947-8.711a29.866 29.866 0 0 0 11.37-3.313 29.867 29.867 0 0 0 11.366 3.313c-.007 2.223-.19 5.402-.956 8.708-1.633 7.048-5.133 11.628-10.41 13.63z"/>
            <path fill="#E7ECED" d="M84.837 69.287l3.85-5.589.048-3.253a29.866 29.866 0 0 1-11.37 3.313l2.126 2.62 5.346 2.91zM100.147 64.447c.005-.238.026-.47.026-.69-5.1-.42-9.197-2.112-11.346-3.312v5.651l9.124.28 2.196-1.93z"/>
            <path fill="#F05B29" d="M88.785 63.694c0-.008-.051-.017-.067-.025a24.214 24.214 0 0 1-9.205 2.679c.003 1.798.144 4.446.762 7.12.046.2.09.309.14.667h8.37v-10.44z"/>
            <path fill="#38454F" d="M97.015 74.199c.05-.358.098-.469.145-.67.62-2.673.785-5.282.791-7.08-4.088-.337-7.244-1.722-9.124-2.69v10.44h8.188zM80.409 74.145c1.372 5.283 4.173 8.792 8.302 10.354a.331.331 0 0 0 .068-.095V74.145h-8.37z"/>
            <path fill="#F05B29" d="M97.014 74.145h-8.187v10.259c4.119-1.573 6.817-4.976 8.187-10.259z"/>
        </g>
        <g fill-rule="nonzero" filter="url(#G)" transform="translate(83.268 67.807)">
            <g fill="#FFF">
                <path d="M2.855 9.51l2.362-7.44H2.675L.317 9.51z"/>
                <path d="M9.9 8.322h-.79L7.679 5.714C10.09 4.71 11.91 3.748 11.91 2.402c0-1.589-1.78-2.38-4.112-2.38H.757L.003 1.538h6.875c1.384 0 2.385.51 2.385 1.33 0 1.488-4.463 2.495-4.623 2.524l.003.006H4.64L6.89 9.504h4.036L9.9 8.322z"/>
            </g>
            <g opacity=".7">
                <path fill="url(#H)" d="M2.855 9.51l2.362-7.44H2.675L.317 9.51z"/>
                <path fill="url(#I)" d="M9.9 8.322h-.79L7.679 5.714C10.09 4.71 11.91 3.748 11.91 2.402c0-1.589-1.78-2.38-4.112-2.38H.757L.003 1.538h6.875c1.384 0 2.385.51 2.385 1.33 0 1.488-4.463 2.495-4.623 2.524l.003.006H4.64L6.89 9.504h4.036L9.9 8.322z"/>
            </g>
        </g>
        <circle cx="64" cy="64" r="60" stroke="#F16033" stroke-width="8"/>
        <g>
            <g transform="translate(30 93)">
                <use fill="#F05B29" xlink:href="#J"/>
                <rect width="67.64" height="9.56" x=".5" y=".5" stroke="#000" stroke-opacity=".12" rx="2"/>
            </g>
            <text fill="#FFF" font-family="Roboto-Black, Roboto" font-size="8" font-weight="700" transform="translate(30 93)">
                <tspan x="1.738" y="7">Authorized Dealer</tspan>
            </text>
        </g>
    </g>
</svg>
