<svg xmlns="http://www.w3.org/2000/svg" width="128" height="128" viewBox="0 0 128 128">
    <g fill="none" fill-rule="evenodd" transform="translate(4 4)">
        <circle cx="60" cy="60" r="60" stroke="#F16033" stroke-width="8"/>
        <g fill-rule="nonzero" transform="translate(24 48.48)">
            <path fill="#38454F" d="M48.36 44.519H24.032l-7.625-4.353h39.576z"/>
            <path fill="#313131" d="M2.146 38.56v9c0 .849.694 1.543 1.543 1.543h7.347c.85 0 1.544-.694 1.544-1.543v-9H2.146zM59.828 38.56v9c0 .849.694 1.543 1.543 1.543h7.347c.85 0 1.544-.694 1.544-1.543v-9H59.828z"/>
            <path fill="#38454F" d="M10.527 38.946h51.338v3.566H10.527z"/>
            <path fill="#E7ECED" stroke="#38454F" d="M71.018 18.4c-.401-.988-3.164-4.538-3.859-4.538-.694 0-3.056-.695-3.457-1.281-.401-.587-6.22-10.775-8.196-11.562-1.714-.68-19.032-.88-19.31-.88-.278 0-17.612.2-19.31.88-1.975.787-7.81 10.96-8.196 11.562-.401.586-2.763 1.28-3.457 1.28-.695 0-3.458 3.551-3.86 4.54-.4.987.788 21.04.896 22.722.093 1.682 10.018 1.512 10.28 1.188 1.003-1.28 1.682-1.28 1.682-1.28l21.98.77 21.98-.77s.68 0 1.683 1.28c.247.324 10.172.494 10.28-1.188.077-1.667 1.266-21.735.864-22.723z"/>
            <g fill="#E7ECED" stroke="#38454F">
                <path d="M9.431 13.569L7.532 9.108H1.621L.108 11.33l1.513 2.239h6.004zM62.961 13.569l1.899-4.461h5.911l1.513 2.222-1.513 2.239h-6.004z"/>
            </g>
            <path fill="#38454F" d="M36.196 22.244L6.205 20.5v2.547c0 1.28.942 2.361 2.223 2.531l27.783 3.69 27.784-3.69a2.562 2.562 0 0 0 2.223-2.531V20.5l-30.022 1.744z"/>
            <path fill="#AFB6BB" d="M61.54 11.685c-1.743-2.716-3.487-5.65-5.232-8.706a.732.732 0 0 0-.602-.386 401.52 401.52 0 0 0-39.036 0 .732.732 0 0 0-.602.386 205.899 205.899 0 0 1-5.232 8.706c-.294.463.046 1.08.602 1.127 16.778-.849 33.217-.88 49.486 0 .57-.03.91-.664.617-1.127z"/>
            <ellipse cx="10.666" cy="23.386" fill="#FFFFFC" rx="1.883" ry="1.883"/>
            <ellipse cx="15.019" cy="23.757" fill="#DEDEDF" rx="1.791" ry="1.791"/>
            <ellipse cx="8.505" cy="33.543" fill="#38454F" rx="2.732" ry="2.732"/>
            <ellipse cx="8.505" cy="33.543" fill="#FFF" rx="1.883" ry="1.883"/>
            <ellipse cx="61.726" cy="23.386" fill="#FFFFFC" rx="1.883" ry="1.883"/>
            <ellipse cx="57.373" cy="23.757" fill="#DEDEDF" rx="1.791" ry="1.791"/>
            <ellipse cx="63.887" cy="33.543" fill="#38454F" rx="2.732" ry="2.732"/>
            <ellipse cx="63.887" cy="33.543" fill="#FFF" rx="1.883" ry="1.883"/>
            <path fill="#38454F" d="M56.494 36.445c-.448-1.76-2.177-3.133-3.906-3.133h-34.22c-1.729 0-3.457 1.374-3.905 3.133l-.525 2.115h43.096l-.54-2.115zM36.196 10.76c-14.725 0-13.074 1.574-13.074 1.574l1.636 4.445 11.423.819 11.422-.819 1.636-4.445c.03.015 1.682-1.575-13.043-1.575z"/>
            <path fill="#E7ECED" d="M36.196 10.76c-.68 0-1.312 0-1.93.015v6.7l1.93.138 1.914-.139v-6.7c-.602-.015-1.235-.015-1.914-.015z"/>
        </g>
        <g transform="translate(24.96 21.6)">
            <circle cx="12.141" cy="12.141" r="12.141" fill="#F16033"/>
            <g fill="#FFF" fill-rule="nonzero">
                <path d="M10.842 13.2a2.164 2.164 0 0 0-.472-.7 3.233 3.233 0 0 0-.77-.562c.316-.266.56-.539.73-.818.169-.28.254-.614.254-1.005a1.937 1.937 0 0 0-.697-1.512 2.425 2.425 0 0 0-.815-.448A3.287 3.287 0 0 0 8.035 8c-.433 0-.826.062-1.178.185a2.711 2.711 0 0 0-.881.489 2.342 2.342 0 0 0-.54.641 1.34 1.34 0 0 0-.184.642c0 .21.065.38.196.507s.275.19.43.19a.83.83 0 0 0 .352-.07.412.412 0 0 0 .211-.193c.067-.153.14-.315.22-.487.08-.172.165-.312.255-.422a.948.948 0 0 1 .366-.263 1.5 1.5 0 0 1 .589-.1c.352 0 .63.109.838.325.207.217.31.476.31.777 0 .394-.13.697-.39.908-.259.21-.569.316-.928.316h-.24c-.278 0-.486.058-.627.173a.559.559 0 0 0-.211.454c0 .192.059.341.176.448.117.108.283.162.498.162.047 0 .152-.008.316-.024a4.28 4.28 0 0 1 .364-.023c.445 0 .792.13 1.042.39s.375.618.375 1.075c0 .308-.073.58-.22.814a1.475 1.475 0 0 1-1.257.709c-.421 0-.748-.132-.98-.396-.233-.263-.45-.666-.654-1.21a.457.457 0 0 0-.199-.23.583.583 0 0 0-.316-.098.766.766 0 0 0-.548.208.72.72 0 0 0-.22.548c0 .176.062.399.185.668a2.868 2.868 0 0 0 1.461 1.412c.372.168.791.252 1.26.252.461 0 .882-.073 1.263-.22.38-.146.71-.349.987-.609.278-.26.487-.555.63-.887.143-.332.214-.676.214-1.032 0-.296-.053-.573-.158-.829zM18.718 13.873c-.188-.085-.437-.128-.748-.128h-.26v-4.69c0-.703-.308-1.055-.922-1.055a.687.687 0 0 0-.488.19 4.889 4.889 0 0 0-.518.616l-3.212 4.297a73.84 73.84 0 0 0-.225.297c-.06.08-.119.165-.175.252-.057.086-.1.17-.128.248a.686.686 0 0 0-.042.233c0 .3.096.536.288.71.192.173.48.26.864.26h3.042v1.127c0 .303.07.533.209.688.14.156.322.234.549.234.23 0 .414-.076.551-.228.137-.151.206-.382.206-.694v-1.127h.37c.307 0 .537-.053.69-.16.154-.108.231-.278.231-.513 0-.287-.094-.472-.282-.557zm-2.524-.128h-2.606l2.606-3.52v3.52z"/>
            </g>
        </g>
        <g transform="translate(71.52 21.6)">
            <circle cx="12.141" cy="12.141" r="12.141" fill="#F16033"/>
            <g fill="#FFF" fill-rule="nonzero">
                <path d="M5.825 12.64a2.183 2.183 0 0 0-1.192-1.184c-.27-.113-.56-.17-.87-.17-.39 0-.813.12-1.273.36l.277-1.534h2.306c.24 0 .42-.05.543-.151a.49.49 0 0 0 .185-.398C5.8 9.188 5.548 9 5.044 9H2.48c-.279 0-.48.062-.602.185-.123.123-.208.32-.253.591l-.408 2.267a5.546 5.546 0 0 0-.053.322c0 .142.061.27.184.381a.609.609 0 0 0 .423.168c.145 0 .33-.083.556-.248.224-.166.397-.282.517-.348s.318-.1.597-.1c.226 0 .432.053.616.159.185.106.332.266.442.48.11.215.165.474.165.777 0 .28-.051.531-.153.752-.102.221-.247.395-.434.52-.188.127-.407.19-.656.19-.272 0-.518-.078-.738-.234a1.605 1.605 0 0 1-.524-.656c-.133-.306-.335-.459-.607-.459a.523.523 0 0 0-.395.166.504.504 0 0 0-.158.35c0 .202.075.438.226.708.15.27.406.508.767.717.36.208.83.312 1.41.312.518 0 .975-.11 1.371-.331a2.3 2.3 0 0 0 .91-.895c.21-.375.316-.792.316-1.25 0-.315-.058-.61-.175-.884zM10.962 10.358a2.614 2.614 0 0 0-.525-.744 2.093 2.093 0 0 0-.72-.458A2.546 2.546 0 0 0 8.804 9c-.508 0-.945.117-1.311.352s-.645.577-.837 1.025c-.111.27-.193.594-.245.97-.052.377-.078.8-.078 1.27 0 .364.024.702.071 1.015.047.312.121.598.222.856.199.473.494.843.887 1.11.392.268.835.402 1.33.402.43 0 .82-.1 1.172-.299.352-.199.638-.482.86-.849.175-.299.296-.632.36-.999.066-.367.098-.805.098-1.316 0-.94-.123-1.666-.37-2.179zM9.892 13.9c-.067.37-.186.655-.356.854-.169.2-.403.299-.703.299-.29 0-.519-.096-.688-.287-.17-.192-.29-.474-.361-.847-.072-.374-.108-.853-.108-1.438 0-.861.084-1.5.252-1.913.167-.414.466-.62.896-.62.299 0 .533.092.703.277.169.185.29.459.361.821.072.363.107.829.107 1.398 0 .6-.034 1.086-.102 1.456zM16.296 10.358a2.614 2.614 0 0 0-.525-.744 2.093 2.093 0 0 0-.72-.458A2.546 2.546 0 0 0 14.136 9c-.507 0-.944.117-1.31.352-.367.235-.646.577-.838 1.025-.11.27-.192.594-.244.97-.052.377-.078.8-.078 1.27 0 .364.023.702.07 1.015.048.312.122.598.223.856.198.473.494.843.886 1.11.392.268.836.402 1.33.402.43 0 .82-.1 1.172-.299.352-.199.638-.482.86-.849.175-.299.296-.632.361-.999s.098-.805.098-1.316c0-.94-.124-1.666-.371-2.179zm-1.07 3.542c-.068.37-.187.655-.356.854-.17.2-.404.299-.703.299-.29 0-.52-.096-.689-.287-.17-.192-.29-.474-.361-.847-.072-.374-.108-.853-.108-1.438 0-.861.084-1.5.252-1.913.168-.414.466-.62.896-.62.3 0 .534.092.703.277.17.185.29.459.361.821.072.363.108.829.108 1.398 0 .6-.034 1.086-.103 1.456zM22.294 11.286h-1.58v-1.58a.715.715 0 0 0-1.428 0v1.58h-1.58a.715.715 0 0 0 0 1.428h1.58v1.58a.715.715 0 0 0 1.428 0v-1.58h1.58a.715.715 0 0 0 0-1.428z"/>
            </g>
        </g>
        <path stroke="#38454F" stroke-dasharray="5" stroke-linecap="square" stroke-width="2" d="M60.68 48.687V33.6h10.37-21.13"/>
    </g>
</svg>
