<svg xmlns="http://www.w3.org/2000/svg" xmlns:xlink="http://www.w3.org/1999/xlink" width="128" height="128" viewBox="0 0 128 128">
    <defs>
        <path id="a" d="M0 22.604V.03h36.176v22.574z"/>
    </defs>
    <g fill="none" fill-rule="evenodd">
        <path fill="#AFB6BB" fill-rule="nonzero" d="M71.489 92.498H46.368c-.261 0-.363-.358-.145-.51l2.105-1.483c2.27-1.601 3.343-4.537 2.681-7.334H66.85v.003c-.662 2.798.413 5.732 2.684 7.333l2.102 1.482c.215.152.113.51-.147.51z"/>
        <path fill="#E7ECED" fill-rule="nonzero" d="M88.659 83.171H29.198a4.078 4.078 0 0 1-4.078-4.078V35.951a4.078 4.078 0 0 1 4.078-4.078h59.46a4.078 4.078 0 0 1 4.079 4.078v43.14a4.078 4.078 0 0 1-4.078 4.08z"/>
        <path fill="#38454F" fill-rule="nonzero" d="M92.737 72.645H25.12V35.918a4.078 4.078 0 0 1 4.078-4.078h59.46a4.078 4.078 0 0 1 4.079 4.078v36.727z"/>
        <text fill="#FFF" font-family="OpenSans-Bold, Open Sans" font-size="12" font-weight="bold" transform="translate(25.12 31.84)">
            <tspan x="8.855" y="19.174">5000+</tspan> <tspan x="5.042" y="33" font-size="9">Wiraniaga</tspan>
        </text>
        <path fill="#E7ECED" fill-rule="nonzero" d="M72.335 95.996H45.522a1.754 1.754 0 0 1-1.75-1.749c0-.962.788-1.749 1.75-1.749h26.813c.962 0 1.749.787 1.749 1.749 0 .962-.787 1.749-1.749 1.749z"/>
        <g>
            <g transform="matrix(-1 0 0 1 110.481 68.32)">
                <mask id="b" fill="#fff">
                    <use xlink:href="#a"/>
                </mask>
                <path fill="#F05B29" d="M32.325 8.503c-.966.277-1.967-.303-2.236-1.295-.27-.992.295-2.02 1.261-2.297.966-.276 1.967.304 2.236 1.296.27.992-.295 2.02-1.261 2.296m2.64-4.43L27.719.28a2.184 2.184 0 0 0-1.616-.166L1.118 7.264C.305 7.496-.17 8.362.056 9.196l3.327 12.26c.227.835 1.069 1.323 1.882 1.09l24.984-7.15a2.244 2.244 0 0 0 1.3-1l4.293-7.095c.685-1.132.28-2.623-.876-3.229" mask="url(#b)"/>
            </g>
            <text fill="#FEFEFE" font-family="OpenSans-ExtraBoldItalic, Open Sans" font-size="8" font-style="italic" font-weight="600" letter-spacing="-.023" transform="rotate(16 -181.652 284.644)">
                <tspan x="13.651" y="14.338">Promo</tspan>
            </text>
            <path fill="#565656" d="M71.518 68.32c1.201 0 2.493.298 3.737.862 1.538.698 2.834 1.73 3.649 2.906.89 1.285 1.117 2.603.64 3.71-.153.357-.306.617-.58.887-.291.016-.564-.038-.8-.22a2.525 2.525 0 0 1-.479-.538c.305-.195.479-.404.605-.698.369-.857-.157-1.824-.504-2.325-.673-.972-1.77-1.837-3.085-2.434-1.07-.485-2.172-.742-3.183-.742-1.337 0-2.331.457-2.66 1.222-.369.856.157 1.824.504 2.324.673.973 1.77 1.837 3.085 2.434.751.34 2.256.672 2.256.672s.94 1.479.927 1.479c-1.201 0-2.493-.299-3.737-.863-1.538-.698-2.834-1.73-3.649-2.906-.89-1.284-1.117-2.602-.64-3.71.563-1.309 1.99-2.06 3.914-2.06z"/>
        </g>
        <circle cx="64" cy="64" r="60" stroke="#F16033" stroke-width="8"/>
    </g>
</svg>
