<svg xmlns="http://www.w3.org/2000/svg" width="115" height="115" viewBox="0 0 115 115">
    <g fill="none" fill-rule="evenodd">
        <rect width="115" height="115" fill="#EE5A2A" rx="57.5"/>
        <text fill="#FFF" font-family="Roboto-Regular, Roboto" font-size="12">
            <tspan x="25.452" y="86">Berita Mobil</tspan>
        </text>
        <g fill-rule="nonzero">
            <path fill="#F1F2F2" stroke="#BCBEC0" stroke-width=".5" d="M71.19 31.63V26H36v37.302a6.342 6.342 0 0 0 6.334 6.334h30.968a6.341 6.341 0 0 0 6.334-6.334V31.631h-8.445zM42.335 65.415a2.114 2.114 0 0 1-2.111-2.112v-33.08h26.745v33.08c0 .74.129 1.45.363 2.111H42.334zm33.08-2.112a2.114 2.114 0 0 1-2.112 2.111 2.114 2.114 0 0 1-2.111-2.111V35.853h4.223v27.449z"/>
            <path fill="#FFF" d="M55.058 40.775H50.5l-.404 1.015-.07.176h.879a.158.158 0 0 1-.003-.024V41.5c0-.085.067-.154.15-.154.082 0 .15.069.15.154V41.942a.158.158 0 0 1-.003.024h1.433a.158.158 0 0 1-.002-.024V41.5c0-.085.067-.154.15-.154.082 0 .149.069.149.154V41.942a.158.158 0 0 1-.003.024h1.434a.158.158 0 0 1-.002-.024V41.5c0-.085.066-.154.149-.154.082 0 .15.069.15.154V41.942a.158.158 0 0 1-.003.024h.879l-.07-.176-.405-1.015z"/>
            <path fill="#FFF" d="M59.33 36.922a.255.255 0 0 0-.223-.16h-1.143a.255.255 0 0 0-.223.16c-.04.123-.067.227-.08.326-.502-1-1.058-2.113-1.058-2.113a.459.459 0 0 0-.347-.304 16.88 16.88 0 0 0-3.093-.29 16.89 16.89 0 0 0-3.093.29.459.459 0 0 0-.347.304s-.556 1.113-1.059 2.113a1.672 1.672 0 0 0-.08-.326.255.255 0 0 0-.222-.16h-1.143a.255.255 0 0 0-.223.16c-.116.348-.116.547 0 .896.03.09.135.159.223.159h1.14l.003.044a.603.603 0 0 0-.415.58v4c0 .16.126.29.281.29h1.418c.155 0 .282-.13.282-.29v-.703h.229l.489-1.228a.15.15 0 0 1 .138-.096h4.758a.15.15 0 0 1 .138.096l.49 1.228h.228v.703c0 .16.127.29.282.29h1.418c.155 0 .281-.13.281-.29V38.6a.603.603 0 0 0-.415-.58.482.482 0 0 0 .002-.043h1.14c.089 0 .194-.07.224-.16.116-.348.116-.547 0-.895zm-8.978-1.444s.68-.179 2.811-.179c2.13 0 2.811.179 2.811.179l1 2.499h-7.621l.999-2.5zm-1.242 4.324v-.821h1.721l.511.82H49.11zm8.106 0h-2.232l.51-.821h1.722v.82zM44.446 45.707h18.299v4.223H44.446zM44.446 52.745h18.299v4.223H44.446z"/>
        </g>
    </g>
</svg>
