<svg xmlns="http://www.w3.org/2000/svg" width="115" height="115" viewBox="0 0 115 115">
    <g fill="none" fill-rule="evenodd">
        <rect width="115" height="115" fill="#EE5A2A" rx="57.5"/>
        <text fill="#FFF" font-family="Roboto-Regular, Roboto" font-size="12">
            <tspan x="23.516" y="86">Brosur Mobil</tspan>
        </text>
        <g fill="#FFF" fill-rule="nonzero">
            <path d="M50.06 26v7.129H35V71h29.94v-7.129H80V26H50.06zm1.336 1.774l10.208 5.355H51.396v-5.355zM63.604 63.87v5.792H36.337V34.465h27.267v29.406zm15.06-1.336H64.94V33.129h-.46l-11.04-5.792h25.222v35.198z"/>
            <path d="M52.058 48.775H47.5l-.404 1.015-.07.176h.879a.158.158 0 0 1-.003-.024V49.5c0-.085.067-.154.15-.154.082 0 .15.069.15.154V49.942a.158.158 0 0 1-.003.024h1.433a.158.158 0 0 1-.002-.024V49.5c0-.085.067-.154.15-.154.082 0 .149.069.149.154V49.942a.158.158 0 0 1-.003.024h1.434a.158.158 0 0 1-.002-.024V49.5c0-.085.066-.154.149-.154.082 0 .15.069.15.154V49.942a.158.158 0 0 1-.003.024h.879l-.07-.176-.405-1.015z"/>
            <path d="M56.33 44.922a.255.255 0 0 0-.223-.16h-1.143a.255.255 0 0 0-.223.16c-.04.123-.067.227-.08.326-.502-1-1.058-2.113-1.058-2.113a.459.459 0 0 0-.347-.304 16.88 16.88 0 0 0-3.093-.29 16.89 16.89 0 0 0-3.093.29.459.459 0 0 0-.347.304s-.556 1.113-1.059 2.113a1.672 1.672 0 0 0-.08-.326.255.255 0 0 0-.222-.16h-1.143a.255.255 0 0 0-.223.16c-.116.348-.116.547 0 .896.03.09.135.159.223.159h1.14l.003.044a.603.603 0 0 0-.415.58v4c0 .16.126.29.281.29h1.418c.155 0 .282-.13.282-.29v-.703h.229l.489-1.228a.15.15 0 0 1 .138-.096h4.758a.15.15 0 0 1 .138.096l.49 1.228h.228v.703c0 .16.127.29.282.29h1.418c.155 0 .281-.13.281-.29V46.6a.603.603 0 0 0-.415-.58.482.482 0 0 0 .002-.043h1.14c.089 0 .194-.07.224-.16.116-.348.116-.547 0-.895zm-8.978-1.444s.68-.179 2.811-.179c2.13 0 2.811.179 2.811.179l1 2.499h-7.621l.999-2.5zm-1.242 4.324v-.821h1.721l.511.82H46.11zm8.106 0h-2.232l.51-.821h1.722v.82z"/>
            <path stroke="#FFF" stroke-width=".2" d="M38.077 56.385h10.769v1.154H38.077zM38.077 59.462h10.769v1.154H38.077zM38.077 62.154h10.769v1.154H38.077zM38.077 65.231h10.769v1.154H38.077zM51.154 56.385h10.769v1.154H51.154zM51.154 59.462h10.769v1.154H51.154zM51.154 62.154h10.769v1.154H51.154zM51.154 65.231h7.308v1.154h-7.308zM62.308 29.462v1.327h13.274v7.345h-9.52v1.328h10.861v-10zM67.308 41v9.615h9.615V41h-9.615zm8.292 8.267h-6.97v-6.92h6.97v6.92zM67.308 51.769h9.615v1.154h-9.615zM67.308 54.462h9.615v1.154h-9.615zM67.308 57.154h9.615v1.154h-9.615zM67.308 59.462h6.154v1.154h-6.154z"/>
        </g>
    </g>
</svg>
