<?xml version="1.0" encoding="iso-8859-1"?>
<!-- Generator: Adobe Illustrator 22.0.0, SVG Export Plug-In . SVG Version: 6.00 Build 0)  -->
<svg version="1.2" baseProfile="tiny" id="Layer_1" xmlns="http://www.w3.org/2000/svg" xmlns:xlink="http://www.w3.org/1999/xlink"
	 x="0px" y="0px" viewBox="0 50 600 600" xml:space="preserve">
<g>
	<path fill="none" d="M426.826,369.898c-5.174-15.578-12.341-30.006-21.293-43.402l17.987,43.223
		C424.623,369.781,425.723,369.835,426.826,369.898z"/>
	<path fill="#FFFFFF" d="M376.31,395.871c-6.195,5.973-10.544,13.192-13.668,21.238h56.668c3.717-6.084,5.88-13.388,3-21.238
		C407.901,392.529,392.468,392.891,376.31,395.871z"/>
	<path fill="#4D81C2" d="M316,300.64c55.358,0.108,73.123,4.614,73.123,4.614c5.999,6.775,11.472,13.854,16.41,21.242
		c8.952,13.396,16.119,27.824,21.293,43.402c-1.103-0.063-2.204-0.117-3.306-0.179c-36.089-2.014-71.937-3.114-107.52-3.206v107.465
		c25.614-0.116,51.743-1.029,78.334-2.659h6.129v18.18c0,4.156,3.367,7.527,7.527,7.527h37.887c4.16,0,7.527-3.371,7.527-7.527
		V386.02c0-7.067-4.68-13.036-11.109-14.985c0.043-0.379,0.062-0.758,0.07-1.14h30.488c2.352,0,5.168-1.797,5.965-4.114
		c1.008-2.933,1.681-5.456,2.032-7.839v-7.484c-0.351-2.385-1.024-4.91-2.032-7.845c-0.797-2.312-3.613-4.113-5.965-4.113h-30.547
		c-2.351,0-5.168,1.801-5.961,4.113c-1.093,3.18-1.792,5.875-2.113,8.438c-13.437-25.871-28.316-54.664-28.316-54.664
		c-1.461-4.09-4.996-7.086-9.266-7.856c-26.845-4.858-53.969-7.372-80.65-7.492V300.64z M419.31,417.109h-56.668
		c3.124-8.046,7.473-15.265,13.668-21.238c16.158-2.98,31.591-3.342,46,0C425.19,403.721,423.027,411.025,419.31,417.109z"/>
</g>
<g>
	<path fill="none" d="M201.142,281.898c0.382-0.024,0.766-0.044,1.148-0.068l7.945-21.882
		C206.953,267.015,203.957,274.367,201.142,281.898z"/>
	<path fill="#FFFFFF" d="M265.322,329.109c-2.956-7.986-7.565-15.035-13.668-21.238c-16.155-1.808-31.507-1.848-46,0
		c-6.705,6.494,1.119,21.244,3,21.238H265.322z"/>
	<path fill="#4D81C2" d="M307,278.517c-35.173,0.079-70.086,1.146-104.71,3.313c-0.382,0.024-0.766,0.044-1.148,0.068
		c2.815-7.531,5.81-14.883,9.093-21.949c7.534-16.219,16.6-30.917,28.61-42.695c0,0,16.698-4.236,68.155-4.592v-19.573
		c-25.069,0.393-50.495,2.886-75.682,7.442c-4.273,0.77-7.808,3.766-9.269,7.852c0,0-14.879,28.797-28.317,54.668
		c-0.32-2.563-1.019-5.258-2.109-8.438c-0.797-2.316-3.613-4.113-5.965-4.113h-30.547c-2.348,0-5.168,1.801-5.961,4.113
		c-3.094,9.004-3.094,9.16,0,18.168c0.793,2.317,3.613,4.114,5.961,4.114l30.492,5c0.004,0.382,0.028,0.761,0.071,1.14
		c-6.43,1.949-11.114,7.918-11.114,14.985V401.5c0,4.156,3.371,7.527,7.528,7.527h37.89c4.157,0,7.528-3.371,7.528-7.527v-18.18
		h6.129c23.905,1.742,48.384,2.592,73.365,2.666V278.517z M205.654,307.871c14.493-1.848,29.845-1.808,46,0
		c6.103,6.203,8.846,14.129,4.668,21.238h-47.668C206.773,329.115,198.949,314.365,205.654,307.871z"/>
</g>
<g>
	<path fill="#4D81C2" d="M379.417,217.844V198.25l-34.312,34.312l34.312,34.282v-20.072c24.5,0,41.625,7.822,53.876,24.978
		C428.417,247.25,413.699,222.75,379.417,217.844L379.417,217.844z M379.417,217.844"/>
</g>
<path fill="#4D81C2" d="M320.5,520h-12c-3.575,0-6.5-2.925-6.5-6.5v-337c0-3.575,2.925-6.5,6.5-6.5h12c3.575,0,6.5,2.925,6.5,6.5
	v337C327,517.075,324.075,520,320.5,520z"/>
<g>
	<path fill="#4D81C2" d="M249.981,477.156v19.594l34.312-34.312l-34.312-34.282v20.072c-24.5,0-41.625-7.822-53.876-24.978
		C200.981,447.75,215.699,472.25,249.981,477.156L249.981,477.156z M249.981,477.156"/>
</g>
</svg>
