<svg xmlns="http://www.w3.org/2000/svg" xmlns:xlink="http://www.w3.org/1999/xlink" width="115" height="115" viewBox="0 0 115 115">
    <defs>
        <rect id="a" width="115" height="115" rx="57.5"/>
    </defs>
    <g fill="none" fill-rule="evenodd">
        <g>
            <use fill="#FFF" xlink:href="#a"/>
            <rect width="114" height="114" x=".5" y=".5" stroke="#000" stroke-opacity=".12" rx="57"/>
        </g>
        <text fill="#000" font-family="Roboto-Light, Roboto" font-size="12" font-weight="300">
            <tspan x="25.508" y="86">Mobil Bekas</tspan>
        </text>
        <g fill-rule="nonzero">
            <g fill="#FFF" stroke="#BCBEC0" stroke-linecap="round" stroke-linejoin="round" stroke-width=".5">
                <path d="M66.353 61.58H46.935l-1.723 3.914-.298.679h3.744a.552.552 0 0 1-.01-.094v-1.698c0-.328.285-.595.636-.595.351 0 .636.267.636.595v1.698a.552.552 0 0 1-.01.094h6.108a.552.552 0 0 1-.01-.094v-1.698c0-.328.285-.595.636-.595.351 0 .636.267.636.595v1.698a.552.552 0 0 1-.01.094h6.108a.552.552 0 0 1-.01-.094v-1.698c0-.328.284-.595.636-.595.351 0 .636.267.636.595v1.698a.552.552 0 0 1-.01.094h3.744l-.298-.679-1.723-3.914z"/>
                <path d="M82.918 46.596c-.127-.345-.576-.613-.95-.613h-4.87c-.375 0-.824.268-.95.613-.175.474-.286.876-.337 1.258-2.142-3.857-4.513-8.15-4.513-8.15-.233-.61-.797-1.056-1.478-1.172a79.228 79.228 0 0 0-13.175-1.118c-4.356 0-8.79.376-13.178 1.118-.68.116-1.244.562-1.477 1.172 0 0-2.372 4.293-4.514 8.15-.05-.382-.162-.784-.336-1.258-.127-.345-.576-.614-.95-.614h-4.87c-.374 0-.823.269-.95.614-.493 1.343-.493 2.111 0 3.454.127.345.576.614.95.614h4.86c.001.056.005.113.011.17-1.025.29-1.77 1.18-1.77 2.234v15.428c0 .62.536 1.122 1.2 1.122h6.039c.662 0 1.2-.503 1.2-1.122v-2.71h.977l2.083-4.736a.638.638 0 0 1 .589-.368h20.27c.258 0 .49.145.588.368l2.084 4.735h.977v2.71c0 .62.537 1.123 1.2 1.123h6.04c.662 0 1.2-.503 1.2-1.122V53.068c0-1.054-.747-1.944-1.772-2.235.007-.056.01-.113.011-.17h4.86c.375 0 .824-.268.95-.613.494-1.343.494-2.111 0-3.454zm-38.251-5.57s2.9-.688 11.977-.688 11.977.688 11.977.688l4.256 9.638H40.41l4.257-9.638zm-5.29 16.677v-3.167h7.332l2.178 3.167h-9.51zm34.534 0H64.4l2.178-3.167h7.332v3.167z"/>
            </g>
            <path stroke="#EE5A2A" d="M76.96 37.095A3.713 3.713 0 0 0 74.319 36c-.999 0-1.938.389-2.644 1.095l-1.43 1.43a2.139 2.139 0 0 0 0 3.021l.018.018-.94.94a.305.305 0 0 0-.04.05l-.493.766-.765.493a.304.304 0 0 0-.092.091l-.492.765-.766.493a.304.304 0 0 0-.09.091l-.493.765-.766.493a.304.304 0 0 0-.09.091l-.49.76-.655.389a.305.305 0 0 0-.15.274l.07 1.728a.304.304 0 0 0 .292.292l1.729.07h.012c.08 0 .158-.032.215-.089l6.233-6.233.018.018a2.13 2.13 0 0 0 1.511.625 2.13 2.13 0 0 0 1.51-.625l1.43-1.43a3.742 3.742 0 0 0 0-5.286zM65.118 47.85a.305.305 0 0 0 .1-.098l.493-.765.766-.492a.304.304 0 0 0 .09-.092l.494-.765.765-.493a.304.304 0 0 0 .09-.09l.494-.766.765-.493a.304.304 0 0 0 .09-.09l.512-.794.917-.917.716.716-6.74 6.74-.062-.003-.05-1.266.56-.332zm.805 1.651l-.425-.017 6.343-6.343.22.221-6.138 6.14zm10.608-7.55l-1.43 1.43a1.53 1.53 0 0 1-2.16 0l-2.265-2.266a1.517 1.517 0 0 1-.447-1.08c0-.407.158-.791.447-1.08l1.43-1.43a3.108 3.108 0 0 1 2.213-.916c.835 0 1.621.325 2.212.916l.215-.215-.215.215a3.133 3.133 0 0 1 0 4.425z" opacity=".652"/>
            <path stroke="#EE5A2A" d="M75.955 38.15a2.297 2.297 0 0 0-2.528-.511.305.305 0 0 0-.098.494l2.573 2.612a.304.304 0 0 0 .496-.093 2.277 2.277 0 0 0-.443-2.501zm.013 1.794L74.13 38.08a1.685 1.685 0 0 1 1.388.496c.356.367.515.871.45 1.37z" opacity=".652"/>
        </g>
    </g>
</svg>
