<?xml version="1.0" encoding="UTF-8"?>
<svg width="115px" height="115px" viewBox="0 0 115 115" version="1.1" xmlns="http://www.w3.org/2000/svg" xmlns:xlink="http://www.w3.org/1999/xlink">
    <!-- Generator: Sketch 46.2 (44496) - http://www.bohemiancoding.com/sketch -->
    <title>Group 50 Copy 4</title>
    <desc>Created with Sketch.</desc>
    <defs></defs>
    <g id="WWW&gt;Web" stroke="none" stroke-width="1" fill="none" fill-rule="evenodd">
        <g id="Detail-Mobil-(Lainnya)-Saat-di-Hover-Iconnya" transform="translate(-825.000000, -273.000000)">
            <g id="Group-52-Copy-2" transform="translate(150.000000, 273.000000)">
                <g id="Group-50-Copy-4" transform="translate(675.000000, 0.000000)">
                    <rect id="Rectangle-28-Copy" fill="#EE5A2A" x="0" y="0" width="115" height="115" rx="57.5"></rect>
                    <text id="Mobil-Bekas" font-family="Roboto-Regular, Roboto" font-size="12" font-weight="normal" fill="#FFFFFF">
                        <tspan x="24.7636719" y="86">Mobil Bekas</tspan>
                    </text>
                    <g id="car-copy" transform="translate(30.000000, 36.000000)" fill-rule="nonzero">
                        <g id="Group-33" fill="#FFFFFF">
                            <path d="M36.3530294,25.5801707 L16.9348145,25.5801707 L15.2124376,29.4940251 L14.9137919,30.1726937 L18.6579565,30.1726937 C18.6527282,30.1420403 18.6478826,30.1112677 18.6478826,30.0793022 L18.6478826,29.4940251 L18.6478826,28.3813187 C18.6478826,28.0527191 18.9326288,27.7862611 19.2840667,27.7862611 C19.635377,27.7862611 19.9202507,28.0525998 19.9202507,28.3813187 L19.9202507,29.4940251 L19.9202507,30.0793022 C19.9202507,30.1112677 19.9154051,30.1420403 19.9101769,30.1726937 L26.0178755,30.1726937 C26.0126473,30.1420403 26.0078016,30.1112677 26.0078016,30.0793022 L26.0078016,29.4940251 L26.0078016,28.3813187 C26.0078016,28.0527191 26.2925479,27.7862611 26.6439857,27.7862611 C26.995296,27.7862611 27.2801698,28.0525998 27.2801698,28.3813187 L27.2801698,29.4940251 L27.2801698,30.0793022 C27.2801698,30.1112677 27.2753241,30.1420403 27.2700959,30.1726937 L33.3777945,30.1726937 C33.3725663,30.1420403 33.3677206,30.1112677 33.3677206,30.0793022 L33.3677206,29.4940251 L33.3677206,28.3813187 C33.3677206,28.0527191 33.6524669,27.7862611 34.0039047,27.7862611 C34.3553425,27.7862611 34.6400888,28.0525998 34.6400888,28.3813187 L34.6400888,29.4940251 L34.6400888,30.0793022 C34.6400888,30.1112677 34.6352431,30.1420403 34.6300149,30.1726937 L38.3741794,30.1726937 L38.0755338,29.4940251 L36.3530294,25.5801707 Z" id="Shape"></path>
                            <path d="M52.917661,10.5958478 C52.7909087,10.2509076 52.3419201,9.98254128 51.9671466,9.98254128 L47.0981516,9.98254128 C46.7232506,9.98254128 46.274262,10.2510269 46.1476372,10.5958478 C45.9734485,11.0700809 45.8621259,11.4721533 45.8109914,11.8538298 C43.6693375,7.99674979 41.2977698,3.70372358 41.2977698,3.70372358 C41.0645405,3.09411458 40.5012964,2.64767229 39.8203537,2.53245369 C35.4337568,1.79033136 31.0008711,1.41414141 26.6450058,1.41414141 C22.2892681,1.41414141 17.8554898,1.79033136 13.4672351,2.53245369 C12.7862925,2.64755302 12.2227933,3.09411458 11.989564,3.70360431 C11.989564,3.70360431 9.61799633,7.99674979 7.4763424,11.8537105 C7.42520794,11.4721533 7.31388529,11.0699616 7.13969659,10.5957285 C7.01307185,10.2507883 6.56408326,9.98242201 6.18930976,9.98242201 L1.32031469,9.98242201 C0.945541193,9.98242201 0.496552595,10.2509076 0.369672829,10.5957285 C-0.123436772,11.9385143 -0.12305422,12.707354 0.369800347,14.050259 C0.496552595,14.3951992 0.945541193,14.6635655 1.32031469,14.6635655 L6.18012851,14.6635655 C6.18114865,14.7203399 6.18459162,14.7768758 6.19135004,14.8334116 C5.16649307,15.1242014 4.42038905,16.0141041 4.42038905,17.0676507 L4.42038905,26.8691043 L4.42038905,27.4502069 L4.42038905,32.495613 C4.42038905,33.1154795 4.95736462,33.6179805 5.62019981,33.6179805 L11.6596767,33.6179805 C12.3223843,33.6179805 12.8596149,33.1154795 12.8596149,32.495613 L12.8596149,29.7854709 L13.8365254,29.7854709 L15.920414,25.0500578 C16.0186023,24.8270155 16.2508114,24.6815014 16.5086515,24.6815014 L36.7790649,24.6815014 C37.036905,24.6815014 37.2692416,24.8270155 37.3673024,25.0500578 L39.4510635,29.7854709 L40.4279739,29.7854709 L40.4279739,32.495613 C40.4279739,33.1154795 40.9652045,33.6179805 41.6279122,33.6179805 L47.667389,33.6179805 C48.3300967,33.6179805 48.8671998,33.1154795 48.8671998,32.495613 L48.8671998,27.4502069 L48.8671998,26.8691043 L48.8671998,17.0676507 C48.8671998,16.0141041 48.1210958,15.1242014 47.0962388,14.8334116 C47.1029972,14.7768758 47.1064402,14.7203399 47.1074603,14.6635655 L51.9672742,14.6635655 C52.3420477,14.6635655 52.7910363,14.3953185 52.917916,14.050259 C53.4108981,12.7074733 53.4106431,11.9386336 52.917661,10.5958478 Z M14.6667909,5.02599426 C14.6667909,5.02599426 17.566663,4.33754519 26.6437307,4.33754519 C35.7207984,4.33754519 38.620543,5.02599426 38.620543,5.02599426 L42.8770722,14.6636848 L10.4103892,14.6636848 L14.6667909,5.02599426 Z M9.37660598,21.7026352 L9.37660598,18.5361512 L16.7087262,18.5361512 L18.8872327,21.7026352 L9.37660598,21.7026352 Z M43.9107278,21.7026352 L34.4001011,21.7026352 L36.5786076,18.5361512 L43.9107278,18.5361512 L43.9107278,21.7026352 L43.9107278,21.7026352 Z" id="Shape"></path>
                        </g>
                        <path d="M46.9606931,1.09480934 C46.2547049,0.388821227 45.3160263,0 44.317568,0 C43.3191436,0 42.3804649,0.388821227 41.674443,1.09480934 L40.2443671,2.52491905 C39.4114108,3.35784157 39.4114108,4.71315065 40.2443671,5.54607317 L40.2624668,5.56417283 L39.3221642,6.50447538 C39.3068387,6.51980088 39.2932048,6.53671645 39.2814654,6.5549176 L38.7887149,7.32011019 L38.0235223,7.81286066 C37.9869847,7.8363733 37.9558939,7.86746411 37.9323812,7.90400174 L37.4396308,8.66919434 L36.674472,9.16194481 C36.6379344,9.18549128 36.6068436,9.21654826 36.5833309,9.25308588 L36.0905804,10.0182785 L35.3254217,10.5110289 C35.2888841,10.5345754 35.2577932,10.5656324 35.2342806,10.60217 L34.7447779,11.3623556 L34.0895027,11.7505679 C33.9932193,11.807641 33.935977,11.9129235 33.9404765,12.0247354 L34.0099995,13.7534387 C34.0163598,13.9120052 34.1434295,14.039075 34.301996,14.0454352 L36.0306993,14.1149244 C36.0347929,14.1150935 36.0388526,14.1151612 36.0429462,14.1151612 C36.1234981,14.1151612 36.2010053,14.0831908 36.2582137,14.0259823 L42.4912619,7.79296796 L42.5094292,7.81113528 C42.9259243,8.22759654 43.4729399,8.43582717 44.0199894,8.43582717 C44.5670726,8.43582717 45.1141221,8.22759654 45.5305833,7.81113528 L46.9606931,6.38102557 C48.4181045,4.92361413 48.4181045,2.55222077 46.9606931,1.09480934 Z M35.1169881,11.8495916 C35.1576531,11.82547 35.1921608,11.7922478 35.217771,11.7524963 L35.7104877,10.9873037 L36.4756802,10.4945532 C36.5122179,10.4710067 36.5433087,10.4399497 36.5668213,10.4034121 L37.0595718,9.63821952 L37.8247306,9.14546904 C37.8612682,9.12192258 37.892359,9.09086559 37.9158716,9.05432797 L38.4086221,8.28913537 L39.1737809,7.7963849 C39.2103185,7.77287226 39.2414093,7.74178145 39.2649219,7.70524383 L39.7757382,6.91203905 L40.6930018,5.99477551 L41.4088686,6.71064231 L34.6687932,13.4507515 L34.6071529,13.4482819 L34.556237,12.1818472 L35.1169881,11.8495916 Z M35.9219322,13.5011261 L35.4967087,13.4840414 L41.8395051,7.14127882 L42.0606254,7.36239911 L35.9219322,13.5011261 Z M46.5300904,5.95045672 L45.0999807,7.38056643 C44.5045189,7.97602822 43.5355614,7.97609589 42.9400319,7.38056643 L40.674936,5.11547049 C40.3864917,4.82699241 40.2275869,4.44344884 40.2275869,4.03551302 C40.2275869,3.62754338 40.3864579,3.24399981 40.674936,2.95552172 L42.1050457,1.52541201 C42.6960418,0.93441593 43.4818037,0.608960418 44.317568,0.608960418 C45.1533662,0.608960418 45.9391281,0.93441593 46.5300565,1.52541201 L46.7453917,1.31011068 L46.5300904,1.52541201 C47.7500749,2.74539655 47.7500749,4.73047219 46.5300904,5.95045672 Z" id="Shape" stroke="#FFFFFF"></path>
                        <path d="M45.9546904,2.1507467 C45.3041854,1.48011213 44.2883379,1.274385 43.4268619,1.63881398 C43.3339616,1.67812576 43.26657,1.76091054 43.2468803,1.85983278 C43.2271906,1.95875501 43.2578077,2.06106036 43.3286163,2.13291769 L45.9019815,4.74474892 C45.9597313,4.80337828 46.0380842,4.83555169 46.1188729,4.83555169 C46.1374462,4.83555169 46.1561548,4.83386013 46.1747281,4.83037553 C46.2741917,4.81180223 46.3579576,4.74501957 46.3982166,4.65215311 C46.7702576,3.79392489 46.5961626,2.81207771 45.9546904,2.1507467 Z M45.9682567,3.94430429 L44.1301097,2.07872022 C44.6360882,2.02367696 45.1544826,2.20037698 45.517626,2.57471848 C45.8740709,2.94225992 46.0326374,3.44644531 45.9682567,3.94430429 Z" id="Shape" stroke="#FFFFFF"></path>
                    </g>
                </g>
            </g>
        </g>
    </g>
</svg>