<svg xmlns="http://www.w3.org/2000/svg" width="35" height="35" viewBox="0 0 35 35">
    <g fill="none" fill-rule="nonzero">
        <path fill="#ECF4F7" d="M24.542 5.78c-.476.536-.714 1.19-.714 1.964a2.946 2.946 0 0 0 2.975 2.975 2.946 2.946 0 0 0 2.975-2.975 2.946 2.946 0 0 0-2.975-2.975c-.892 0-1.666.416-2.26 1.011zm-7.556-2.498l1.487-1.488C19.663.604 20.853.01 22.638.01h9.52a2.387 2.387 0 0 1 2.38 2.38v9.52c0 1.19-.238 2.082-.774 2.915-.297.417-.595.833-1.011 1.25L16.688 32.138l-1.606 1.607a2.37 2.37 0 0 1-3.392 0L.743 22.797c-.952-.952-.952-2.44 0-3.332L16.986 3.282z"/>
        <path fill="#FF7474" d="M24.542 5.79a3.096 3.096 0 0 1 2.261-1.012 2.946 2.946 0 0 1 2.975 2.975 2.946 2.946 0 0 1-2.975 2.975 2.946 2.946 0 0 1-2.975-2.975c0-.773.298-1.428.714-1.963zm9.282 9.044L23.293 33.338c-.655 1.13-2.142 1.547-3.273.892l-3.272-2.023 16.064-16.064c.357-.476.714-.893 1.012-1.31z"/>
        <path fill="#51565F" d="M21.356 35a2.54 2.54 0 0 1-1.305-.356l-1.365-.89c-.118-.118-.178-.296-.059-.415s.297-.178.415-.06l1.305.831c.95.593 2.255.238 2.848-.77l6.822-11.569c.06-.118.237-.178.415-.118.119.059.178.237.119.415l-6.822 11.568c-.593.89-1.483 1.364-2.373 1.364zm-7.771-.06c-.712 0-1.365-.237-1.899-.77L.771 23.254C.237 22.78 0 22.068 0 21.356s.297-1.365.771-1.898l15.78-15.78a47.493 47.493 0 0 0-5.398-.95c-2.61-.236-2.848.238-2.848.238-.06.119.534.95 3.915 2.314.178.059.238.237.178.356-.059.178-.237.237-.356.178-3.025-1.187-4.449-2.195-4.27-2.967.118-.415.592-.949 3.5-.652 1.66.119 3.677.474 5.813 1.008l1.364-1.364C19.754.534 21.06 0 22.84 0h9.492A2.658 2.658 0 0 1 35 2.67v9.491c0 1.78-.534 3.025-1.839 4.39L15.542 34.169a2.937 2.937 0 0 1-1.957.772zm3.678-31.084L1.246 19.873c-.415.415-.593.89-.593 1.483 0 .534.237 1.068.593 1.483L12.16 33.754c.83.83 2.136.83 2.907 0l17.618-17.618c1.187-1.187 1.72-2.373 1.72-3.916V2.73c0-1.127-.948-2.077-2.075-2.077h-9.492c-1.602 0-2.729.475-3.915 1.72L17.797 3.5c.178.06.356.119.593.178 2.61.712 5.042 1.542 6.822 2.373 2.61 1.246 2.788 1.898 2.67 2.313-.12.416-.594.653-1.424.712-.178 0-.297-.118-.297-.296s.119-.297.297-.297c.711-.06.89-.237.89-.297 0 0 0-.534-2.373-1.66 0 0-.06 0-.06-.06a2.603 2.603 0 0 0-.534 1.602 2.658 2.658 0 0 0 2.67 2.67 2.658 2.658 0 0 0 2.67-2.67 2.658 2.658 0 0 0-2.67-2.67c-.178 0-.297-.118-.297-.296s.119-.297.297-.297c1.78 0 3.263 1.483 3.263 3.263 0 1.78-1.483 3.262-3.263 3.262-1.78 0-3.263-1.483-3.263-3.262 0-.653.178-1.305.593-1.84-1.66-.711-3.796-1.423-6.11-2.076-.415-.118-.712-.177-1.008-.296zm-2.788 21.653c-.178 0-.297-.12-.297-.297v-8.305c0-.178.119-.297.297-.297s.296.119.296.297v8.305c0 .178-.118.297-.296.297zm-4.153-2.373a.912.912 0 0 1-.89-.89c0-.475.415-.89.89-.89.475 0 .89.415.89.89 0 .474-.415.89-.89.89zm0-1.187c-.178 0-.297.119-.297.297s.12.296.297.296c.178 0 .297-.118.297-.296s-.119-.297-.297-.297zm8.305-2.373a.912.912 0 0 1-.89-.89c0-.474.416-.89.89-.89.475 0 .89.416.89.89 0 .475-.415.89-.89.89zm0-1.186c-.178 0-.296.119-.296.296 0 .178.118.297.296.297s.297-.119.297-.297-.119-.296-.297-.296z"/>
    </g>
</svg>
