<?xml version="1.0" encoding="UTF-8"?>
<svg width="300px" height="298px" viewBox="0 0 300 298" version="1.1" xmlns="http://www.w3.org/2000/svg" xmlns:xlink="http://www.w3.org/1999/xlink">
    <!-- Generator: Sketch 46.2 (44496) - http://www.bohemiancoding.com/sketch -->
    <title>Salesman</title>
    <desc>Created with Sketch.</desc>
    <defs></defs>
    <g id="icon-material" stroke="none" stroke-width="1" fill="none" fill-rule="evenodd">
        <g id="Salesman">
            <g id="Group-3" fill="#D6E9F7" opacity="0.473064366">
                <path d="M299.464147,149.019362 C299.464147,231.0701 232.426291,297.586787 149.732673,297.586787 C67.0390551,297.586787 0.00119967529,231.0701 0.00119967529,149.019362 C0.00119967529,66.9686231 67.0390551,0.451935737 149.732673,0.451935737 C232.426291,0.451935737 299.464147,66.9686231 299.464147,149.019362" id="Fill-1"></path>
            </g>
            <g id="boss" transform="translate(60.000000, 49.000000)" fill-rule="nonzero">
                <polygon id="Shape" fill="#E6AF78" points="121 141.79982 121 118 59 118 59 141.79982 90 169"></polygon>
                <path d="M169.326115,152.722973 L126.492146,142.694277 C125.845101,142.542876 125.250212,142.28573 124.693362,141.973955 L90.0003921,162.111341 L56.6603342,141 C55.7972157,141.808508 54.7258665,142.409426 53.5090303,142.694667 L10.6750615,152.723363 C4.42029585,154.187808 0,159.741227 0,166.13476 L0,193.111295 C0,196.916198 3.09954032,200 6.92298643,200 L173.077014,200 C176.900852,200 180,196.915808 180,193.111295 L180,166.13476 C180.000784,159.740837 175.580488,154.187028 169.326115,152.722973 Z" id="Shape" fill="#EFF2FA"></path>
                <path d="M59,118.000393 L59,143.652966 C98.0516339,157.840912 121,122.331894 121,122.331894 L121,118 L59,118 L59,118.000393 Z" id="Shape" fill="#D29B6E"></path>
                <path d="M45,38 L48.0164049,104.414938 C48.2979674,110.619311 51.3379011,116.373143 56.3024989,120.099535 L70.6151282,130.842689 C74.210344,133.54084 78.5827978,135 83.0768175,135 L96.9231825,135 C101.417202,135 105.789656,133.541232 109.384872,130.842689 L123.697501,120.099535 C128.662099,116.37275 131.702033,110.619704 131.983595,104.414938 L135,38 C134.999608,38 45,38 45,38 Z" id="Shape" fill="#F0C087"></path>
                <path d="M79.5423336,51.8573111 C93.3593453,51.8573111 114.084276,48.3930814 119,38 L45,38 L48.0100103,104.414938 C48.2909759,110.619311 51.3244652,116.37275 56.2789297,120.099535 L70.5612173,130.842689 C74.1488115,133.54084 78.511996,135 82.9964887,135 L89.9047989,135 C82.9964887,135 69.179477,121.142689 69.179477,103.821541 C69.179477,95.3499353 69.179477,72.6430814 69.179477,62.25 C69.179477,58.7857704 72.6336321,51.8573111 79.5423336,51.8573111 Z" id="Shape" fill="#E6AF78"></path>
                <g id="Group" transform="translate(0.000000, 158.000000)" fill="#E4EAF6">
                    <path d="M25.5521739,20.2154727 L3.16995652,0.129781818 C1.29443478,2.50220909 0.194869565,5.48758182 0.194869565,8.68365455 L0.194869565,35.7087636 C0.194869565,39.5205182 3.28773913,42.6098727 7.10295652,42.6098727 L31.2816522,42.6098727 L31.2816522,33.0505818 C31.2812609,28.1536636 29.1983478,23.4873818 25.5521739,20.2154727 Z" id="Shape"></path>
                    <path d="M154.449783,20.2154727 L176.832,0.129781818 C178.707522,2.50220909 179.807087,5.48758182 179.807087,8.68365455 L179.807087,35.7087636 C179.807087,39.5205182 176.714217,42.6098727 172.899,42.6098727 L148.720304,42.6098727 L148.720304,33.0505818 C148.720304,28.1536636 150.803217,23.4873818 154.449783,20.2154727 Z" id="Shape"></path>
                </g>
                <polygon id="Shape" fill="#5B5D6E" points="99 200 81 200 83.25 169 96.75 169"></polygon>
                <path d="M99,163 L81,163 L81,169.273318 C81,171.331697 82.8017945,173 85.0248777,173 L94.9747145,173 C97.1977977,173 98.9995922,171.331697 98.9995922,169.273318 L98.9995922,163 L99,163 Z" id="Shape" fill="#515262"></path>
                <g id="Group" transform="translate(48.000000, 133.000000)" fill="#E4EAF6">
                    <path d="M9.91262736,0.898464286 L41.5011745,29.4257857 C41.5011745,29.4257857 32.6546274,33.9071071 21.7377783,42.9392857 C19.485816,44.8022143 16.0792925,44.0475357 14.8714858,41.3812143 L0.0305377358,8.61928571 L4.72551887,1.55296429 C5.89378302,-0.207035714 8.34619811,-0.515821429 9.91262736,0.898464286 Z" id="Shape"></path>
                    <path d="M73.0893302,0.898464286 L41.500783,29.4257857 C41.500783,29.4257857 50.3473302,33.9071071 61.2641792,42.9392857 C63.5161415,44.8022143 66.9226651,44.0475357 68.1304717,41.3812143 L82.9714198,8.61928571 L78.2764387,1.55296429 C77.107783,-0.207035714 74.6553679,-0.515821429 73.0893302,0.898464286 Z" id="Shape"></path>
                </g>
                <path d="M111,15.1479308 L114.318021,38.053566 C129.464637,41.0127328 131.647514,64.2324981 131.961874,70.8644785 C132.018811,72.0681211 132.412162,73.2302452 133.080578,74.2427464 L138.859749,83 C138.859749,83 136.881767,68.5218211 145.938461,58.7978932 C145.938862,58.7978932 149.04878,1.31798763 111,15.1479308 Z" id="Shape" fill="#785550"></path>
                <path d="M141.787661,82.0078027 L137.974642,97.8128921 C137.522743,99.6863786 135.898814,101 134.03497,101 L134.03497,101 C131.986692,101 130.25945,99.4199272 130.005376,97.3140887 L128.055054,81.1485761 C127.533132,76.8215161 130.788642,73 134.996929,73 L134.999991,73 C139.551889,73.0003965 142.891581,77.4321339 141.787661,82.0078027 Z" id="Shape" fill="#F0C087"></path>
                <path d="M49.0327198,8.94334046 L54.156243,12.4372222 C30.9909017,29.5105868 35.3205456,58.7947135 35.3205456,58.7947135 C42.2484468,65.7103978 42.2484468,83 42.2484468,83 L49.176348,76.0843158 C49.176348,76.0843158 46.5027448,56.1066301 59.5681998,48.4211872 C71.6922231,41.2892655 82.3006944,44.9633451 93.1257853,44.9633451 C122.136715,44.9633451 130.255631,34.049225 128.848389,20.7580587 C128.120045,13.8807645 117.586527,-0.444973106 90.74454,0.0106143377 C79.911993,0.194337907 59.5689846,3.46845644 49.0327198,8.94334046 Z" id="Shape" fill="#694B4B"></path>
                <path d="M47.0767817,41.2646936 C47.0767817,41.2646936 43.3762764,26.9000994 54.2599995,12 C30.9691871,28.937195 35.3222818,57.9877643 35.3222818,57.9877643 C42.2877068,64.8482921 42.2877068,82 42.2877068,82 L49.2531317,75.1394723 C49.2531317,75.1394723 46.5650474,55.3211199 59.7012692,47.6969727 C71.8909602,40.6219321 82.5568905,44.2667089 93.4406136,44.2667089 C98.184315,44.2667089 102.318039,43.9538775 106,43.4175952 C83.5373527,44.1590638 70.2957855,27.4002409 47.0767817,41.2646936 Z" id="Shape" fill="#5A4146"></path>
                <path d="M38.2123389,82.0078027 L42.0253575,97.8128921 C42.4772567,99.6863786 44.1011855,101 45.9650304,101 L45.9650304,101 C48.0133082,101 49.7405502,99.4199272 49.9946239,97.3140887 L51.9449456,81.1485761 C52.4668681,76.8215161 49.2113576,73 45.0030706,73 L45.0000095,73 C40.4481109,73.0003965 37.1084192,77.4321339 38.2123389,82.0078027 Z" id="Shape" fill="#E6AF78"></path>
                <path d="M134.555599,194 L110.444401,194 C108.542118,194 107,195.56701 107,197.5 L107,201 L138,201 L138,197.5 C138,195.567407 136.457492,194 134.555599,194 Z" id="Shape" fill="#E4EAF6"></path>
            </g>
        </g>
    </g>
</svg>