<svg xmlns="http://www.w3.org/2000/svg" xmlns:xlink="http://www.w3.org/1999/xlink" width="115" height="115" viewBox="0 0 115 115">
    <defs>
        <rect id="a" width="115" height="115" rx="57.5"/>
    </defs>
    <g fill="none" fill-rule="evenodd">
        <g>
            <use fill="#FFF" xlink:href="#a"/>
            <rect width="114" height="114" x=".5" y=".5" stroke="#000" stroke-opacity=".12" rx="57"/>
        </g>
        <path fill="#F1F2F2" fill-rule="nonzero" stroke="#BCBEC0" stroke-width=".3" d="M76.183 65.964L74.68 54.098c-.654-3.501-11.042-6.095-11.042-6.095l-3.528 8.364-2.94 6.874-2.94-6.874-3.529-8.364s-10.454 2.594-11.042 6.095l-1.502 11.866c-.131 1.167.718 2.205 1.894 2.4 1.634.258 9.409 1.36 17.184 1.36s15.55-1.102 17.183-1.36c1.046-.195 1.83-1.233 1.765-2.4z"/>
        <path fill="#EE5A2A" fill-rule="nonzero" d="M59.391 54.422l-1.503-4.992 1.634-1.557-.654.26a4.912 4.912 0 0 1-3.593 0l-.654-.26 1.634 1.557-1.503 4.992 2.287 5.382 2.352-5.382z" opacity=".648"/>
        <path fill="#F1F2F2" stroke="#BCBEC0" stroke-width=".3" d="M65.663 35.035c-.196-.195-.522-.13-.653.13 0 0 .784-4.02.196-5.771-1.372-4.345-12.61-5.642-12.61-2.918-4.835 1.297-3.92 5.511-3.267 8.753 0 0-.327-.389-.784 0-.457.52.065 1.751.261 2.335.131.453.262.778.392.972v.13c0 .389.196.778.458.778 1.11 3.955 4.508 7.262 7.579 7.262 2.744 0 6.207-3.307 7.252-7.262.262 0 .458-.389.458-.778v-.13c.196-.194.261-.519.457-1.037.196-.454.784-2.075.261-2.464z"/>
        <text fill="#000" font-family="Roboto-Light, Roboto" font-size="12" font-weight="300">
            <tspan x="16.883" y="86">Sales Autorized </tspan> <tspan x="40.795" y="100">Dealer</tspan>
        </text>
    </g>
</svg>
