<svg xmlns="http://www.w3.org/2000/svg" width="115" height="115" viewBox="0 0 115 115">
    <g fill="none" fill-rule="evenodd">
        <rect width="115" height="115" fill="#EE5A2A" rx="57.5"/>
        <text fill="#FFF" font-family="Roboto-Regular, Roboto" font-size="12">
            <tspan x="22.042" y="86">Biaya Service</tspan>
        </text>
        <path fill="#F1F2F2" fill-rule="nonzero" d="M79.716 45.682c-.069-.616-.788-1.08-1.41-1.08-2.009 0-3.792-1.179-4.54-3.004a4.885 4.885 0 0 1 1.227-5.422 1.219 1.219 0 0 0 .133-1.654 21.707 21.707 0 0 0-3.473-3.508c-.5-.4-1.234-.345-1.667.135-1.307 1.447-3.655 1.985-5.469 1.228a4.87 4.87 0 0 1-2.961-4.76 1.217 1.217 0 0 0-1.077-1.282 21.882 21.882 0 0 0-4.933-.012 1.22 1.22 0 0 0-1.086 1.255c.072 2.033-1.133 3.912-3.002 4.678-1.793.732-4.124.198-5.428-1.237a1.222 1.222 0 0 0-1.655-.138 21.798 21.798 0 0 0-3.547 3.507 1.22 1.22 0 0 0 .13 1.666 4.86 4.86 0 0 1 1.227 5.471c-.757 1.803-2.629 2.964-4.771 2.964-.696-.022-1.19.445-1.267 1.077a21.98 21.98 0 0 0-.01 4.986c.07.619.81 1.079 1.438 1.079 1.91-.049 3.743 1.133 4.513 3.004.766 1.87.272 4.048-1.227 5.423a1.217 1.217 0 0 0-.133 1.651 21.784 21.784 0 0 0 3.468 3.51 1.22 1.22 0 0 0 1.67-.132c1.312-1.451 3.659-1.988 5.466-1.23a4.864 4.864 0 0 1 2.967 4.76 1.217 1.217 0 0 0 1.076 1.28 21.733 21.733 0 0 0 4.933.014 1.22 1.22 0 0 0 1.085-1.256c-.073-2.032 1.134-3.912 3-4.676 1.805-.737 4.126-.197 5.431 1.235.433.472 1.15.53 1.655.139a21.826 21.826 0 0 0 3.547-3.508 1.218 1.218 0 0 0-.13-1.666 4.858 4.858 0 0 1-1.23-5.47c.746-1.778 2.548-2.972 4.486-2.972l.271.007c.63.051 1.208-.434 1.284-1.076.194-1.648.196-3.325.01-4.986zm-26.65 5.352a7.78 7.78 0 1 1 6.678-3.79l-3.406-3.407a4.757 4.757 0 0 0 .377-1.862 4.737 4.737 0 0 0-1.397-3.372 4.738 4.738 0 0 0-3.372-1.397c-.425 0-.849.057-1.258.168a.54.54 0 0 0-.373.376.527.527 0 0 0 .15.516s1.681 1.695 2.244 2.257c.059.06.058.2.05.25l-.005.037c-.057.62-.166 1.362-.256 1.647l-.036.034-.038.039c-.289.093-1.043.203-1.671.26v-.004l-.028.007a.36.36 0 0 1-.285-.108c-.586-.586-2.202-2.19-2.202-2.19a.55.55 0 0 0-.393-.175.534.534 0 0 0-.503.406 4.785 4.785 0 0 0 1.231 4.621c.901.9 2.099 1.397 3.373 1.397.65 0 1.28-.13 1.862-.377l3.443 3.443a7.74 7.74 0 0 1-4.186 1.224z"/>
        <text fill="#EE5A2A" fill-opacity=".65" font-family="Roboto-Bold, Roboto" font-size="11" font-weight="bold" transform="translate(36 26)">
            <tspan x="21.394" y="32">Rp</tspan>
        </text>
    </g>
</svg>
