<?xml version="1.0" encoding="UTF-8"?>
<svg width="53px" height="58px" viewBox="0 0 53 58" version="1.1" xmlns="http://www.w3.org/2000/svg" xmlns:xlink="http://www.w3.org/1999/xlink">
    <!-- Generator: sketchtool 47.1 (45422) - http://www.bohemiancoding.com/sketch -->
    <title>7553EAB1-3637-4042-B1C1-C3DE7E8C7C41</title>
    <desc>Created with sketchtool.</desc>
    <defs>
        <filter x="-7.5%" y="-3.4%" width="115.1%" height="113.8%" filterUnits="objectBoundingBox" id="filter-1">
            <feOffset dx="0" dy="2" in="SourceAlpha" result="shadowOffsetOuter1"></feOffset>
            <feGaussianBlur stdDeviation="1" in="shadowOffsetOuter1" result="shadowBlurOuter1"></feGaussianBlur>
            <feColorMatrix values="0 0 0 0 0   0 0 0 0 0   0 0 0 0 0  0 0 0 0.12 0" type="matrix" in="shadowBlurOuter1" result="shadowMatrixOuter1"></feColorMatrix>
            <feMerge>
                <feMergeNode in="shadowMatrixOuter1"></feMergeNode>
                <feMergeNode in="SourceGraphic"></feMergeNode>
            </feMerge>
        </filter>
    </defs>
    <g id="WWW&gt;Web" stroke="none" stroke-width="1" fill="none" fill-rule="evenodd">
        <g id="Home-(Merek)" transform="translate(-934.000000, -5337.000000)" fill-rule="nonzero">
            <g id="Group-50" transform="translate(0.000000, 594.000000)">
                <g id="Group-32" transform="translate(0.000000, 1455.000000)">
                    <g id="Group-50-Copy" transform="translate(0.000000, 3099.000000)">
                        <g id="Group-47" transform="translate(934.000000, 189.000000)">
                            <g id="customer-service" filter="url(#filter-1)">
                                <path d="M19.0612088,7.54581432 C11.8557077,7.54581432 6.01436195,13.4415304 6.01436195,20.7143556 L6.01436195,44.0124116 L32.107942,44.0124116 L32.107942,20.7142409 C32.1080557,13.4415304 26.26671,7.54581432 19.0612088,7.54581432 Z" id="Shape" fill="#313131"></path>
                                <path d="M50.895386,14.3570266 C50.895386,6.44046235 44.5143613,0 36.6710369,0 C31.4302837,0 26.6290261,2.89536189 24.1409413,7.55607728 C23.9545887,7.9050983 24.0838995,8.34048006 24.4296951,8.52848951 C24.7754102,8.71658029 25.206849,8.58606334 25.3932016,8.23704233 C27.6327357,4.04179672 31.9541334,1.4356864 36.6710369,1.4356864 C43.7300369,1.4356864 49.4729672,7.23218383 49.4729672,14.3570266 C49.4729672,21.4818694 43.7300369,27.2783668 36.6710369,27.2783668 C36.5347167,27.2783668 36.3982354,27.2754394 36.2616736,27.2711295 L37.1740197,26.3502734 C37.4518163,26.069967 37.4518163,25.6154752 37.1740197,25.3351688 C36.8963036,25.0547809 36.4460119,25.0547809 36.1682959,25.3351688 L34.0346274,27.488739 C33.7568307,27.7690455 33.7568307,28.2235372 34.0346274,28.5038437 L36.1682959,30.657414 C36.3071942,30.7976079 36.4891155,30.8676235 36.671198,30.8676235 C36.8532805,30.8676235 37.0352825,30.7975265 37.1741002,30.657414 C37.4518969,30.3771075 37.4518969,29.9226158 37.1741002,29.6423093 L36.2477354,28.7073851 C36.3888896,28.711451 36.530205,28.7141346 36.6711175,28.7141346 C44.5143613,28.7139719 50.895386,22.2735096 50.895386,14.3570266 Z" id="Shape" fill="#F97C55"></path>
                                <g id="Group-Copy" transform="translate(36.447796, 7.573469)" fill="#F97C55">
                                    <path d="M1.04514385,9.38329854 L1.04514385,9.38329854 C0.481132251,9.38329854 0.0239883991,8.92177594 0.0239883991,8.35261827 L0.0239883991,1.13739734 C0.0239883991,0.568124922 0.48124594,0.106717063 1.04514385,0.106717063 L1.04514385,0.106717063 C1.60915545,0.106717063 2.0662993,0.568239671 2.0662993,1.13739734 L2.0662993,8.35250352 C2.0662993,8.92177594 1.60904176,9.38329854 1.04514385,9.38329854 Z" id="Shape"></path>
                                    <path d="M1.04514385,13.5062491 L1.04514385,13.5062491 C0.481132251,13.5062491 0.0239883991,13.0447265 0.0239883991,12.4755689 L0.0239883991,12.4755689 C0.0239883991,11.9062965 0.48124594,11.4448886 1.04514385,11.4448886 L1.04514385,11.4448886 C1.60915545,11.4448886 2.0662993,11.9064112 2.0662993,12.4755689 L2.0662993,12.4755689 C2.0662993,13.0447265 1.60904176,13.5062491 1.04514385,13.5062491 Z" id="Shape"></path>
                                </g>
                                <path d="M34.2696265,44.2461564 L25.3143364,40.4799621 C24.5663759,40.1654336 24.0791044,39.4277089 24.0791044,38.6097743 L24.0791044,36.0353686 L14.0430858,36.0353686 L14.0430858,38.609889 C14.0430858,39.4277089 13.5558144,40.1654336 12.8078538,40.4800768 L3.85256381,44.2462712 C2.73090719,44.7178917 2,45.8244214 2,47.0512087 L2,51.1030146 C2,52.2219372 2.8987123,53.1290323 4.00718097,53.1290323 L34.1152367,53.1290323 C35.2237053,53.1290323 36.1224176,52.2219372 36.1224176,51.1031293 L36.1224176,47.0513234 C36.1224176,45.8244214 35.3915104,44.7178917 34.2696265,44.2461564 Z" id="Shape" fill="#E6AF78"></path>
                                <path d="M34.2696265,44.2461564 L27.0339977,41.2032284 C25.5146566,44.0793106 22.5157657,46.0383146 19.0610951,46.0383146 C15.6064246,46.0383146 12.6075336,44.0791958 11.0881926,41.2032284 L3.85256381,44.2461564 C2.73090719,44.7178917 2,45.8244214 2,47.0512087 L2,51.1030146 C2,52.2219372 2.8987123,53.1290323 4.00718097,53.1290323 L34.1152367,53.1290323 C35.2237053,53.1290323 36.1224176,52.2219372 36.1224176,51.1031293 L36.1224176,47.0513234 C36.1224176,45.8244214 35.3915104,44.7178917 34.2696265,44.2461564 Z" id="Shape" fill="#E4EAF6"></path>
                                <g id="Group" transform="translate(2.000000, 41.883578)" fill="#F16033">
                                    <path d="M1.85279118,2.36257807 C0.730907193,2.83431338 0,3.9408431 0,5.16763032 L0,9.21943622 C0,10.3383589 0.898712297,11.2454539 2.00718097,11.2454539 L12.0431995,11.2454539 C9.03237123,6.18063917 7.23471926,0.0993730927 7.23471926,0.0993730927 L1.85279118,2.36257807 Z" id="Shape"></path>
                                    <path d="M32.2696265,2.36257807 C33.3915104,2.83431338 34.1224176,3.9408431 34.1224176,5.16774507 L34.1224176,9.21955096 C34.1224176,10.3383589 33.2237053,11.2454539 32.1152367,11.2454539 L22.0792181,11.2454539 C25.0900464,6.18075392 26.8876984,0.0993730927 26.8876984,0.0993730927 L32.2696265,2.36257807 Z" id="Shape"></path>
                                </g>
                                <path d="M6.8917007,48.1647381 L2.8632413,44.9306374 C2.32355916,45.4877463 2,46.241077 2,47.0512087 L2,51.1030146 C2,52.2219372 2.8987123,53.1290323 4.00718097,53.1290323 L8.02154292,53.1290323 L8.02154292,50.5377584 C8.02165661,49.6145984 7.60589559,48.7414692 6.8917007,48.1647381 Z" id="Shape" fill="#F16033"></path>
                                <path d="M18.3534942,18.4137423 C16.117116,20.7756319 13.2178167,22.4840229 9.96062413,23.2630574 C9.46630394,23.3813642 9.12341763,23.8319856 9.16946172,24.342621 L9.83647564,31.7485556 C9.9567587,33.0837812 10.7237053,34.2724715 11.8848121,34.9235604 L17.1115545,37.8542634 C18.3240487,38.5340396 19.7981415,38.5340396 21.0106357,37.8542634 L26.2373782,34.9235604 C27.3985986,34.2724715 28.1654316,33.0837812 28.2857146,31.7485556 L28.9527285,24.342621 C28.9987726,23.8319856 28.6557726,23.3813642 28.1615661,23.2630574 C24.9043735,22.4839081 22.0050742,20.7756319 19.7686961,18.4137423 C19.3861323,18.0097092 18.7362854,18.0097092 18.3534942,18.4137423 Z" id="Shape" fill="#F0C087"></path>
                                <path d="M27.0341114,41.2032284 C25.5147703,44.0793106 22.5158794,46.0383146 19.0612088,46.0383146 C15.6065383,46.0383146 12.6076473,44.0791958 11.0883063,41.2032284 L9.23460557,41.9828367 C11.0621578,45.5898734 14.7716056,48.0642175 19.0610951,48.0642175 C23.3505847,48.0642175 27.0600325,45.5897587 28.8875847,41.9828367 L27.0341114,41.2032284 Z" id="Shape" fill="#D7DEED"></path>
                                <path d="M29.0226473,29.6687204 C28.9727378,29.8408447 27.7152227,33.8827821 20.0647425,33.8827821 L20.0647425,35.9086851 C29.3480255,35.9086851 30.8976079,30.434444 30.9593411,30.2009287 L29.0226473,29.6687204 Z" id="Shape" fill="#464655"></path>
                                <ellipse id="Oval" fill="#5B5D6E" cx="20.0648561" cy="34.8956762" rx="1.00364733" ry="1.01300885"></ellipse>
                                <g id="Group" transform="translate(7.002320, 24.671149)" fill="#707487">
                                    <path d="M23.0984408,0.0950126106 L21.9123225,0.0950126106 L21.3649095,6.1728362 L23.0985545,6.1728362 C23.6527889,6.1728362 24.1022019,5.71923131 24.1022019,5.15982735 L24.1022019,1.10802146 C24.1020882,0.548502752 23.6526752,0.0950126106 23.0984408,0.0950126106 Z" id="Shape"></path>
                                    <path d="M2.20545476,0.0950126106 L1.01933643,0.0950126106 C0.465102088,0.0950126106 0.0156890951,0.548617502 0.0156890951,1.10802146 L0.0156890951,5.15982735 C0.0156890951,5.71923131 0.465102088,6.1728362 1.01933643,6.1728362 L2.75275406,6.1728362 L2.20545476,0.0950126106 Z" id="Shape"></path>
                                </g>
                                <g id="Group" transform="translate(7.716667, 41.727273)">
                                    <path d="M0.07412529,0.806115446 C1.00182831,3.53979349 2.49411137,7.60628733 4.32859861,11.474953 L6.55917865,11.474953 C4.5674594,7.42693381 2.91623898,2.91716254 1.93441995,0.0236384031 L0.07412529,0.806115446 Z" id="Shape" fill="#F97C55"></path>
                                    <path d="M23.2051949,6.51065882 L27.2335406,3.27655807 C27.7732227,3.83366704 28.0967819,4.5869977 28.0967819,5.39724413 L28.0967819,9.44905002 C28.0967819,10.5678579 27.1980696,11.474953 26.0896009,11.474953 L22.075239,11.474953 L22.075239,8.88367909 C22.075239,7.96051912 22.491,7.08738995 23.2051949,6.51065882 Z" id="Shape" fill="#F16033"></path>
                                    <path d="M21.9972483,0.806115446 C21.0695452,3.53979349 19.5772622,7.60628733 17.7427749,11.474953 L15.5121949,11.474953 C17.5039142,7.42693381 19.1551346,2.91716254 20.1369536,0.0236384031 L21.9972483,0.806115446 Z" id="Shape" fill="#F97C55"></path>
                                </g>
                                <g id="Group" transform="translate(15.000000, 47.000000)" fill="#ED5B29">
                                    <g id="Shape">
                                        <g transform="translate(0.633767, 0.449367)">
                                            <polygon points="1.42764287 5.29534343 2.60845028 1.15217758 1.33758128 1.15217758 0.158441673 5.29534343"></polygon>
                                            <path d="M4.95005143,4.63387487 L4.55478115,4.63387487 L3.83929191,3.18151999 C5.04511644,2.62250715 5.95573911,2.08686141 5.95573911,1.33731688 C5.95573911,0.452962167 5.06513012,0.0125822824 3.89933297,0.0125822824 L0.378592209,0.0125822824 L0.00166780709,0.855595205 L3.43901821,0.855595205 C4.13115815,0.855595205 4.63150028,1.13959529 4.63150028,1.5961524 C4.63150028,2.42478557 2.3999744,2.98559587 2.31991966,3.00177309 L2.32158746,3.00536803 L2.31991966,3.00536803 L3.44568944,5.2917485 L5.46373602,5.2917485 L4.95005143,4.63387487 Z"></path>
                                        </g>
                                    </g>
                                </g>
                            </g>
                        </g>
                    </g>
                </g>
            </g>
        </g>
    </g>
</svg>