<svg xmlns="http://www.w3.org/2000/svg" width="35" height="35" viewBox="0 0 35 35">
    <g fill="none" fill-rule="evenodd">
        <path fill="#DC4E41" d="M0 17.213C0 7.707 7.718 0 17.238 0s17.238 7.707 17.238 17.213c0 9.507-7.718 17.213-17.238 17.213S0 26.72 0 17.213z"/>
        <path fill="#FFF" d="M14.083 16.721v1.87h3.107c-.126.801-.94 2.35-3.107 2.35-1.87 0-3.395-1.541-3.395-3.441s1.525-3.442 3.395-3.442c1.065 0 1.777.452 2.183.841l1.487-1.425c-.955-.888-2.19-1.425-3.67-1.425-3.027 0-5.476 2.437-5.476 5.451s2.449 5.45 5.476 5.45c3.161 0 5.258-2.21 5.258-5.325 0-.359-.039-.631-.086-.904h-5.172zM25.82 16.721h-1.565v-1.557H22.69v1.557h-1.565v1.558h1.565v1.557h1.565V18.28h1.565"/>
    </g>
</svg>
