<svg xmlns="http://www.w3.org/2000/svg" xmlns:xlink="http://www.w3.org/1999/xlink" width="35" height="35" viewBox="0 0 35 35">
    <defs>
        <path id="a" d="M0 17.5C0 7.835 7.835 0 17.5 0S35 7.835 35 17.5 27.165 35 17.5 35 0 27.165 0 17.5z"/>
        <linearGradient id="c" x1="66.814%" x2="98.343%" y1="-10.507%" y2="111.451%">
            <stop offset="0%" stop-color="#4E60D3"/>
            <stop offset="14.276%" stop-color="#913BAF"/>
            <stop offset="76.146%" stop-color="#D52D88"/>
            <stop offset="100%" stop-color="#F26D4F"/>
        </linearGradient>
        <radialGradient id="d" cx="30.274%" cy="100%" r="93.395%" fx="30.274%" fy="100%" gradientTransform="matrix(.64519 .40567 -.20608 .65779 .313 .22)">
            <stop offset="0%" stop-color="#FED276"/>
            <stop offset="17.024%" stop-color="#FDBD61" stop-opacity=".975"/>
            <stop offset="45.408%" stop-color="#F6804D"/>
            <stop offset="100%" stop-color="#E83D5C" stop-opacity="0"/>
        </radialGradient>
    </defs>
    <g fill="none" fill-rule="evenodd">
        <mask id="b" fill="#fff">
            <use xlink:href="#a"/>
        </mask>
        <use fill="#517FA4" xlink:href="#a"/>
        <g mask="url(#b)">
            <path fill="url(#c)" d="M26.66 0C31.72 0 35 3.281 35 8.34v18.32C35 31.72 31.719 35 26.66 35H8.34C3.28 35 0 31.719 0 26.66V8.34C0 3.28 3.281 0 8.34 0h18.32z"/>
            <path fill="url(#d)" d="M35 28.873C34.117 32.66 31.113 35 26.864 35H8.404C3.306 35 0 31.631 0 26.437v-14.84a31.25 31.25 0 0 1 8.99-1.303c13.233 0 24.183 8.074 26.01 18.579z"/>
        </g>
        <path fill="#FFF" d="M17.334 8c-2.535 0-2.853.011-3.848.056-.994.046-1.672.203-2.266.434a4.57 4.57 0 0 0-1.653 1.076A4.582 4.582 0 0 0 8.49 11.22c-.232.594-.39 1.273-.434 2.266C8.012 14.48 8 14.799 8 17.333c0 2.535.011 2.852.056 3.848.046.994.203 1.672.434 2.265A4.573 4.573 0 0 0 9.566 25.1a4.57 4.57 0 0 0 1.653 1.077c.594.23 1.273.388 2.266.433.996.046 1.313.057 3.848.057s2.852-.011 3.848-.057c.993-.045 1.672-.202 2.266-.433A4.567 4.567 0 0 0 25.1 25.1c.52-.52.838-1.04 1.078-1.654.23-.593.387-1.272.433-2.265.045-.995.057-1.313.057-3.848 0-2.534-.012-2.852-.057-3.848-.046-.994-.204-1.672-.433-2.265a4.58 4.58 0 0 0-1.078-1.654 4.562 4.562 0 0 0-1.652-1.076c-.595-.23-1.274-.388-2.268-.434C20.184 8.011 19.867 8 17.331 8h.003zm-.837 1.682h.837c2.492 0 2.788.009 3.772.054.91.041 1.404.193 1.733.321.435.17.746.371 1.072.698.327.327.53.638.699 1.073.127.33.28.823.321 1.733.045.984.054 1.28.054 3.77 0 2.491-.01 2.787-.054 3.77-.042.91-.194 1.405-.321 1.733-.17.436-.372.746-.699 1.072a2.886 2.886 0 0 1-1.072.698c-.329.129-.823.28-1.733.322-.984.045-1.28.054-3.772.054s-2.787-.01-3.771-.054c-.91-.042-1.404-.194-1.733-.322a2.89 2.89 0 0 1-1.074-.698 2.893 2.893 0 0 1-.698-1.073c-.128-.328-.28-.822-.322-1.732-.044-.984-.053-1.28-.053-3.772s.009-2.786.053-3.77c.042-.91.194-1.404.322-1.733.169-.436.372-.747.698-1.074a2.897 2.897 0 0 1 1.074-.698c.329-.128.823-.28 1.733-.322.86-.039 1.194-.05 2.934-.052v.002zm5.82 1.55a1.12 1.12 0 1 0-.001 2.24 1.12 1.12 0 0 0 0-2.24zm-4.983 1.308a4.793 4.793 0 1 0 .001 9.587 4.793 4.793 0 0 0-.001-9.587zm0 1.682a3.111 3.111 0 1 1 0 6.223 3.111 3.111 0 0 1 0-6.223z" mask="url(#b)"/>
    </g>
</svg>
