<?xml version="1.0" encoding="UTF-8"?>
<svg width="131px" height="38px" viewBox="0 0 131 38" version="1.1" xmlns="http://www.w3.org/2000/svg" xmlns:xlink="http://www.w3.org/1999/xlink">
    <!-- Generator: sketchtool 47.1 (45422) - http://www.bohemiancoding.com/sketch -->
    <title>3D9BB87A-E854-45B0-9AAD-45FEAD374EAB</title>
    <desc>Created with sketchtool.</desc>
    <defs>
        <rect id="path-1" x="0" y="0" width="131" height="38" rx="19"></rect>
        <linearGradient x1="19.2147947%" y1="-35.1571758%" x2="69.3023416%" y2="93.5367562%" id="linearGradient-2">
            <stop stop-color="#19A3B4" offset="0%"></stop>
            <stop stop-color="#5BC3AF" offset="34.816763%"></stop>
            <stop stop-color="#C8F7A6" offset="92.2336229%"></stop>
            <stop stop-color="#D7FEA5" offset="100%"></stop>
        </linearGradient>
        <path d="M15.2665011,7.00553899 L2.57831237,0.209476875 C2.2185451,0.0177366298 1.8867267,-0.0268675965 1.6179419,0.0548102724 L12.010756,10.1776525 L15.2665011,7.00553899" id="path-3"></path>
        <linearGradient x1="-14.698314%" y1="-114.321644%" x2="74.8444046%" y2="114.156353%" id="linearGradient-5">
            <stop stop-color="#FC227C" offset="0%"></stop>
            <stop stop-color="#FEEB7B" offset="100%"></stop>
        </linearGradient>
        <linearGradient x1="28.1511582%" y1="-14.8137139%" x2="48.1878808%" y2="82.8944571%" id="linearGradient-6">
            <stop stop-color="#0E4DA0" offset="0%"></stop>
            <stop stop-color="#6BFED4" offset="100%"></stop>
        </linearGradient>
        <path d="M1.61734724,0.0548102724 C1.23141508,0.172403233 0.981659291,0.552987345 0.981659291,1.12878736 L0.984037917,19.2508473 C0.984037917,19.8202753 1.22606317,20.1950666 1.60069685,20.3201902 L12.010756,10.1793904 L1.61734724,0.0548102724" id="path-7"></path>
        <linearGradient x1="132.244588%" y1="16.465744%" x2="5.95853392%" y2="126.310354%" id="linearGradient-9">
            <stop stop-color="#FC472E" offset="0%"></stop>
            <stop stop-color="#FC472F" offset="0.331892433%"></stop>
            <stop stop-color="#893CD8" offset="100%"></stop>
        </linearGradient>
        <path d="M1.60069685,20.3201902 C1.87126563,20.4093986 2.20962525,20.3676908 2.57831237,20.170737 L15.2813675,13.3654065 L12.010756,10.1793904 L1.60069685,20.3201902" id="path-10"></path>
    </defs>
    <g id="WWW&gt;Web" stroke="none" stroke-width="1" fill="none" fill-rule="evenodd">
        <g id="Home-(Merek)" transform="translate(-934.000000, -5566.000000)">
            <g id="Group-50" transform="translate(0.000000, 594.000000)">
                <g id="Group-32" transform="translate(0.000000, 1455.000000)">
                    <g id="Group-50-Copy" transform="translate(0.000000, 3099.000000)">
                        <g id="Group-17" transform="translate(934.000000, 381.000000)">
                            <g id="Group-16">
                                <g id="Rectangle-1-+-Fill-1-+-google-play" transform="translate(0.000000, 37.000000)">
                                    <g id="Rectangle-1">
                                        <use fill="#FFFFFF" fill-rule="evenodd" xlink:href="#path-1"></use>
                                        <rect stroke="#E8E8E8" stroke-width="1" x="0.5" y="0.5" width="130" height="37" rx="18.5"></rect>
                                    </g>
                                    <path d="M86.2260119,23.1059593 L85.3555065,23.9384722 C85.1543302,24.0505308 84.9542326,24.180628 84.7546743,24.2730079 C84.1500668,24.5512411 83.5352116,24.6212093 82.9888535,24.6212093 C82.4074378,24.6212093 81.4959421,24.5829454 80.5661085,23.9013016 C79.2743733,22.9791419 78.7096774,21.3939236 78.7096774,20.0125972 C78.7096774,17.1526448 81.0067547,15.75 82.8804448,15.75 C83.5352116,15.75 84.2077769,15.9161746 84.7546743,16.2665625 C85.6640127,16.8760516 85.8991679,17.6681141 86.0296897,18.0922966 L81.751053,19.8442361 L80.3498305,19.9546548 C80.803421,22.2996845 82.3686049,23.6635188 84.0982895,23.6635188 C84.9623228,23.6635188 85.6036059,23.3776329 86.1920331,23.083001 C86.1920331,23.083001 86.31015,23.0206855 86.2260119,23.1059593 L86.2260119,23.1059593 Z M83.644699,18.4415913 L80.3314927,19.8988988 C80.3131549,19.5676429 80.2764794,19.2363869 80.2764794,18.9253562 C80.2764794,16.9323542 81.6415656,16.3583958 82.3686049,16.3583958 C83.3502157,16.3583958 84.1727193,17.209494 84.1727193,17.9463472 C84.1727193,18.2032619 83.9920382,18.3136806 83.644699,18.4415913 Z M77.2798695,22.9632897 C77.2798695,23.6799177 77.4060766,23.7914296 78.004212,23.8477321 C78.3159544,23.8849028 78.626618,23.9013016 78.9340456,23.9384722 L78.260941,24.3446161 L75.0534467,24.3446161 C75.474137,23.7914296 75.5464095,23.7362202 75.5464095,23.3677937 L75.5464095,22.9561835 L75.539398,11.9886597 L74.1230738,11.9886597 L75.486542,11.3228681 L78.0894288,11.3228681 C77.5252722,11.654124 77.3564567,11.8558294 77.2841843,12.5013958 L77.2798695,22.9632897 Z M72.3054757,16.6552143 C72.7234693,17.0034157 73.5955928,17.7424554 73.5955928,19.1440069 C73.5955928,20.5100278 72.8356534,21.1539544 72.0692418,21.7634435 C71.8340867,22.0034127 71.5590199,22.2636071 71.5590199,22.6659246 C71.5590199,23.074255 71.8340867,23.2956389 72.0320269,23.4607202 L72.6894904,23.9750962 C73.4888021,24.6589266 74.2174594,25.2859077 74.2174594,26.5595486 C74.2174594,28.2945427 72.5605866,30.0442956 69.4296795,30.0442956 C66.7922745,30.0442956 65.5172591,28.7712014 65.5172591,27.4062738 C65.5172591,26.742122 65.8435638,25.801377 66.9200997,25.1569038 C68.0484128,24.4577679 69.5769211,24.3642946 70.3956493,24.3096319 C70.139999,23.9750962 69.8482125,23.6247083 69.8482125,23.0529365 C69.8482125,22.7402659 69.9409801,22.5538661 70.0305116,22.334122 C69.8314927,22.353254 69.6308558,22.3729325 69.4485566,22.3729325 C67.5182351,22.3729325 66.4271368,20.9134385 66.4271368,19.4752629 C66.4271368,18.6268978 66.8089942,17.6856062 67.5932042,17.0034157 C68.6309071,16.1375585 69.8681683,15.9883294 70.8513972,15.9883294 L74.6020136,15.9883294 L73.4359462,16.6552143 L72.3054757,16.6552143 Z M71.0158979,24.8442331 C70.8664989,24.8245546 70.7769673,24.8245546 70.5968256,24.8245546 C70.4317855,24.8245546 69.4485566,24.8606319 68.6869992,25.1197331 C68.2841073,25.2689623 67.1196579,25.7100903 67.1196579,27.0203552 C67.1196579,28.3278869 68.3768749,29.2708185 70.3217588,29.2708185 C72.0692418,29.2708185 72.996918,28.4219067 72.996918,27.2789097 C72.996918,26.3381647 72.3966252,25.8418274 71.0158979,24.8442331 L71.0158979,24.8442331 Z M71.5390641,21.3392609 C71.251053,21.6311597 70.7602476,21.8558234 70.3039603,21.8558234 C68.7403945,21.8558234 68.0295356,19.8070655 68.0295356,18.5716885 C68.0295356,18.0922966 68.1217639,17.5937728 68.4297308,17.209494 C68.7198993,16.8383343 69.2311999,16.5983651 69.7031282,16.5983651 C71.2159955,16.5983651 71.99643,18.6646151 71.99643,19.9912788 C71.99643,20.3252679 71.9597545,20.9134385 71.5390641,21.3392609 Z M61.0212657,24.5829454 C58.1282104,24.5829454 56.5802856,22.2996845 56.5802856,20.2323413 C56.5802856,17.8167966 58.5262482,15.75 61.2941751,15.75 C63.9698736,15.75 65.6456236,17.8730992 65.6456236,20.102244 C65.6456236,22.2794593 63.9892901,24.5829454 61.0212657,24.5829454 Z M63.2973084,23.0906538 C62.8782361,23.6799177 62.1517362,24.0292123 61.4397986,24.0292123 C59.233871,24.0292123 58.3450277,21.0233105 58.3450277,19.2008562 C58.3450277,18.4049673 58.4717742,17.5937728 59.182633,16.9482063 C59.6184251,16.5601012 60.2230327,16.3223185 60.8233255,16.3223185 C63.0804911,16.3223185 63.8442059,19.4206002 63.8442059,21.0451756 C63.8442059,21.7634435 63.7374152,22.5002966 63.2973084,23.0906538 Z M51.3351397,24.5829454 C48.4415451,24.5829454 46.896317,22.2996845 46.896317,20.2323413 C46.896317,17.8167966 48.842819,15.75 51.6096671,15.75 C54.2837477,15.75 55.9578796,17.8730992 55.9578796,20.102244 C55.9578796,22.2794593 54.3037035,24.5829454 51.3351397,24.5829454 Z M53.6117218,23.0906538 C53.1915708,23.6799177 52.4661496,24.0292123 51.7558301,24.0292123 C49.5536778,24.0292123 48.6610592,21.0233105 48.6610592,19.2008562 C48.6610592,18.4049673 48.7872663,17.5937728 49.4992038,16.9482063 C49.9360746,16.5601012 50.53421,16.3223185 51.1366602,16.3223185 C53.3916684,16.3223185 54.1575406,19.4206002 54.1575406,21.0451756 C54.1575406,21.7634435 54.0485926,22.5002966 53.6117218,23.0906538 Z M45.7394185,23.9428452 L43.2994144,24.5091508 C42.3107921,24.667126 41.4230275,24.8059692 40.4829464,24.8059692 C35.7766078,24.8059692 33.9832803,21.2949841 33.9832803,18.5470903 C33.9832803,15.1913472 36.5241422,12.0799464 40.8755907,12.0799464 C41.7962554,12.0799464 42.6818625,12.2171498 43.4887251,12.4401736 C44.7675159,12.8042272 45.3656513,13.2530079 45.7394185,13.5159355 L44.3220156,14.8803165 L43.7244196,15.01588 L44.1505034,14.3276766 C43.5734025,13.7564514 42.5125077,12.7020079 40.4991268,12.7020079 C37.8072478,12.7020079 35.7766078,14.7759107 35.7766078,17.8036776 C35.7766078,21.0555615 38.0952589,24.1144861 41.8140538,24.1144861 C42.9067701,24.1144861 43.4693086,23.8920089 43.9800699,23.6842907 L43.9800699,20.8964931 L41.4036111,21.0369762 L42.7692367,20.2935635 L46.3850164,20.2935635 L45.9427522,20.7248522 C45.8235566,20.8276181 45.8073762,20.8626022 45.7739367,21.0003522 C45.7561383,21.1577808 45.7394185,21.6584911 45.7394185,21.834505 L45.7394185,23.9428452 Z M91.4722365,23.1846736 L91.4722365,27.8829325 L90.5515718,27.8829325 L90.5515718,15.9276538 L91.4722365,15.9276538 L91.4722365,17.2893016 C92.0719899,16.4092321 93.1679423,15.7117361 94.4408003,15.7117361 C96.7238545,15.7117361 98.2615317,17.4669554 98.2615317,20.2454603 C98.2615317,23.00538 96.7238545,24.7972232 94.4408003,24.7972232 C93.239136,24.7972232 92.1626002,24.1691488 91.4722365,23.1846736 Z M97.27237,20.2454603 C97.27237,22.3428681 96.1952948,23.9537778 94.2854685,23.9537778 C93.0994452,23.9537778 91.9651993,22.9747688 91.4722365,22.1493621 L91.4722365,18.3224266 C91.9651993,17.4986597 93.0994452,16.5540883 94.2854685,16.5540883 C96.1952948,16.5540883 97.27237,18.1513323 97.27237,20.2454603 Z M99.5187487,12.6265734 L100.438874,12.6265734 L100.438874,24.5818522 L99.5187487,24.5818522 L99.5187487,12.6265734 Z M110.769519,27.110002 C110.966381,27.1991022 111.302394,27.2537649 111.515436,27.2537649 C112.078513,27.2537649 112.470618,27.0203552 112.822812,26.1960417 L113.494298,24.6540069 L109.867732,15.9276538 L110.894648,15.9276538 L114.005599,23.4896915 L117.086347,15.9276538 L118.127825,15.9276538 L113.704644,26.4852073 C113.24566,27.572995 112.523474,28.0961171 111.531616,28.0961171 C111.233897,28.0961171 110.841252,28.0425476 110.611491,27.9709395 L110.769519,27.110002 Z M108.080337,24.5561607 C108.018851,24.2560625 107.972468,23.991495 107.938489,23.7706577 C107.910443,23.5503671 107.894262,23.3251567 107.894262,23.09612 C107.578745,23.5656726 107.131626,23.9565109 106.560458,24.2642619 C105.988751,24.5741994 105.445629,24.7261617 104.700791,24.7261617 C103.803858,24.7261617 103.107561,24.5025913 102.610823,24.0488909 C102.115703,23.5957371 101.866525,22.981875 101.866525,22.2051181 C101.866525,21.4294544 102.227347,20.7997401 102.946836,20.3181617 C103.666324,19.8343968 104.596158,19.593881 105.747123,19.593881 L107.894262,19.593881 L107.894262,18.5186657 C107.894262,17.8993373 107.686075,17.4122927 107.270238,17.0591716 C106.852784,16.705504 106.267054,16.5267569 105.507654,16.5267569 C104.813514,16.5267569 104.250437,16.6901984 103.821656,17.0083353 C103.396651,17.3330317 103.18253,17.7353492 103.18253,18.2202073 L102.240292,18.2202073 L102.220875,18.173744 C102.186896,17.5199782 102.481919,16.9465665 103.109179,16.4513224 C103.733743,15.956625 104.551931,15.7079097 105.558892,15.7079097 C106.562616,15.7079097 107.374872,15.9527986 107.98703,16.4414831 C108.598649,16.925248 108.905537,17.6243839 108.905537,18.5383442 L108.905537,22.807501 C108.905537,23.1141587 108.9201,23.4104306 108.957854,23.6990496 C108.996687,23.9882153 109.058712,24.2768343 109.141232,24.5561607 L108.080337,24.5561607 Z M104.813514,23.8761567 C105.595567,23.8761567 106.157566,23.6990496 106.73197,23.3486617 C107.302599,23.0004603 107.690929,22.5462133 107.894262,21.9963065 L107.894262,20.3345605 L105.736876,20.3345605 C104.912754,20.3345605 104.230481,20.5193204 103.693831,20.89212 C103.156102,21.2638264 102.883732,21.7137004 102.883732,22.2368224 C102.883732,22.7304266 103.056323,23.1250913 103.399348,23.4240962 C103.743451,23.726381 104.213761,23.8761567 104.813514,23.8761567 L104.813514,23.8761567 Z" id="Fill-1" fill="#000000"></path>
                                    <g id="Google-Play-Icon" transform="translate(10.000000, 9.000000)">
                                        <g>
                                            <mask id="mask-4" fill="white">
                                                <use xlink:href="#path-3"></use>
                                            </mask>
                                            <use id="Fill-1" fill="url(#linearGradient-2)" xlink:href="#path-3"></use>
                                            <path d="M15.2831515,13.3654065 L19.6146305,11.0454075 C20.4929383,10.5732978 20.4929383,9.80517828 19.6146305,9.33422717 L15.2670958,7.00553899 L12.010756,10.1776525 L15.2831515,13.3654065" id="Fill-2" fill="url(#linearGradient-5)"></path>
                                            <mask id="mask-8" fill="white">
                                                <use xlink:href="#path-7"></use>
                                            </mask>
                                            <use id="Fill-3" fill="url(#linearGradient-6)" xlink:href="#path-7"></use>
                                            <mask id="mask-11" fill="white">
                                                <use xlink:href="#path-10"></use>
                                            </mask>
                                            <use id="Fill-4" fill="url(#linearGradient-9)" xlink:href="#path-10"></use>
                                        </g>
                                    </g>
                                </g>
                            </g>
                        </g>
                    </g>
                </g>
            </g>
        </g>
    </g>
</svg>