<?xml version="1.0" encoding="UTF-8"?>
<svg width="131px" height="38px" viewBox="0 0 131 38" version="1.1" xmlns="http://www.w3.org/2000/svg" xmlns:xlink="http://www.w3.org/1999/xlink">
    <!-- Generator: sketchtool 47.1 (45422) - http://www.bohemiancoding.com/sketch -->
    <title>86D4988E-1E1C-464E-A1C5-51BC73CF4E81</title>
    <desc>Created with sketchtool.</desc>
    <defs>
        <rect id="path-1" x="0" y="0" width="131" height="38" rx="19"></rect>
        <linearGradient x1="50%" y1="0%" x2="50%" y2="100%" id="linearGradient-2">
            <stop stop-color="#FEFFFF" offset="0%"></stop>
            <stop stop-color="#D7D7D6" offset="100%"></stop>
        </linearGradient>
        <radialGradient cx="50%" cy="0%" fx="50%" fy="0%" r="122.872899%" id="radialGradient-3">
            <stop stop-color="#16C7FB" offset="0%"></stop>
            <stop stop-color="#1960EF" offset="100%"></stop>
        </radialGradient>
        <linearGradient x1="50%" y1="0%" x2="50%" y2="100%" id="linearGradient-4">
            <stop stop-color="#FCFCFC" offset="0%"></stop>
            <stop stop-color="#D9D9D9" offset="100%"></stop>
        </linearGradient>
        <path d="M3.70588235,9.57326261 L6.58008087,9.57326261 C6.28607104,10.0613933 5.99206069,10.549524 5.69805086,11.0376547 L3.70588235,11.0376547 L3.70588235,9.57326261 L3.70588235,9.57326261 Z M8.43269715,7.0513287 C8.88277104,7.30040725 9.33284441,7.54948581 9.78291829,7.79856436 C8.66423782,9.65585644 7.54555682,11.5131475 6.42687634,13.3704391 C5.94978005,13.106406 5.47268324,12.8423724 4.99558695,12.5783392 C6.14129035,10.7360027 7.28699375,8.89366571 8.43269715,7.0513287 L8.43269715,7.0513287 Z M6.27034593,13.6548198 C5.60468141,14.2399085 4.86327022,14.9238246 4.86327022,14.9238246 C4.4332059,15.3173039 4.22012766,15.1811114 4.38615674,14.6134874 C4.38615674,14.6134874 4.67009388,13.6946565 4.86846489,12.8369418 C5.3357584,13.1095678 5.80305242,13.3821938 6.27034593,13.6548198 Z M9.93314652,7.60853786 L8.55956419,6.84837357 C8.55956419,6.84837357 8.85984318,6.27340808 8.98638436,6.07640399 C9.46707944,5.44548041 10.716536,6.06788777 10.4049526,6.7700095 C10.1992236,7.09319385 9.93314652,7.60853786 9.93314652,7.60853786 Z M15.2714703,10.5212276 C15.4966176,10.8950286 15.8161557,11.4497865 16.041303,11.8235875 C15.5815332,12.0780324 15.1217628,12.3324767 14.6619929,12.5869216 C14.4334366,12.2150075 14.1104885,11.6621361 13.8819322,11.2902221 C14.3451116,11.0338908 14.8082909,10.7775589 15.2714703,10.5212276 Z M15.1403919,10.2520592 L13.7276914,11.0721128 C13.7276914,11.0721128 11.1085241,6.82606455 9.83840338,4.71752456 C9.60719082,4.08090289 10.7855318,3.3955502 11.2613725,3.85664775 C12.5489542,5.96724089 15.1403919,10.2520592 15.1403919,10.2520592 Z M15.0036946,12.7561816 C15.4239944,12.5235806 15.6555111,12.3814576 16.0758109,12.1488567 C17.2407941,12.5543948 17.3422832,14.4501562 16.8771482,15.3324535 C16.6082314,15.7267765 16.7695754,14.9507917 16.1126843,14.5607626 C14.8359828,13.8027208 14.956499,13.4368245 14.8983887,13.1684818 C14.855875,12.9721608 15.0036946,12.7561816 15.0036946,12.7561816 Z M9.09684755,9.57326261 L12.542201,9.57326261 C12.8367329,10.0622592 13.1312643,10.5512562 13.4257962,11.0402528 L8.19405434,11.0402528 C8.49498524,10.5512562 8.79591666,10.0622592 9.09684755,9.57326261 L9.09684755,9.57326261 Z M17.9117647,9.57326261 L17.9117647,11.0037713 L15.8724699,11.0037713 C15.571539,10.5269349 15.3649988,10.050099 15.0640679,9.57326261 L17.9117647,9.57326261 Z" id="path-5"></path>
        <filter x="-56.3%" y="-34.1%" width="212.6%" height="236.3%" filterUnits="objectBoundingBox" id="filter-6">
            <feOffset dx="0" dy="4" in="SourceAlpha" result="shadowOffsetOuter1"></feOffset>
            <feGaussianBlur stdDeviation="2" in="shadowOffsetOuter1" result="shadowBlurOuter1"></feGaussianBlur>
            <feColorMatrix values="0 0 0 0 0   0 0 0 0 0   0 0 0 0 0  0 0 0 0.3 0" type="matrix" in="shadowBlurOuter1"></feColorMatrix>
        </filter>
        <filter x="-49.3%" y="-25.6%" width="198.6%" height="219.3%" filterUnits="objectBoundingBox" id="filter-7">
            <feGaussianBlur stdDeviation="2" in="SourceAlpha" result="shadowBlurInner1"></feGaussianBlur>
            <feOffset dx="0" dy="-2" in="shadowBlurInner1" result="shadowOffsetInner1"></feOffset>
            <feComposite in="shadowOffsetInner1" in2="SourceAlpha" operator="arithmetic" k2="-1" k3="1" result="shadowInnerInner1"></feComposite>
            <feColorMatrix values="0 0 0 0 0   0 0 0 0 0   0 0 0 0 0  0 0 0 0.0844655797 0" type="matrix" in="shadowInnerInner1"></feColorMatrix>
        </filter>
    </defs>
    <g id="WWW&gt;Web" stroke="none" stroke-width="1" fill="none" fill-rule="evenodd">
        <g id="Home-(Merek)" transform="translate(-1077.000000, -5566.000000)">
            <g id="Group-50" transform="translate(0.000000, 594.000000)">
                <g id="Group-32" transform="translate(0.000000, 1455.000000)">
                    <g id="Group-50-Copy" transform="translate(0.000000, 3099.000000)">
                        <g id="Group-17" transform="translate(934.000000, 381.000000)">
                            <g id="Group-16">
                                <g id="Rectangle-1-+-Imported-Layers" transform="translate(143.000000, 37.000000)">
                                    <g id="Rectangle-1">
                                        <use fill="#FFFFFF" fill-rule="evenodd" xlink:href="#path-1"></use>
                                        <rect stroke="#E8E8E8" stroke-width="1" x="0.5" y="0.5" width="130" height="37" rx="18.5"></rect>
                                    </g>
                                    <g id="app-store" transform="translate(10.000000, 9.000000)">
                                        <circle id="Oval-1" fill="url(#linearGradient-2)" cx="10.5" cy="10.5" r="10.5"></circle>
                                        <circle id="Oval-1" fill="url(#radialGradient-3)" cx="10.5" cy="10.5" r="9.88235294"></circle>
                                        <g id="Shape">
                                            <use fill="black" fill-opacity="1" filter="url(#filter-6)" xlink:href="#path-5"></use>
                                            <use fill="url(#linearGradient-4)" fill-rule="evenodd" xlink:href="#path-5"></use>
                                            <use fill="black" fill-opacity="1" filter="url(#filter-7)" xlink:href="#path-5"></use>
                                        </g>
                                    </g>
                                    <path d="M42.7661424,13.8606267 L44.4508331,13.8606267 L48.9272971,25.1429496 L47.2426063,25.1429496 L45.9911218,21.7456115 L41.1456303,21.7456115 L39.8620564,25.1429496 L38.3057231,25.1429496 L42.7661424,13.8606267 Z M41.6269705,20.4814857 L45.5097816,20.4814857 L43.6004654,15.219562 L43.5683761,15.219562 L41.6269705,20.4814857 Z M49.8739328,16.9735365 L51.2377301,16.9735365 L51.2377301,18.0796466 L51.2698194,18.0796466 C51.494446,17.6266659 51.8474253,17.2974698 52.3287679,17.0920483 C52.8101105,16.8866269 53.3395795,16.7839177 53.9171906,16.7839177 C54.5589808,16.7839177 55.1178646,16.8997947 55.593859,17.1315523 C56.0698534,17.3633098 56.465618,17.6767045 56.7811649,18.0717458 C57.0967117,18.4667871 57.3347053,18.9223946 57.4951528,19.4385819 C57.6556004,19.9547691 57.735823,20.5025515 57.735823,21.0819454 C57.735823,21.6613393 57.6582745,22.2091217 57.5031752,22.725309 C57.3480759,23.2414963 57.1127564,23.6918366 56.7972095,24.0763434 C56.4816627,24.4608503 56.0858981,24.7637107 55.6099037,24.9849338 C55.1339093,25.206157 54.5803736,25.3167669 53.94928,25.3167669 C53.7460464,25.3167669 53.5187491,25.2956983 53.2673813,25.2535606 C53.0160135,25.2114228 52.7673236,25.14295 52.521304,25.0481401 C52.2752844,24.9533302 52.042639,24.8242853 51.8233607,24.6610016 C51.6040824,24.4977179 51.4195705,24.2949331 51.2698194,24.0526411 L51.2377301,24.0526411 L51.2377301,28.2558594 L49.8739328,28.2558594 L49.8739328,16.9735365 Z M56.2918023,20.987136 C56.2918023,20.6078963 56.2409947,20.2365631 56.1393779,19.8731251 C56.0377611,19.5096871 55.8826642,19.1857581 55.6740824,18.9013284 C55.4655006,18.6168987 55.198092,18.3904117 54.8718487,18.2218608 C54.5456054,18.0533098 54.1632111,17.9690356 53.7246545,17.9690356 C53.2647049,17.9690356 52.8742884,18.058577 52.5533933,18.2376623 C52.2324983,18.4167477 51.9704379,18.6511354 51.7672043,18.9408323 C51.5639708,19.2305293 51.4168961,19.5597254 51.3259758,19.9284306 C51.2350555,20.2971358 51.1895961,20.6711026 51.1895961,21.0503423 C51.1895961,21.4506508 51.2377296,21.8377854 51.3339981,22.2117579 C51.4302667,22.5857303 51.5826895,22.9149264 51.7912713,23.1993561 C51.9998531,23.4837859 52.2699358,23.7129064 52.6015274,23.8867246 C52.9331189,24.0605427 53.3342318,24.1474505 53.8048779,24.1474505 C54.275524,24.1474505 54.6686146,24.0579091 54.9841614,23.8788238 C55.2997082,23.6997384 55.5537464,23.4627172 55.7462834,23.167753 C55.9388205,22.8727888 56.0778729,22.535692 56.1634449,22.1564524 C56.2490169,21.7772127 56.2918023,21.3874445 56.2918023,20.987136 Z M59.3884243,16.9735365 L60.7522216,16.9735365 L60.7522216,18.0796466 L60.784311,18.0796466 C61.0089375,17.6266659 61.3619168,17.2974698 61.8432594,17.0920483 C62.324602,16.8866269 62.854071,16.7839177 63.4316821,16.7839177 C64.0734723,16.7839177 64.6323562,16.8997947 65.1083505,17.1315523 C65.5843449,17.3633098 65.9801096,17.6767045 66.2956564,18.0717458 C66.6112032,18.4667871 66.8491968,18.9223946 67.0096444,19.4385819 C67.1700919,19.9547691 67.2503145,20.5025515 67.2503145,21.0819454 C67.2503145,21.6613393 67.172766,22.2091217 67.0176667,22.725309 C66.8625674,23.2414963 66.6272479,23.6918366 66.3117011,24.0763434 C65.9961542,24.4608503 65.6003896,24.7637107 65.1243952,24.9849338 C64.6484008,25.206157 64.0948651,25.3167669 63.4637715,25.3167669 C63.2605379,25.3167669 63.0332406,25.2956983 62.7818728,25.2535606 C62.530505,25.2114228 62.2818151,25.14295 62.0357955,25.0481401 C61.7897759,24.9533302 61.5571305,24.8242853 61.3378522,24.6610016 C61.1185739,24.4977179 60.934062,24.2949331 60.784311,24.0526411 L60.7522216,24.0526411 L60.7522216,28.2558594 L59.3884243,28.2558594 L59.3884243,16.9735365 Z M65.8062938,20.987136 C65.8062938,20.6078963 65.7554862,20.2365631 65.6538694,19.8731251 C65.5522527,19.5096871 65.3971557,19.1857581 65.1885739,18.9013284 C64.9799921,18.6168987 64.7125835,18.3904117 64.3863402,18.2218608 C64.0600969,18.0533098 63.6777026,17.9690356 63.239146,17.9690356 C62.7791964,17.9690356 62.3887799,18.058577 62.0678849,18.2376623 C61.7469898,18.4167477 61.4849294,18.6511354 61.2816958,18.9408323 C61.0784623,19.2305293 60.9313876,19.5597254 60.8404673,19.9284306 C60.749547,20.2971358 60.7040876,20.6711026 60.7040876,21.0503423 C60.7040876,21.4506508 60.7522211,21.8377854 60.8484897,22.2117579 C60.9447582,22.5857303 61.0971811,22.9149264 61.3057629,23.1993561 C61.5143447,23.4837859 61.7844273,23.7129064 62.1160189,23.8867246 C62.4476105,24.0605427 62.8487233,24.1474505 63.3193694,24.1474505 C63.7900155,24.1474505 64.1831061,24.0579091 64.4986529,23.8788238 C64.8141998,23.6997384 65.0682379,23.4627172 65.2607749,23.167753 C65.453312,22.8727888 65.5923644,22.535692 65.6779364,22.1564524 C65.7635085,21.7772127 65.8062938,21.3874445 65.8062938,20.987136 Z M80.1662768,17.1631554 C80.0807048,16.352004 79.7838813,15.7647181 79.2757974,15.4012801 C78.7677135,15.0378421 78.1179108,14.8561258 77.3263696,14.8561258 C77.0054745,14.8561258 76.6899324,14.8877286 76.3797338,14.9509352 C76.0695352,15.0141419 75.7941044,15.1194846 75.5534331,15.2669667 C75.3127618,15.4144488 75.1202276,15.6119665 74.9758249,15.8595257 C74.8314221,16.1070849 74.7592218,16.4152125 74.7592218,16.7839177 C74.7592218,17.131554 74.8635111,17.4133459 75.0720929,17.6293018 C75.2806747,17.8452577 75.5587796,18.0217068 75.9064159,18.1586545 C76.2540523,18.2956021 76.6471428,18.4088456 77.0856995,18.4983883 C77.5242561,18.587931 77.9708284,18.685373 78.4254297,18.7907174 C78.8800311,18.8960617 79.3266034,19.0198395 79.76516,19.1620543 C80.2037166,19.3042692 80.5968072,19.4965198 80.9444435,19.7388117 C81.2920798,19.9811037 81.5701847,20.2865977 81.7787665,20.655303 C81.9873483,21.0240082 82.0916377,21.4875163 82.0916377,22.0458413 C82.0916377,22.6463041 81.9552593,23.1598501 81.6824985,23.5864947 C81.4097377,24.0131393 81.0594325,24.3607704 80.6315723,24.6293985 C80.2037122,24.8980265 79.7250509,25.0929107 79.1955741,25.2140566 C78.6660972,25.3352026 78.1393023,25.3957747 77.6151737,25.3957747 C76.9733835,25.3957747 76.3663661,25.3167677 75.7941032,25.1587511 C75.2218403,25.0007346 74.7191122,24.7610798 74.2859039,24.4397796 C73.8526955,24.1184793 73.5104126,23.7076426 73.2590448,23.2072569 C73.007677,22.7068713 72.8819949,22.1143182 72.8819949,21.42958 L74.3260156,21.42958 C74.3260156,21.9036296 74.4196086,22.3118328 74.6067974,22.6542019 C74.7939862,22.996571 75.040002,23.2783629 75.3448524,23.499586 C75.6497027,23.7208091 76.0053561,23.8840904 76.4118232,23.9894348 C76.8182903,24.0947791 77.2354476,24.1474505 77.6633077,24.1474505 C78.0055958,24.1474505 78.3505528,24.1158477 78.6981892,24.0526411 C79.0458255,23.9894345 79.3586935,23.8814581 79.6368026,23.7287088 C79.9149116,23.5759595 80.1395348,23.3679076 80.3106789,23.1045467 C80.4818229,22.8411858 80.5673937,22.504089 80.5673937,22.0932461 C80.5673937,21.703472 80.4631043,21.3874437 80.2545225,21.1451517 C80.0459407,20.9028597 79.7678358,20.705342 79.4201995,20.5525927 C79.0725631,20.3998434 78.6794726,20.2760657 78.240916,20.1812558 C77.8023594,20.0864459 77.3557871,19.9890038 76.9011857,19.8889267 C76.4465843,19.7888496 76.0000121,19.6729725 75.5614555,19.5412921 C75.1228988,19.4096117 74.7298083,19.2357961 74.3821719,19.0198402 C74.0345356,18.8038843 73.7564307,18.524726 73.5478489,18.1823568 C73.3392671,17.8399877 73.2349778,17.410716 73.2349778,16.8945287 C73.2349778,16.3256692 73.3526375,15.8331918 73.5879606,15.4170816 C73.8232836,15.0009715 74.1361517,14.6586075 74.526574,14.3899794 C74.9169963,14.1213513 75.3608945,13.9212001 75.8582819,13.7895197 C76.3556693,13.6578392 76.8664196,13.592 77.3905483,13.592 C77.9788559,13.592 78.5243694,13.6604728 79.027105,13.7974204 C79.5298406,13.9343681 79.9710647,14.1503208 80.3507906,14.4452849 C80.7305164,14.7402491 81.030014,15.1115823 81.2492923,15.5592958 C81.4685706,16.0070093 81.5889044,16.5416238 81.6102974,17.1631554 L80.1662768,17.1631554 Z M85.6054212,16.9735365 L87.2580226,16.9735365 L87.2580226,18.1586545 L85.6054212,18.1586545 L85.6054212,23.2309593 C85.6054212,23.3889758 85.6187916,23.5153871 85.6455329,23.610197 C85.6722741,23.7050069 85.7230818,23.7787469 85.7979573,23.831419 C85.8728328,23.8840912 85.9771221,23.9183276 86.1108284,23.9341293 C86.2445347,23.9499309 86.4183503,23.9578316 86.6322803,23.9578316 L87.2580226,23.9578316 L87.2580226,25.1429496 L86.2151188,25.1429496 C85.8621342,25.1429496 85.5599625,25.1192475 85.3085947,25.0718425 C85.0572269,25.0244375 84.8539964,24.9375298 84.6988971,24.8111165 C84.5437978,24.6847033 84.4288122,24.5056206 84.3539367,24.2738631 C84.2790611,24.0421055 84.2416239,23.7366115 84.2416239,23.3573719 L84.2416239,18.1586545 L82.8296926,18.1586545 L82.8296926,16.9735365 L84.2416239,16.9735365 L84.2416239,14.5242928 L85.6054212,14.5242928 L85.6054212,16.9735365 Z M88.3169711,21.0661438 C88.3169711,20.4656811 88.4025418,19.9047309 88.5736858,19.3832764 C88.7448299,18.8618219 89.0015421,18.408848 89.3438302,18.0243411 C89.6861183,17.6398343 90.1086238,17.3369738 90.6113594,17.1157507 C91.114095,16.8945276 91.6916975,16.7839177 92.3441842,16.7839177 C93.0073673,16.7839177 93.5876439,16.8945276 94.0850313,17.1157507 C94.5824186,17.3369738 95.0022501,17.6398343 95.3445381,18.0243411 C95.6868262,18.408848 95.9435384,18.8618219 96.1146825,19.3832764 C96.2858265,19.9047309 96.3713973,20.4656811 96.3713973,21.0661438 C96.3713973,21.6666066 96.2858265,22.2249233 96.1146825,22.7411105 C95.9435384,23.2572978 95.6868262,23.7076381 95.3445381,24.092145 C95.0022501,24.4766519 94.5824186,24.7768787 94.0850313,24.9928346 C93.5876439,25.2087905 93.0073673,25.3167669 92.3441842,25.3167669 C91.6916975,25.3167669 91.114095,25.2087905 90.6113594,24.9928346 C90.1086238,24.7768787 89.6861183,24.4766519 89.3438302,24.092145 C89.0015421,23.7076381 88.7448299,23.2572978 88.5736858,22.7411105 C88.4025418,22.2249233 88.3169711,21.6666066 88.3169711,21.0661438 Z M89.7609917,21.0661438 C89.7609917,21.5612623 89.8278438,22.0010683 89.9615501,22.3855752 C90.0952564,22.770082 90.2797683,23.0913774 90.5150914,23.3494711 C90.7504144,23.6075647 91.0258452,23.8050824 91.3413921,23.9420301 C91.6569389,24.0789777 91.9911996,24.1474505 92.3441842,24.1474505 C92.6971688,24.1474505 93.0314294,24.0789777 93.3469763,23.9420301 C93.6625231,23.8050824 93.9379539,23.6075647 94.173277,23.3494711 C94.4086,23.0913774 94.5931119,22.770082 94.7268182,22.3855752 C94.8605245,22.0010683 94.9273766,21.5612623 94.9273766,21.0661438 C94.9273766,20.5710254 94.8605245,20.1312194 94.7268182,19.7467125 C94.5931119,19.3622057 94.4086,19.0382767 94.173277,18.7749158 C93.9379539,18.511555 93.6625231,18.3114037 93.3469763,18.1744561 C93.0314294,18.0375084 92.6971688,17.9690356 92.3441842,17.9690356 C91.9911996,17.9690356 91.6569389,18.0375084 91.3413921,18.1744561 C91.0258452,18.3114037 90.7504144,18.511555 90.5150914,18.7749158 C90.2797683,19.0382767 90.0952564,19.3622057 89.9615501,19.7467125 C89.8278438,20.1312194 89.7609917,20.5710254 89.7609917,21.0661438 Z M97.9277306,16.9735365 L99.2113045,16.9735365 L99.2113045,18.695908 L99.2433939,18.695908 C99.5749854,18.0322386 99.9814464,17.5423947 100.462789,17.2263617 C100.944132,16.9103287 101.553823,16.7628488 102.291882,16.7839177 L102.291882,18.2060592 C101.74636,18.2060592 101.281069,18.2797991 100.895995,18.4272812 C100.510921,18.5747633 100.200727,18.790716 99.9654042,19.0751457 C99.7300811,19.3595754 99.5589396,19.704573 99.4519746,20.1101487 C99.3450096,20.5157244 99.2915279,20.9818662 99.2915279,21.5085879 L99.2915279,25.1429496 L97.9277306,25.1429496 L97.9277306,16.9735365 Z M110.105638,22.5514917 C109.923797,23.4679875 109.522685,24.1579826 108.902287,24.6214977 C108.28189,25.0850128 107.501057,25.3167669 106.559765,25.3167669 C105.896582,25.3167669 105.321654,25.2114241 104.834963,25.0007354 C104.348272,24.7900467 103.939137,24.495087 103.607545,24.1158474 C103.275954,23.7366077 103.027264,23.2836338 102.861468,22.7569121 C102.695672,22.2301904 102.602079,21.6560723 102.580686,21.0345407 C102.580686,20.4130091 102.676953,19.8441581 102.86949,19.3279709 C103.062027,18.8117836 103.33211,18.3640768 103.679746,17.9848372 C104.027382,17.6055975 104.439192,17.3106378 104.915186,17.0999491 C105.39118,16.8892604 105.912627,16.7839177 106.479542,16.7839177 C107.2176,16.7839177 107.829966,16.9340311 108.316657,17.2342625 C108.803348,17.5344939 109.193764,17.9163614 109.487918,18.3798765 C109.782072,18.8433916 109.985302,19.3490369 110.097616,19.8968275 C110.209929,20.4446181 110.255388,20.9660647 110.233995,21.4611832 L104.024707,21.4611832 C104.01401,21.8193539 104.056795,22.1590843 104.153064,22.4803846 C104.249333,22.8016848 104.40443,23.0861103 104.61836,23.3336695 C104.83229,23.5812287 105.105046,23.7787464 105.436638,23.9262285 C105.76823,24.0737106 106.158646,24.1474505 106.607899,24.1474505 C107.18551,24.1474505 107.658823,24.015772 108.027853,23.7524112 C108.396882,23.4890503 108.640224,23.0887478 108.757885,22.5514917 L110.105638,22.5514917 Z M108.789975,20.2760652 C108.768582,19.9600322 108.696381,19.6598053 108.573372,19.3753756 C108.450362,19.0909458 108.284569,18.8460239 108.075987,18.6406024 C107.867405,18.435181 107.621389,18.2718997 107.337932,18.1507537 C107.054474,18.0296077 106.741606,17.9690356 106.399318,17.9690356 C106.046334,17.9690356 105.728118,18.0296077 105.44466,18.1507537 C105.161203,18.2718997 104.917861,18.4378145 104.714628,18.6485032 C104.511394,18.8591919 104.350949,19.1041138 104.233287,19.3832764 C104.115626,19.6624389 104.0461,19.9600322 104.024707,20.2760652 L108.789975,20.2760652 Z" id="Imported-Layers" fill="#000000"></path>
                                </g>
                            </g>
                        </g>
                    </g>
                </g>
            </g>
        </g>
    </g>
</svg>