<svg xmlns="http://www.w3.org/2000/svg" width="35" height="35" viewBox="0 0 35 35">
    <g fill="none" fill-rule="evenodd">
        <path fill="#CE1312" d="M0 17.213C0 7.707 7.718 0 17.238 0s17.238 7.707 17.238 17.213c0 9.507-7.718 17.213-17.238 17.213S0 26.72 0 17.213z"/>
        <path fill="#FFF" d="M26.21 13.748s-.18-1.293-.73-1.862c-.698-.747-1.48-.751-1.84-.794-2.569-.19-6.423-.19-6.423-.19h-.008s-3.854 0-6.423.19c-.36.043-1.141.047-1.84.794-.55.57-.73 1.862-.73 1.862s-.183 1.519-.183 3.037v1.424c0 1.518.183 3.036.183 3.036s.18 1.293.73 1.862c.699.748 1.616.725 2.024.803 1.47.144 6.243.188 6.243.188s3.858-.006 6.427-.195c.36-.044 1.142-.048 1.84-.796.55-.569.73-1.862.73-1.862s.183-1.518.183-3.036v-1.424c0-1.518-.183-3.037-.183-3.037z"/>
        <path fill="#CE1312" d="M15.317 19.934v-5.272l4.96 2.645z"/>
    </g>
</svg>
