<svg xmlns="http://www.w3.org/2000/svg" xmlns:xlink="http://www.w3.org/1999/xlink" width="71" height="71" viewBox="0 0 71 71">
    <defs>
        <rect id="a" width="65" height="65" x="3" y="3" rx="8"/>
    </defs>
    <g fill="none" fill-rule="evenodd">
        <g>
            <use fill="#FFF" xlink:href="#a"/>
            <rect width="64" height="64" x="3.5" y="3.5" stroke="#E8E8E8" rx="8"/>
        </g>
        <text fill="#000" fill-opacity=".87" font-family="Roboto-Regular, Roboto" font-size="11">
            <tspan x="10.208" y="57">Automatic</tspan>
        </text>
        <g fill-rule="nonzero">
            <path stroke="#9B9B9B" stroke-width="1.5" d="M44.33 15.691h-.737v-2.497a1.135 1.135 0 0 0-2.271 0v2.497h-.738a3.674 3.674 0 0 0-3.67 3.67V35.07a3.674 3.674 0 0 0 3.67 3.669h3.747A3.674 3.674 0 0 0 48 35.069V19.362a3.674 3.674 0 0 0-3.67-3.67zm1.4 19.379a1.4 1.4 0 0 1-1.4 1.398h-3.746a1.4 1.4 0 0 1-1.399-1.398V19.36a1.4 1.4 0 0 1 1.399-1.398h3.747a1.4 1.4 0 0 1 1.398 1.399V35.07zM32.382 20.536h-.719l-.019-1.117a1.136 1.136 0 0 0-.123-.496l-3.18-6.245a1.135 1.135 0 0 0-2.023 1.03l3.06 6.011.014.817h-.756a3.674 3.674 0 0 0-3.67 3.67v10.863a3.674 3.674 0 0 0 3.67 3.67h3.746a3.674 3.674 0 0 0 3.67-3.67V24.205a3.674 3.674 0 0 0-3.67-3.67zm1.399 14.534a1.4 1.4 0 0 1-1.399 1.398h-3.746a1.4 1.4 0 0 1-1.399-1.398V24.205a1.4 1.4 0 0 1 1.399-1.399h3.746a1.4 1.4 0 0 1 1.399 1.4V35.07z"/>
            <path fill="#000" fill-opacity=".868" d="M43.646 24.15h-2.377a1.135 1.135 0 0 0 0 2.27h2.377a1.135 1.135 0 0 0 0-2.27zM43.646 20.195h-2.377a1.135 1.135 0 0 0 0 2.27h2.377a1.135 1.135 0 0 0 0-2.27zM43.646 28.105h-2.377a1.135 1.135 0 0 0 0 2.27h2.377a1.135 1.135 0 0 0 0-2.27zM43.646 32.06h-2.377a1.135 1.135 0 0 0 0 2.27h2.377a1.135 1.135 0 0 0 0-2.27zM31.72 24.774h-2.27a1.135 1.135 0 0 0 0 2.27h2.27a1.135 1.135 0 0 0 0-2.27zM31.72 28.502h-2.27a1.135 1.135 0 0 0 0 2.27h2.27a1.135 1.135 0 0 0 0-2.27zM31.72 32.23h-2.27a1.135 1.135 0 0 0 0 2.27h2.27a1.135 1.135 0 0 0 0-2.27z"/>
        </g>
    </g>
</svg>
