<svg xmlns="http://www.w3.org/2000/svg" xmlns:xlink="http://www.w3.org/1999/xlink" width="71" height="71" viewBox="0 0 71 71">
    <defs>
        <rect id="a" width="65" height="65" x="3" y="3" rx="8"/>
    </defs>
    <g fill="none" fill-rule="evenodd">
        <g>
            <use fill="#FFF" xlink:href="#a"/>
            <rect width="64" height="64" x="3.5" y="3.5" stroke="#E8E8E8" rx="8"/>
        </g>
        <text fill="#000" fill-opacity=".87" font-family="Roboto-Regular, Roboto" font-size="11">
            <tspan x="19" y="57">Bensin</tspan>
        </text>
        <text fill="#000" font-family="Roboto-Bold, Roboto" font-size="9" font-weight="bold" transform="translate(18 8)">
            <tspan x="12" y="26">B</tspan>
        </text>
        <path fill="#9B9B9B" fill-rule="nonzero" d="M39.35 14h-11.7c-.358 0-.65.27-.65.6v7.8c0 .33.292.6.65.6h11.7c.358 0 .65-.27.65-.6v-7.8c0-.33-.292-.6-.65-.6zm-.65 7.8H28.3v-6.6h10.4v6.6zM44.361 40H22.64c-.352 0-.639.225-.639.5s.287.5.639.5H44.36c.352 0 .639-.225.639-.5s-.288-.5-.639-.5z"/>
        <path fill="#9B9B9B" fill-rule="nonzero" d="M49.017 18.286l-1.94-2.196a.37.37 0 0 0-.298-.13c-.692.012-.9.677-.571 1.05l1.845 2.091c.431.486.679.784.679 1.232h-1.776a.756.756 0 0 0-.76.747v2.987c0 .684.57 1.244 1.267 1.244h1.269v9.333a.63.63 0 0 1-.635.623h-1.401c-.368 0-.5-.336-.5-.623v-8.12c0-1.095-1.054-1.835-2.037-1.835h-1.135V14.11c0-1.717-1.42-3.111-3.17-3.111H27.17C25.42 11 24 12.394 24 14.111v24.223c0 .629.514.635 1.37.654.463.006 1.103.012 1.8.012h12.684c.704 0 1.338-.006 1.8-.012.857-.013 1.37-.025 1.37-.654v-12.4h1.135c.387 0 .768.292.768.59v8.12c0 1.064.76 1.867 1.77 1.867h1.4c1.053 0 1.903-.834 1.903-1.867v-14.31c0-.934-.52-1.525-.983-2.048zm-7.26 19.457c-.42.006-1.06.013-1.903.013H27.17c-.844 0-1.484-.007-1.903-.013V14.111c0-1.033.85-1.867 1.903-1.867h12.683c1.052 0 1.902.834 1.902 1.867v23.632zm6.975-13.676h-1.269v-2.49h1.269v2.49z"/>
    </g>
</svg>
