<?xml version="1.0" encoding="UTF-8"?>
<svg width="71px" height="71px" viewBox="0 0 71 71" version="1.1" xmlns="http://www.w3.org/2000/svg" xmlns:xlink="http://www.w3.org/1999/xlink">
    <!-- Generator: sketchtool 48.1 (47250) - http://www.bohemiancoding.com/sketch -->
    <title>C936D906-F1B2-4D43-99FB-A9118DF0CD37</title>
    <desc>Created with sketchtool.</desc>
    <defs></defs>
    <g id="1.3-List-Mobil-Baru-1.4.8-Filter" stroke="none" stroke-width="1" fill="none" fill-rule="evenodd" transform="translate(-13.000000, -912.000000)">
        <g id="Group-7" transform="translate(13.000000, 888.000000)">
            <g id="Group-10" transform="translate(0.000000, 24.000000)">
                <rect id="Rectangle" fill="#2C8AFA" x="3" y="3" width="65" height="65" rx="8"></rect>
                <text id="Bensin" font-family="Roboto-Regular, Roboto" font-size="11" font-weight="normal" fill="#FFFFFF">
                    <tspan x="19" y="57">Bensin</tspan>
                </text>
                <g id="gas-station-copy-2" transform="translate(18.000000, 8.000000)" fill="#FFFFFF">
                    <text id="B" font-family="Roboto-Bold, Roboto" font-size="9" font-weight="bold">
                        <tspan x="12" y="26">B</tspan>
                    </text>
                    <path d="M21.3499817,6 L9.65001828,6 C9.29249909,6 9,6.26999831 9,6.600015 L9,14.399985 C9,14.7300017 9.29249909,15 9.65001828,15 L21.3499817,15 C21.7075009,15 22,14.7300017 22,14.399985 L22,6.600015 C22,6.26999831 21.7075009,6 21.3499817,6 Z M20.7000244,13.79997 L10.3000366,13.79997 L10.3000366,7.20003 L20.7000244,7.20003 L20.7000244,13.79997 Z" id="Shape" fill-rule="nonzero"></path>
                    <path d="M26.3610928,32 L4.63890719,32 C4.28749925,32 4,32.2250035 4,32.5000234 C4,32.7749965 4.28749925,33 4.63890719,33 L26.3610928,33 C26.7125007,33 27,32.7749965 27,32.4999766 C26.9999401,32.2250035 26.7124409,32 26.3610928,32 Z" id="Shape" fill-rule="nonzero"></path>
                    <path d="M31.01709,10.2862568 L29.0765963,8.08982727 C29.0004985,8.00273542 28.8927131,7.95291865 28.7785664,7.95916033 C28.087325,7.97158536 27.878056,8.63740341 28.207833,9.01073752 L30.0532044,11.1014085 C30.4844054,11.5867429 30.7317233,11.8854102 30.7317233,12.3334111 L28.9560883,12.3334111 C28.5375504,12.3334111 28.1951104,12.6694118 28.1951104,13.0800793 L28.1951104,16.0666939 C28.1951104,16.7511203 28.7658438,17.3111215 29.4633871,17.3111215 L30.7316638,17.3111215 L30.7316638,26.6444743 C30.7316638,26.9867166 30.4462971,27.2667172 30.0974957,27.2667172 L28.6960479,27.2667172 C28.328222,27.2667172 28.1950509,26.9307165 28.1950509,26.6444743 L28.1950509,18.5244573 C28.1950509,17.4293634 27.1423449,16.6888785 26.1594349,16.6888785 L25.0243293,16.6888785 L25.0243293,6.11109815 C25.0243888,4.39376124 23.6039165,3 21.8536672,3 L9.17072156,3 C7.42047232,3 6,4.39376124 6,6.11109815 L6,30.3342403 C6,30.9626666 6.5136601,30.9689083 7.36976027,30.987575 C7.83270833,30.9938167 8.47317827,31 9.17072156,31 L21.8536672,31 C22.5575718,31 23.1917399,30.9937583 23.6546285,30.987575 C24.5107287,30.9751499 25.0243888,30.9626666 25.0243888,30.3342403 L25.0243888,17.9333644 L26.1594944,17.9333644 C26.5463447,17.9333644 26.9268336,18.2257901 26.9268336,18.5244573 L26.9268336,26.6444743 C26.9268336,27.7084765 27.6878115,28.5111448 28.6961073,28.5111448 L30.0975552,28.5111448 C31.1502611,28.5111448 32,27.6773847 32,26.6444743 L32,12.3333528 C32.0000595,11.4000175 31.480038,10.8089246 31.01709,10.2862568 Z M23.7561121,29.7431474 C23.3375742,29.7493891 22.6971043,29.7555724 21.8536672,29.7555724 L9.17072156,29.7555724 C8.32728453,29.7555724 7.68681459,29.7493307 7.26827673,29.7431474 L7.26827673,6.11109815 C7.26827673,5.07818766 8.1180156,4.24442759 9.17072156,4.24442759 L21.8536672,4.24442759 C22.9063732,4.24442759 23.7561121,5.07818766 23.7561121,6.11109815 L23.7561121,29.7431474 Z M30.7317233,16.0666939 L29.4634465,16.0666939 L29.4634465,13.5777804 L30.7317233,13.5777804 L30.7317233,16.0666939 Z" id="Shape" fill-rule="nonzero"></path>
                </g>
            </g>
        </g>
    </g>
</svg>