<svg xmlns="http://www.w3.org/2000/svg" width="15" height="15" viewBox="0 0 15 15">
    <path fill="#000" fill-rule="nonzero" d="M7.5 3.125c-1.325 0-2.5 1.078-2.5 2.5v1.25c0 .063.019.122.053.173l.572.86v.978l-2.974 1.783a.314.314 0 0 0-.151.268v.626c0 .41.625.417.625 0v-.449l2.974-1.783a.314.314 0 0 0 .151-.268v-1.25a.313.313 0 0 0-.053-.174l-.572-.859V5.625c0-1.078.888-1.875 1.875-1.875.988 0 1.875.797 1.875 1.875V6.78l-.572.86a.31.31 0 0 0-.053.173v1.25c0 .11.057.212.151.268l2.974 1.783v.448c0 .426.625.4.625 0v-.624a.314.314 0 0 0-.151-.27L9.375 8.887v-.978l.572-.86A.313.313 0 0 0 10 6.875v-1.25c0-1.422-1.175-2.5-2.5-2.5zM8.513 10a.247.247 0 0 0-.166.068l-2.175 2.179-.772-.772c-.21-.21-.546.125-.331.331l.936.938c.092.091.24.091.332 0L8.678 10.4a.233.233 0 0 0-.165-.4zM7.5 0A7.506 7.506 0 0 0 0 7.5C0 11.637 3.362 15 7.5 15c4.137 0 7.5-3.363 7.5-7.5C15 3.362 11.637 0 7.5 0zm0 .625c3.8 0 6.875 3.075 6.875 6.875S11.3 14.375 7.5 14.375A6.871 6.871 0 0 1 .625 7.5C.625 3.7 3.7.625 7.5.625z"/>
</svg>
