<svg xmlns="http://www.w3.org/2000/svg" width="15" height="15" viewBox="0 0 15 15">
    <path fill="#000" fill-rule="nonzero" d="M1.957 7.5a.326.326 0 1 1-.653 0 .326.326 0 0 1 .653 0zm5.87 5.87a.326.326 0 1 1-.653 0 .326.326 0 0 1 .652 0zm5.869-5.87a.326.326 0 1 1-.653 0 .326.326 0 0 1 .653 0zm-5.87-5.87a.326.326 0 1 1-.652 0 .326.326 0 0 1 .652 0zM7.5 2.61a.325.325 0 0 0-.326.326v3.648a.98.98 0 0 0-.652.917c0 .537.441.978.978.978a.979.979 0 0 0 .917-.652h2.344a.325.325 0 1 0 0-.652H8.417a.981.981 0 0 0-.59-.591V2.935a.325.325 0 0 0-.327-.326zm0 4.565c.184 0 .326.142.326.326a.321.321 0 0 1-.326.326.321.321 0 0 1-.326-.326c0-.184.142-.326.326-.326zM7.5 0A7.505 7.505 0 0 0 0 7.5C0 11.638 3.362 15 7.5 15S15 11.638 15 7.5 11.638 0 7.5 0zm0 .652A6.843 6.843 0 0 1 14.348 7.5 6.843 6.843 0 0 1 7.5 14.348 6.843 6.843 0 0 1 .652 7.5 6.843 6.843 0 0 1 7.5.652z"/>
</svg>
