<?xml version="1.0" encoding="UTF-8"?>
<svg width="30px" height="30px" viewBox="0 0 30 30" version="1.1" xmlns="http://www.w3.org/2000/svg" xmlns:xlink="http://www.w3.org/1999/xlink">
    <!-- Generator: Sketch 47.1 (45422) - http://www.bohemiancoding.com/sketch -->
    <title>Group 4 Copy</title>
    <desc>Created with Sketch.</desc>
    <defs></defs>
    <g id="WWW&gt;Web" stroke="none" stroke-width="1" fill="none" fill-rule="evenodd">
        <g id="listing-mobil-baru" transform="translate(-653.000000, -703.000000)">
            <g id="Group-32" transform="translate(481.000000, 693.000000)">
                <g id="Group-28-Copy">
                    <g id="Group-24">
                        <g id="Group-25-+-Sopan-Sopian-Li-+-Kijang-+-TOYOTA-Kijang-Innova-+-Individu-|-2500-cc-|-+-Rp-168.000.000-+-Group-24-+-Line-2-Mask-Copy-3">
                            <g id="Group-4-Copy" transform="translate(172.000000, 10.000000)">
                                <g id="Group-3-Copy" transform="translate(1.000000, 1.000000)">
                                    <circle id="Oval-6" stroke="#F4F4F4" fill="#FFFFFF" cx="13.9655172" cy="13.9655172" r="13.9655172"></circle>
                                    <g id="ic_compare" transform="translate(6.000000, 6.000000)" fill="#2C8AFA">
                                        <g id="Icon-24px" transform="translate(2.000000, 1.000000)">
                                            <path d="M4.66666667,1.27272727 L1.33333333,1.27272727 C0.6,1.27272727 0,1.84545455 0,2.54545455 L0,11.4545455 C0,12.1545455 0.6,12.7272727 1.33333333,12.7272727 L4.66666667,12.7272727 L4.66666667,14 L6,14 L6,0 L4.66666667,0 L4.66666667,1.27272727 L4.66666667,1.27272727 Z M4.66666667,10.8181818 L1.33333333,10.8181818 L4.66666667,7 L4.66666667,10.8181818 L4.66666667,10.8181818 Z M10.6666667,1.27272727 L7.33333333,1.27272727 L7.33333333,2.54545455 L10.6666667,2.54545455 L10.6666667,10.8181818 L7.33333333,7 L7.33333333,12.7272727 L10.6666667,12.7272727 C11.4,12.7272727 12,12.1545455 12,11.4545455 L12,2.54545455 C12,1.84545455 11.4,1.27272727 10.6666667,1.27272727 L10.6666667,1.27272727 Z" id="Shape"></path>
                                        </g>
                                    </g>
                                </g>
                            </g>
                        </g>
                    </g>
                </g>
            </g>
        </g>
    </g>
</svg>