<?xml version="1.0" encoding="UTF-8"?>
<svg width="71px" height="71px" viewBox="0 0 71 71" version="1.1" xmlns="http://www.w3.org/2000/svg" xmlns:xlink="http://www.w3.org/1999/xlink">
    <!-- Generator: sketchtool 48.1 (47250) - http://www.bohemiancoding.com/sketch -->
    <title>D55470BB-38BD-4C2B-9508-DE648206286C</title>
    <desc>Created with sketchtool.</desc>
    <defs></defs>
    <g id="1.3-List-Mobil-Baru-1.4.8-Filter" stroke="none" stroke-width="1" fill="none" fill-rule="evenodd" transform="translate(-277.000000, -1027.000000)">
        <g id="Group-7" transform="translate(13.000000, 1003.000000)">
            <g id="Group-35" transform="translate(264.000000, 24.000000)">
                <g id="Group-8" transform="translate(3.000000, 3.000000)">
                    <rect id="Rectangle-Copy-6" fill="#2C8AFA" x="0" y="0" width="65" height="65" rx="8"></rect>
                    <text id="CVT" font-family="Roboto-Regular, Roboto" font-size="11" font-weight="normal" fill="#FFFFFF">
                        <tspan x="22.1391602" y="54">CVT</tspan>
                    </text>
                </g>
                <g id="CVT" transform="translate(18.000000, 8.000000)" fill-rule="nonzero">
                    <path d="M26.3305371,7.69133789 L25.592666,7.69133789 L25.592666,5.19362305 C25.592666,4.5665625 25.0842773,4.05824219 24.4572852,4.05824219 C23.830293,4.05824219 23.3219043,4.56663086 23.3219043,5.19362305 L23.3219043,7.69133789 L22.5839648,7.69133789 C20.5606641,7.69133789 18.914502,9.33743164 18.914502,11.3608008 L18.914502,27.0695117 C18.914502,29.0928125 20.5605957,30.7389746 22.5839648,30.7389746 L26.3305371,30.7389746 C28.3538379,30.7389746 30,29.0928809 30,27.0695117 L30,11.3607324 C30,9.33743164 28.3539063,7.69133789 26.3305371,7.69133789 Z M27.7292383,27.0695117 C27.7292383,27.8406738 27.1018359,28.4681445 26.3306055,28.4681445 L22.5840332,28.4681445 C21.8128711,28.4681445 21.1854004,27.8407422 21.1854004,27.0695117 L21.1854004,11.3607324 C21.1854004,10.5895703 21.8128027,9.96209961 22.5840332,9.96209961 L26.3306055,9.96209961 C27.1017676,9.96209961 27.7292383,10.589502 27.7292383,11.3607324 L27.7292383,27.0695117 Z" id="Shape" stroke="#FFFFFF" stroke-width="1.5"></path>
                    <path d="M14.3823438,12.5356934 L13.6632031,12.5356934 L13.6442676,11.4187012 C13.6413281,11.2462305 13.599082,11.0764941 13.5208105,10.9227539 L10.3416895,4.6784668 C10.0571777,4.11962891 9.37337891,3.89732422 8.81474609,4.18176758 C8.2559082,4.4662793 8.03360352,5.14987305 8.31804688,5.70871094 L11.3781543,11.7192773 L11.3920313,12.535625 L10.6357031,12.535625 C8.61240234,12.535625 6.96624023,14.1817188 6.96624023,16.2050879 L6.96624023,27.0694434 C6.96624023,29.0927441 8.61233398,30.7389063 10.6357031,30.7389063 L14.3823438,30.7389063 C16.4056445,30.7389063 18.0518066,29.0928125 18.0518066,27.0694434 L18.0518066,16.2050879 C18.0518066,14.1817871 16.4057129,12.5356934 14.3823438,12.5356934 Z M15.7810449,27.0695117 C15.7810449,27.8406738 15.1536426,28.4681445 14.3824121,28.4681445 L10.6357715,28.4681445 C9.86460938,28.4681445 9.23713867,27.8407422 9.23713867,27.0695117 L9.23713867,16.2050879 C9.23713867,15.4339258 9.86454102,14.8064551 10.6357715,14.8064551 L14.3824121,14.8064551 C15.1535742,14.8064551 15.7810449,15.4338574 15.7810449,16.2050879 L15.7810449,27.0695117 Z" id="Shape" stroke="#FFFFFF" stroke-width="1.5"></path>
                    <path d="M25.6455762,16.1495117 L23.2688574,16.1495117 C22.6417969,16.1495117 22.1334766,16.6579004 22.1334766,17.2848926 C22.1334766,17.9118848 22.6418652,18.4202734 23.2688574,18.4202734 L25.6455762,18.4202734 C26.2726367,18.4202734 26.780957,17.9118848 26.780957,17.2848926 C26.780957,16.6579004 26.2726367,16.1495117 25.6455762,16.1495117 Z" id="Shape" fill="#FFFFFF"></path>
                    <path d="M25.6455762,12.1945801 L23.2688574,12.1945801 C22.6417969,12.1945801 22.1334766,12.7029688 22.1334766,13.3299609 C22.1334766,13.9569531 22.6418652,14.4653418 23.2688574,14.4653418 L25.6455762,14.4653418 C26.2726367,14.4653418 26.780957,13.9569531 26.780957,13.3299609 C26.780957,12.7029688 26.2726367,12.1945801 25.6455762,12.1945801 Z" id="Shape" fill="#FFFFFF"></path>
                    <path d="M25.6455762,20.1045117 L23.2688574,20.1045117 C22.6417969,20.1045117 22.1334766,20.6129004 22.1334766,21.2398926 C22.1334766,21.8668848 22.6418652,22.3752734 23.2688574,22.3752734 L25.6455762,22.3752734 C26.2726367,22.3752734 26.780957,21.8668848 26.780957,21.2398926 C26.780957,20.6129004 26.2726367,20.1045117 25.6455762,20.1045117 Z" id="Shape" fill="#FFFFFF"></path>
                    <path d="M25.6455762,24.0594434 L23.2688574,24.0594434 C22.6417969,24.0594434 22.1334766,24.567832 22.1334766,25.1948242 C22.1334766,25.8218164 22.6418652,26.3302051 23.2688574,26.3302051 L25.6455762,26.3302051 C26.2726367,26.3302051 26.780957,25.8218164 26.780957,25.1948242 C26.780957,24.567832 26.2726367,24.0594434 25.6455762,24.0594434 Z" id="Shape" fill="#FFFFFF"></path>
                    <path d="M13.7201465,16.7739746 L11.4493164,16.7739746 C10.8222559,16.7739746 10.3139355,17.2823633 10.3139355,17.9093555 C10.3139355,18.5363477 10.8223242,19.0447363 11.4493164,19.0447363 L13.7201465,19.0447363 C14.347207,19.0447363 14.8555273,18.5363477 14.8555273,17.9093555 C14.8555273,17.2823633 14.3472754,16.7739746 13.7201465,16.7739746 Z" id="Shape" fill="#FFFFFF"></path>
                    <path d="M13.7201465,20.5018848 L11.4493164,20.5018848 C10.8222559,20.5018848 10.3139355,21.0102734 10.3139355,21.6372656 C10.3139355,22.2642578 10.8223242,22.7726465 11.4493164,22.7726465 L13.7201465,22.7726465 C14.347207,22.7726465 14.8555273,22.2642578 14.8555273,21.6372656 C14.8555273,21.0102734 14.3472754,20.5018848 13.7201465,20.5018848 Z" id="Shape" fill="#FFFFFF"></path>
                    <path d="M13.7201465,24.2297949 L11.4493164,24.2297949 C10.8222559,24.2297949 10.3139355,24.7381836 10.3139355,25.3651758 C10.3139355,25.992168 10.8223242,26.5005566 11.4493164,26.5005566 L13.7201465,26.5005566 C14.347207,26.5005566 14.8555273,25.992168 14.8555273,25.3651758 C14.8555273,24.7381836 14.3472754,24.2297949 13.7201465,24.2297949 Z" id="Shape" fill="#FFFFFF"></path>
                </g>
            </g>
        </g>
    </g>
</svg>