<?xml version="1.0" encoding="UTF-8"?>
<svg width="17px" height="15px" viewBox="0 0 17 15" version="1.1" xmlns="http://www.w3.org/2000/svg" xmlns:xlink="http://www.w3.org/1999/xlink">
    <!-- Generator: Sketch 48.2 (47327) - http://www.bohemiancoding.com/sketch -->
    <title>discuss-issue</title>
    <desc>Created with Sketch.</desc>
    <defs></defs>
    <g id="Sales-Page-Pro-3.0-(galery)" stroke="none" stroke-width="1" fill="none" fill-rule="evenodd" transform="translate(-334.000000, -544.000000)">
        <g id="Group-29" transform="translate(0.000000, 524.000000)" fill="#585A58" fill-rule="nonzero">
            <g id="Group-16">
                <g id="Group-46" transform="translate(334.000000, 18.000000)">
                    <g id="discuss-issue" transform="translate(0.000000, 2.000000)">
                        <path d="M13.0066391,3.53614979 C13.0066391,4.03502776 12.6317025,4.33842832 12.3579229,4.56107932 C12.2542369,4.6454127 12.0612424,4.79929049 12.0617576,4.85676784 C12.0636309,5.08223147 11.8764904,5.26228482 11.6436887,5.26228482 C11.6425179,5.26228482 11.6413471,5.26228482 11.6401763,5.26228482 C11.4090138,5.26228482 11.2206556,5.08776599 11.2187824,4.86343648 C11.2150826,4.42126465 11.5481983,4.15646964 11.8158898,3.93876341 C12.0259311,3.76791914 12.1636639,3.64770212 12.1636639,3.5376922 C12.1636639,3.31499583 11.9766171,3.13380835 11.746719,3.13380835 C11.5167273,3.13380835 11.3296336,3.31499583 11.3296336,3.5376922 C11.3296336,3.76320119 11.1409477,3.94597643 10.908146,3.94597643 C10.6753444,3.94597643 10.4866584,3.76320119 10.4866584,3.5376922 C10.4866584,2.86474904 11.0518733,2.31723988 11.7466253,2.31723988 C12.4414242,2.31719451 13.0066391,2.86316127 13.0066391,3.53614979 Z M11.6518375,5.63917654 C11.4190358,5.63917654 11.2396694,5.82195178 11.2396694,6.04746077 L11.2396694,6.05059095 C11.2396694,6.27609995 11.4190826,6.45733278 11.6518375,6.45733278 C11.8845923,6.45733278 12.0733251,6.27296977 12.0733251,6.04746077 C12.0733251,5.82195178 11.8846391,5.63917654 11.6518375,5.63917654 Z M3.15609917,8.48323918 C2.92329752,8.48323918 2.73461157,8.66601442 2.73461157,8.89152341 C2.73461157,9.11703241 2.92329752,9.29980765 3.15609917,9.29980765 L3.19122314,9.29980765 C3.42402479,9.29980765 3.61271074,9.11703241 3.61271074,8.89152341 C3.61271074,8.66601442 3.42402479,8.48323918 3.19122314,8.48323918 L3.15609917,8.48323918 Z M4.62095592,8.48323918 C4.38815427,8.48323918 4.19946832,8.66601442 4.19946832,8.89152341 C4.19946832,9.11703241 4.38815427,9.29980765 4.62095592,9.29980765 L4.65603306,9.29980765 C4.88883471,9.29980765 5.07752066,9.11703241 5.07752066,8.89152341 C5.07752066,8.66601442 4.88883471,8.48323918 4.65603306,8.48323918 L4.62095592,8.48323918 Z M17,1.96207796 L17,6.55758925 C17,7.64566674 16.0993278,8.52860409 14.9760634,8.52860409 L9.50997796,8.52860409 C9.40310744,8.52860409 9.31511019,8.52801435 9.24149036,8.52651731 C9.16435813,8.5249749 9.07753168,8.52438515 9.04367218,8.52801435 C9.00840771,8.55069681 8.92195592,8.62740888 8.83864187,8.70176197 C8.80562534,8.7312038 8.76825344,8.76359435 8.72793113,8.79925118 L7.18144628,10.1646444 C7.05809091,10.2736563 6.87558678,10.3018733 6.72282094,10.2366385 C6.5700551,10.1713584 6.46280992,10.0248297 6.46280992,9.86310381 L6.46280992,5.53451968 L2.04749311,5.53451968 C1.38894215,5.53451968 0.842975207,6.0572596 0.842975207,6.69509031 L0.842975207,11.2906016 C0.842975207,11.9284777 1.38898898,12.4299868 2.04749311,12.4299868 L8.15316253,12.4299868 C8.25830028,12.4299868 8.35664738,12.476758 8.43429477,12.5454405 L9.69421488,13.6706719 L9.69421488,9.79020239 C9.69421488,9.56469339 9.88290083,9.38191815 10.1157025,9.38191815 C10.3485041,9.38191815 10.5371901,9.56469339 10.5371901,9.79020239 L10.5371901,14.5960708 C10.5371901,14.7577967 10.4416529,14.9021479 10.2888402,14.967428 C10.2341873,14.9907909 10.1793003,15 10.1218375,15 C10.0186198,15 9.91680716,14.9589448 9.83761433,14.8889013 L7.98976584,13.2465099 L2.04749311,13.2465099 C0.924181818,13.2465099 0,12.3786791 0,11.2905562 L0,6.69509031 C0,5.60701281 0.924181818,4.7179512 2.04749311,4.7179512 L6.46280992,4.7179512 L6.46280992,1.96207796 C6.46280992,0.873955095 7.39406336,0 8.51737466,0 L14.9761102,0 C16.0993278,0 17,0.873955095 17,1.96207796 Z M16.1570248,1.96207796 C16.1570248,1.32420188 15.6345207,0.816568477 14.9760634,0.816568477 L8.51737466,0.816568477 C7.85887052,0.816568477 7.30578512,1.32420188 7.30578512,1.96207796 L7.30578512,5.13004609 L7.30578512,8.9377049 L8.15320937,8.19585244 C8.19245455,8.16114828 8.23642975,8.12939284 8.26850964,8.10072221 C8.65548209,7.75531374 8.75448485,7.70010464 9.25923967,7.71017565 C9.32808264,7.71158197 9.4100854,7.71208098 9.50997796,7.71208098 L14.9760634,7.71208098 C15.6345207,7.71208098 16.1570248,7.19546532 16.1570248,6.55763461 L16.1570248,1.96207796 Z" id="Shape"></path>
                    </g>
                </g>
            </g>
        </g>
    </g>
</svg>