<svg xmlns="http://www.w3.org/2000/svg" width="24" height="24" viewBox="0 0 24 24">
    <g fill="#9B9B9B" fill-rule="nonzero" transform="translate(4 4)">
        <path d="M16.456 4.722L7.063.235a.219.219 0 0 0-.293.101l-2.044 4.28H5.84l1.5-3.145 8.144 3.89-2.547 5.331-1.433-.684v2.818l.881.42c.11.054.24.006.293-.103l3.882-8.13a.217.217 0 0 0-.104-.29z"/>
        <path d="M10.631 5.132H.221A.22.22 0 0 0 0 5.351v9.01c0 .12.1.219.22.219h10.41a.22.22 0 0 0 .22-.22V5.35a.219.219 0 0 0-.219-.218zm-.601 6.905h-.66c-.384-.986-.857-2.365-1.575-2.181-.842.215-1.262 2.18-1.262 2.18s-.43-2.218-1.618-3.405c-1.188-1.188-2.338 3.406-2.338 3.406H1.005V6.128h9.025v5.909z"/>
        <circle cx="2.461" cy="7.396" r="1"/>
        <path d="M7.402 7.916c.165 0 .32-.017.457-.045.161.068.357.11.568.11.543 0 .982-.265.982-.593 0-.326-.439-.592-.982-.592-.204 0-.393.038-.55.102a.353.353 0 0 0-.247-.102h-.142a.35.35 0 0 0-.347.314c-.439.047-.766.206-.766.395 0 .227.46.411 1.027.411z"/>
    </g>
</svg>
