<svg xmlns="http://www.w3.org/2000/svg" xmlns:xlink="http://www.w3.org/1999/xlink" width="71" height="71" viewBox="0 0 71 71">
    <defs>
        <rect id="a" width="65" height="65" x="3" y="3" rx="8"/>
    </defs>
    <g fill="none" fill-rule="evenodd">
        <g>
            <use fill="#FFF" xlink:href="#a"/>
            <rect width="64" height="64" x="3.5" y="3.5" stroke="#E8E8E8" rx="8"/>
        </g>
        <g fill="#9B9B9B" fill-rule="nonzero">
            <path d="M23.584 27.108a2.759 2.759 0 1 0 2.76 2.758 2.759 2.759 0 0 0-2.76-2.758zm-1.382 1.72l.564.562a.935.935 0 0 0-.1.243h-.794c.041-.3.157-.575.33-.806zm-.333 1.283h.8a.946.946 0 0 0 .1.239l-.565.564a1.727 1.727 0 0 1-.335-.803zm1.477 1.47a1.713 1.713 0 0 1-.8-.331l.56-.561a.938.938 0 0 0 .24.096v.797zm0-2.632a.916.916 0 0 0-.244.102l-.562-.562c.231-.176.505-.292.806-.334v.794zm.478-.794c.301.042.575.158.806.334l-.562.562a.916.916 0 0 0-.244-.102v-.794zm0 3.426v-.796a.94.94 0 0 0 .24-.097l.56.562c-.23.172-.501.29-.8.331zm1.143-.665l-.566-.567a.941.941 0 0 0 .103-.239h.793c-.042.3-.156.576-.33.806zm-.463-1.283a.958.958 0 0 0-.1-.243l.563-.563c.175.23.29.505.331.805h-.794zM46.815 27.108a2.759 2.759 0 1 0-.001 5.518 2.759 2.759 0 0 0 0-5.518zm-1.382 1.72l.563.562a.923.923 0 0 0-.1.243h-.794c.042-.3.157-.575.33-.806zM45.1 30.11h.799a.946.946 0 0 0 .1.239l-.565.563a1.728 1.728 0 0 1-.334-.802zm1.477 1.47a1.713 1.713 0 0 1-.8-.331l.56-.561a.938.938 0 0 0 .24.096v.797zm0-2.632a.909.909 0 0 0-.244.102l-.562-.562c.23-.176.505-.292.806-.334v.794zm.477-.794c.301.042.575.158.806.334l-.562.562a.918.918 0 0 0-.244-.102v-.794zm0 3.426v-.796a.945.945 0 0 0 .24-.097l.561.562c-.23.172-.502.29-.8.331zm1.144-.665l-.566-.567a.941.941 0 0 0 .102-.239h.793c-.042.3-.155.576-.33.806zm-.463-1.283a.958.958 0 0 0-.1-.243l.563-.563c.175.23.29.505.331.805h-.794z"/>
            <path d="M52.69 26.23l-.53-.506.001-1.599c0-.42-.154-.824-.435-1.135l-1.96-2.171v-.001a.951.951 0 0 0-.778-.915c-2.33-.438-9.562-1.57-15.286-.033-3.537.95-7.132 2.862-7.132 2.862s-6.244.796-7.74 2.746c-.521.679-.74 1.57-.819 2.373a2.227 2.227 0 0 0 1.728 2.396l.577.13c-.005-.032-.012-.062-.016-.095a3.222 3.222 0 0 1-.029-.416 3.318 3.318 0 0 1 3.315-3.314 3.318 3.318 0 0 1 3.3 3.596c-.01.113-.025.224-.046.333l16.73.034c-.015-.077-.03-.154-.04-.233a3.222 3.222 0 0 1-.029-.416 3.318 3.318 0 0 1 3.315-3.314 3.318 3.318 0 0 1 3.3 3.596 3.19 3.19 0 0 1-.057.38h.228l.952-.521a3.217 3.217 0 0 0 1.67-2.7l.019-.495a.768.768 0 0 0-.237-.582zM29.86 22.957l.256-1.023s3.875-2.027 10.36-1.806v3.022l-10.387.82s.056-.649-.23-1.013zm16.643-.282l-4.884.385v-2.869c1.606.117 3.352.37 5.225.823a.561.561 0 0 1 .297.909l-.638.752z"/>
        </g>
        <text fill="#000" fill-opacity=".87" font-family="Roboto-Regular, Roboto" font-size="11">
            <tspan x="9" y="57">Hatchback</tspan>
        </text>
    </g>
</svg>
