<?xml version="1.0" encoding="UTF-8"?>
<svg width="71px" height="71px" viewBox="0 0 71 71" version="1.1" xmlns="http://www.w3.org/2000/svg" xmlns:xlink="http://www.w3.org/1999/xlink">
    <!-- Generator: sketchtool 48.1 (47250) - http://www.bohemiancoding.com/sketch -->
    <title>EC31224E-99E8-4894-A799-E3A610121483</title>
    <desc>Created with sketchtool.</desc>
    <defs></defs>
    <g id="1.3-List-Mobil-Baru-1.4.8-Filter" stroke="none" stroke-width="1" fill="none" fill-rule="evenodd" transform="translate(-13.000000, -717.000000)">
        <g id="Group-6-Copy" transform="translate(13.000000, 693.000000)">
            <g id="Group-24" transform="translate(0.000000, 24.000000)">
                <rect id="Rectangle" fill="#2C8AFA" x="3" y="3" width="65" height="65" rx="8"></rect>
                <g id="car-of-hatchback-model" transform="translate(16.000000, 8.000000)" fill="#FFFFFF" fill-rule="nonzero">
                    <path d="M7.58444444,19.1079798 C6.06070707,19.1079798 4.82510101,20.3425253 4.82510101,21.8669697 C4.82510101,21.9850505 4.83464646,22.100303 4.84949495,22.2141414 C5.02025253,23.5741919 6.17843434,24.6266667 7.58444444,24.6266667 C9.02934343,24.6266667 10.2126263,23.5158586 10.3324747,22.1020707 C10.3388384,22.0239394 10.3444949,21.9465152 10.3444949,21.8662626 C10.3448485,20.3428788 9.10924242,19.1079798 7.58444444,19.1079798 Z M6.20247475,20.8272222 L6.76565657,21.390404 C6.72181818,21.4657071 6.68752525,21.5463131 6.66560606,21.6332828 L5.87191919,21.6332828 C5.91328283,21.3320707 6.02888889,21.0580808 6.20247475,20.8272222 Z M5.86944444,22.1105556 L6.66843434,22.1105556 C6.69106061,22.1950505 6.72429293,22.2763636 6.76813131,22.349899 L6.20388889,22.9137879 C6.02994949,22.6843434 5.91151515,22.4096465 5.86944444,22.1105556 Z M7.34616162,23.5816162 C7.04742424,23.5402525 6.77555556,23.4232323 6.54575758,23.2496465 L7.10681818,22.6885859 C7.18035354,22.7317172 7.26166667,22.7631818 7.34616162,22.785101 L7.34616162,23.5816162 Z M7.34616162,20.9491919 C7.25919192,20.9711111 7.17787879,21.0061111 7.10222222,21.0510101 L6.54010101,20.4885354 C6.7709596,20.3131818 7.04530303,20.1968687 7.34616162,20.1551515 L7.34616162,20.9491919 Z M7.82414141,20.1551515 C8.12535354,20.1968687 8.39934343,20.3131818 8.63020202,20.4888889 L8.06808081,21.0510101 C7.99242424,21.0061111 7.91111111,20.9711111 7.82414141,20.9491919 L7.82414141,20.1551515 Z M7.82414141,23.5812626 L7.82414141,22.785101 C7.9089899,22.7628283 7.98959596,22.7313636 8.06348485,22.6878788 L8.62489899,23.2496465 C8.39474747,23.4221717 8.12252525,23.5395455 7.82414141,23.5812626 Z M8.96747475,22.9159091 L8.40146465,22.3491919 C8.44530303,22.275303 8.48171717,22.1957576 8.50434343,22.110202 L9.29732323,22.110202 C9.25489899,22.4096465 9.14141414,22.6861111 8.96747475,22.9159091 Z M8.50434343,21.6325758 C8.48207071,21.5463131 8.44813131,21.465 8.40429293,21.389697 L8.96747475,20.8265152 C9.14176768,21.0573737 9.25666667,21.3317172 9.2980303,21.6318687 L8.50434343,21.6325758 Z" id="Shape"></path>
                    <path d="M30.814899,19.1079798 C29.2911616,19.1079798 28.0555556,20.3425253 28.0555556,21.8669697 C28.0555556,21.9850505 28.065101,22.100303 28.0799495,22.2141414 C28.2503535,23.5741919 29.4088889,24.6266667 30.8145455,24.6266667 C32.2594444,24.6266667 33.4430808,23.5158586 33.5625758,22.1020707 C33.5689394,22.0239394 33.574596,21.9465152 33.574596,21.8662626 C33.575303,20.3428788 32.339697,19.1079798 30.814899,19.1079798 Z M29.4325758,20.8272222 L29.9961111,21.390404 C29.9522727,21.4657071 29.9176263,21.5463131 29.8960606,21.6332828 L29.1023737,21.6332828 C29.1437374,21.3320707 29.2589899,21.0580808 29.4325758,20.8272222 Z M29.099899,22.1105556 L29.8988889,22.1105556 C29.9215152,22.1950505 29.9547475,22.2763636 29.9985859,22.349899 L29.4343434,22.9134343 C29.2607576,22.6843434 29.1419697,22.4096465 29.099899,22.1105556 Z M30.5766162,23.5816162 C30.2778788,23.5402525 30.0060101,23.4232323 29.7762121,23.2496465 L30.3372727,22.6885859 C30.4108081,22.7317172 30.4921212,22.7631818 30.5766162,22.785101 L30.5766162,23.5816162 Z M30.5766162,20.9491919 C30.4896465,20.9711111 30.4083333,21.0061111 30.3330303,21.0510101 L29.7705556,20.4885354 C30.0014141,20.3131818 30.2761111,20.1968687 30.5766162,20.1551515 L30.5766162,20.9491919 Z M31.0542424,20.1551515 C31.3554545,20.1968687 31.6294444,20.3131818 31.8599495,20.4888889 L31.2978283,21.0510101 C31.2221717,21.0061111 31.1408586,20.9711111 31.0542424,20.9491919 L31.0542424,20.1551515 Z M31.0542424,23.5812626 L31.0542424,22.785101 C31.1387374,22.7628283 31.219697,22.7313636 31.2935859,22.6878788 L31.855,23.2496465 C31.6248485,23.4221717 31.3533333,23.5395455 31.0542424,23.5812626 Z M32.1975758,22.9159091 L31.6315657,22.3491919 C31.675404,22.275303 31.7118182,22.1957576 31.7344444,22.110202 L32.5274242,22.110202 C32.485,22.4096465 32.3722222,22.6861111 32.1975758,22.9159091 Z M31.7351515,21.6325758 C31.7128788,21.5463131 31.6789394,21.465 31.635101,21.389697 L32.1982828,20.8265152 C32.3725758,21.0573737 32.4874747,21.3317172 32.5291919,21.6318687 L31.7351515,21.6325758 Z" id="Shape"></path>
                    <path d="M36.6906566,18.2301515 L36.1603535,17.7235354 L36.1614141,16.125202 C36.1617677,15.7055556 36.0065657,15.3011111 35.7255051,14.99 L33.7651515,12.8189394 L33.7651515,12.8178788 C33.7556061,12.3667677 33.4317677,11.9856566 32.9884343,11.9025758 C30.6575758,11.4645455 23.4256566,10.3321717 17.7015657,11.8700505 C14.1651515,12.82 10.569697,14.7322727 10.569697,14.7322727 C10.569697,14.7322727 4.32626263,15.5277273 2.83010101,17.4778283 C2.3089899,18.1566162 2.09050505,19.0482323 2.01131313,19.8514646 C1.90065657,20.9739394 2.63883838,21.9988384 3.73868687,22.2466667 L4.3160101,22.3767677 C4.31106061,22.345303 4.30363636,22.3145455 4.29974747,22.2820202 C4.28065657,22.1349495 4.27111111,21.9977778 4.27111111,21.8659091 C4.27111111,20.0384848 5.75808081,18.5518687 7.58550505,18.5518687 C9.41328283,18.5518687 10.9002525,20.0384848 10.9002525,21.8659091 C10.9002525,21.9617172 10.8938889,22.0543434 10.8861111,22.1480303 C10.8765657,22.2608081 10.8606566,22.3718182 10.839798,22.4807071 L27.5701515,22.5146465 C27.5549495,22.4375758 27.5397475,22.3608586 27.5298485,22.2820202 C27.5107576,22.1349495 27.5012121,21.9977778 27.5012121,21.8659091 C27.5012121,20.0384848 28.9881818,18.5518687 30.8156061,18.5518687 C32.6433838,18.5518687 34.1303535,20.0384848 34.1303535,21.8659091 C34.1303535,21.9617172 34.1239899,22.0543434 34.1162121,22.1480303 C34.1056061,22.2770707 34.0843939,22.4036364 34.0589394,22.5277273 L34.2873232,22.5280808 L35.2390404,22.0066162 C36.2317677,21.4632323 36.8660101,20.4376263 36.9087879,19.3070202 L36.9278788,18.8124242 C36.9356566,18.5939394 36.8497475,18.3825253 36.6906566,18.2301515 Z M13.8586364,14.9571212 L14.114596,13.9343434 C14.114596,13.9343434 17.989697,11.9071717 24.475303,12.1277778 L24.475303,15.1501515 L14.0880808,15.9696465 C14.0880808,15.9696465 14.1439394,15.3212626 13.8586364,14.9571212 Z M30.5023737,14.675 L25.6182828,15.0603535 L25.6182828,12.1914141 C27.2243939,12.3080808 28.969798,12.5615657 30.8431818,13.0140909 C31.0326768,13.059697 31.184697,13.200404 31.2451515,13.3856566 C31.3059596,13.5709091 31.2663636,13.7745455 31.1401515,13.9230303 L30.5023737,14.675 Z" id="Shape"></path>
                </g>
                <text id="Hatchback" font-family="Roboto-Regular, Roboto" font-size="11" font-weight="normal" fill="#FFFFFF">
                    <tspan x="9" y="57">Hatchback</tspan>
                </text>
            </g>
        </g>
    </g>
</svg>