<svg xmlns="http://www.w3.org/2000/svg" width="24" height="24" viewBox="0 0 24 24">
    <g fill="#EE5A2A" fill-rule="nonzero">
        <path d="M18.51 6.49A8.444 8.444 0 0 0 12.5 4c-2.27 0-4.405.884-6.01 2.49A8.444 8.444 0 0 0 4 12.5c0 2.27.884 4.405 2.49 6.01A8.444 8.444 0 0 0 12.5 21c2.27 0 4.405-.884 6.01-2.49A8.444 8.444 0 0 0 21 12.5c0-2.27-.884-4.405-2.49-6.01zM12.5 20.323c-4.313 0-7.823-3.51-7.823-7.823 0-4.313 3.51-7.823 7.823-7.823 4.313 0 7.823 3.51 7.823 7.823 0 4.313-3.51 7.823-7.823 7.823z"/>
        <path d="M19.344 13.899a.338.338 0 0 0-.412.244 6.586 6.586 0 0 1-.934 2.077.339.339 0 0 0 .56.38 7.26 7.26 0 0 0 1.03-2.29.339.339 0 0 0-.244-.411zM19.476 12.161a.339.339 0 0 0-.339.339c0 .097-.002.194-.006.29a.339.339 0 1 0 .677.03c.004-.106.007-.213.007-.32a.339.339 0 0 0-.339-.339zM12.5 9.74c-.654 0-1.185.532-1.185 1.185v5.893c0 .653.531 1.185 1.185 1.185s1.185-.532 1.185-1.185v-5.893c0-.653-.531-1.185-1.185-1.185zm.508 7.078a.509.509 0 0 1-1.016 0v-5.893a.509.509 0 0 1 1.016 0v5.893zM13.338 7.344a1.195 1.195 0 0 0-.838-.347c-.312 0-.617.126-.838.347-.22.22-.347.526-.347.838 0 .312.126.617.347.839.22.22.526.347.838.347.312 0 .617-.127.838-.348.22-.22.347-.526.347-.838 0-.312-.126-.617-.347-.838zm-.479 1.197a.512.512 0 0 1-.719 0 .511.511 0 0 1 .359-.867.511.511 0 0 1 .36.867z"/>
    </g>
</svg>
