<svg xmlns="http://www.w3.org/2000/svg" xmlns:xlink="http://www.w3.org/1999/xlink" width="71" height="71" viewBox="0 0 71 71">
    <defs>
        <rect id="a" width="65" height="65" x="3" y="3" rx="8"/>
    </defs>
    <g fill="none" fill-rule="evenodd">
        <g>
            <use fill="#FFF" xlink:href="#a"/>
            <rect width="64" height="64" x="3.5" y="3.5" stroke="#E8E8E8" rx="8"/>
        </g>
        <text fill="#000" fill-opacity=".87" font-family="Roboto-Regular, Roboto" font-size="11">
            <tspan x="22" y="57">LCGC</tspan>
        </text>
        <g fill="#9B9B9B" fill-rule="nonzero">
            <path d="M45.074 28.982a3.115 3.115 0 0 0 6.233 0 3.116 3.116 0 1 0-6.233 0zm5.05-.265h-.895a1.067 1.067 0 0 0-.113-.274l.636-.636c.196.261.327.57.373.91zm-.373 1.45l-.639-.64c.05-.084.09-.173.116-.27h.896c-.048.337-.176.65-.373.91zm-1.29-.148c.095-.025.186-.062.27-.11l.634.634c-.26.196-.567.328-.905.374v-.898zm0-2.97c.34.046.65.178.91.377l-.635.634a1.068 1.068 0 0 0-.275-.115v-.897zm-1.832.758l.636.636a1.03 1.03 0 0 0-.112.274h-.897a1.94 1.94 0 0 1 .373-.91zm1.292.139a1.08 1.08 0 0 0-.276.114l-.634-.634c.26-.198.57-.33.91-.377v.897zm-.905 2.597l.634-.634c.083.05.175.084.27.11v.898a1.923 1.923 0 0 1-.904-.374zm-.763-1.286h.902c.026.096.064.187.113.27l-.637.638c-.197-.26-.33-.57-.378-.908zM22 28.982c0 .133.01.263.027.392a3.115 3.115 0 0 0 6.206-.393 3.116 3.116 0 1 0-6.234 0zm5.05-.265h-.895a1.08 1.08 0 0 0-.113-.274l.636-.636c.196.261.326.57.373.91zm-.373 1.45l-.639-.64c.05-.084.09-.173.116-.27h.896c-.048.337-.176.65-.373.91zm-1.291-.148c.096-.025.187-.062.27-.11l.634.634c-.26.196-.567.328-.904.374v-.898zm0-2.97c.34.046.65.178.91.377l-.634.634a1.068 1.068 0 0 0-.276-.115v-.897zm-1.831.758l.636.636c-.05.085-.088.176-.113.274h-.896c.046-.34.176-.649.373-.91zm1.291.139a1.08 1.08 0 0 0-.275.114l-.635-.634c.26-.199.57-.33.91-.377v.897zm-.904 2.597l.633-.634c.084.05.175.084.271.11v.898a1.922 1.922 0 0 1-.904-.374zm-.763-1.286h.902c.025.096.064.187.113.27l-.637.638a1.95 1.95 0 0 1-.378-.908z"/>
            <path d="M18.365 27.34l.355 1.918c.08.434.459.75.9.75h1.79a3.778 3.778 0 0 1-.145-1.025 3.856 3.856 0 0 1 3.85-3.851 3.856 3.856 0 0 1 3.852 3.85 3.942 3.942 0 0 1-.143 1.026h15.662a3.78 3.78 0 0 1-.146-1.025 3.856 3.856 0 0 1 3.851-3.851 3.856 3.856 0 0 1 3.851 3.85 3.818 3.818 0 0 1-.143 1.026h.455s.774-2.488.501-3.619c-.212-.881-.756-1.24-.756-1.24s.052-1.293-.645-2.63c-.148-.284-1.297-1.847-3.026-3.405-.79-.713-1.412-.935-2.476-.938-3.013-.008-9.941-.023-11.578.004-1.089.018-1.715.187-2.66.751a.242.242 0 0 0-.116.269.239.239 0 0 0 .232.179h.061l-3.057 2.992s-1.207.006-1.61.023c-2 .082-5.598.378-7.78 2.04a1.381 1.381 0 0 0-.533.924c-.061.477-.07 1.005-.07 1.005a.916.916 0 0 0-.476.978zm25.106-7.962h3.159c.343 0 .675.114.946.325a9.933 9.933 0 0 1 1.75 1.774.378.378 0 1 1-.296.61l-5.558.078v-2.787zm-1.682 0h.214v2.808l-.214.003v-2.81zm-11.36 2.97l3.035-2.97h6.856v2.83l-7.27.103c.004-.036.01-.071.01-.108 0-.487-.348-.881-.778-.881-.43 0-.777.394-.777.88 0 .045.006.088.011.13l-1.086.016z"/>
        </g>
    </g>
</svg>
