<?xml version="1.0" encoding="UTF-8"?>
<svg width="71px" height="71px" viewBox="0 0 71 71" version="1.1" xmlns="http://www.w3.org/2000/svg" xmlns:xlink="http://www.w3.org/1999/xlink">
    <!-- Generator: sketchtool 48.1 (47250) - http://www.bohemiancoding.com/sketch -->
    <title>F5F0CBC1-FC6E-49D3-A901-B671E43C1C53</title>
    <desc>Created with sketchtool.</desc>
    <defs></defs>
    <g id="1.3-List-Mobil-Baru-1.4.8-Filter" stroke="none" stroke-width="1" fill="none" fill-rule="evenodd" transform="translate(-189.000000, -717.000000)">
        <g id="Group-6-Copy" transform="translate(13.000000, 693.000000)">
            <g id="Group-26" transform="translate(176.000000, 24.000000)">
                <rect id="Rectangle-Copy-6" fill="#2C8AFA" x="3" y="3" width="65" height="65" rx="8"></rect>
                <text id="LCGC" font-family="Roboto-Regular, Roboto" font-size="11" font-weight="normal" fill="#FFFFFF">
                    <tspan x="22" y="57">LCGC</tspan>
                </text>
                <g id="car-city-model" transform="translate(16.000000, 8.000000)" fill="#FFFFFF" fill-rule="nonzero">
                    <path d="M29.07355,20.98195 C29.07355,21.11495 29.0844,21.24515 29.1012,21.3736 C29.29405,22.90975 30.60235,24.09835 32.1903,24.09835 C33.822,24.09835 35.1583,22.84395 35.29375,21.2476 C35.3011,21.1594 35.30705,21.0712 35.30705,20.98125 C35.30705,19.2596 33.9123,17.8645 32.1903,17.8645 C30.46935,17.86555 29.07355,19.26065 29.07355,20.98195 Z M34.12475,20.71735 L33.2291,20.71735 C33.20425,20.6197 33.1654,20.528 33.11605,20.4433 L33.752,19.80735 C33.94835,20.0681 34.07855,20.37785 34.12475,20.71735 Z M33.7513,22.1667 L33.1122,21.5269 C33.1619,21.4429 33.2025,21.354 33.22805,21.25705 L34.1237,21.25705 C34.0761,21.59445 33.94835,21.907 33.7513,22.1667 Z M32.4605,22.01865 C32.5564,21.9938 32.6474,21.95705 32.7307,21.9084 L33.36455,22.5426 C33.1052,22.73895 32.7979,22.8709 32.4605,22.9171 L32.4605,22.01865 Z M32.4605,19.0482 C32.8007,19.09545 33.1101,19.2267 33.3712,19.4255 L32.7363,20.06005 C32.6509,20.00965 32.5592,19.9708 32.46085,19.94525 L32.46085,19.0482 L32.4605,19.0482 Z M30.6293,19.807 L31.2649,20.44295 C31.2152,20.52765 31.1767,20.61935 31.15255,20.717 L30.2562,20.717 C30.3024,20.37785 30.4326,20.0681 30.6293,19.807 Z M31.9208,19.9456 C31.82245,19.97115 31.73075,20.01035 31.64535,20.0604 L31.0108,19.42585 C31.2719,19.22775 31.58165,19.0965 31.9215,19.04925 L31.9208,19.9456 Z M31.0164,22.5426 L31.65025,21.90875 C31.7332,21.9581 31.82525,21.99345 31.92045,22.0183 L31.92045,22.91745 C31.5834,22.8716 31.27575,22.73895 31.0164,22.5426 Z M30.2527,21.2574 L31.15535,21.2574 C31.1809,21.3533 31.2187,21.4443 31.2677,21.5276 L30.63105,22.1646 C30.434,21.9049 30.30065,21.5948 30.2527,21.2574 Z" id="Shape"></path>
                    <path d="M5.9991,20.98195 C5.9991,21.11495 6.0096,21.24515 6.02675,21.3736 C6.2196,22.90975 7.5279,24.09835 9.1155,24.09835 C10.7472,24.09835 12.0835,22.84395 12.21895,21.2476 C12.2263,21.1594 12.2326,21.0712 12.2326,20.98125 C12.2326,19.2596 10.83785,17.8645 9.1155,17.8645 C7.39455,17.86555 5.9991,19.26065 5.9991,20.98195 Z M11.05065,20.71735 L10.15465,20.71735 C10.1298,20.6197 10.0906,20.528 10.0416,20.4433 L10.67755,19.80735 C10.87425,20.0681 11.0041,20.37785 11.05065,20.71735 Z M10.6772,22.1667 L10.0381,21.5269 C10.0878,21.4429 10.1284,21.354 10.15395,21.25705 L11.0496,21.25705 C11.00165,21.59445 10.87425,21.907 10.6772,22.1667 Z M9.38605,22.01865 C9.48195,21.9938 9.57295,21.95705 9.65625,21.9084 L10.2901,22.5426 C10.03075,22.73895 9.72345,22.8709 9.38605,22.9171 L9.38605,22.01865 Z M9.38605,19.0482 C9.7259,19.09545 10.03565,19.2267 10.2964,19.4255 L9.66185,20.06005 C9.57645,20.00965 9.48475,19.9708 9.3864,19.94525 L9.3864,19.0482 L9.38605,19.0482 Z M7.55485,19.807 L8.1908,20.44295 C8.1411,20.52765 8.1026,20.61935 8.0781,20.717 L7.1821,20.717 C7.22795,20.37785 7.35815,20.0681 7.55485,19.807 Z M8.84635,19.9456 C8.748,19.97115 8.6563,20.01035 8.5709,20.0604 L7.936,19.4255 C8.19675,19.2274 8.50685,19.09615 8.8467,19.0489 L8.84635,19.9456 Z M7.94195,22.5426 L8.57545,21.90875 C8.65875,21.9581 8.75045,21.99345 8.846,22.0183 L8.846,22.91745 C8.5086,22.8716 8.2013,22.73895 7.94195,22.5426 Z M7.1786,21.2574 L8.08125,21.2574 C8.10645,21.3533 8.1446,21.4443 8.1936,21.5276 L7.55695,22.1646 C7.3599,21.9049 7.2262,21.5948 7.1786,21.2574 Z" id="Shape"></path>
                    <path d="M2.36505,19.3408 L2.7196,21.25845 C2.79975,21.69245 3.1788,22.0085 3.62015,22.0085 L5.4104,22.0085 C5.36175,21.8328 5.32185,21.6529 5.29875,21.46775 C5.27635,21.29275 5.26515,21.1335 5.26515,20.98265 C5.26515,18.8592 6.9931,17.1316 9.11585,17.1316 C11.2393,17.1316 12.96725,18.8592 12.96725,20.98265 C12.96725,21.0929 12.9599,21.20175 12.9508,21.31095 C12.9305,21.5507 12.8871,21.78345 12.82445,22.00815 L28.48555,22.00815 C28.43655,21.83245 28.397,21.6529 28.37355,21.4681 C28.35115,21.2924 28.3403,21.13385 28.3403,20.98265 C28.3403,18.85955 30.0679,17.1316 32.191,17.1316 C34.3141,17.1316 36.04205,18.85955 36.04205,20.98265 C36.04205,21.09255 36.0347,21.20175 36.02595,21.31095 C36.0053,21.55105 35.9619,21.7838 35.89925,22.00885 L36.35355,22.00885 C36.35355,22.00885 37.12775,19.52 36.85545,18.38915 C36.643,17.5075 36.09945,17.14875 36.09945,17.14875 C36.09945,17.14875 36.15055,15.8562 35.4537,14.5192 C35.306,14.23535 34.1573,12.67225 32.42795,11.1137 C31.63765,10.4011 31.01605,10.17885 29.95205,10.17605 C26.93855,10.168 20.01065,10.1533 18.37405,10.1799 C17.2852,10.19775 16.6594,10.36715 15.71335,10.931 C15.61955,10.98665 15.5709,11.09445 15.5982,11.1998 C15.6255,11.30515 15.7207,11.37865 15.82955,11.37865 L15.89115,11.37865 L12.83425,14.37115 C12.83425,14.37115 11.62675,14.3771 11.22425,14.39355 C9.22365,14.47615 5.62565,14.77155 3.4441,16.4344 C3.14975,16.65875 2.95725,16.9916 2.9107,17.3584 C2.8498,17.83545 2.8407,18.36325 2.8407,18.36325 C2.48475,18.5498 2.29225,18.94565 2.36505,19.3408 Z M27.47125,11.3783 L30.62965,11.3783 C30.97265,11.3783 31.3048,11.49205 31.5757,11.7031 C32.31525,12.2799 32.8945,12.9162 33.3257,13.4769 C33.4132,13.59065 33.4286,13.74395 33.3656,13.87275 C33.3033,14.0019 33.17345,14.0845 33.02995,14.0866 L27.4716,14.165 L27.47125,11.3783 Z M25.7888,11.3783 L26.003,11.3783 L26.003,14.18565 L25.7888,14.1888 L25.7888,11.3783 Z M14.4299,14.34805 L17.46405,11.37795 L24.3202,11.37795 L24.3202,14.20875 L17.05035,14.31095 C17.0542,14.2749 17.05945,14.2399 17.05945,14.2028 C17.05945,13.7163 16.71155,13.32185 16.28245,13.32185 C15.85265,13.32185 15.5051,13.7163 15.5051,14.2028 C15.5051,14.24725 15.51105,14.28995 15.5163,14.33265 L14.4299,14.34805 Z" id="Shape"></path>
                </g>
            </g>
        </g>
    </g>
</svg>