<svg xmlns="http://www.w3.org/2000/svg" width="16" height="16" viewBox="0 0 16 16">
    <g fill="#000" fill-rule="nonzero">
        <path d="M8.51 4.106a.313.313 0 0 1-.089-.013.336.336 0 0 1-.218-.412c.098-.354.238-1.512.284-1.929a.322.322 0 0 1 .353-.293.33.33 0 0 1 .281.368c-.017.16-.174 1.567-.304 2.038a.322.322 0 0 1-.307.24zM10.993 4.016a.33.33 0 0 1-.317-.375 9.92 9.92 0 0 0 .052-1.629.328.328 0 0 1 .295-.356.321.321 0 0 1 .342.307c.059.824-.05 1.726-.055 1.763a.324.324 0 0 1-.317.29z"/>
        <path d="M11.046 2.372a.325.325 0 0 1-.319-.316c-.017-.356-.072-.858-.348-1.103-.154-.137-.372-.187-.663-.153-.32.037-.49.2-.586 1.028a.322.322 0 0 1-.356.29.33.33 0 0 1-.278-.37c.06-.523.174-1.496 1.15-1.61.47-.054.856.049 1.148.308.465.412.55 1.098.572 1.577a.328.328 0 0 1-.303.35h-.017zM13.859 6.318h-3.315a.326.326 0 0 1-.32-.333c0-.184.144-.332.32-.332h3.315c.177 0 .32.148.32.332a.326.326 0 0 1-.32.333z"/>
        <path d="M13.859 8.53a.326.326 0 0 1-.32-.332c0-.184.143-.333.32-.333.408 0 .74-.347.74-.773 0-.426-.332-.774-.74-.774a.326.326 0 0 1-.32-.332c0-.184.143-.333.32-.333.76 0 1.38.645 1.38 1.44 0 .793-.62 1.438-1.38 1.438z"/>
        <path d="M13.56 10.7a.326.326 0 0 1-.319-.333c0-.185.143-.333.32-.333.408 0 .74-.347.74-.773a.775.775 0 0 0-.526-.741.335.335 0 0 1-.214-.414.319.319 0 0 1 .398-.224c.587.185.982.739.982 1.38 0 .792-.62 1.437-1.38 1.437z"/>
        <path d="M13.25 12.87a.326.326 0 0 1-.32-.333c0-.184.143-.333.32-.333.408 0 .741-.346.741-.772a.772.772 0 0 0-.533-.743.335.335 0 0 1-.219-.412.319.319 0 0 1 .396-.227c.586.176.994.745.994 1.382 0 .793-.618 1.438-1.379 1.438z"/>
        <path d="M12.935 15.048a.326.326 0 0 1-.32-.333c0-.185.143-.333.32-.333.409 0 .741-.347.741-.772a.767.767 0 0 0-.52-.74.336.336 0 0 1-.21-.416.318.318 0 0 1 .4-.219c.579.187.969.74.969 1.375 0 .793-.62 1.438-1.38 1.438z"/>
        <path d="M9.723 15.082a64.78 64.78 0 0 1-2.102-.027c-.81-.028-1.467-.68-1.946-1.157a4.771 4.771 0 0 0-.416-.386.342.342 0 0 1-.07-.465.312.312 0 0 1 .446-.073c.15.113.31.273.481.443.427.424.959.953 1.526.973 1.634.058 5.25 0 5.288 0 .162-.005.32.144.324.327a.327.327 0 0 1-.314.338c-.024 0-1.648.027-3.217.027zM10.548 6.318a.308.308 0 0 1-.171-.052.34.34 0 0 1-.098-.46s.25-.48.393-2.159a.323.323 0 0 1 .346-.302.329.329 0 0 1 .29.361c-.155 1.832-.435 2.37-.49 2.459a.316.316 0 0 1-.27.153zM5.375 8.733a.326.326 0 0 1-.32-.332.33.33 0 0 1 .261-.327c.365-.2 2.436-2.473 2.883-4.366a.319.319 0 0 1 .387-.243.333.333 0 0 1 .233.403c-.485 2.051-2.846 4.865-3.444 4.865z"/>
        <path d="M4.424 15.075H1.338C.6 15.075 0 14.376 0 13.517V8.856c0-.86.6-1.558 1.338-1.558h3.086c.737 0 1.337.699 1.337 1.558v4.662c0 .858-.6 1.557-1.337 1.557zM1.338 7.963c-.386 0-.7.4-.7.893v4.662c0 .492.314.893.7.893h3.086c.385 0 .698-.4.698-.893V8.856c0-.492-.313-.893-.698-.893H1.338z"/>
    </g>
</svg>
