<?xml version="1.0" encoding="UTF-8"?>
<svg width="71px" height="71px" viewBox="0 0 71 71" version="1.1" xmlns="http://www.w3.org/2000/svg" xmlns:xlink="http://www.w3.org/1999/xlink">
    <!-- Generator: sketchtool 48.1 (47250) - http://www.bohemiancoding.com/sketch -->
    <title>6EC86292-AEF5-4120-B72A-FDFC42EF1418</title>
    <desc>Created with sketchtool.</desc>
    <defs></defs>
    <g id="1.3-List-Mobil-Baru-1.4.8-Filter" stroke="none" stroke-width="1" fill="none" fill-rule="evenodd" transform="translate(-277.000000, -912.000000)">
        <g id="Group-7" transform="translate(13.000000, 888.000000)">
            <g id="Group-8" transform="translate(264.000000, 24.000000)">
                <rect id="Rectangle-Copy-6" fill="#2C8AFA" x="3" y="3" width="65" height="65" rx="8"></rect>
                <text id="Listrik" font-family="Roboto-Regular, Roboto" font-size="11" font-weight="normal" fill="#FFFFFF">
                    <tspan x="21" y="57">Listrik</tspan>
                </text>
                <g id="gas-station" transform="translate(18.000000, 8.000000)" fill="#FFFFFF" fill-rule="nonzero">
                    <path d="M17.5320508,22.1687695 L15.9633203,21.7250391 L16.9257813,18.4125 C16.9695508,18.2687695 16.9007617,18.1125 16.7695117,18.0437695 C16.6319922,17.9750391 16.4695117,18.0062695 16.3694922,18.1187695 L12.8444922,22.2687891 C12.7319922,22.4063086 12.7444727,22.6062891 12.8819922,22.7187891 C12.9194922,22.7500195 12.9569922,22.7687695 13.0007617,22.7813086 L14.5507422,23.2188281 L13.1819922,26.9500781 C13.1257422,27.0938086 13.1882617,27.2563477 13.3257227,27.3375586 C13.4632422,27.4125586 13.6319922,27.3875391 13.7319531,27.2688281 L17.6945313,22.6875 C17.8070313,22.55625 17.7945508,22.35 17.6633008,22.2375 C17.6195313,22.2062695 17.5820313,22.18125 17.5320508,22.1687695 Z" id="Shape"></path>
                    <path d="M20.8945117,6.12498047 L9.64451172,6.12498047 C9.30074219,6.12498047 9.01949219,6.40623047 9.01949219,6.75 L9.01949219,14.8750195 C9.01949219,15.2187891 9.30074219,15.5000391 9.64451172,15.5000391 L20.8945117,15.5000391 C21.2382812,15.5000391 21.5195312,15.2187891 21.5195312,14.8750195 L21.5195312,6.75 C21.5195312,6.40623047 21.2382812,6.12498047 20.8945117,6.12498047 Z M20.2695508,14.25 L10.2695312,14.25 L10.2695312,7.37501953 L20.2695508,7.37501953 L20.2695508,14.25 Z" id="Shape"></path>
                    <path d="M25.8945508,31.7500195 L4.64453125,31.7500195 C4.30076172,31.7500195 4.01951172,32.0312695 4.01951172,32.3750391 C4.01951172,32.71875 4.30076172,33 4.64453125,33 L25.8945508,33 C26.2383203,33 26.5195703,32.71875 26.5195703,32.3749805 C26.5195117,32.0312695 26.2382617,31.7500195 25.8945508,31.7500195 Z" id="Shape"></path>
                    <path d="M30.5507617,10.3187695 L28.6382617,8.11253906 C28.5632617,8.02505859 28.4570313,7.97501953 28.3445313,7.98128906 C27.6632617,7.99376953 27.4570117,8.66255859 27.7820313,9.03755859 L29.6007813,11.1375586 C30.0257617,11.6250586 30.2695117,11.9250586 30.2695117,12.3750586 L28.5194922,12.3750586 C28.1069922,12.3750586 27.7694922,12.7125586 27.7694922,13.1250586 L27.7694922,16.125 C27.7694922,16.8124805 28.3319922,17.3749805 29.0194727,17.3749805 L30.2694531,17.3749805 L30.2694531,26.7499805 C30.2694531,27.09375 29.9882031,27.375 29.6444336,27.375 L28.2632031,27.375 C27.9006836,27.375 27.7694336,27.0375 27.7694336,26.7499805 L27.7694336,18.5937305 C27.7694336,17.49375 26.7319141,16.7499609 25.7631836,16.7499609 L24.6444531,16.7499609 L24.6444531,6.12498047 C24.6445117,4.39998047 23.2445313,3 21.5195313,3 L9.01955078,3 C7.29455078,3 5.89457031,4.39998047 5.89457031,6.12498047 L5.89457031,30.4562109 C5.89457031,31.0874414 6.40082031,31.0937109 7.24457031,31.1124609 C7.70083984,31.1187305 8.33207031,31.1249414 9.01955078,31.1249414 L21.5195313,31.1249414 C22.2132813,31.1249414 22.8383008,31.1186719 23.2945117,31.1124609 C24.1382617,31.0999805 24.6445117,31.0874414 24.6445117,30.4562109 L24.6445117,18 L25.7632422,18 C26.1445117,18 26.5195117,18.2937305 26.5195117,18.5937305 L26.5195117,26.7499805 C26.5195117,27.8187305 27.2695117,28.6249805 28.2632617,28.6249805 L29.6444922,28.6249805 C30.6820117,28.6249805 31.5194922,27.7875 31.5194922,26.7499805 L31.5194922,12.375 C31.5195508,11.4375 31.0070313,10.8437695 30.5507617,10.3187695 Z M23.3945313,29.8624805 C22.9820313,29.86875 22.3508008,29.8749609 21.5195313,29.8749609 L9.01955078,29.8749609 C8.18828125,29.8749609 7.55705078,29.8686914 7.14455078,29.8624805 L7.14455078,6.12498047 C7.14455078,5.08746094 7.98203125,4.24998047 9.01955078,4.24998047 L21.5195313,4.24998047 C22.5570508,4.24998047 23.3945313,5.08746094 23.3945313,6.12498047 L23.3945313,29.8624805 Z M30.2695117,16.125 L29.0195313,16.125 L29.0195313,13.6249805 L30.2695117,13.6249805 L30.2695117,16.125 Z" id="Shape"></path>
                </g>
            </g>
        </g>
    </g>
</svg>