<svg xmlns="http://www.w3.org/2000/svg" width="15" height="13" viewBox="0 0 15 13">
    <path fill="#000" fill-rule="nonzero" d="M1.563 4.375a.313.313 0 0 0-.313.313v6.875c0 .513.423.937.938.937h3.124c.173 0 .313-.14.313-.313V8.75c0-1.044.83-1.875 1.875-1.875 1.044 0 1.875.831 1.875 1.875v3.438c0 .172.14.312.313.312h3.124a.942.942 0 0 0 .938-.938l.002-6.874c.004-.212-.156-.313-.315-.313-.158 0-.312.101-.31.313l-.002 6.875a.305.305 0 0 1-.313.312H10V8.75a2.5 2.5 0 0 0-5 0v3.125H2.187a.305.305 0 0 1-.312-.313V4.689a.305.305 0 0 0-.313-.313zM7.5 0c-.287 0-.547.095-.749.181-.202.088-.35.176-.35.176L.162 3.788c-.35.2-.037.733.3.547L6.713.9 6.724.89s.11-.067.273-.137C7.16.687 7.369.625 7.5.625s.34.061.503.131c.163.069.273.138.273.138L8.287.9l6.249 3.435c.366.202.656-.354.302-.548L8.598.357s-.147-.09-.35-.176C8.047.094 7.787 0 7.5 0z"/>
</svg>
