<svg xmlns="http://www.w3.org/2000/svg" width="15" height="13" viewBox="0 0 15 13">
    <path fill="#000" fill-rule="nonzero" d="M4.063 0C2.992 0 1.978.5 1.24 1.24.504 1.982 0 3.021 0 4.062c0 1.21.384 2.4 1.073 3.39.681.98 1.574 1.767 2.484 2.482a30.007 30.007 0 0 0 3.791 2.526.316.316 0 0 0 .305 0 29.937 29.937 0 0 0 3.785-2.527c.909-.714 1.802-1.5 2.483-2.481A5.97 5.97 0 0 0 15 4.062c0-1.043-.511-2.08-1.248-2.822C13.014.496 11.976 0 10.932 0c-.727 0-1.47.142-2.128.502-.54.295-.947.769-1.304 1.267C7.14 1.27 6.731.796 6.19.502 5.534.144 4.802 0 4.062 0zm0 .625c.659 0 1.28.127 1.827.426.551.3 1.025.755 1.34 1.294.12.206.419.206.54 0a3.49 3.49 0 0 1 1.334-1.294C9.65.754 10.288.625 10.93.625c.843 0 1.75.423 2.377 1.055.63.634 1.067 1.55 1.067 2.383 0 1.076-.35 2.144-.967 3.033-.624.898-1.467 1.648-2.356 2.346A29.15 29.15 0 0 1 7.5 11.814a29.15 29.15 0 0 1-3.556-2.372c-.891-.698-1.734-1.448-2.358-2.346a5.35 5.35 0 0 1-.961-3.034c0-.833.431-1.748 1.06-2.383C2.318 1.044 3.193.625 4.063.625z"/>
</svg>
