<?xml version="1.0" encoding="UTF-8"?>
<svg width="71px" height="71px" viewBox="0 0 71 71" version="1.1" xmlns="http://www.w3.org/2000/svg" xmlns:xlink="http://www.w3.org/1999/xlink">
    <!-- Generator: sketchtool 48.1 (47250) - http://www.bohemiancoding.com/sketch -->
    <title>7FC87EB1-A5AB-4D12-88C5-8FE4C1054564</title>
    <desc>Created with sketchtool.</desc>
    <defs></defs>
    <g id="1.3-List-Mobil-Baru-1.4.8-Filter" stroke="none" stroke-width="1" fill="none" fill-rule="evenodd" transform="translate(-101.000000, -797.000000)">
        <g id="Group-6-Copy" transform="translate(13.000000, 693.000000)">
            <g id="Group-29" transform="translate(88.000000, 104.000000)">
                <rect id="Rectangle-Copy-4" fill="#2C8AFA" x="3" y="3" width="65" height="65" rx="8"></rect>
                <text id="Low-MPV" font-family="Roboto-Regular, Roboto" font-size="11" font-weight="normal" fill="#FFFFFF">
                    <tspan x="12" y="57">Low MPV</tspan>
                </text>
                <g id="low-mpv" transform="translate(16.000000, 8.000000)" fill="#FFFFFF" fill-rule="nonzero">
                    <path d="M8.68395,19.42485 C7.2227,19.42485 6.0376,20.6089 6.0376,22.07085 C6.0376,22.18425 6.0467,22.2952 6.0607,22.4037 C6.22485,23.70885 7.3354,24.71755 8.6836,24.71755 C10.06925,24.71755 11.2043,23.65285 11.3191,22.29695 C11.3254,22.22205 11.33065,22.14715 11.33065,22.07085 C11.331,20.6089 10.14625,19.42485 8.68395,19.42485 Z M7.3585,21.0737 L7.89855,21.61375 C7.8562,21.68585 7.82365,21.7639 7.80265,21.8465 L7.04175,21.8465 C7.0813,21.55775 7.19155,21.29525 7.3585,21.0737 Z M7.03895,22.3043 L7.8051,22.3043 C7.8268,22.38585 7.85865,22.4632 7.901,22.5339 L7.3599,23.075 C7.1933,22.85485 7.07955,22.59165 7.03895,22.3043 Z M8.45505,23.7148 C8.16875,23.6756 7.90765,23.5629 7.6875,23.397 L8.22545,22.8587 C8.29615,22.9 8.37385,22.93045 8.45505,22.9518 L8.45505,23.7148 Z M8.45505,21.1906 C8.37175,21.2123 8.2937,21.24555 8.22125,21.28825 L7.6819,20.7489 C7.90345,20.5809 8.16665,20.4689 8.45505,20.42935 L8.45505,21.1906 Z M8.9132,20.42935 C9.2023,20.4689 9.46515,20.5809 9.68635,20.74925 L9.14735,21.28825 C9.0749,21.24555 8.99685,21.21195 8.9132,21.1906 L8.9132,20.42935 Z M8.9132,23.7148 L8.9132,22.9511 C8.99475,22.92975 9.0721,22.89965 9.14315,22.8573 L9.68145,23.3963 C9.46095,23.5629 9.2002,23.6749 8.9132,23.7148 Z M10.00975,23.0764 L9.4669,22.53355 C9.5089,22.4625 9.5439,22.38655 9.5656,22.3043 L10.3258,22.3043 C10.28555,22.59165 10.1774,22.85625 10.00975,23.0764 Z M9.56595,21.8465 C9.54495,21.7639 9.5124,21.68585 9.47005,21.61375 L10.0101,21.0737 C10.1774,21.29525 10.2873,21.55775 10.32685,21.8465 L9.56595,21.8465 Z" id="Shape"></path>
                    <path d="M31.38775,19.42485 C29.92615,19.42485 28.7414,20.6089 28.7414,22.07085 C28.7414,22.18425 28.75015,22.2952 28.76415,22.4037 C28.92795,23.70885 30.0392,24.71755 31.38705,24.71755 C32.77235,24.71755 33.9074,23.65285 34.02255,22.29695 C34.02885,22.22205 34.0334,22.14715 34.0334,22.07085 C34.0341,20.6089 32.8497,19.42485 31.38775,19.42485 Z M30.06195,21.0737 L30.602,21.61375 C30.56,21.68585 30.5271,21.7639 30.50645,21.8465 L29.7452,21.8465 C29.78475,21.55775 29.895,21.29525 30.06195,21.0737 Z M29.74275,22.3043 L30.50925,22.3043 C30.53095,22.38585 30.56245,22.4632 30.60445,22.5339 L30.0637,23.075 C29.89675,22.85485 29.783,22.59165 29.74275,22.3043 Z M31.1585,23.7148 C30.8722,23.6756 30.61145,23.5629 30.3913,23.397 L30.92925,22.8587 C30.9996,22.9 31.07765,22.93045 31.1585,22.9518 L31.1585,23.7148 Z M31.1585,21.1906 C31.07555,21.2123 30.99715,21.24555 30.92435,21.28825 L30.385,20.7489 C30.6069,20.5809 30.86975,20.4689 31.15815,20.42935 L31.1585,21.1906 Z M31.617,20.42935 C31.9054,20.4689 32.1686,20.5809 32.39015,20.74925 L31.8508,21.28825 C31.77835,21.24555 31.69995,21.21195 31.617,21.1906 L31.617,20.42935 Z M31.617,23.7148 L31.617,22.9511 C31.69785,22.92975 31.7759,22.89965 31.84625,22.8573 L32.38455,23.3963 C32.1644,23.5629 31.9033,23.6749 31.617,23.7148 Z M32.7132,23.0764 L32.17035,22.53355 C32.21235,22.4625 32.24735,22.38655 32.2687,22.3043 L33.0296,22.3043 C32.989,22.59165 32.8805,22.85625 32.7132,23.0764 Z M32.26905,21.8465 C32.24805,21.7639 32.21585,21.68585 32.17385,21.61375 L32.71355,21.0737 C32.88085,21.29525 32.99075,21.55775 33.03065,21.8465 L32.26905,21.8465 Z" id="Shape"></path>
                    <path d="M36.68185,17.27865 C36.66225,16.69415 36.50125,16.1233 36.2132,15.61475 L34.3127,12.2614 C34.0012,11.71225 33.43035,11.36085 32.8,11.329 C29.615,11.1694 19.8493,10.7627 16.7749,11.5894 C14.6952,12.14905 9.4473,15.599 9.4473,15.599 C9.4473,15.599 3.67335,16.49325 2.5719,19.12665 C2.5719,19.12665 2.0966,19.4042 2.01015,20.11575 C1.9657,20.48185 2.0742,21.03765 2.1939,21.5035 C2.32515,22.0131 2.7476,22.3967 3.26735,22.47755 L5.77335,22.87025 C5.7359,22.7334 5.70475,22.59445 5.68655,22.45095 C5.6708,22.32705 5.6603,22.20035 5.6603,22.0705 C5.6603,20.40345 7.01655,19.04755 8.68395,19.04755 C10.3517,19.04755 11.70795,20.40345 11.70795,22.0705 C11.70795,22.15765 11.70235,22.24305 11.69535,22.32775 C11.67015,22.62315 11.60155,22.9056 11.4969,23.17055 L11.7916,23.1863 L28.4404,22.73585 C28.41905,22.64205 28.40225,22.54755 28.38965,22.45095 C28.37355,22.32705 28.36375,22.20035 28.36375,22.0705 C28.36375,20.40345 29.72,19.04755 31.38705,19.04755 C33.0548,19.04755 34.41105,20.40345 34.41105,22.0705 C34.41105,22.15765 34.40545,22.24305 34.3981,22.32775 C34.39355,22.38375 34.38375,22.438 34.3764,22.4933 L35.81315,22.2 C36.4057,22.0789 36.825,21.549 36.804,20.94385 L36.68185,17.27865 Z M27.10025,11.9485 L27.4828,15.76735 L21.6119,16.00745 L21.6119,11.92925 C23.3283,11.8897 25.2876,11.90755 27.10025,11.9485 Z M12.28545,16.28045 L11.7048,16.313 C11.54695,16.32175 11.4024,16.22585 11.3492,16.07675 C11.296,15.92835 11.34745,15.7628 11.4745,15.66935 C11.81575,15.42015 12.23365,15.1223 12.69915,14.80765 L12.69915,15.78205 C12.41565,16.0218 12.28545,16.28045 12.28545,16.28045 Z M13.7243,15.38655 C13.68755,15.38795 13.65745,15.39705 13.62245,15.40055 L13.62245,14.2025 C14.80615,13.4521 16.1477,12.70695 17.3013,12.3335 C17.8263,12.16375 18.7839,12.05525 19.9739,11.9905 L19.9739,16.0743 L14.9297,16.28045 C14.9297,16.28045 14.7547,15.34805 13.7243,15.38655 Z M34.1188,15.01625 C33.94275,15.32215 33.62215,15.5164 33.2697,15.5311 L29.1215,15.7005 L28.7498,11.9926 C30.4641,12.04475 31.8963,12.10915 32.62185,12.14835 C32.9575,12.1662 33.26025,12.35975 33.4167,12.65725 L34.13665,14.0233 C34.3015,14.33585 34.2945,14.71105 34.1188,15.01625 Z" id="Shape"></path>
                </g>
            </g>
        </g>
    </g>
</svg>