<svg xmlns="http://www.w3.org/2000/svg" xmlns:xlink="http://www.w3.org/1999/xlink" width="71" height="71" viewBox="0 0 71 71">
    <defs>
        <rect id="a" width="65" height="65" x="3" y="3" rx="8"/>
    </defs>
    <g fill="none" fill-rule="evenodd">
        <g>
            <use fill="#FFF" xlink:href="#a"/>
            <rect width="64" height="64" x="3.5" y="3.5" stroke="#E8E8E8" rx="8"/>
        </g>
        <text fill="#000" fill-opacity=".87" font-family="Roboto-Regular, Roboto" font-size="11">
            <tspan x="12" y="57">Low MPV</tspan>
        </text>
        <g fill="#9B9B9B" fill-rule="nonzero">
            <path d="M24.684 27.425a2.646 2.646 0 1 0 0 5.292 2.646 2.646 0 0 0 0-5.292zm-1.326 1.649l.54.54a.894.894 0 0 0-.095.232h-.761c.04-.288.15-.55.316-.772zm-.32 1.23h.767a.892.892 0 0 0 .096.23l-.541.541a1.66 1.66 0 0 1-.321-.77zm1.417 1.41a1.642 1.642 0 0 1-.767-.317l.537-.538c.071.041.149.071.23.093v.763zm0-2.523a.913.913 0 0 0-.234.097l-.54-.54c.222-.167.486-.28.774-.319v.762zm.458-.762c.29.04.552.152.773.32l-.539.54a.898.898 0 0 0-.234-.098v-.762zm0 3.286v-.764a.883.883 0 0 0 .23-.094l.538.54c-.22.166-.48.278-.768.318zm1.097-.639l-.543-.542a.904.904 0 0 0 .099-.23h.76c-.04.288-.149.552-.316.772zm-.444-1.23a.894.894 0 0 0-.096-.232l.54-.54c.167.221.277.484.317.772h-.761zM47.388 27.425a2.646 2.646 0 1 0-.001 5.291 2.646 2.646 0 0 0 0-5.291zm-1.326 1.649l.54.54a.893.893 0 0 0-.096.232h-.76c.039-.288.149-.55.316-.772zm-.32 1.23h.767a.903.903 0 0 0 .095.23l-.54.541a1.654 1.654 0 0 1-.321-.77zm1.417 1.41a1.641 1.641 0 0 1-.768-.317l.538-.538c.07.041.149.071.23.093v.763zm0-2.523a.926.926 0 0 0-.235.097l-.539-.54c.222-.167.485-.28.773-.319v.762zm.458-.762c.288.04.552.152.773.32l-.54.54a.906.906 0 0 0-.233-.098v-.762zm0 3.286v-.764a.878.878 0 0 0 .23-.094l.538.54c-.22.166-.482.278-.768.318zm1.096-.639l-.543-.542a.891.891 0 0 0 .099-.23h.76c-.04.288-.149.552-.316.772zm-.444-1.23a.905.905 0 0 0-.095-.232l.54-.54c.167.221.277.484.317.772h-.762z"/>
            <path d="M52.682 25.279a3.623 3.623 0 0 0-.469-1.664l-1.9-3.354c-.312-.549-.883-.9-1.513-.932-3.185-.16-12.95-.566-16.025.26-2.08.56-7.328 4.01-7.328 4.01s-5.774.894-6.875 3.528c0 0-.475.277-.562.989-.044.366.064.922.184 1.387.131.51.554.894 1.073.975l2.506.392a3.03 3.03 0 0 1-.113-.8 3.027 3.027 0 0 1 3.024-3.022 3.027 3.027 0 0 1 3.011 3.28 2.98 2.98 0 0 1-.198.843l.295.015 16.648-.45a3.067 3.067 0 0 1-.076-.666 3.026 3.026 0 0 1 3.023-3.022 3.027 3.027 0 0 1 3.011 3.28c-.004.056-.014.11-.022.165l1.437-.293a1.238 1.238 0 0 0 .991-1.256l-.122-3.665zm-9.582-5.33l.383 3.818-5.871.24V19.93a125.25 125.25 0 0 1 5.488.02zM28.285 24.28l-.58.033a.356.356 0 0 1-.23-.644c.34-.249.759-.547 1.224-.861v.974c-.283.24-.414.498-.414.498zm1.44-.893c-.037 0-.068.01-.103.014v-1.198c1.184-.75 2.526-1.496 3.68-1.87.524-.17 1.482-.278 2.672-.342v4.083l-5.044.206s-.175-.932-1.206-.893zm20.394-.37a1.03 1.03 0 0 1-.85.514l-4.147.17-.372-3.708c1.714.052 3.146.116 3.872.155a.956.956 0 0 1 .795.51l.72 1.365c.165.313.158.688-.018.993z"/>
        </g>
    </g>
</svg>
