<?xml version="1.0" encoding="UTF-8"?>
<svg width="71px" height="71px" viewBox="0 0 71 71" version="1.1" xmlns="http://www.w3.org/2000/svg" xmlns:xlink="http://www.w3.org/1999/xlink">
    <!-- Generator: sketchtool 48.1 (47250) - http://www.bohemiancoding.com/sketch -->
    <title>42874CE9-EFE3-4381-8310-C6916A36C28D</title>
    <desc>Created with sketchtool.</desc>
    <defs></defs>
    <g id="1.3-List-Mobil-Baru-1.4.8-Filter" stroke="none" stroke-width="1" fill="none" fill-rule="evenodd" transform="translate(-13.000000, -1027.000000)">
        <g id="Group-7" transform="translate(13.000000, 1003.000000)">
            <g id="Group-33" transform="translate(0.000000, 24.000000)">
                <g id="Group-10" transform="translate(3.000000, 3.000000)">
                    <rect id="Rectangle" fill="#2C8AFA" x="0" y="0" width="65" height="65" rx="8"></rect>
                    <text id="Manual" font-family="Roboto-Regular, Roboto" font-size="11" font-weight="normal" fill="#FFFFFF">
                        <tspan x="14.3134766" y="54">Manual</tspan>
                    </text>
                </g>
                <g id="Manual" transform="translate(18.000000, 8.000000)" fill-rule="nonzero">
                    <path d="M31.3305371,7.69133789 L30.592666,7.69133789 L30.592666,5.19362305 C30.592666,4.5665625 30.0842773,4.05824219 29.4572852,4.05824219 C28.830293,4.05824219 28.3219043,4.56663086 28.3219043,5.19362305 L28.3219043,7.69133789 L27.5839648,7.69133789 C25.5606641,7.69133789 23.914502,9.33743164 23.914502,11.3608008 L23.914502,27.0695117 C23.914502,29.0928125 25.5605957,30.7389746 27.5839648,30.7389746 L31.3305371,30.7389746 C33.3538379,30.7389746 35,29.0928809 35,27.0695117 L35,11.3607324 C35,9.33743164 33.3539063,7.69133789 31.3305371,7.69133789 Z M32.7292383,27.0695117 C32.7292383,27.8406738 32.1018359,28.4681445 31.3306055,28.4681445 L27.5840332,28.4681445 C26.8128711,28.4681445 26.1854004,27.8407422 26.1854004,27.0695117 L26.1854004,11.3607324 C26.1854004,10.5895703 26.8128027,9.96209961 27.5840332,9.96209961 L31.3306055,9.96209961 C32.1017676,9.96209961 32.7292383,10.589502 32.7292383,11.3607324 L32.7292383,27.0695117 Z" id="Shape" stroke="#FFFFFF" stroke-width="1.5"></path>
                    <path d="M7.41610352,12.5356934 L6.67816406,12.5356934 L6.67816406,5.19362305 C6.67816406,4.5665625 6.16977539,4.05824219 5.5427832,4.05824219 C4.91579102,4.05824219 4.40740234,4.56663086 4.40740234,5.19362305 L4.40740234,12.5356934 L3.66946289,12.5356934 C1.64609375,12.5356934 0,14.1817871 0,16.2050879 L0,27.069375 C0,29.0926758 1.64609375,30.7388379 3.66946289,30.7388379 L7.41610352,30.7388379 C9.4394043,30.7388379 11.0855664,29.0927441 11.0855664,27.069375 L11.0855664,16.2050879 C11.085498,14.1817871 9.4394043,12.5356934 7.41610352,12.5356934 Z M8.81480469,27.0695117 L8.81473633,27.0695117 C8.81473633,27.8406738 8.18733398,28.4681445 7.41610352,28.4681445 L3.66946289,28.4681445 C2.89823242,28.4680762 2.27083008,27.8406738 2.27083008,27.0695117 L2.27083008,16.2050879 C2.27083008,15.4339258 2.89823242,14.8064551 3.66946289,14.8064551 L7.41610352,14.8064551 C8.18726563,14.8064551 8.81473633,15.4338574 8.81473633,16.2050879 L8.81473633,27.0695117 L8.81480469,27.0695117 Z" id="Shape" stroke="#FFFFFF" stroke-width="1.5"></path>
                    <path d="M19.3823438,12.5356934 L18.6632031,12.5356934 L18.6442676,11.4187012 C18.6413281,11.2462305 18.599082,11.0764941 18.5208105,10.9227539 L15.3416895,4.6784668 C15.0571777,4.11962891 14.3733789,3.89732422 13.8147461,4.18176758 C13.2559082,4.4662793 13.0336035,5.14987305 13.3180469,5.70871094 L16.3781543,11.7192773 L16.3920313,12.535625 L15.6357031,12.535625 C13.6124023,12.535625 11.9662402,14.1817188 11.9662402,16.2050879 L11.9662402,27.0694434 C11.9662402,29.0927441 13.612334,30.7389063 15.6357031,30.7389063 L19.3823438,30.7389063 C21.4056445,30.7389063 23.0518066,29.0928125 23.0518066,27.0694434 L23.0518066,16.2050879 C23.0518066,14.1817871 21.4057129,12.5356934 19.3823438,12.5356934 Z M20.7810449,27.0695117 C20.7810449,27.8406738 20.1536426,28.4681445 19.3824121,28.4681445 L15.6357715,28.4681445 C14.8646094,28.4681445 14.2371387,27.8407422 14.2371387,27.0695117 L14.2371387,16.2050879 C14.2371387,15.4339258 14.864541,14.8064551 15.6357715,14.8064551 L19.3824121,14.8064551 C20.1535742,14.8064551 20.7810449,15.4338574 20.7810449,16.2050879 L20.7810449,27.0695117 Z" id="Shape" stroke="#FFFFFF" stroke-width="1.5"></path>
                    <path d="M30.6455762,16.1495117 L28.2688574,16.1495117 C27.6417969,16.1495117 27.1334766,16.6579004 27.1334766,17.2848926 C27.1334766,17.9118848 27.6418652,18.4202734 28.2688574,18.4202734 L30.6455762,18.4202734 C31.2726367,18.4202734 31.780957,17.9118848 31.780957,17.2848926 C31.780957,16.6579004 31.2726367,16.1495117 30.6455762,16.1495117 Z" id="Shape" fill="#FFFFFF"></path>
                    <path d="M30.6455762,12.1945801 L28.2688574,12.1945801 C27.6417969,12.1945801 27.1334766,12.7029688 27.1334766,13.3299609 C27.1334766,13.9569531 27.6418652,14.4653418 28.2688574,14.4653418 L30.6455762,14.4653418 C31.2726367,14.4653418 31.780957,13.9569531 31.780957,13.3299609 C31.780957,12.7029688 31.2726367,12.1945801 30.6455762,12.1945801 Z" id="Shape" fill="#FFFFFF"></path>
                    <path d="M30.6455762,20.1045117 L28.2688574,20.1045117 C27.6417969,20.1045117 27.1334766,20.6129004 27.1334766,21.2398926 C27.1334766,21.8668848 27.6418652,22.3752734 28.2688574,22.3752734 L30.6455762,22.3752734 C31.2726367,22.3752734 31.780957,21.8668848 31.780957,21.2398926 C31.780957,20.6129004 31.2726367,20.1045117 30.6455762,20.1045117 Z" id="Shape" fill="#FFFFFF"></path>
                    <path d="M30.6455762,24.0594434 L28.2688574,24.0594434 C27.6417969,24.0594434 27.1334766,24.567832 27.1334766,25.1948242 C27.1334766,25.8218164 27.6418652,26.3302051 28.2688574,26.3302051 L30.6455762,26.3302051 C31.2726367,26.3302051 31.780957,25.8218164 31.780957,25.1948242 C31.780957,24.567832 31.2726367,24.0594434 30.6455762,24.0594434 Z" id="Shape" fill="#FFFFFF"></path>
                    <path d="M18.7201465,16.7739746 L16.4493164,16.7739746 C15.8222559,16.7739746 15.3139355,17.2823633 15.3139355,17.9093555 C15.3139355,18.5363477 15.8223242,19.0447363 16.4493164,19.0447363 L18.7201465,19.0447363 C19.347207,19.0447363 19.8555273,18.5363477 19.8555273,17.9093555 C19.8555273,17.2823633 19.3472754,16.7739746 18.7201465,16.7739746 Z" id="Shape" fill="#FFFFFF"></path>
                    <path d="M18.7201465,20.5018848 L16.4493164,20.5018848 C15.8222559,20.5018848 15.3139355,21.0102734 15.3139355,21.6372656 C15.3139355,22.2642578 15.8223242,22.7726465 16.4493164,22.7726465 L18.7201465,22.7726465 C19.347207,22.7726465 19.8555273,22.2642578 19.8555273,21.6372656 C19.8555273,21.0102734 19.3472754,20.5018848 18.7201465,20.5018848 Z" id="Shape" fill="#FFFFFF"></path>
                    <path d="M18.7201465,24.2297949 L16.4493164,24.2297949 C15.8222559,24.2297949 15.3139355,24.7381836 15.3139355,25.3651758 C15.3139355,25.992168 15.8223242,26.5005566 16.4493164,26.5005566 L18.7201465,26.5005566 C19.347207,26.5005566 19.8555273,25.992168 19.8555273,25.3651758 C19.8555273,24.7381836 19.3472754,24.2297949 18.7201465,24.2297949 Z" id="Shape" fill="#FFFFFF"></path>
                    <path d="M6.60925781,16.7739746 L4.33842773,16.7739746 C3.71136719,16.7739746 3.20304688,17.2823633 3.20304688,17.9093555 C3.20304688,18.5363477 3.71143555,19.0447363 4.33842773,19.0447363 L6.60925781,19.0447363 C7.23631836,19.0447363 7.74463867,18.5363477 7.74463867,17.9093555 C7.74463867,17.2823633 7.23631836,16.7739746 6.60925781,16.7739746 Z" id="Shape" fill="#FFFFFF"></path>
                    <path d="M6.60925781,20.5018848 L4.33842773,20.5018848 C3.71136719,20.5018848 3.20304688,21.0102734 3.20304688,21.6372656 C3.20304688,22.2642578 3.71143555,22.7726465 4.33842773,22.7726465 L6.60925781,22.7726465 C7.23631836,22.7726465 7.74463867,22.2642578 7.74463867,21.6372656 C7.74463867,21.0102734 7.23631836,20.5018848 6.60925781,20.5018848 Z" id="Shape" fill="#FFFFFF"></path>
                    <path d="M6.60925781,24.2297949 L4.33842773,24.2297949 C3.71136719,24.2297949 3.20304688,24.7381836 3.20304688,25.3651758 C3.20304688,25.992168 3.71143555,26.5005566 4.33842773,26.5005566 L6.60925781,26.5005566 C7.23631836,26.5005566 7.74463867,25.992168 7.74463867,25.3651758 C7.74463867,24.7381836 7.23631836,24.2297949 6.60925781,24.2297949 Z" id="Shape" fill="#FFFFFF"></path>
                </g>
            </g>
        </g>
    </g>
</svg>