<?xml version="1.0" encoding="UTF-8"?>
<svg width="160px" height="120px" viewBox="0 0 160 120" version="1.1" xmlns="http://www.w3.org/2000/svg" xmlns:xlink="http://www.w3.org/1999/xlink">
    <!-- Generator: Sketch 48.2 (47327) - http://www.bohemiancoding.com/sketch -->
    <title>Maps</title>
    <desc>Created with Sketch.</desc>
    <defs>
        <rect id="path-1" x="0" y="0" width="153" height="116" rx="8"></rect>
        <path d="M10.1217471,35.0659349 C10.1128605,35.0782797 10.1046933,35.0845356 10.0972799,35.0845356 C9.54210486,35.0845356 9.61018645,34.2202347 9.51258715,32.9031442 C8.93254985,25.0756122 0.220056427,15.9424774 0.220056427,10.2703305 C0.220056427,4.5981836 4.60843169,0 10.0217669,0 C10.0554881,0 10.0888137,0.00136142031 10.1217471,0.00406729958 C10.1546805,0.00136142031 10.1880061,0 10.2217273,0 C15.6350625,0 20.0234378,4.5981836 20.0234378,10.2703305 C20.0234378,15.9424774 11.3109444,25.0756122 10.7309071,32.9031442 C10.6333078,34.2202347 10.7013894,35.0845356 10.1462143,35.0845356 C10.138801,35.0845356 10.1306338,35.0782797 10.1217471,35.0659349 Z" id="path-3"></path>
        <filter x="-7.6%" y="-4.3%" width="115.1%" height="108.6%" filterUnits="objectBoundingBox" id="filter-4">
            <feOffset dx="0" dy="3" in="SourceAlpha" result="shadowOffsetInner1"></feOffset>
            <feComposite in="shadowOffsetInner1" in2="SourceAlpha" operator="arithmetic" k2="-1" k3="1" result="shadowInnerInner1"></feComposite>
            <feColorMatrix values="0 0 0 0 1   0 0 0 0 1   0 0 0 0 1  0 0 0 0.1 0" type="matrix" in="shadowInnerInner1"></feColorMatrix>
        </filter>
    </defs>
    <g id="Dealer-Page-1.0" stroke="none" stroke-width="1" fill="none" fill-rule="evenodd" transform="translate(-1051.000000, -385.000000)">
        <g id="Group-11" transform="translate(149.000000, 363.000000)">
            <g id="Maps" transform="translate(906.000000, 24.000000)">
                <mask id="mask-2" fill="white">
                    <use xlink:href="#path-1"></use>
                </mask>
                <use id="Mask" fill="#F4F4F4" xlink:href="#path-1"></use>
                <g id="Group" mask="url(#mask-2)">
                    <g id="bgLayer" transform="translate(0.275806, 0.000000)">
                        <rect id="Sky" fill="#A3E4EA" x="0" y="0.213699507" width="152.309137" height="95.6305295"></rect>
                        <g id="Group-4" transform="translate(76.281872, 8.733392)" fill-rule="nonzero">
                            <path d="M22.3627368,0.308872276 C22.8124897,0.308872276 23.2368009,0.403364036 23.6125412,0.571992612 C24.0191903,0.218115368 24.5763877,0 25.1909871,0 C26.2544983,0 27.1464348,0.653972618 27.3848733,1.53390379 C27.9166289,1.67601492 28.343253,2.0326933 28.5379567,2.49002595 C28.602087,2.48348996 28.6666378,2.48106231 28.7326604,2.48106231 C29.7152204,2.48106231 30.5127487,3.18900354 30.5127487,4.06239872 C30.5127487,4.93542042 29.7152204,5.64298817 28.7326604,5.64298817 C28.4258864,5.64298817 28.1382463,5.57408014 27.8867716,5.45344442 C27.6699902,6.11096515 26.9870553,6.59052017 26.1771215,6.59052017 C25.683003,6.59052017 25.2355629,6.41124726 24.9128089,6.12198296 C24.5896343,6.41106052 24.1421942,6.59052017 23.6474449,6.59052017 C23.1779272,6.59052017 22.7498313,6.42824084 22.430862,6.16400005 C22.1062157,6.47959506 21.6379595,6.67847594 21.1177684,6.67847594 C20.6303783,6.67847594 20.1892461,6.50517879 19.8683844,6.22375768 C19.7209899,6.25251604 19.5679183,6.26726871 19.4112722,6.26726871 C18.2398959,6.26726871 17.2905576,5.42412583 17.2905576,4.3839695 C17.2905576,3.34325293 18.2398959,2.50011005 19.4112722,2.50011005 C19.4754025,2.50011005 19.5384815,2.50309793 19.6009296,2.50832673 C19.7512678,1.27134368 20.9302136,0.308872276 22.3627368,0.308872276 Z" id="Shape" fill="#FFFFFF"></path>
                            <path d="M14.4934691,0 C16.319343,0 17.7991034,1.49495949 17.7991034,3.33941271 C17.7991034,5.18351645 16.319343,6.67847594 14.4934691,6.67847594 C12.6677682,6.67847594 11.1880078,5.18351645 11.1880078,3.33941271 C11.1880078,1.49495949 12.6677682,0 14.4934691,0 Z" id="Shape" fill="#FFFF00"></path>
                            <path d="M4.09692298,6.47361527 C4.45992511,6.47361527 4.80309576,6.56795876 5.10617235,6.736497 C5.4344694,6.38306449 5.88434198,6.16474702 6.38120652,6.16474702 C7.24021094,6.16474702 7.96017952,6.81922533 8.15332079,7.69865835 C8.58293078,7.84017358 8.92717923,8.19692471 9.08453763,8.65536768 C9.13584078,8.64873045 9.18822173,8.64612297 9.24146492,8.64612297 C10.0349393,8.64612297 10.679462,9.35369913 10.679462,10.227206 C10.679462,11.1004759 10.0351548,11.8085262 9.24146492,11.8085262 C8.99421822,11.8085262 8.76119845,11.7395464 8.55814145,11.6184169 C8.38332273,12.2755027 7.83127497,12.7552797 7.17705202,12.7552797 C6.77805147,12.7552797 6.41655827,12.5760744 6.15594689,12.2868808 C5.89533551,12.5763115 5.53362675,12.7552797 5.13419508,12.7552797 C4.75459488,12.7552797 4.40883751,12.5933786 4.1521062,12.3290746 C3.88933923,12.6450542 3.51103239,12.843223 3.09090701,12.843223 C2.69707989,12.843223 2.34097567,12.670655 2.08165765,12.3888097 C1.96309995,12.417492 1.83872214,12.4321888 1.7124043,12.4321888 C0.766744978,12.4321888 0,11.5890235 0,10.5486376 C0,9.50872586 0.766744978,8.66484944 1.7124043,8.66484944 C1.76413857,8.66484944 1.81565728,8.66816806 1.86545152,8.67290894 C1.98702705,7.43553957 2.94001539,6.47361527 4.09692298,6.47361527 Z" id="Shape" fill="#FFFFFF"></path>
                        </g>
                    </g>
                    <g id="middleLayer">
                        <path d="M0.105741511,67.5453556 C5.7834012,55.2074485 16.6479539,34.6134121 22.6023466,42.9624417 C30.9102237,54.6114404 37.7616689,42.9624413 37.7616689,42.9624413 C37.7616689,42.9624413 48.5721313,20.1731307 58.5384333,42.9624409 C68.5047353,65.7517512 82.1935479,45.9731271 82.1935479,45.9731271 C82.1935479,45.9731271 94.2512797,32.8890338 105.603667,45.9731267 C116.956055,59.0572196 141.640491,73.2817364 141.640491,73.2817364 L0.105741511,75.9396424 L0.105741511,67.5453556 Z" id="Bg-Mountain" fill="#00695C"></path>
                        <path d="M152.585,65.9366715 L152.585,76.1470601 C122.954765,76.8282952 35.9582957,78.5722581 22.6514004,75.9091227 C6.56913555,72.6905471 35.1591868,76.4886461 52.067611,51.9492093 C68.9760351,27.4097724 76.0556842,47.5630513 82.5332995,56.6283201 C89.0109148,65.6935888 94.0852562,39.0540608 106.013749,56.6283201 C117.942242,74.2025794 128.144555,41.1059914 143.41731,56.62832 C147.10961,60.3809558 150.128984,63.4460346 152.585,65.9366715 Z" id="Mountain" fill="#0A7C6F"></path>
                    </g>
                    <g id="topLayer">
                        <path d="M152.584854,66.4433798 L152.584854,95.5240367 L32.9083839,95.5240367 L32.9083839,95.7374982 L0.105814739,95.7374982 L0.105814739,66.5437103 C0.176095338,66.5268342 0.246638258,66.51002 0.317444217,66.493268 C38.3667908,57.4911772 114.395201,57.4745489 152.584854,66.4433832 Z" id="Grass" fill="#16A364"></path>
                        <path d="M152.796483,66.493268 L152.796483,80.6665914 L87.9206484,81.176443 L79.3665291,59.7364654 C107.009822,59.8793576 134.361026,62.1316251 152.796483,66.493268 Z" id="Pavement" fill="#D2D2D2"></path>
                        <path d="M152.796483,75.5638327 L152.796483,95.7374982 L90.606507,95.7374982 L83.3990847,77.3523579 L152.796483,75.5638327 Z" id="Water" fill="#408FF6"></path>
                        <g id="White-Street" transform="translate(68.885395, 73.324037)">
                            <rect fill="#FFFFFF" x="0" y="0" width="83.9110881" height="5.65673067"></rect>
                            <rect id="Bottom-Gray" fill="#C5C5C5" x="0" y="4.48269223" width="83.9110881" height="1.17403844"></rect>
                            <rect id="Top-Gray" fill="#C5C5C5" x="0" y="0" width="83.9110881" height="1.17403844"></rect>
                        </g>
                        <g id="Yellow-HIghway" transform="translate(54.282961, 59.769230)">
                            <polygon id="Rectangle-26-Copy" fill="#F9CA27" points="13.933072 0 27.1230468 0 41.0561188 36.0749993 0 36.0749993"></polygon>
                            <polygon id="Rectangle-26-Copy-2" fill="#FFE03A" points="17.1075142 0 24.0544194 0 37.9874913 36.0749993 3.17444217 36.0749993"></polygon>
                        </g>
                        <g id="Group" transform="translate(100.183525, 42.125771)" fill-rule="nonzero">
                            <g fill="#FFFFFF" id="Shape">
                                <polygon points="12.1477112 27.7233948 0.0869423363 31.8143867 0.0869423363 4.97690576 12.1477112 0.885699639"></polygon>
                                <polygon points="37.0837334 26.9050679 25.0231778 30.996274 25.0231778 4.15868596 37.0837334 0.0676940587"></polygon>
                                <polygon points="25.0231778 30.996274 12.1477112 27.7233948 12.1477112 0.885699639 25.0231778 4.15868596"></polygon>
                                <polygon points="25.0231778 5.9178746 12.1477112 2.5631627 12.1477112 2.54945251 1.71676444 6.15137626 1.71676444 29.534318 12.1477112 25.950496 12.1477112 25.9507102 25.0231778 29.2369783 35.4539113 25.7305974 35.4539113 2.34776277"></polygon>
                            </g>
                            <g transform="translate(4.068366, 2.568645)" fill="#86B850" id="Shape">
                                <path d="M8.80450663,0.349211219 C9.05876192,1.91259305 9.35331949,3.66994526 9.52888431,4.54501737 C11.5413399,4.2463697 14.1265346,3.85025272 14.6642882,3.70792171 L14.2228772,1.77187578 L8.80450663,0.349211219 Z M14.9257745,1.95616377 L15.7809486,6.06170861 L21.3662706,6.22179065 L24.9917745,3.43025253 L25.3924579,1.8477211 L20.6901705,3.46951997 L14.9257745,1.95616377 Z"></path>
                                <path d="M7.23707752,5.54811207 C7.46804469,6.92021309 7.66232508,8.06122793 7.69284422,8.19505996 L7.68837801,8.19527512 C7.69964988,8.25498314 7.70634921,8.29070037 7.70634921,8.29070037 L5.17453648,8.68789317 L5.09350656,8.03045948 L6.89849582,7.69674007 L5.78013409,0.808263675 L0.00404086201,2.81789571 L4.19994437,12.7970958 L11.2669867,11.7285912 L15.3037015,6.51064836 L14.8260291,4.41677961 L7.23707752,5.54811207 Z M6.4092325,0.589764604 C6.51833578,1.24676797 6.83543711,3.15376676 7.12754889,4.89551957 C7.3525611,4.86324497 8.00835047,4.76868038 8.84619131,4.64560655 L8.11979319,0.169226509 L7.85554209,0.0999436915 L7.85554209,0.0860656116 L6.4092325,0.589764604 Z"></path>
                            </g>
                            <g transform="translate(1.525637, 5.651018)" fill="#D4D4D4" id="Shape">
                                <polygon points="0.00974706959 3.99116614 2.64816352 3.99116614 0.86088634 0.0676288608 0.00974706959 0.364727976"></polygon>
                                <path d="M4.94574696,11.865356 L2.68589411,10.2061096 L0.819068267,13.5714961 L0.470060292,13.3722249 L2.35941968,9.96664386 L0.00974706959,8.24168257 L0.00974706959,15.1565209 L3.45245397,15.7695404 L4.94574696,11.865356 Z M0.00974706959,7.74042086 L5.09530683,11.4738317 L5.53392496,10.3271185 L2.83304342,4.39736464 L0.00974706959,4.39736464 L0.00974706959,7.74042086 Z"></path>
                            </g>
                            <path d="M6.98422322,27.4927038 L7.11964136,26.1513941 L5.03219106,23.2706944 C5.03219106,23.2706944 2.66373995,22.7771176 1.52563743,22.6040724 L1.52563743,29.2825483 L6.98422322,27.4927038 Z" id="Shape" fill="#86B850"></path>
                            <polygon id="Shape" fill="#D4D4D4" points="9.1538246 26.125194 9.32484232 27.0462748 12.3219634 26.0722202 12.3219634 26.0724275 19.234048 27.7413616 19.3247408 24.9370672 14.90611 24.1452592"></polygon>
                            <g transform="translate(19.324741, 23.117801)" fill="#86B850" id="Shape">
                                <polygon points="6.77732053 3.80676807 0.0780231377 3.80676807 0.0593907466 4.7328723 5.45929059 6.09688793 8.00240025 5.25083428"></polygon>
                                <polygon points="3.6291875 0.0954085119 0.121639871 1.63730263 0.0859630771 3.40493729 6.43653833 3.40493729"></polygon>
                            </g>
                            <g transform="translate(22.884562, 2.568645)" fill="#D4D4D4" id="Shape">
                                <polygon points="5.52098723 17.8495426 6.72548312 20.0389432 9.0225005 18.7179039 7.78652842 16.5465209"></polygon>
                                <polygon points="10.5192145 1.93171745 12.6910715 4.13359176 12.6910715 0.0599163976"></polygon>
                                <polygon points="7.18465265 12.4880912 9.28632625 16.224337 12.6910715 14.1072199 12.6910715 9.06411426"></polygon>
                                <polygon points="12.6910715 4.96463859 10.0762084 2.31371114 7.35022166 4.66292435 10.3643857 9.82309083 12.6910715 8.37646165"></polygon>
                                <polygon points="5.16028713 11.9318922 2.88134729 12.5892667 3.42739535 14.8967943 2.86039861 15.0318728 2.3203055 12.7512116 0.0190345868 13.4147697 1.07497563 19.7670806 7.51249417 16.0648442"></polygon>
                                <path d="M11.7330682,23.4805113 L9.29610939,19.1985145 L6.47303559,20.8139117 L6.20633869,20.3372459 L6.21995002,20.3294631 L5.01524145,18.1403824 L1.16121614,20.3571825 L5.40486562,25.6046648 L11.7330682,23.4805113 Z M12.6910715,14.7949791 L9.57301478,16.7338396 L12.6910715,22.2768527 L12.6910715,14.7949791 Z"></path>
                                <polygon points="6.90094161 5.05024868 4.27416862 7.31406503 6.89796413 11.9788018 9.86874208 10.1313085"></polygon>
                            </g>
                            <g transform="translate(1.525637, 2.568645)" fill="#606060" id="Shape">
                                <polygon points="3.9372289 8.19755557 3.9372289 7.53446812 2.70632941 7.53446812 0.0099611602 7.53446812 0.0099611602 8.19755557 2.89527012 8.19755557"></polygon>
                                <polygon points="0.0099611602 11.8043988 2.41124342 13.5372389 0.480384984 16.9584818 0.837058785 17.1585563 2.74488874 13.7777984 5.05437837 15.4446235 5.16395114 15.5235637 5.40376875 15.1930615 5.20722327 15.0513109 0.0099611602 11.3008476"></polygon>
                                <path d="M33.8835826,14.348326 L30.4541587,16.4694581 L28.3372515,12.726045 L33.8835826,9.29540195 L33.8835826,8.60641055 L31.5400323,10.0558562 L28.5041277,4.88564335 L31.2497662,2.53174964 L33.8835826,5.18783818 L33.8835826,4.35517339 L31.6960904,2.14901224 L33.8835826,0.273566973 L33.8835826,0.0980611015 L31.1661139,1.02173686 L30.8307548,1.2762898 L30.7267517,1.17128538 L30.3891434,1.28601046 L30.1997742,1.47273247 L30.3597954,1.63403123 L27.743652,3.6196083 L24.0918693,6.39138332 L23.9834747,6.47384864 L24.9575262,7.58403277 L25.3743954,10.5535323 L26.2984269,12.1686563 L28.6677906,16.3096549 L22.1835038,20.0190991 L21.9147667,20.1727068 L21.8561779,20.100603 L21.3652962,20.5903744 L21.5593782,20.8199314 L24.3998084,24.180714 L17.9746458,24.180714 L17.7654614,24.180714 L17.5198599,24.5887678 L17.9666126,24.5887678 L24.7444859,24.5887678 L25.9839542,26.0551978 L26.5447782,25.8680486 L22.2703694,20.6103498 L26.1523299,18.3892339 L27.3657706,20.5825766 L27.3520606,20.5903744 L27.6206906,21.0679683 L30.464227,19.449426 L32.9188496,23.7397595 L33.8837969,23.4174824 L33.8837969,22.5336506 L30.7431394,16.9798459 L33.8837969,15.0372106 L33.8837969,14.348326 L33.8835826,14.348326 Z M25.4056713,7.54194554 L28.051484,5.27372176 L31.040796,10.3646739 L28.0484849,12.2156573 L25.4056713,7.54194554 Z M27.8747537,20.2915979 L26.6615273,18.0980415 L28.9434898,16.7923761 L30.1884206,18.9680934 L27.8747537,20.2915979 Z"></path>
                            </g>
                            <path d="M18.5011358,4.1149373 L18.9530897,5.9830283 C18.4024921,6.12046731 15.7555517,6.50257684 13.6950298,6.79074202 C13.5152717,5.94638482 13.2136788,4.25081922 12.9533508,2.74220806 L12.2522834,2.56864459 L12.9960311,6.88790434 C12.1381789,7.00665829 11.4667264,7.09790368 11.2363399,7.12904545 C10.9372512,5.44842791 10.6125761,3.60826069 10.500867,2.97442186 L9.85685181,3.18525164 L11.0019249,9.83194351 L9.1538246,10.1539494 L9.23678987,10.7883073 L11.8290734,10.4050559 C11.8290734,10.4050559 11.8221052,10.3705923 11.810673,10.3129801 L11.8152459,10.3127724 C11.7839978,10.1836379 11.5850771,9.08277632 11.3485934,7.75873205 L19.1188025,6.66710919 L19.6078838,8.68748345 L19.7836134,9.41464379 L20.2013794,9.49353627 L20.2987166,9.36107994 L20.3418324,9.36419412 L20.0964207,8.25430142 L19.2208214,4.29286061 L18.5011358,4.1149373 Z" id="Shape" fill="#FFFFFF"></path>
                            <polygon id="Shape" fill="#D4D4D4" points="14.7478285 16.4393254 12.0280304 16.8571472 11.7121352 19.2999506 11.1467067 19.225885 11.4413828 16.9475323 9.02666214 17.3184877 7.11964136 22.1932148 8.39102322 23.6315302 14.1120856 22.1131863"></polygon>
                            <polygon id="Shape" fill="#86B850" points="20.4170774 9.89634306 17.2905576 14.3844097 26.952928 12.5998441 25.7452635 10.166587 20.5530543 9.76392884 20.5113126 9.76084944"></polygon>
                            <g transform="translate(15.764920, 15.925596)" fill="#D4D4D4" id="Shape">
                                <polygon points="0.592773189 0.545406387 0.389615661 2.48591769 6.00072262 2.48591769 5.66153692 0.0390996074"></polygon>
                                <polygon points="0.000995328116 6.19839228 3.46495836 7.12662137 6.42174641 5.52342702 6.14106389 3.4984208 0.283779105 3.4984208"></polygon>
                            </g>
                            <g transform="translate(11.188008, 14.384410)" fill="#606060" id="Shape">
                                <path d="M15.0631197,3.16205057 L14.5154417,0.934681897 L14.3060761,0.0835584829 C14.1516384,0.205191644 13.9725631,0.29471859 13.7695969,0.345965049 L13.9528318,1.09099389 L14.4945371,3.29232771 L15.0631197,3.16205057 Z"></path>
                                <path d="M0.628949855,5.01711064 L0.952970486,2.61418682 L1.05216048,1.87955134 C0.863272873,1.94036792 0.662973088,1.96290402 0.454140832,1.94129406 L0.351537854,2.70309634 L0.0493816827,4.94425422 L0.628949855,5.01711064 Z"></path>
                            </g>
                        </g>
                        <g id="Pin" transform="translate(108.354293, 20.536476)">
                            <g id="PinMap">
                                <use fill="#E14C39" fill-rule="evenodd" xlink:href="#path-3"></use>
                                <use fill="black" fill-opacity="1" filter="url(#filter-4)" xlink:href="#path-3"></use>
                            </g>
                            <ellipse id="Oval-3" fill="#842C25" cx="9.97234301" cy="10.3198875" rx="3.32411434" ry="3.35061283"></ellipse>
                        </g>
                    </g>
                </g>
            </g>
        </g>
    </g>
</svg>