<svg xmlns="http://www.w3.org/2000/svg" width="15" height="16" viewBox="0 0 15 16">
    <g fill="#F5A623" fill-rule="nonzero">
        <path d="M5.832 11.559l.565-2.84a.32.32 0 0 0-.25-.377.323.323 0 0 0-.376.252l-.013.062H2.705l-.226-.227a.318.318 0 0 0-.451 0 .322.322 0 0 0 0 .453l1.183 1.189v2.387c0 .537.266 1.036.71 1.334l1.347.901a.318.318 0 0 0 .403-.04l.265-.265a1.6 1.6 0 0 0 .467-1.134v-.22c0-.428-.166-.83-.468-1.134a.377.377 0 0 1-.103-.341zM11.51 0C9.85 0 8.955 3.303 8.955 6.412c0 3.108.895 6.412 2.553 6.412 1.659 0 2.553-3.304 2.553-6.412C14.063 3.303 13.168 0 11.51 0zm0 12.182c-.905 0-1.916-2.467-1.916-5.77a.32.32 0 0 1 .32-.32.32.32 0 0 1 .319.32c0 3.324.98 5.04 1.29 5.13.177 0 .312.143.312.32.001.177-.15.32-.326.32zm.667-4.256a.318.318 0 0 1-.45-.014.321.321 0 0 1 .013-.453c.255-.243.408-.634.408-1.048 0-.44-.168-.845-.45-1.084a.322.322 0 0 1-.037-.452.318.318 0 0 1 .449-.038c.423.36.676.948.676 1.575 0 .595-.222 1.148-.609 1.514z"/>
        <path d="M10.69 11.557c-.471-.717-.813-1.895-.98-3.267l-.02-.162a15.18 15.18 0 0 1-.064-.748l-.014-.26c-.01-.232-.018-.467-.018-.708 0-2.146.42-4.117 1.096-5.145a.32.32 0 0 0-.45-.439L5.982 3.847H2.573A2.562 2.562 0 0 0 .02 6.412a2.562 2.562 0 0 0 2.553 2.564h3.41l4.257 3.02a.319.319 0 0 0 .45-.44zM4.169 5.129H2.573a1.28 1.28 0 0 0-1.276 1.283.32.32 0 0 1-.32.32.32.32 0 0 1-.319-.32c0-1.06.86-1.924 1.915-1.924H4.17a.32.32 0 0 1 0 .641z"/>
    </g>
</svg>
