<?xml version="1.0" encoding="UTF-8"?>
<svg width="71px" height="71px" viewBox="0 0 71 71" version="1.1" xmlns="http://www.w3.org/2000/svg" xmlns:xlink="http://www.w3.org/1999/xlink">
    <!-- Generator: sketchtool 48.1 (47250) - http://www.bohemiancoding.com/sketch -->
    <title>1EB8AA83-C18C-4D46-B983-89604EF2B936</title>
    <desc>Created with sketchtool.</desc>
    <defs></defs>
    <g id="1.3-List-Mobil-Baru-1.4.8-Filter" stroke="none" stroke-width="1" fill="none" fill-rule="evenodd" transform="translate(-13.000000, -797.000000)">
        <g id="Group-6-Copy" transform="translate(13.000000, 693.000000)">
            <g id="Group-28" transform="translate(0.000000, 104.000000)">
                <rect id="Rectangle-Copy-3" fill="#2C8AFA" x="3" y="3" width="65" height="65" rx="8"></rect>
                <text id="MPV" font-family="Roboto-Regular, Roboto" font-size="11" font-weight="normal" fill="#FFFFFF">
                    <tspan x="24" y="57">MPV</tspan>
                </text>
                <g id="Mpv" transform="translate(16.000000, 8.000000)" fill="#FFFFFF" fill-rule="nonzero">
                    <path d="M8.33915842,18.1753465 C6.98351485,18.1753465 5.88430693,19.2735149 5.88430693,20.6298515 C5.88430693,20.735198 5.8929703,20.8377723 5.90613861,20.9389604 C6.05792079,22.1487129 7.08886139,23.085396 8.33915842,23.085396 C9.62445545,23.085396 10.6768812,22.0974257 10.7843069,20.8398515 C10.7898515,20.7708911 10.794703,20.7012376 10.794703,20.6305446 C10.794703,19.2735149 9.69584158,18.1753465 8.33915842,18.1753465 Z M7.10930693,19.704604 L7.61039604,20.2053465 C7.57123762,20.2722277 7.54143564,20.3443069 7.52168317,20.4215842 L6.81579208,20.4215842 C6.85217822,20.1537129 6.95475248,19.9107921 7.10930693,19.704604 Z M6.81371287,20.8467822 L7.52445545,20.8467822 C7.54490099,20.9223267 7.5740099,20.9944059 7.61316832,21.0592079 L7.11138614,21.5613366 C6.95648515,21.3568812 6.85044554,21.1129208 6.81371287,20.8467822 Z M8.12707921,22.155297 C7.86128713,22.1185644 7.61905941,22.0142574 7.41460396,21.8593564 L7.91361386,21.3603465 C7.97910891,21.3984653 8.05118812,21.4261881 8.12673267,21.4462871 L8.12707921,22.155297 Z M8.12707921,19.8134158 C8.04945545,19.8335149 7.9770297,19.8640099 7.90980198,19.9038614 L7.41009901,19.4041584 C7.61524752,19.2482178 7.85955446,19.144604 8.12707921,19.1078713 L8.12707921,19.8134158 Z M8.55123762,19.1071782 C8.81945545,19.1439109 9.06376238,19.2475248 9.26891089,19.4034653 L8.76920792,19.9031683 C8.70163366,19.8636634 8.62920792,19.8328218 8.55123762,19.8123762 L8.55123762,19.1071782 Z M8.55123762,22.154604 L8.55123762,21.4462871 C8.62747525,21.4261881 8.69920792,21.3977723 8.76470297,21.36 L9.26405941,21.8593564 C9.06029703,22.0135644 8.81772277,22.1178713 8.55123762,22.154604 Z M9.5690099,21.5630693 L9.06549505,21.0592079 C9.10430693,20.9933663 9.13688119,20.9223267 9.1569802,20.8467822 L9.86217822,20.8467822 C9.82475248,21.1129208 9.72460396,21.3589604 9.5690099,21.5630693 Z M9.15732673,20.4215842 C9.13757426,20.3443069 9.10777228,20.2722277 9.06861386,20.2053465 L9.56935644,19.704604 C9.72425743,19.9107921 9.82683168,20.1537129 9.86321782,20.4215842 L9.15732673,20.4215842 Z" id="Shape"></path>
                    <path d="M29.5484653,18.0190594 C28.1931683,18.0190594 27.0939604,19.1172277 27.0939604,20.4739109 C27.0939604,20.5792574 27.1022772,20.6818317 27.1154455,20.7830198 C27.2675743,21.9924257 28.2978218,22.9291089 29.5484653,22.9291089 C30.8344554,22.9291089 31.8868812,21.9407921 31.9939604,20.6835644 C31.9998515,20.614604 32.0040099,20.5449505 32.0040099,20.4742574 C32.0043564,19.1168812 30.904802,18.0190594 29.5484653,18.0190594 Z M28.3186139,19.5486634 L28.819703,20.0490594 C28.7805446,20.1162871 28.7507426,20.1880198 28.7309901,20.2649505 L28.025099,20.2649505 C28.0614851,19.9974257 28.1640594,19.7541584 28.3186139,19.5486634 Z M28.0233663,20.690495 L28.7341089,20.690495 C28.7545545,20.7663861 28.7836634,20.8381188 28.8228218,20.9029208 L28.3213861,21.4050495 C28.1661386,21.2009406 28.0597525,20.9562871 28.0233663,20.690495 Z M29.3363861,21.9990099 C29.0705941,21.9622772 28.8287129,21.8579703 28.6239109,21.7030693 L29.1229208,21.2040594 C29.1884158,21.2428713 29.2601485,21.269901 29.3360396,21.29 L29.3360396,21.9990099 L29.3363861,21.9990099 Z M29.3363861,19.6567822 C29.2587624,19.6768812 29.1863366,19.7073762 29.1191089,19.7472277 L28.6194059,19.2475248 C28.8245545,19.0919307 29.0688614,18.9879703 29.3360396,18.9512376 L29.3360396,19.6567822 L29.3363861,19.6567822 Z M29.7615842,18.9505446 C30.0291089,18.9872772 30.2737624,19.0912376 30.4785644,19.2468317 L29.9788614,19.7465347 C29.9116337,19.7070297 29.8392079,19.6761881 29.7615842,19.6560891 L29.7615842,18.9505446 Z M29.7615842,21.9983168 L29.7615842,21.29 C29.8371287,21.269901 29.9092079,21.2414851 29.9743564,21.2037129 L30.4737129,21.7030693 C30.2692574,21.8572772 30.0273762,21.9612376 29.7615842,21.9983168 Z M30.7786634,21.4067822 L30.2751485,20.9029208 C30.3136139,20.8374257 30.3461881,20.7663861 30.3669802,20.690495 L31.0718317,20.690495 C31.0340594,20.9562871 30.9335644,21.2023267 30.7786634,21.4067822 Z M30.3669802,20.2649505 C30.3465347,20.1880198 30.3167327,20.1162871 30.2775743,20.0490594 L30.7790099,19.5486634 C30.9332178,19.754505 31.0361386,19.9974257 31.0728713,20.2649505 L30.3669802,20.2649505 Z" id="Shape"></path>
                    <path d="M36.2282673,18.3642079 L36.0629703,18.2910891 L36.0629703,16.4360891 C36.0629703,15.964802 35.9215842,15.5042574 35.6561386,15.1147525 L34.2235644,13.0078218 C33.7207426,12.2683168 32.9278713,11.7776238 32.0410891,11.6570297 C29.1035149,11.2567822 22.2109406,10.5235149 17.6429208,11.6805941 C14.2662871,12.5365347 10.2080198,15.115099 10.2080198,15.115099 C10.2080198,15.115099 4.99925743,15.9630693 3.84841584,16.5913366 C2.96717822,17.0726733 2.44668317,17.689505 2.3579703,18.5745545 C2.3160396,18.9990594 2.39227723,19.5607921 2.48306931,20.0306931 C2.58910891,20.5775248 3.01742574,21.0051485 3.56460396,21.110495 L5.48163366,21.4788614 C5.43623762,21.3256931 5.40054455,21.1676733 5.38009901,21.0044554 C5.36277228,20.8706931 5.35445545,20.7480198 5.35445545,20.6298515 C5.35445545,18.984505 6.69242574,17.6461881 8.33777228,17.6461881 C9.98346535,17.6461881 11.3221287,18.984505 11.3221287,20.6298515 C11.3221287,20.7144059 11.3165842,20.7982673 11.3103465,20.8814356 C11.2919802,21.0966337 11.2479703,21.304901 11.1862871,21.5048515 L26.7529703,21.5048515 C26.6756931,21.2955446 26.6188614,21.0775743 26.5904455,20.8481683 C26.5731188,20.7144059 26.564802,20.5917327 26.564802,20.4735644 C26.564802,18.8285644 27.9024257,17.4902475 29.5477723,17.4902475 C31.1934653,17.4902475 32.5321287,18.8285644 32.5321287,20.4735644 C32.5321287,20.5581188 32.5265842,20.6419802 32.5203465,20.725495 C32.4978218,20.9975248 32.435099,21.2584653 32.3436139,21.5048515 L32.3637129,21.5048515 L35.975297,20.3983663 C36.3013861,20.2989109 36.540495,20.0178713 36.5865842,19.68 L36.660396,19.1404455 C36.705099,18.8136634 36.5290594,18.4976238 36.2282673,18.3642079 Z M25.9216337,11.8358416 L25.9216337,14.8111881 L21.6183663,15.0263861 L21.6183663,11.7855941 C21.6412376,11.7852475 21.6637624,11.7835149 21.6873267,11.7831683 C23.1642574,11.7706931 24.6044554,11.7935644 25.9216337,11.8358416 Z M13.8109406,14.2210396 L13.8109406,13.8824752 C13.8109406,13.8824752 16.5014356,12.220495 20.3559406,11.8569802 L19.980297,15.1085149 L13.8109406,15.4172772 C13.8109406,15.4172772 14.1044554,15.2817822 14.1044554,14.6271782 C14.1044554,14.6271782 14.0815842,14.3340099 13.8109406,14.2210396 Z M26.7429208,14.7706436 L26.7429208,13.2167822 L27.5465347,14.7304455 L26.7429208,14.7706436 Z M32.8166337,14.2861881 C32.5660891,14.4168317 32.2892079,14.4934158 32.0071287,14.5076238 L28.4693564,14.6843564 L26.9782178,11.8756931 C29.7068317,11.9910891 31.7295545,12.1837624 32.1287624,12.2977723 C32.7601485,12.4783168 33.3329703,13.3411881 33.3104455,13.770198 C33.2993564,13.9808911 33.0581683,14.1593564 32.8166337,14.2861881 Z" id="Shape"></path>
                </g>
            </g>
        </g>
    </g>
</svg>