<svg xmlns="http://www.w3.org/2000/svg" xmlns:xlink="http://www.w3.org/1999/xlink" width="71" height="71" viewBox="0 0 71 71">
    <defs>
        <rect id="a" width="65" height="65" x="3" y="3" rx="8"/>
    </defs>
    <g fill="none" fill-rule="evenodd">
        <g>
            <use fill="#FFF" xlink:href="#a"/>
            <rect width="64" height="64" x="3.5" y="3.5" stroke="#E8E8E8" rx="8"/>
        </g>
        <text fill="#000" fill-opacity=".87" font-family="Roboto-Regular, Roboto" font-size="11">
            <tspan x="24" y="57">MPV</tspan>
        </text>
        <g fill="#9B9B9B" fill-rule="nonzero">
            <path d="M24.34 26.175a2.454 2.454 0 1 0-.002 4.909 2.454 2.454 0 0 0 .001-4.909zm-1.23 1.53l.5.5a.836.836 0 0 0-.088.217h-.706c.036-.268.139-.511.293-.717zm-.296 1.142h.71a.83.83 0 0 0 .09.212l-.503.502a1.529 1.529 0 0 1-.297-.714zm1.313 1.308a1.52 1.52 0 0 1-.712-.296l.499-.499a.864.864 0 0 0 .213.086v.71zm0-2.342a.835.835 0 0 0-.217.09l-.5-.499c.205-.156.45-.26.717-.296v.705zm.424-.706c.268.037.513.14.718.296l-.5.5a.865.865 0 0 0-.218-.09v-.706zm0 3.048v-.709a.87.87 0 0 0 .214-.086l.5.5a1.522 1.522 0 0 1-.714.295zm1.018-.592l-.504-.504a.852.852 0 0 0 .092-.212h.705a1.528 1.528 0 0 1-.293.716zm-.412-1.141a.836.836 0 0 0-.088-.217l.5-.5c.155.206.258.449.294.717h-.706zM45.548 26.02a2.454 2.454 0 1 0 0 4.908 2.454 2.454 0 0 0 0-4.909zm-1.23 1.529l.502.5a.843.843 0 0 0-.089.216h-.706c.036-.268.14-.51.294-.716zm-.295 1.141h.711c.02.076.05.148.089.213l-.502.502a1.522 1.522 0 0 1-.298-.715zM45.336 30a1.522 1.522 0 0 1-.712-.296l.499-.499a.833.833 0 0 0 .213.086v.709zm0-2.342a.835.835 0 0 0-.217.09l-.5-.5c.206-.155.45-.259.717-.296v.706zm.426-.706c.267.036.512.14.717.296l-.5.5a.847.847 0 0 0-.217-.09v-.706zm0 3.047v-.708a.87.87 0 0 0 .212-.086l.5.5a1.529 1.529 0 0 1-.712.294zm1.017-.591l-.504-.504a.881.881 0 0 0 .092-.213h.705a1.541 1.541 0 0 1-.293.717zm-.412-1.142a.87.87 0 0 0-.09-.216l.502-.5c.154.206.257.448.294.716h-.706z"/>
            <path d="M52.228 26.364l-.165-.073v-1.855c0-.471-.141-.932-.407-1.321l-1.432-2.107a3.152 3.152 0 0 0-2.183-1.351c-2.937-.4-9.83-1.133-14.398.024-3.377.856-7.435 3.434-7.435 3.434s-5.209.848-6.36 1.476c-.88.482-1.401 1.099-1.49 1.984-.042.424.034.986.125 1.456.106.547.534.974 1.082 1.08l1.917.368a2.965 2.965 0 0 1-.128-.85 2.987 2.987 0 0 1 2.984-2.983 2.987 2.987 0 0 1 2.972 3.235 2.971 2.971 0 0 1-.124.624h15.567a2.929 2.929 0 0 1-.188-1.031 2.986 2.986 0 0 1 2.983-2.984 2.987 2.987 0 0 1 2.972 3.235 2.933 2.933 0 0 1-.176.78h.02l3.611-1.107c.326-.1.565-.38.612-.718l.073-.54a.739.739 0 0 0-.432-.776zm-10.306-6.528v2.975l-4.304.215v-3.24l.07-.003c1.476-.012 2.916.01 4.234.053zM29.81 22.22v-.339s2.69-1.662 6.545-2.025l-.376 3.252-6.17.308s.294-.135.294-.79c0 0-.022-.293-.293-.406zm12.932.55v-1.554l.804 1.513-.804.04zm6.074-.485c-.25.13-.528.207-.81.222l-3.538.176-1.49-2.808c2.728.115 4.75.308 5.15.422.631.18 1.204 1.043 1.181 1.472-.01.21-.252.39-.493.516z"/>
        </g>
    </g>
</svg>
