<?xml version="1.0" encoding="UTF-8"?>
<svg width="15px" height="15px" viewBox="0 0 15 15" version="1.1" xmlns="http://www.w3.org/2000/svg" xmlns:xlink="http://www.w3.org/1999/xlink">
    <!-- Generator: Sketch 48.2 (47327) - http://www.bohemiancoding.com/sketch -->
    <title>newspaper</title>
    <desc>Created with Sketch.</desc>
    <defs></defs>
    <g id="Sales-Page-Pro-4.0-(berita)" stroke="none" stroke-width="1" fill="none" fill-rule="evenodd" transform="translate(-575.000000, -544.000000)">
        <g id="Group-29" transform="translate(0.000000, 524.000000)" fill="#F16033" fill-rule="nonzero">
            <g id="Group-20" transform="translate(575.000000, 18.000000)">
                <g id="newspaper" transform="translate(0.000000, 2.000000)">
                    <path d="M13.59375,0 L3.28125,0 C2.50453125,0 1.875,0.6290625 1.875,1.40625 L1.875,2.34375 L1.40625,2.34375 C0.62953125,2.34375 0,2.9728125 0,3.75 L0,13.125 C0,14.1604687 0.83953125,15 1.875,15 L13.125,15 C14.1604687,15 15,14.1604687 15,13.125 L15,1.40625 C15,0.6290625 14.37,0 13.59375,0 Z M14.0625,13.125 C14.0625,13.6415625 13.6415625,14.0625 13.125,14.0625 L1.875,14.0625 C1.35796875,14.0625 0.9375,13.6415625 0.9375,13.125 L0.9375,3.75 C0.9375,3.49125 1.1475,3.28125 1.40625,3.28125 L1.875,3.28125 L1.875,12.65625 C1.875,12.9154687 2.08453125,13.125 2.34375,13.125 C2.60296875,13.125 2.8125,12.9154687 2.8125,12.65625 L2.8125,1.40625 C2.8125,1.1475 3.0225,0.9375 3.28125,0.9375 L13.59375,0.9375 C13.8520312,0.9375 14.0625,1.1475 14.0625,1.40625 L14.0625,13.125 Z" id="Shape"></path>
                    <path d="M4.33920264,6.3285324 L7.62792778,6.3285324 C7.88773707,6.3285324 8.09774566,6.11852381 8.09774566,5.85871452 L8.09774566,2.57186866 C8.09774566,2.31205937 7.88773707,2.10205078 7.62792778,2.10205078 L4.33920264,2.10205078 C4.07939336,2.10205078 3.86938477,2.31205937 3.86938477,2.57186866 L3.86938477,5.85871452 C3.86938477,6.11805399 4.07939336,6.3285324 4.33920264,6.3285324 Z M4.80902052,3.03980726 L7.1581099,3.03980726 L7.1581099,5.38889665 L4.80902052,5.38889665 L4.80902052,3.03980726 Z" id="Shape"></path>
                </g>
            </g>
        </g>
    </g>
</svg>