<?xml version="1.0" encoding="UTF-8"?>
<svg width="15px" height="15px" viewBox="0 0 15 15" version="1.1" xmlns="http://www.w3.org/2000/svg" xmlns:xlink="http://www.w3.org/1999/xlink">
    <!-- Generator: Sketch 48.2 (47327) - http://www.bohemiancoding.com/sketch -->
    <title>newspaper</title>
    <desc>Created with Sketch.</desc>
    <defs></defs>
    <g id="Sales-Page-Pro-2.0-(diskusi)" stroke="none" stroke-width="1" fill="none" fill-rule="evenodd" transform="translate(-575.000000, -544.000000)">
        <g id="Group-29" transform="translate(0.000000, 524.000000)" fill="#585A58" fill-rule="nonzero">
            <g id="Group-20" transform="translate(575.000000, 18.000000)">
                <g id="newspaper" transform="translate(0.000000, 2.000000)">
                    <path d="M13.59375,0 L3.28125,0 C2.50453125,0 1.875,0.6290625 1.875,1.40625 L1.875,2.34375 L1.40625,2.34375 C0.62953125,2.34375 0,2.9728125 0,3.75 L0,13.125 C0,14.1604687 0.83953125,15 1.875,15 L13.125,15 C14.1604687,15 15,14.1604687 15,13.125 L15,1.40625 C15,0.6290625 14.37,0 13.59375,0 Z M14.0625,13.125 C14.0625,13.6415625 13.6415625,14.0625 13.125,14.0625 L1.875,14.0625 C1.35796875,14.0625 0.9375,13.6415625 0.9375,13.125 L0.9375,3.75 C0.9375,3.49125 1.1475,3.28125 1.40625,3.28125 L1.875,3.28125 L1.875,12.65625 C1.875,12.9154687 2.08453125,13.125 2.34375,13.125 C2.60296875,13.125 2.8125,12.9154687 2.8125,12.65625 L2.8125,1.40625 C2.8125,1.1475 3.0225,0.9375 3.28125,0.9375 L13.59375,0.9375 C13.8520312,0.9375 14.0625,1.1475 14.0625,1.40625 L14.0625,13.125 Z" id="Shape"></path>
                    <path d="M7.86283672,12.4204102 L4.1042937,12.4204102 C3.97462397,12.4204102 3.86938477,12.5329102 3.86938477,12.6704102 C3.86938477,12.8089102 3.97462397,12.9204102 4.1042937,12.9204102 L7.86283672,12.9204102 C7.99203663,12.9204102 8.09774566,12.8089102 8.09774566,12.6704102 C8.09774566,12.5329102 7.99250645,12.4204102 7.86283672,12.4204102 Z" id="Shape"></path>
                    <path d="M7.86283672,11.1306152 L4.1042937,11.1306152 C3.97462397,11.1306152 3.86938477,11.2431152 3.86938477,11.3806152 C3.86938477,11.5191152 3.97462397,11.6306152 4.1042937,11.6306152 L7.86283672,11.6306152 C7.99203663,11.6306152 8.09774566,11.5191152 8.09774566,11.3806152 C8.09774566,11.2431152 7.99250645,11.1306152 7.86283672,11.1306152 Z" id="Shape"></path>
                    <path d="M7.86283672,9.84082031 L4.1042937,9.84082031 C3.97462397,9.84082031 3.86938477,9.95332031 3.86938477,10.0908203 C3.86938477,10.2293203 3.97462397,10.3408203 4.1042937,10.3408203 L7.86283672,10.3408203 C7.99203663,10.3408203 8.09774566,10.2293203 8.09774566,10.0908203 C8.09774566,9.95332031 7.99250645,9.84082031 7.86283672,9.84082031 Z" id="Shape"></path>
                    <path d="M13.0220164,12.4204102 L9.26347339,12.4204102 C9.13333384,12.4204102 9.02856445,12.5329102 9.02856445,12.6704102 C9.02856445,12.8089102 9.13333384,12.9204102 9.26347339,12.9204102 L13.0220164,12.9204102 C13.1512163,12.9204102 13.2569253,12.8089102 13.2569253,12.6704102 C13.2569253,12.5329102 13.1512163,12.4204102 13.0220164,12.4204102 Z" id="Shape"></path>
                    <path d="M13.0220164,11.1306152 L9.26347339,11.1306152 C9.13333384,11.1306152 9.02856445,11.2431152 9.02856445,11.3806152 C9.02856445,11.5191152 9.13333384,11.6306152 9.26347339,11.6306152 L13.0220164,11.6306152 C13.1512163,11.6306152 13.2569253,11.5191152 13.2569253,11.3806152 C13.2569253,11.2431152 13.1512163,11.1306152 13.0220164,11.1306152 Z" id="Shape"></path>
                    <path d="M13.0220164,9.84082031 L9.26347339,9.84082031 C9.13333384,9.84082031 9.02856445,9.95332031 9.02856445,10.0908203 C9.02856445,10.2293203 9.13333384,10.3408203 9.26347339,10.3408203 L13.0220164,10.3408203 C13.1512163,10.3408203 13.2569253,10.2293203 13.2569253,10.0908203 C13.2569253,9.95332031 13.1512163,9.84082031 13.0220164,9.84082031 Z" id="Shape"></path>
                    <path d="M13.0308334,7.26123047 L4.1042937,7.26123047 C3.97462397,7.26123047 3.86938477,7.37323047 3.86938477,7.51123047 C3.86938477,7.64923047 3.97462397,7.76123047 4.1042937,7.76123047 L13.0308334,7.76123047 C13.1600333,7.76123047 13.2657423,7.64923047 13.2657423,7.51123047 C13.2657423,7.37323047 13.1600333,7.26123047 13.0308334,7.26123047 Z" id="Shape"></path>
                    <path d="M13.0308334,8.55102539 L4.1042937,8.55102539 C3.97462397,8.55102539 3.86938477,8.66352539 3.86938477,8.80102539 C3.86938477,8.93952539 3.97462397,9.05102539 4.1042937,9.05102539 L13.0308334,9.05102539 C13.1600333,9.05102539 13.2657423,8.93952539 13.2657423,8.80102539 C13.2657423,8.66352539 13.1600333,8.55102539 13.0308334,8.55102539 Z" id="Shape"></path>
                    <path d="M4.33920264,6.3285324 L7.62792778,6.3285324 C7.88773707,6.3285324 8.09774566,6.11852381 8.09774566,5.85871452 L8.09774566,2.57186866 C8.09774566,2.31205937 7.88773707,2.10205078 7.62792778,2.10205078 L4.33920264,2.10205078 C4.07939336,2.10205078 3.86938477,2.31205937 3.86938477,2.57186866 L3.86938477,5.85871452 C3.86938477,6.11805399 4.07939336,6.3285324 4.33920264,6.3285324 Z M4.80902052,3.03980726 L7.1581099,3.03980726 L7.1581099,5.38889665 L4.80902052,5.38889665 L4.80902052,3.03980726 Z" id="Shape"></path>
                </g>
            </g>
        </g>
    </g>
</svg>