<?xml version="1.0" encoding="UTF-8"?>
<svg width="180px" height="90px" viewBox="0 0 180 90" version="1.1" xmlns="http://www.w3.org/2000/svg" xmlns:xlink="http://www.w3.org/1999/xlink">
    <!-- Generator: sketchtool 48.1 (47250) - http://www.bohemiancoding.com/sketch -->
    <title>2FB7BB05-3149-4371-9AF2-C28EE3CEDF5B</title>
    <desc>Created with sketchtool.</desc>
    <defs></defs>
    <g id="1.3-List-Mobil-Baru-1.4.7-Filter" stroke="none" stroke-width="1" fill="none" fill-rule="evenodd" transform="translate(-90.000000, -304.000000)">
        <g id="car" transform="translate(90.000000, 304.000000)" fill-rule="nonzero">
            <path d="M18,50.7037037 C18,51.4814815 17.6,52 17,52 C16.4,52 16,51.4814815 16,50.7037037 L16,46.2962963 C16,45.5185185 16.4,45 17,45 C17.6,45 18,45.5185185 18,46.2962963 L18,50.7037037 Z" id="Shape" fill="#F7DD6D"></path>
            <path d="M17,45 C17.6,45 18,45.5185185 18,46.2962963 L18,50.7037037 C18,51.4814815 17.6,52 17,52" id="Shape" fill="#E2C447"></path>
            <g id="Group" transform="translate(14.000000, 24.000000)" fill="#FFFFFF">
                <path d="M42.8411523,5.8007191 C42.0806584,5.8007191 41.3201646,5.54903371 40.5596708,5.54903371 C31.6872428,5.54903371 10.1399177,11.0861124 10.1399177,17.1265618 C10.1399177,23.1670112 29.6592593,18.1333034 37.0106996,18.1333034 C37.7711934,18.1333034 42.0806584,26.9422921 42.8411523,26.9422921 L42.8411523,5.8007191 Z" id="Shape"></path>
                <path d="M22.5613169,12.0928539 C22.5613169,16.3715056 14.9563786,19.6434157 13.181893,19.6434157 C11.4074074,19.6434157 10.1399177,16.1198202 10.1399177,12.0928539 C10.1399177,7.81420225 9.88641975,0.263640449 11.6609053,0.263640449 C13.181893,0.263640449 22.5613169,8.06588764 22.5613169,12.0928539 Z" id="Shape"></path>
                <path d="M153.873251,27.9490337 C155.647737,10.834427 102.920165,8.56925843 61.6,8.56925843 C20.5333333,8.56925843 2.02798354,14.1063371 2.84217094e-14,27.9490337 L153.873251,27.9490337 Z" id="Shape"></path>
            </g>
            <path d="M168,53 C165.716639,38.7142857 117.004942,33 75.6507414,33 C34.5502471,33 16.029654,38.7142857 14,53 L168,53 Z" id="Shape" fill="#EBF4F7"></path>
            <g id="Group" transform="translate(13.000000, 51.000000)" fill="#D1E3E8">
                <path d="M155.492683,4.47933333 C155.492683,5.81266667 154.478049,7.146 152.956098,7.146 L2.53658537,7.146 C1.26829268,7.146 0,6.07933333 0,4.47933333 L0,2.87933333 C0,1.546 1.01463415,0.212666667 2.53658537,0.212666667 L153.209756,0.212666667 C154.478049,0.212666667 155.746341,0.746 155.746341,2.07933333 L155.746341,4.47933333 L155.492683,4.47933333 Z" id="Shape"></path>
                <path d="M155.492683,6.61266667 C155.492683,7.946 154.478049,8.746 153.463415,8.746 L2.02926829,8.746 C0.76097561,8.746 0,7.67933333 0,6.61266667 C0,5.27933333 1.01463415,4.47933333 2.02926829,4.47933333 L153.209756,4.47933333 C154.478049,4.21266667 155.492683,5.27933333 155.492683,6.61266667 Z" id="Shape"></path>
            </g>
            <path d="M169,59.5 C169,60.25 168.240323,61 167.480645,61 L13.5193548,61 C12.7596774,60.75 12,60.25 12,59.5 C12,58.75 12.7596774,58 13.5193548,58 L167.733871,58 C168.240323,58 169,58.75 169,59.5 Z" id="Shape" fill="#8E8E8E"></path>
            <path d="M30,57 C30,50.4782609 35.25,45 41.5,45 C47.75,45 53,50.4782609 53,57" id="Shape" fill="#000000"></path>
            <path d="M53,57 L52.2421053,57 C52.2421053,51 47.1894737,46 41.1263158,46 C35.0631579,46 30.0105263,51 30.0105263,57 L29,57 C29,50.5 34.3052632,45 41.1263158,45 C47.6947368,45 53,50.5 53,57 Z" id="Shape" fill="#8E8E8E"></path>
            <path d="M52,57.5048321 C52,63.3923653 47.1341463,68 41.5,68 C35.6097561,68 31,63.1363856 31,57.5048321 C31,51.6172989 35.8658537,47.0096642 41.5,47.0096642 C47.1341463,46.7536845 52,51.6172989 52,57.5048321 Z" id="Shape" fill="#203547"></path>
            <path d="M48.9577465,50 C53.0140845,54.056338 53.0140845,60.6478873 48.9577465,64.9577465 C44.9014085,69.0140845 38.3098592,69.0140845 34,64.9577465" id="Shape" fill="#122130"></path>
            <circle id="Oval" fill="#CE3F00" cx="41.5" cy="57.5" r="6.5"></circle>
            <path d="M46.1460674,53 C48.6179775,55.4719101 48.6179775,59.6741573 46.1460674,62.1460674 C43.6741573,64.6179775 39.4719101,64.6179775 37,62.1460674" id="Shape" fill="#B73B04"></path>
            <circle id="Oval" fill="#CED8DD" cx="41" cy="57" r="6"></circle>
            <path d="M45.2580645,53 C47.5806452,55.3225806 47.5806452,58.9354839 45.2580645,61.2580645 C42.9354839,63.5806452 39.3225806,63.5806452 37,61.2580645" id="Shape" fill="#B2BBC1"></path>
            <path d="M44,56.8695652 C44,58.4347826 42.6363636,60 41,60 C39.3636364,60 38,58.4347826 38,56.8695652 C38,55.3043478 39.3636364,54 41,54 C42.6363636,54 44,55.3043478 44,56.8695652 Z" id="Shape" fill="#888F91" opacity="0.2"></path>
            <path d="M44,57 C44,58.6363636 42.6363636,60 41,60 C39.3636364,60 38,58.6363636 38,57 C38,55.3636364 39.3636364,54 41,54 C42.6363636,54 44,55.3636364 44,57 Z" id="Shape" fill="#E7EFF2"></path>
            <path d="M42,54 C43.6363636,54 45,55.3636364 45,57 C45,58.6363636 43.6363636,60 42,60" id="Shape" fill="#DAE6EA"></path>
            <path d="M40.5,51 C40.3333333,51 40.1666667,51 40,51 C40,51.5 40.3333333,52 40.5,52 C40.6666667,52 41,51.6666667 41,51 C40.8333333,51 40.6666667,51 40.5,51 Z" id="Shape" fill="#666E70"></path>
            <path d="M42,52 C42.3333333,52 43,51.6666667 43,51 C42.6666667,51 42.3333333,51 42,51" id="Shape" fill="#535A5B"></path>
            <path d="M40,63 C40.3333333,63 40.6666667,63 41,63 C41,62.5 40.6666667,62 40.5,62 C40.1666667,62.1666667 40,62.5 40,63 Z" id="Shape" fill="#666E70"></path>
            <path d="M43,63 C43,62.5 42.3333333,62 42,62" id="Shape" fill="#535A5B"></path>
            <path d="M37,54.2515048 C37.9386286,54.8772572 38.564381,55.1901333 38.8772572,54.8772572 C39.1901333,54.564381 38.8772572,53.6257524 38.2515048,53 C37.9386286,53.3128762 37.6257524,53.6257524 37,54.2515048 Z" id="Shape" fill="#666E70"></path>
            <path d="M38.8360139,54 C39.2540208,53.8333333 38.8360139,53.3333333 38,53" id="Shape" fill="#535A5B"></path>
            <path d="M46,60.7484952 C45.0613714,60.1227428 44.435619,59.8098667 44.1227428,60.1227428 C43.8098667,60.435619 44.1227428,61.0613714 44.7484952,62 C45.0613714,61.6871238 45.3742476,61.6871238 45.3742476,61.3742476 C45.3742476,61.3742476 45.6871238,61.0613714 46,60.7484952 Z" id="Shape" fill="#666E70"></path>
            <path d="M45.6666667,62 C45.8333333,61.7723291 45.8333333,61.5446582 46,61.5446582 C45.5,61.0893164 45.1666667,60.8616455 45,61.0893164" id="Shape" fill="#535A5B"></path>
            <path d="M35,58 C35.5,58 36,57.6666667 36,57.5 C36,57.3333333 35.6666667,57 35,57 C35,57.1666667 35,57.3333333 35,57.5 C35,57.6666667 35,57.8333333 35,58 Z" id="Shape" fill="#666E70"></path>
            <path d="M36,58 C36,57.6666667 35.6666667,57 35,57 C35,57.3333333 35,57.6666667 35,58" id="Shape" fill="#535A5B"></path>
            <path d="M45,57.5 C45,57.6666667 45.3333333,58 46,58 C46,57.6666667 46,57.3333333 46,57 C45.5,57 45,57.1666667 45,57.5 Z" id="Shape" fill="#666E70"></path>
            <path d="M46,57 C45.5,57 45,57.6666667 45,58" id="Shape" fill="#535A5B"></path>
            <path d="M37,61.7484952 C37.3128762,62.3742476 37.9386286,62.6871238 38.2515048,63 C38.8772572,62.0613714 39.1901333,61.435619 38.8772572,61.1227428 C38.8772572,60.8098667 37.9386286,61.1227428 37,61.7484952 Z" id="Shape" fill="#666E70"></path>
            <path d="M38,62 C38.8360139,61.5 39.2540208,61.1666667 38.8360139,61" id="Shape" fill="#535A5B"></path>
            <path d="M44.7484952,53 C44.1227428,53.9386286 43.8098667,54.564381 44.1227428,54.8772572 C44.435619,55.1901333 45.3742476,54.8772572 46,54.2515048 C45.6871238,53.6257524 45.3742476,53.3128762 44.7484952,53 Z" id="Shape" fill="#666E70"></path>
            <path d="M45,53 C44.1639861,53.5 43.7459792,53.8333333 44.1639861,54" id="Shape" fill="#535A5B"></path>
            <path d="M127,57 C127,50.4782609 132.25,45 138.5,45 C144.75,45 150,50.4782609 150,57" id="Shape" fill="#000000"></path>
            <path d="M150,57 L149,57 C149,51 144,46 138,46 C132,46 127,51 127,57 L126,57 C126,50.5 131.25,45 138,45 C144.5,45 150,50.5 150,57 Z" id="Shape" fill="#8E8E8E"></path>
            <path d="M149,57.5048321 C149,63.3923653 144.134146,68 138.5,68 C132.609756,68 128,63.1363856 128,57.5048321 C128,51.6172989 132.865854,47.0096642 138.5,47.0096642 C144.390244,46.7536845 149,51.6172989 149,57.5048321 Z" id="Shape" fill="#203547"></path>
            <path d="M145.957746,50 C150.014085,54.056338 150.014085,60.6478873 145.957746,64.9577465 C141.901408,69.0140845 135.309859,69.0140845 131,64.9577465" id="Shape" fill="#122130"></path>
            <circle id="Oval" fill="#CE3F00" cx="138.5" cy="57.5" r="6.5"></circle>
            <path d="M142.146067,53 C144.617978,55.4719101 144.617978,59.6741573 142.146067,62.1460674 C139.674157,64.6179775 135.47191,64.6179775 133,62.1460674" id="Shape" fill="#B73B04"></path>
            <circle id="Oval" fill="#CED8DD" cx="139" cy="57" r="6"></circle>
            <path d="M143.258065,53 C145.580645,55.3225806 145.580645,58.9354839 143.258065,61.2580645 C140.935484,63.5806452 137.322581,63.5806452 135,61.2580645" id="Shape" fill="#B2BBC1"></path>
            <path d="M142,56.8695652 C142,58.4347826 140.636364,60 139,60 C137.363636,60 136,58.4347826 136,56.8695652 C136,55.3043478 137.363636,54 139,54 C140.636364,54 142,55.3043478 142,56.8695652 Z" id="Shape" fill="#888F91" opacity="0.2"></path>
            <path d="M142,57 C142,58.6363636 140.636364,60 139,60 C137.363636,60 136,58.6363636 136,57 C136,55.3636364 137.363636,54 139,54 C140.636364,54 142,55.3636364 142,57 Z" id="Shape" fill="#E7EFF2"></path>
            <path d="M138,54 C139.636364,54 141,55.3636364 141,57 C141,58.6363636 139.636364,60 138,60" id="Shape" fill="#DAE6EA"></path>
            <path d="M138.5,51 C138.333333,51 138.166667,51 138,51 C138,51.5 138.333333,52 138.5,52 C138.666667,52 139,51.6666667 139,51 C138.833333,51 138.666667,51 138.5,51 Z" id="Shape" fill="#666E70"></path>
            <path d="M138,52 C138.333333,52 139,51.6666667 139,51 C138.666667,51 138.333333,51 138,51" id="Shape" fill="#535A5B"></path>
            <path d="M138,63 C138.333333,63 138.666667,63 139,63 C139,62.5 138.666667,62 138.5,62 C138.333333,62.1666667 138,62.5 138,63 Z" id="Shape" fill="#666E70"></path>
            <path d="M139,63 C139,62.5 138.333333,62 138,62" id="Shape" fill="#535A5B"></path>
            <path d="M134,54.2515048 C134.938629,54.8772572 135.564381,55.1901333 135.877257,54.8772572 C136.190133,54.564381 135.877257,53.6257524 135.251505,53 C134.938629,53.3128762 134.312876,53.6257524 134,54.2515048 Z" id="Shape" fill="#666E70"></path>
            <path d="M135.836014,54 C136.254021,53.8333333 135.836014,53.3333333 135,53" id="Shape" fill="#535A5B"></path>
            <path d="M143,60.7484952 C142.061371,60.1227428 141.435619,59.8098667 141.122743,60.1227428 C140.809867,60.435619 141.122743,61.0613714 141.748495,62 C142.061371,61.6871238 142.374248,61.6871238 142.374248,61.3742476 C142.687124,61.3742476 142.687124,61.0613714 143,60.7484952 Z" id="Shape" fill="#666E70"></path>
            <path d="M141.666667,62 C141.833333,61.7723291 141.833333,61.5446582 142,61.5446582 C141.5,61.0893164 141.166667,60.8616455 141,61.0893164" id="Shape" fill="#535A5B"></path>
            <path d="M133,58 C133.5,58 134,57.6666667 134,57.5 C134,57.3333333 133.666667,57 133,57 C133,57.1666667 133,57.3333333 133,57.5 C133,57.6666667 133,57.8333333 133,58 Z" id="Shape" fill="#666E70"></path>
            <path d="M134,58 C134,57.6666667 133.666667,57 133,57 C133,57.3333333 133,57.6666667 133,58" id="Shape" fill="#535A5B"></path>
            <path d="M143,57.5 C143,57.6666667 143.333333,58 144,58 C144,57.6666667 144,57.3333333 144,57 C143.333333,57 143,57.1666667 143,57.5 Z" id="Shape" fill="#666E70"></path>
            <path d="M144,57 C143.5,57 143,57.6666667 143,58" id="Shape" fill="#535A5B"></path>
            <path d="M134,61.7484952 C134.312876,62.3742476 134.938629,62.6871238 135.251505,63 C135.877257,62.0613714 136.190133,61.435619 135.877257,61.1227428 C135.564381,60.8098667 134.625752,61.1227428 134,61.7484952 Z" id="Shape" fill="#666E70"></path>
            <path d="M135,62 C135.836014,61.5 136.254021,61.1666667 135.836014,61" id="Shape" fill="#535A5B"></path>
            <path d="M141.748495,53 C141.122743,53.9386286 140.809867,54.564381 141.122743,54.8772572 C141.435619,55.1901333 142.374248,54.8772572 143,54.2515048 C142.687124,53.6257524 142.061371,53.3128762 141.748495,53 Z" id="Shape" fill="#666E70"></path>
            <path d="M142,53 C141.163986,53.5 140.745979,53.8333333 141.163986,54" id="Shape" fill="#535A5B"></path>
            <path d="M60.27897,38 L114.467811,38 C115.733906,38 117,36.9688097 117,35.4220242 L117,33.8752387 C103.832618,32.5862508 89.9055794,33.101846 76.4849785,33.101846 C67.3690987,33.101846 64.8369099,33.3596435 58,33.8752387 L58,35.4220242 C58,36.7110121 59.0128755,38 60.27897,38 Z" id="Shape" fill="#B73B04"></path>
            <polygon id="Shape" fill="#FFFFFF" points="30 45 17 45 17 49"></polygon>
            <path d="M85,38 C85,38 99.4746888,33.0516171 100.744398,28.3636755 C102.014108,23.6757338 101.506224,21.0713218 106.33112,24.7174986 C111.156017,28.3636755 118.774274,34.3538232 118.774274,34.3538232 C118.774274,34.3538232 120.805809,38 112.679668,38 C104.553527,38 85,38 85,38 Z" id="Shape" fill="#2F5877"></path>
            <path d="M85,37.740758 C85,37.740758 100.095318,34.3706124 101.374582,29.7042568 C102.653846,25.0379013 102.397993,22.9639655 106.235786,27.630321 C111.352843,34.1113704 118.772575,34.3706124 118.772575,34.3706124 C118.772575,34.3706124 120.819398,38 112.632107,38 C104.444816,38 85,37.740758 85,37.740758 Z" id="Shape" fill="#203547"></path>
            <path d="M166.951916,52.1146299 C166.703823,53.5372367 165.215264,54.3908009 163.974798,53.8217581 C162.734332,53.2527154 156.532003,50.1229803 157.028189,48.7003734 C157.524375,47.2777666 164.222891,48.415852 165.463357,48.7003734 C166.45573,48.9848948 167.200009,50.692023 166.951916,52.1146299 Z" id="Shape" fill="#ADC3C9"></path>
            <path d="M154,40.8912378 C154,40.8912378 146.434783,37.1214463 125,42 C125,42 140.634783,37.7867036 146.686957,38.008456 C152.73913,38.4519609 154,40.8912378 154,40.8912378 Z" id="Shape" fill="#FFFFFF"></path>
            <g id="Group-5" transform="translate(66.000000, 41.000000)">
                <g id="Group-3" fill="#FFFFFF">
                    <circle id="Oval" cx="7" cy="7" r="7"></circle>
                    <path d="M11.9184501,1.82608696 C14.69385,4.60148682 14.69385,9.14305024 11.9184501,11.9184501 C9.14305024,14.69385 4.60148682,14.69385 1.82608696,11.9184501" id="Shape"></path>
                </g>
                <g id="Group" transform="translate(2.434783, 3.043478)">
                    <g transform="translate(1.217391, 0.608696)" id="Shape">
                        <path d="M8.10388571,6.40826578 L6.91202057,5.0138837 C6.8801312,4.97656925 6.83229715,4.95496615 6.7844631,4.95496615 L6.46955559,4.95496615 L6.03506294,4.1497596 C7.25283819,3.59986245 8.31714586,2.94980545 8.31714586,1.92856788 C8.31714586,1.29225831 7.97632824,0.756108588 7.35847173,0.418314622 C6.85820726,0.145329962 6.1785651,0 5.38930324,0 L0.936750193,0 L0,1.91874829 L1.78580462,1.91874829 L0.302948999,6.6773226 L2.87004314,6.6773226 L3.48391348,4.70162068 L4.54822115,6.6773226 L7.97234207,6.6773226 C8.11983039,6.68125044 8.19556764,6.51628129 8.10388571,6.40826578 Z M4.35489185,1.92267612 L4.85316323,1.92267612 C5.42318569,1.92267612 5.72613469,2.10335662 5.73610012,2.20351646 C5.7241416,2.23297523 5.58861179,2.49221246 4.67179245,2.84375386 C4.43461527,2.93409411 4.1974381,3.01068692 3.99613646,3.0715684 L4.35489185,1.92267612 Z" fill="#FFFFFF"></path>
                        <g fill="#EE5A2A">
                            <polygon points="1.86214287 6.31494372 3.40232646 1.37402543 1.74467124 1.37402543 0.206663052 6.31494372"></polygon>
                            <path d="M6.45658883,5.52611165 L5.9410189,5.52611165 L5.00777206,3.79411079 C6.58058666,3.12746194 7.76835536,2.48867945 7.76835536,1.59481267 C7.76835536,0.540178485 6.60669146,0.0150049579 5.08608648,0.0150049579 L0.493815924,0.0150049579 L0.00217540055,1.02033714 L4.48567593,1.02033714 C5.38846716,1.02033714 6.04108732,1.35902048 6.04108732,1.90348609 C6.04108732,2.89166975 3.13040139,3.56046216 3.02598216,3.57975425 L3.02815756,3.58404138 L3.02598216,3.58404138 L4.49437753,6.31065659 L7.1266122,6.31065659 L6.45658883,5.52611165 Z"></path>
                        </g>
                    </g>
                </g>
            </g>
            <path d="M122.43197,80 C122.03076,80 121.62955,79.8468081 121.323166,79.5405713 L55.4594655,13.6768706 C54.8468448,13.06425 54.8468448,12.0718839 55.4594655,11.4594103 C56.0720861,10.8469367 57.0644521,10.8467897 57.6769257,11.4594103 L123.540626,77.323111 C124.153247,77.9357316 124.153247,78.9280977 123.540626,79.5405713 C123.23439,79.8469551 122.83318,80 122.43197,80 Z" id="Shape" fill="#303C42"></path>
        </g>
    </g>
</svg>