<?xml version="1.0" encoding="UTF-8"?>
<svg width="71px" height="71px" viewBox="0 0 71 71" version="1.1" xmlns="http://www.w3.org/2000/svg" xmlns:xlink="http://www.w3.org/1999/xlink">
    <!-- Generator: sketchtool 48.1 (47250) - http://www.bohemiancoding.com/sketch -->
    <title>200BB53B-168C-4F11-947D-AFAABDBA58D3</title>
    <desc>Created with sketchtool.</desc>
    <defs></defs>
    <g id="1.3-List-Mobil-Baru-1.4.8-Filter" stroke="none" stroke-width="1" fill="none" fill-rule="evenodd" transform="translate(-189.000000, -797.000000)">
        <g id="Group-6-Copy" transform="translate(13.000000, 693.000000)">
            <g id="Group-30" transform="translate(176.000000, 104.000000)">
                <rect id="Rectangle-Copy-7" fill="#2C8AFA" x="3" y="3" width="65" height="65" rx="8"></rect>
                <g id="pick-up" transform="translate(16.000000, 8.000000)" fill="#FFFFFF" fill-rule="nonzero">
                    <path d="M8.2279,18.0935 C6.70085,18.0935 5.4622,19.33075 5.4622,20.85815 C5.4622,20.97715 5.47165,21.09265 5.4867,21.20605 C5.6582,22.56965 6.8188,23.62455 8.2279,23.62455 C9.67655,23.62455 10.86235,22.5119 10.98275,21.0944 C10.98905,21.01565 10.99465,20.9383 10.99465,20.8578 C10.99465,19.33075 9.75635,18.0935 8.2279,18.0935 Z M6.8426,19.81655 L7.40715,20.38075 C7.36305,20.45635 7.3284,20.5372 7.3067,20.624 L6.51185,20.624 C6.5528,20.32265 6.66795,20.04825 6.8426,19.81655 Z M6.5087,21.1028 L7.3095,21.1028 C7.33225,21.1882 7.36585,21.2694 7.40995,21.3436 L6.84435,21.90815 C6.67005,21.6782 6.55105,21.4031 6.5087,21.1028 Z M7.9885,22.57735 C7.6896,22.5364 7.41625,22.4188 7.1863,22.2452 L7.74875,21.68275 C7.82225,21.7258 7.90345,21.75765 7.9885,21.77935 L7.9885,22.57735 Z M7.9885,19.9387 C7.9017,19.9611 7.8205,19.9961 7.7442,20.04055 L7.18105,19.4774 C7.41205,19.30135 7.6875,19.18515 7.98885,19.14315 L7.9885,19.9387 Z M8.46765,19.14315 C8.7697,19.18515 9.04445,19.30135 9.27615,19.47775 L8.713,20.04055 C8.63705,19.9961 8.5555,19.9611 8.468,19.9387 L8.46765,19.14315 Z M8.46765,22.57735 L8.46765,21.77935 C8.55305,21.7573 8.6339,21.72545 8.7081,21.6817 L9.2702,22.2452 C9.04025,22.4181 8.7676,22.5357 8.46765,22.57735 Z M9.61355,21.90955 L9.04655,21.3429 C9.0903,21.26835 9.1267,21.18925 9.14945,21.1028 L9.9443,21.1028 C9.9023,21.4031 9.7889,21.67995 9.61355,21.90955 Z M9.1498,20.62435 C9.1281,20.53755 9.0938,20.4567 9.05005,20.3811 L9.6139,19.8169 C9.7889,20.04825 9.90405,20.32265 9.94535,20.6247 L9.1498,20.6247 L9.1498,20.62435 Z" id="Shape"></path>
                    <path d="M28.1653,18.0935 C26.63825,18.0935 25.39995,19.33075 25.39995,20.85815 C25.39995,20.97715 25.40905,21.09265 25.4234,21.20605 C25.5949,22.56965 26.7562,23.62455 28.1653,23.62455 C29.61395,23.62455 30.7994,22.5119 30.9198,21.0944 C30.9268,21.01565 30.9317,20.9383 30.9317,20.8578 C30.9317,19.33075 29.6934,18.0935 28.1653,18.0935 Z M26.77965,19.81655 L27.3442,20.38075 C27.3001,20.45635 27.2658,20.5372 27.24375,20.624 L26.4489,20.624 C26.48985,20.32265 26.60535,20.04825 26.77965,19.81655 Z M26.4461,21.1028 L27.2469,21.1028 C27.2693,21.1882 27.3029,21.2694 27.347,21.3436 L26.7814,21.90815 C26.6078,21.6782 26.48845,21.4031 26.4461,21.1028 Z M27.9259,22.57735 C27.62665,22.5364 27.35365,22.4188 27.12335,22.2452 L27.68545,21.68275 C27.7593,21.7258 27.8405,21.75765 27.9259,21.77935 L27.9259,22.57735 Z M27.9259,19.9387 C27.8384,19.9611 27.7572,19.9961 27.68125,20.04055 L27.11845,19.4774 C27.34945,19.30135 27.62455,19.18515 27.9266,19.14315 L27.9259,19.9387 Z M28.40435,19.14315 C28.70605,19.18515 28.9808,19.30135 29.21285,19.47775 L28.65005,20.04055 C28.57375,19.9961 28.49255,19.9611 28.40505,19.9387 L28.40435,19.14315 Z M28.40435,22.57735 L28.40435,21.77935 C28.48975,21.7573 28.5706,21.72545 28.6448,21.6817 L29.20725,22.2452 C28.9773,22.4181 28.70465,22.5357 28.40435,22.57735 Z M29.5506,21.90955 L28.9836,21.3429 C29.02735,21.26835 29.06375,21.18925 29.08685,21.1028 L29.8817,21.1028 C29.839,21.4031 29.72595,21.67995 29.5506,21.90955 Z M29.0872,20.62435 C29.0655,20.53755 29.0312,20.4567 28.98745,20.3811 L29.5513,19.8169 C29.72595,20.04825 29.8411,20.32265 29.88205,20.6247 L29.0872,20.6247 L29.0872,20.62435 Z" id="Shape"></path>
                    <path d="M36.29965,18.87715 L35.754,18.87715 L35.614,15.598 C35.6056,15.3957 35.4376,15.2368 35.2353,15.23855 L27.6977,15.3075 L27.6977,12.5845 C27.6977,12.3311 27.49225,12.126 27.23885,12.126 L26.8794,12.126 C26.62635,12.126 26.4209,12.3311 26.4209,12.5845 L26.4209,15.3194 L25.4199,15.3285 L25.219,12.9184 C25.177,12.4144 24.7556,12.02625 24.2495,12.02625 L15.0949,12.02625 C14.77535,12.02625 14.4684,12.1498 14.2381,12.37065 L11.1644,15.32045 L5.28055,15.94135 C4.46505,16.0271 3.7185,16.4387 3.2103,17.0827 L2.60445,17.8506 C2.14385,18.13515 1.9132,18.68115 2.03045,19.21035 L2.2128,20.03495 C2.29155,20.3923 2.57085,20.6702 2.9282,20.74755 L4.93615,21.18435 C4.9246,21.07165 4.91375,20.9607 4.91375,20.85815 C4.91375,19.0308 6.40055,17.54435 8.22825,17.54435 C10.05665,17.54435 11.5438,19.03115 11.5438,20.85815 C11.5438,20.95335 11.5375,21.0468 11.53015,21.14025 C11.52805,21.1644 11.52315,21.18785 11.5207,21.21165 L24.87565,21.21165 C24.86165,21.08775 24.85115,20.96945 24.85115,20.85815 C24.85115,19.0308 26.33795,17.54435 28.166,17.54435 C29.99475,17.54435 31.48155,19.03115 31.48155,20.85815 C31.48155,20.95335 31.4749,21.0468 31.4679,21.14025 C31.4658,21.1644 31.46055,21.18785 31.45845,21.21165 L33.14125,21.21165 L34.66585,20.3713 L36.30105,20.3713 C36.5499,20.3713 36.7515,20.17005 36.7515,19.9212 L36.7515,19.32795 C36.7501,19.07805 36.5485,18.87715 36.29965,18.87715 Z M13.57485,15.5007 C13.57485,15.5007 13.7705,15.02925 13.57485,14.4892 L14.7883,12.98455 C14.8576,12.8988 14.9619,12.84875 15.0718,12.84875 L18.70305,12.84875 L18.70305,15.50035 L13.57485,15.5007 Z M20.04705,15.5007 L20.04705,12.8491 L23.3423,12.8491 C23.5376,12.8491 23.69825,13.0031 23.7063,13.19805 L23.80185,15.5007 L20.04705,15.5007 Z" id="Shape"></path>
                </g>
                <text id="Pickup" font-family="Roboto-Regular, Roboto" font-size="11" font-weight="normal" fill="#FFFFFF">
                    <tspan x="19" y="57">Pickup</tspan>
                </text>
            </g>
        </g>
    </g>
</svg>