<svg xmlns="http://www.w3.org/2000/svg" xmlns:xlink="http://www.w3.org/1999/xlink" width="71" height="71" viewBox="0 0 71 71">
    <defs>
        <rect id="a" width="65" height="65" x="3" y="3" rx="8"/>
    </defs>
    <g fill="none" fill-rule="evenodd">
        <g>
            <use fill="#FFF" xlink:href="#a"/>
            <rect width="64" height="64" x="3.5" y="3.5" stroke="#E8E8E8" rx="8"/>
        </g>
        <g fill="#9B9B9B" fill-rule="nonzero">
            <path d="M24.228 26.093a2.765 2.765 0 0 0-2.766 2.765c0 .12.01.235.025.348a2.764 2.764 0 0 0 5.508-.348 2.765 2.765 0 0 0-2.767-2.765zm-1.385 1.724l.564.564a.929.929 0 0 0-.1.243h-.795c.04-.301.156-.576.33-.807zm-.334 1.286h.8a.95.95 0 0 0 .1.24l-.565.565a1.732 1.732 0 0 1-.335-.805zm1.48 1.474a1.715 1.715 0 0 1-.803-.332l.563-.562a.928.928 0 0 0 .24.096v.798zm0-2.638a.962.962 0 0 0-.245.102l-.563-.564c.231-.176.506-.292.808-.334v.796zm.479-.796c.302.042.576.158.808.335l-.563.563a.951.951 0 0 0-.245-.102v-.796zm0 3.434v-.798a.928.928 0 0 0 .24-.097l.562.563c-.23.173-.502.29-.802.332zm1.146-.667l-.567-.567a.953.953 0 0 0 .102-.24h.795c-.042.3-.155.577-.33.807zm-.464-1.286a.94.94 0 0 0-.1-.243l.564-.564c.175.231.29.506.331.808h-.795zM44.165 26.093a2.765 2.765 0 1 0 2.767 2.765 2.765 2.765 0 0 0-2.767-2.765zm-1.385 1.724l.564.564a.941.941 0 0 0-.1.243h-.795c.04-.301.156-.576.33-.807zm-.334 1.286h.8a.936.936 0 0 0 .101.24l-.566.565a1.74 1.74 0 0 1-.335-.805zm1.48 1.474c-.3-.04-.572-.158-.803-.332l.562-.562a.933.933 0 0 0 .24.096v.798zm0-2.638a.949.949 0 0 0-.245.102l-.563-.564c.231-.176.507-.292.809-.334l-.001.796zm.478-.796c.302.042.577.158.809.335l-.563.563a.956.956 0 0 0-.245-.102v-.796zm0 3.434v-.798a.928.928 0 0 0 .24-.097l.563.563c-.23.173-.502.29-.803.332zm1.147-.667l-.567-.567a.966.966 0 0 0 .103-.24h.795c-.043.3-.156.577-.331.807zm-.464-1.286a.94.94 0 0 0-.1-.243l.564-.564c.175.231.29.506.331.808h-.795z"/>
            <path d="M52.3 26.877h-.546l-.14-3.279a.376.376 0 0 0-.379-.36l-7.537.07v-2.724a.459.459 0 0 0-.46-.458h-.359a.458.458 0 0 0-.458.458v2.735l-1.001.01-.201-2.41a.973.973 0 0 0-.97-.893h-9.154c-.32 0-.627.124-.857.345l-3.074 2.95-5.883.62a3.043 3.043 0 0 0-2.07 1.142l-.607.768c-.46.284-.69.83-.574 1.36l.183.824a.934.934 0 0 0 .715.713l2.008.436a3.291 3.291 0 0 1-.022-.326 3.318 3.318 0 0 1 3.314-3.314 3.318 3.318 0 0 1 3.302 3.596c-.002.024-.007.048-.01.072h13.356a3.196 3.196 0 0 1-.025-.354 3.318 3.318 0 0 1 3.315-3.314 3.318 3.318 0 0 1 3.302 3.596c-.002.024-.007.048-.01.072h1.683l1.525-.84H52.3a.45.45 0 0 0 .45-.45v-.594a.452.452 0 0 0-.451-.45zm-22.725-3.376s.196-.472 0-1.012l1.213-1.504a.365.365 0 0 1 .284-.136h3.631V23.5h-5.128zm6.472 0v-2.652h3.295c.196 0 .356.154.364.35l.096 2.302h-3.755z"/>
        </g>
        <text fill="#000" fill-opacity=".87" font-family="Roboto-Regular, Roboto" font-size="11">
            <tspan x="19" y="57">Pickup</tspan>
        </text>
    </g>
</svg>
