<svg xmlns="http://www.w3.org/2000/svg" width="15" height="15" viewBox="0 0 15 15">
    <path fill="#000" fill-rule="nonzero" d="M1.5 13.2a.302.302 0 0 0-.21.086l-.601.6c-.269.258.16.701.424.425l.6-.6c.169-.164.087-.511-.213-.511zm2.4-.6a.303.303 0 0 0-.208.085l-.6.601c-.272.26.152.708.424.425l.6-.6c.16-.156.086-.51-.216-.51V12.6zm-2.4-1.2a.302.302 0 0 0-.21.084l-.601.6c-.27.271.158.704.424.426l.6-.601c.197-.191.087-.509-.213-.509zm7.434-7.886c-.702.702-.7 1.848.001 2.55.702.702 1.85.703 2.551.001a1.81 1.81 0 0 0 0-2.551 1.81 1.81 0 0 0-2.551 0h-.001zm2.128 2.126a1.197 1.197 0 0 1-1.701 0 1.199 1.199 0 0 1 0-1.702 1.199 1.199 0 0 1 1.701 0 1.2 1.2 0 0 1 0 1.703V5.64zM3.3 9.6a.299.299 0 0 0-.3.3c0 1.158.942 2.1 2.1 2.1.39 0 .406-.6 0-.6-.833 0-1.5-.667-1.5-1.5a.293.293 0 0 0-.3-.3zm9.498-9c-.514.006-1.128.123-1.813.362-1.37.476-3.016 1.441-4.59 3.014-1.558 1.557-2.4 2.702-2.856 3.47a5.64 5.64 0 0 0-.435.87c-.04.104-.036.115-.05.173-.081.05-.698.448-1.38.77C1.331 9.456.867 9.6.6 9.6c.001-.45.426-1.446.936-2.246.257-.401.532-.765.767-1.019a2.27 2.27 0 0 1 .306-.284c.091-.088.188.042.234.122.088.16.16.417.16.717 0 .408.6.411.6 0a2.12 2.12 0 0 0-.232-1.004c-.143-.264-.35-.486-.671-.486-.189 0-.313.072-.443.166-.13.094-.26.216-.396.361-.27.29-.558.677-.83 1.103C.487 7.88 0 8.848 0 9.6c0 .202.11.416.282.514.174.097.35.096.525.074.35-.044.734-.202 1.122-.384.777-.367 1.538-.858 1.538-.858a.306.306 0 0 0 .133-.208s.004-.046.066-.209c.062-.163.178-.42.39-.778.423-.714 1.233-1.822 2.763-3.35 1.513-1.513 3.09-2.43 4.363-2.872.636-.222 1.198-.33 1.624-.33.443 0 .7.102.796.198.096.096.202.37.198.796-.004.426-.108.988-.33 1.624-.442 1.272-1.359 2.85-2.871 4.363-1.529 1.53-2.637 2.34-3.35 2.763a5.04 5.04 0 0 1-.777.39c-.164.062-.21.066-.21.066a.298.298 0 0 0-.207.134s-.49.76-.858 1.537c-.182.388-.34.774-.384 1.122-.022.175-.024.35.074.525.098.173.318.282.52.282.751 0 1.713-.488 2.563-1.032.426-.271.812-.56 1.103-.83.147-.135.268-.265.362-.396.094-.129.166-.253.166-.442 0-.322-.222-.528-.487-.672-.266-.144-.62-.228-1.013-.228-.392 0-.394.6 0 .6.3 0 .565.069.726.156.174.1.153.182.123.235a2.3 2.3 0 0 1-.284.306c-.252.234-.617.51-1.018.766-.8.51-1.788.933-2.238.934 0-.01-.012-.04 0-.13.027-.214.16-.58.332-.942.322-.682.72-1.3.77-1.38.06-.014.07-.01.174-.05.198-.075.488-.207.87-.435.768-.456 1.913-1.296 3.47-2.855 1.573-1.574 2.538-3.22 3.015-4.59.238-.684.356-1.3.361-1.814.006-.515-.09-.945-.373-1.229-.284-.283-.714-.378-1.228-.373L12.798.6z"/>
</svg>
