<svg xmlns="http://www.w3.org/2000/svg" xmlns:xlink="http://www.w3.org/1999/xlink" width="71" height="71" viewBox="0 0 71 71">
    <defs>
        <rect id="a" width="65" height="65" x="3" y="3" rx="8"/>
    </defs>
    <g fill="none" fill-rule="evenodd">
        <g>
            <use fill="#FFF" xlink:href="#a"/>
            <rect width="64" height="64" x="3.5" y="3.5" stroke="#E8E8E8" rx="8"/>
        </g>
        <g fill="#9B9B9B" fill-rule="nonzero">
            <path d="M24.396 26.405a2.614 2.614 0 1 0 0 5.227 2.614 2.614 0 0 0 0-5.227zm-1.308 1.628l.533.534a.902.902 0 0 0-.095.23h-.751c.038-.285.147-.545.313-.764zm-.317 1.216h.757c.022.08.053.157.095.227l-.534.533a1.635 1.635 0 0 1-.318-.76zm1.4 1.393c-.284-.04-.541-.15-.759-.315l.531-.531a.9.9 0 0 0 .227.092v.754zm0-2.493a.908.908 0 0 0-.232.096l-.532-.532c.219-.166.478-.276.763-.316v.752zm.452-.753c.285.04.545.15.763.317l-.532.532a.908.908 0 0 0-.23-.096l-.001-.753zm0 3.245v-.753a.893.893 0 0 0 .226-.092l.532.531a1.629 1.629 0 0 1-.758.314zm1.082-.63l-.536-.536a.883.883 0 0 0 .097-.226h.751a1.63 1.63 0 0 1-.312.763zm-.438-1.215a.915.915 0 0 0-.094-.23l.533-.532c.165.218.274.478.313.763h-.752zM46.1 26.405a2.614 2.614 0 1 0 0 5.227 2.614 2.614 0 0 0 0-5.227zm-1.309 1.628l.532.534a.902.902 0 0 0-.094.23h-.752c.04-.285.148-.545.314-.764zm-.316 1.216h.757c.021.08.053.157.095.227l-.534.533a1.621 1.621 0 0 1-.318-.76zm1.398 1.393c-.283-.04-.54-.15-.758-.315l.531-.531a.9.9 0 0 0 .227.092v.754zm0-2.493a.908.908 0 0 0-.23.096l-.533-.532c.219-.166.478-.276.763-.316v.752zm.453-.753c.285.04.545.15.764.317l-.533.532a.884.884 0 0 0-.23-.096v-.753zm0 3.245v-.753a.893.893 0 0 0 .227-.092l.531.531a1.63 1.63 0 0 1-.758.314zm1.082-.63l-.536-.535a.873.873 0 0 0 .098-.227h.75c-.04.283-.146.545-.312.763zm-.437-1.215a.902.902 0 0 0-.095-.23l.533-.532c.165.218.273.478.313.763h-.751z"/>
            <path d="M52.376 25.052v-1.935a.63.63 0 0 0-.534-.622c-.737-.116-2.044-.334-2.632-.515-.842-.26-4.096-1.637-5.222-1.896-1.127-.258-6.208-1.64-11.075.048-.824.285-4.528 2.056-6.707 2.977-.641.014-6.991 1.337-7.33 2.245-.338.907-.444 1.347-.506 1.578-.062.23 0 1.332.472 2.1.48.272 1.406.454 2.477.577-.013-.066-.026-.13-.034-.196a3.01 3.01 0 0 1-.028-.394c0-1.73 1.408-3.14 3.14-3.14a3.142 3.142 0 0 1 3.125 3.404 3.055 3.055 0 0 1-.102.565h.009l15.58-.314c-.007-.04-.016-.08-.021-.121a2.998 2.998 0 0 1-.027-.394 3.142 3.142 0 0 1 3.138-3.139 3.142 3.142 0 0 1 3.14 3.14l-.001.018.066-.006 2.664-.502s1.02-.543 1.02-2.037c0-.997-.612-1.442-.612-1.442zM36.92 23.218l-5.819.178c.107-.872-.409-1.068-.409-1.068 2.313-2.1 6.975-2.17 6.975-2.17l-.747 3.06zm6.53-.267l-5.302.179.48-2.972c2.74-.036 4.306.57 4.306.57l.783 1.263-.267.96zm2.99-.018h-1.478l-1.477-2.028c1.108.441 1.995.876 2.523 1.15.321.167.496.523.432.878z"/>
        </g>
        <text fill="#000" fill-opacity=".87" font-family="Roboto-Regular, Roboto" font-size="11">
            <tspan x="20" y="57">Sedan</tspan>
        </text>
    </g>
</svg>
