<?xml version="1.0" encoding="UTF-8"?>
<svg width="71px" height="71px" viewBox="0 0 71 71" version="1.1" xmlns="http://www.w3.org/2000/svg" xmlns:xlink="http://www.w3.org/1999/xlink">
    <!-- Generator: sketchtool 48.1 (47250) - http://www.bohemiancoding.com/sketch -->
    <title>D4F9E91F-BEFE-4EB4-A60A-1E4000865D4B</title>
    <desc>Created with sketchtool.</desc>
    <defs></defs>
    <g id="1.3-List-Mobil-Baru-1.4.8-Filter" stroke="none" stroke-width="1" fill="none" fill-rule="evenodd" transform="translate(-101.000000, -717.000000)">
        <g id="Group-6-Copy" transform="translate(13.000000, 693.000000)">
            <g id="Group-25" transform="translate(88.000000, 24.000000)">
                <rect id="Rectangle-Copy" fill="#2C8AFA" x="3" y="3" width="65" height="65" rx="8"></rect>
                <g id="sedan-car-model" transform="translate(16.000000, 8.000000)" fill="#FFFFFF" fill-rule="nonzero">
                    <path d="M8.39625,18.4046 C6.95285,18.4046 5.78245,19.57465 5.78245,21.0184 C5.78245,21.1297 5.79155,21.23925 5.80555,21.3467 C5.9676,22.63505 7.06415,23.6315 8.3959,23.6315 C9.7637,23.6315 10.8851,22.5801 10.99885,21.241 C11.0048,21.16785 11.0097,21.0933 11.0097,21.01805 C11.01005,19.57465 9.84,18.4046 8.39625,18.4046 Z M7.08795,20.0335 L7.62065,20.56655 C7.57935,20.6376 7.5468,20.71425 7.5258,20.79615 L6.7747,20.79615 C6.8132,20.51195 6.92205,20.25225 7.08795,20.0335 Z M6.7712,21.2487 L7.52825,21.2487 C7.5496,21.3292 7.5811,21.4055 7.6231,21.4755 L7.089,22.00925 C6.92345,21.79225 6.81215,21.53255 6.7712,21.2487 Z M8.17015,22.64205 C7.887,22.6025 7.62975,22.49155 7.41205,22.3274 L7.94335,21.79575 C8.01335,21.8367 8.09,21.8668 8.17015,21.8878 L8.17015,22.64205 Z M8.17015,20.149 C8.0879,20.1707 8.0109,20.2029 7.93915,20.24525 L7.4068,19.7129 C7.62555,19.54665 7.88525,19.43675 8.17015,19.3972 L8.17015,20.149 Z M8.6227,19.3965 C8.9076,19.43605 9.16765,19.54665 9.38605,19.71255 L8.85405,20.2449 C8.78265,20.20255 8.70495,20.17035 8.62305,20.14865 L8.6227,19.3965 Z M8.6227,22.64135 L8.6227,21.88815 C8.7032,21.8668 8.77915,21.83705 8.84915,21.79575 L9.3808,22.3274 C9.1631,22.49155 8.9055,22.6018 8.6227,22.64135 Z M9.7049,22.0117 L9.16905,21.47515 C9.21105,21.4048 9.245,21.32955 9.26635,21.24905 L10.01745,21.24905 C9.97755,21.53185 9.8708,21.79365 9.7049,22.0117 Z M9.2674,20.79615 C9.24605,20.71425 9.21385,20.6376 9.17255,20.56655 L9.70595,20.0335 C9.8708,20.25225 9.97965,20.51195 10.01885,20.7965 L9.2674,20.7965 L9.2674,20.79615 Z" id="Shape"></path>
                    <path d="M30.0994,18.4046 C28.656,18.4046 27.4856,19.57465 27.4856,21.0184 C27.4856,21.1297 27.4947,21.23925 27.5087,21.3467 C27.67075,22.63505 28.7673,23.6315 30.0987,23.6315 C31.4665,23.6315 32.5879,22.5801 32.702,21.241 C32.70795,21.16785 32.71285,21.0933 32.71285,21.01805 C32.71355,19.57465 31.54315,18.4046 30.0994,18.4046 Z M28.7911,20.0335 L29.32345,20.56655 C29.28215,20.6376 29.2496,20.71425 29.2286,20.79615 L28.4775,20.79615 C28.51635,20.51195 28.6252,20.25225 28.7911,20.0335 Z M28.4747,21.2487 L29.23175,21.2487 C29.2531,21.3292 29.2846,21.4055 29.3266,21.4755 L28.79285,22.00925 C28.6266,21.79225 28.51495,21.53255 28.4747,21.2487 Z M29.8733,22.64205 C29.59015,22.6025 29.3329,22.49155 29.1152,22.3274 L29.6465,21.79575 C29.7165,21.8367 29.79315,21.8668 29.8733,21.8878 L29.8733,22.64205 Z M29.8733,20.149 C29.79105,20.1707 29.71405,20.2029 29.6423,20.24525 L29.10995,19.7129 C29.3287,19.54665 29.58805,19.43675 29.8733,19.3972 L29.8733,20.149 Z M30.3262,19.3965 C30.6111,19.43605 30.87115,19.54665 31.08955,19.71255 L30.5572,20.2449 C30.4858,20.20255 30.4081,20.16965 30.3262,20.14865 L30.3262,19.3965 Z M30.3262,22.64135 L30.3262,21.88815 C30.4067,21.8668 30.48265,21.83705 30.55265,21.79575 L31.0843,22.3274 C30.8666,22.49155 30.60865,22.6018 30.3262,22.64135 Z M31.40805,22.0117 L30.8722,21.47585 C30.9142,21.40515 30.9485,21.33025 30.9695,21.2494 L31.7206,21.2494 C31.6807,21.53185 31.5743,21.79365 31.40805,22.0117 Z M30.97055,20.79615 C30.9492,20.71425 30.91735,20.6376 30.8757,20.56655 L31.40875,20.0335 C31.57395,20.25225 31.68245,20.51195 31.722,20.7965 L30.97055,20.7965 L30.97055,20.79615 Z" id="Shape"></path>
                    <path d="M36.3756,17.0515 L36.3756,15.1174 C36.3756,14.80625 36.1495,14.5427 35.8422,14.49475 C35.10475,14.37925 33.7975,14.1612 33.2102,13.98025 C32.3681,13.72055 29.1145,12.34295 27.98785,12.0843 C26.86085,11.82565 21.77955,10.44455 16.9128,12.13155 C16.08925,12.4168 12.3845,14.1878 10.2061,15.10865 C9.56455,15.12265 3.2145,16.44635 2.8764,17.35355 C2.5383,18.2611 2.43225,18.7014 2.36995,18.9317 C2.30765,19.162 2.36995,20.26415 2.84175,21.0317 C3.32265,21.30365 4.2484,21.48635 5.3187,21.60885 C5.30645,21.5434 5.29315,21.479 5.28475,21.41285 C5.2662,21.27145 5.25745,21.1423 5.25745,21.0191 C5.25745,19.28835 6.66515,17.87995 8.39625,17.87995 C10.12735,17.87995 11.53505,19.288 11.53505,21.0191 C11.53505,21.108 11.5291,21.1962 11.52245,21.283 C11.506,21.47725 11.471,21.6659 11.42025,21.84755 C11.4227,21.84755 11.42865,21.84755 11.42865,21.84755 L27.00925,21.53395 C27.00225,21.4937 26.99315,21.4538 26.9879,21.41285 C26.96935,21.27215 26.9606,21.14265 26.9606,21.0191 C26.9606,19.28835 28.3683,17.8803 30.0994,17.8803 C31.8305,17.8803 33.23855,19.288 33.23855,21.0191 C33.23855,21.02575 33.23785,21.03135 33.2375,21.03765 L33.304,21.03205 L35.96785,20.5305 C35.96785,20.5305 36.9881,19.9873 36.9881,18.4928 C36.98845,17.496 36.3756,17.0515 36.3756,17.0515 Z M20.91995,15.21785 L15.1012,15.396 C15.2083,14.52415 14.69205,14.3285 14.69205,14.3285 C17.0052,12.22885 21.6672,12.1578 21.6672,12.1578 L20.91995,15.21785 Z M27.45025,14.9515 L22.14775,15.12965 L22.6283,12.15815 C25.3688,12.12245 26.93435,12.72725 26.93435,12.72725 L27.7173,13.99075 L27.45025,14.9515 Z M30.4396,14.9333 L28.96225,14.9333 L27.48525,12.90505 C28.59335,13.34605 29.48025,13.78075 30.0084,14.0555 C30.329,14.2221 30.504,14.57805 30.4396,14.9333 Z" id="Shape"></path>
                </g>
                <text id="Sedan" font-family="Roboto-Regular, Roboto" font-size="11" font-weight="normal" fill="#FFFFFF">
                    <tspan x="20" y="57">Sedan</tspan>
                </text>
            </g>
        </g>
    </g>
</svg>