<svg xmlns="http://www.w3.org/2000/svg" width="24" height="24" viewBox="0 0 24 24">
    <g fill="#9B9B9B" fill-rule="nonzero">
        <path d="M6.656 15.601c0 .23-.186.415-.416.415H4.125a.415.415 0 1 1 0-.83H6.24c.23 0 .416.186.416.415zm-.416 1.076h-.946a.415.415 0 1 0 0 .831h.946a.415.415 0 1 0 0-.83zm9.05 1.377c0 .23-.186.415-.415.415h-2.398a1.963 1.963 0 0 1-1.915 1.544 1.963 1.963 0 0 1-1.929-1.612 1.255 1.255 0 0 1-.754-.623 1.045 1.045 0 0 1-.112-.47V14.54a.415.415 0 1 1 .831 0v2.77c0 .033.008.066.024.099a.324.324 0 0 0 .063.084 1.963 1.963 0 0 1 1.877-1.397c.938 0 1.724.662 1.915 1.544h2.398c.23 0 .415.186.415.415zm-3.6 0a1.13 1.13 0 0 0-2.257-.01v.016a1.13 1.13 0 0 0 2.258-.006zm9.262-1.63l-.001.268-.002.617c0 .497-.357.927-.86 1.09a1.962 1.962 0 0 1-1.93 1.614c-1.08 0-1.959-.879-1.959-1.959s.88-1.96 1.96-1.96c.883 0 1.632.589 1.876 1.394a.26.26 0 0 0 .083-.18l.001-.62.002-.268c.001-.331.003-.785-.002-.997a5.244 5.244 0 0 0-.018-.383h-6.39c-.148 0-.497 0-1.565-1.056-.326-.322-.973-1.006-1.092-1.294a.415.415 0 0 1 .764-.327c.056.101.394.516.884 1.003.616.613.944.811 1.033.843h5.9c-.134-.128-.305-.28-.526-.475a74.51 74.51 0 0 1-.377-.336c-.1-.09-.201-.186-.298-.279a9.172 9.172 0 0 0-.44-.401l-.381-.321c-1.541-1.298-1.956-1.647-3.256-1.647h-2.867a.415.415 0 1 1 0-.83h2.867c1.603 0 2.244.539 3.79 1.841l.381.32c.173.145.329.294.48.438.096.092.187.179.278.26l.374.333c.996.882 1.263 1.12 1.29 2.293.005.223.003.664.001 1.019zm-1.664 1.626a1.13 1.13 0 0 0-1.128-1.124 1.13 1.13 0 0 0-1.13 1.128 1.13 1.13 0 0 0 2.258 0v-.004zm-1.128-.411h-.001a.415.415 0 1 0 .001 0zm-8.303-3.015c0 .23.186.416.415.416h.467a.415.415 0 1 0 0-.831h-.467a.415.415 0 0 0-.415.415zm.705 3.015zM3.98 4.322a.246.246 0 0 1 .424.052l.47 1.1.581.136.378-.57-.465-1.09a.254.254 0 0 1 .027-.247.245.245 0 0 1 .224-.102 1.844 1.844 0 0 1 1.508 1.115 1.878 1.878 0 0 1-.246 1.903l.319.747.002.008c.369.093.682.352.837.716l1.458 3.413a1.262 1.262 0 0 1-.642 1.648l-.216.095a1.213 1.213 0 0 1-.49.104c-.494 0-.94-.297-1.135-.756L5.555 9.181a1.267 1.267 0 0 1 .057-1.109l-.004-.007-.32-.747A1.84 1.84 0 0 1 3.752 6.2a1.89 1.89 0 0 1 .23-1.878zm2.668 3.013l-.15-.35a1.846 1.846 0 0 1-.684.3l.15.35.684-.3zm-.64 1.647l1.46 3.413a.742.742 0 0 0 .975.391l.215-.095a.757.757 0 0 0 .386-.99L7.585 8.29a.742.742 0 0 0-.975-.391l-.216.095a.758.758 0 0 0-.385.99zM4.206 6.001c.213.5.698.822 1.235.822a1.348 1.348 0 0 0 1.25-.863 1.374 1.374 0 0 0-.663-1.729l.314.735a.254.254 0 0 1-.022.24l-.549.828a.246.246 0 0 1-.26.104l-.87-.205a.248.248 0 0 1-.17-.145l-.315-.734c-.094.307-.08.643.05.947z"/>
        <path d="M10.98 12.025a.3.3 0 1 1 .24.55.3.3 0 0 1-.24-.55z"/>
    </g>
</svg>
