<svg xmlns="http://www.w3.org/2000/svg" width="15" height="15" viewBox="0 0 15 15">
    <defs>
        <filter id="a" width="101.5%" height="114.8%" x="-.7%" y="-5.7%" filterUnits="objectBoundingBox">
            <feOffset dy="2" in="SourceAlpha" result="shadowOffsetOuter1"/>
            <feGaussianBlur in="shadowOffsetOuter1" result="shadowBlurOuter1" stdDeviation="2.5"/>
            <feColorMatrix in="shadowBlurOuter1" result="shadowMatrixOuter1" values="0 0 0 0 0 0 0 0 0 0 0 0 0 0 0 0 0 0 0.08 0"/>
            <feMerge>
                <feMergeNode in="shadowMatrixOuter1"/>
                <feMergeNode in="SourceGraphic"/>
            </feMerge>
        </filter>
    </defs>
    <path fill="#000" fill-rule="nonzero" d="M6.563 9.378a.943.943 0 0 0-.938.938c0 .513.424.937.938.937a.943.943 0 0 0 .937-.937.943.943 0 0 0-.937-.938zm0 .625c.178 0 .312.134.312.313a.305.305 0 0 1-.312.312.305.305 0 0 1-.313-.312c0-.18.134-.313.313-.313zm0-4.375a.943.943 0 0 0-.938.938c0 .513.424.937.938.937a.943.943 0 0 0 .937-.937.943.943 0 0 0-.937-.938zm0 .625c.178 0 .312.134.312.313a.305.305 0 0 1-.312.312.305.305 0 0 1-.313-.312c0-.18.134-.313.313-.313zm5.937-5c-.688 0-1.25.563-1.25 1.25 0 .688.562 1.25 1.25 1.25.687 0 1.25-.562 1.25-1.25 0-.687-.563-1.25-1.25-1.25zm0 .625a.62.62 0 0 1 .625.625.62.62 0 0 1-.625.625.62.62 0 0 1-.625-.625.62.62 0 0 1 .625-.625zM8.75.003c-.342 0-.884-.06-1.27.327L.274 7.533a.956.956 0 0 0 0 1.342l5.853 5.852a.956.956 0 0 0 1.343 0l7.202-7.204c.386-.386.323-.926.323-1.269L15 .316a.313.313 0 0 0-.313-.313H8.75zm0 .625h5.625l-.004 5.628c0 .362-.028.713-.14.826l-7.203 7.204a.316.316 0 0 1-.459 0L.717 8.433a.316.316 0 0 1 0-.459L7.921.772c.113-.112.47-.144.829-.144zm-4.687 7.5h5a.312.312 0 1 1 0 .625h-5a.312.312 0 1 1 0-.625z" filter="url(#a)"/>
</svg>
