<svg xmlns="http://www.w3.org/2000/svg" width="24" height="24" viewBox="0 0 24 24">
    <g fill="none" fill-rule="evenodd">
        <path fill="#9B9B9B" fill-rule="nonzero" d="M7.461 16.786c0 .23-.186.415-.415.415H6.1a.415.415 0 1 1 0-.83h.946c.23 0 .415.185.415.415zm-1.264-4.064l-3.86-3.86a.415.415 0 0 1 0-.588l3.86-3.86a.415.415 0 0 1 .588 0l3.86 3.86a.415.415 0 0 1 .122.294v3.86c0 .23-.186.416-.416.416h-3.86a.416.416 0 0 1-.294-.122zM3.218 8.568l3.445 3.445h3.273V8.74L6.49 5.295 3.218 8.568zm7.86 6.164h.467a.415.415 0 1 0 0-.83h-.467a.415.415 0 1 0 0 .83zm-2.514-3.649a.415.415 0 1 0 0-.83h-.002a.415.415 0 1 0 .002.83zm7.533 6.664c0 .23-.186.416-.415.416h-2.399a1.963 1.963 0 0 1-1.915 1.544 1.963 1.963 0 0 1-1.929-1.612 1.255 1.255 0 0 1-.755-.624 1.041 1.041 0 0 1-.11-.469v-2.77a.415.415 0 1 1 .83 0v2.77c0 .033.008.066.024.098a.328.328 0 0 0 .063.085 1.963 1.963 0 0 1 1.877-1.397c.938 0 1.724.662 1.915 1.544h2.399c.23 0 .415.186.415.415zm-3.6 0a1.13 1.13 0 0 0-2.258-.009v.016a1.13 1.13 0 0 0 2.258-.007zm9.263-1.638l-.001.274-.002.619c0 .497-.357.927-.861 1.09a1.963 1.963 0 0 1-1.929 1.615c-1.08 0-1.96-.88-1.96-1.96s.88-1.96 1.96-1.96c.884 0 1.633.589 1.876 1.394a.26.26 0 0 0 .083-.18l.002-.622.001-.274c.002-.347.004-.779-.001-.989a5.244 5.244 0 0 0-.018-.384h-6.39c-.15 0-.499 0-1.567-1.055-.326-.322-.973-1.007-1.092-1.295a.415.415 0 0 1 .764-.327c.057.102.394.516.884 1.003.617.614.944.812 1.034.844h5.9c-.134-.128-.305-.28-.525-.475l-.378-.337c-.1-.09-.2-.185-.297-.278a9.14 9.14 0 0 0-.44-.402c-.134-.112-.261-.22-.382-.32-1.541-1.299-1.956-1.648-3.256-1.648h-2.868a.415.415 0 1 1 0-.83h2.868c1.603 0 2.244.539 3.791 1.842l.38.32c.173.144.33.293.48.437.097.093.188.18.279.261.136.123.26.233.374.333.995.882 1.263 1.12 1.29 2.293.005.22.003.659.001 1.01zm-1.664 1.634a1.13 1.13 0 0 0-1.13-1.124 1.13 1.13 0 0 0-1.128 1.128 1.13 1.13 0 0 0 1.129 1.13 1.13 1.13 0 0 0 1.129-1.129v-.005zm-1.129-.411zM7.046 14.879H4.93a.415.415 0 1 0 0 .83h2.116a.415.415 0 1 0 0-.83zm4.323 2.453h-.001z"/>
        <path d="M0 0h24v24H0z"/>
    </g>
</svg>
