<svg xmlns="http://www.w3.org/2000/svg" xmlns:xlink="http://www.w3.org/1999/xlink" width="71" height="71" viewBox="0 0 71 71">
    <defs>
        <rect id="a" width="65" height="65" x="3" y="3" rx="8"/>
    </defs>
    <g fill="none" fill-rule="evenodd">
        <g>
            <use fill="#FFF" xlink:href="#a"/>
            <rect width="64" height="64" x="3.5" y="3.5" stroke="#E8E8E8" rx="8"/>
        </g>
        <text fill="#000" fill-opacity=".87" font-family="Roboto-Regular, Roboto" font-size="11">
            <tspan x="21" y="57">Diesel</tspan>
        </text>
        <text fill="#000" font-family="Roboto-Bold, Roboto" font-size="9" font-weight="bold" transform="translate(18 8)">
            <tspan x="12" y="26">D</tspan>
        </text>
        <path fill="#9B9B9B" fill-rule="nonzero" d="M38.875 14h-11.25a.627.627 0 0 0-.625.625v8.125c0 .344.281.625.625.625h11.25a.627.627 0 0 0 .625-.625v-8.125a.627.627 0 0 0-.625-.625zm-.625 8.125h-10V15.25h10v6.875zM43.895 39.75h-21.25a.627.627 0 0 0-.625.625c0 .344.28.625.625.625h21.25a.627.627 0 0 0 .625-.625.627.627 0 0 0-.625-.625z"/>
        <path fill="#9B9B9B" fill-rule="nonzero" d="M48.55 18.319l-1.912-2.206a.36.36 0 0 0-.293-.132c-.682.013-.888.682-.563 1.057l1.819 2.1c.425.487.669.787.669 1.237h-1.75a.752.752 0 0 0-.75.75v3c0 .687.562 1.25 1.25 1.25h1.25v9.375a.627.627 0 0 1-.626.625h-1.38c-.363 0-.495-.337-.495-.625v-8.156c0-1.1-1.037-1.844-2.006-1.844h-1.119V14.125c0-1.725-1.4-3.125-3.124-3.125h-12.5a3.126 3.126 0 0 0-3.125 3.125v24.331c0 .631.506.638 1.35.656.456.007 1.087.013 1.775.013h12.5c.693 0 1.318-.006 1.775-.013.843-.012 1.35-.025 1.35-.656V26h1.118c.382 0 .757.294.757.594v8.156c0 1.069.75 1.875 1.743 1.875h1.381a1.872 1.872 0 0 0 1.875-1.875V20.375c0-.937-.512-1.531-.968-2.056zm-7.155 19.543c-.413.007-1.044.013-1.875.013h-12.5c-.832 0-1.463-.006-1.875-.013V14.125c0-1.038.837-1.875 1.875-1.875h12.5c1.037 0 1.875.837 1.875 1.875v23.737zm6.875-13.737h-1.25v-2.5h1.25v2.5z"/>
    </g>
</svg>
