<svg xmlns="http://www.w3.org/2000/svg" width="20" height="20" viewBox="0 0 20 20">
    <g fill="#EE5A2A" fill-rule="nonzero">
        <path d="M5.667 2H2.333c-.2 0-.333.3-.333.75v1.5c0 .45.133.75.333.75h3.334c.2 0 .333-.3.333-.75v-1.5C6 2.3 5.867 2 5.667 2zM7.5 8h-5c-.3 0-.5.3-.5.75v1.5c0 .45.2.75.5.75h5c.3 0 .5-.3.5-.75v-1.5C8 8.3 7.8 8 7.5 8zM8.417 14H2.583c-.35 0-.583.3-.583.75v1.5c0 .45.233.75.583.75h5.834c.35 0 .583-.3.583-.75v-1.5c0-.45-.233-.75-.583-.75zM18.79 11.533l-.98-.933a.776.776 0 0 0-.49-.2.65.65 0 0 0-.49.2l-1.4 1.333c-.21.2-.63.067-.63-.266v-9c0-.334-.35-.667-.7-.667h-1.4c-.35 0-.7.333-.7.667v14.666c0 .2.07.334.21.467.14.133.35.2.49.2a.65.65 0 0 0 .49-.2l5.6-5.333A.592.592 0 0 0 19 12c0-.2-.07-.333-.21-.467z"/>
    </g>
</svg>
