<?xml version="1.0" encoding="UTF-8"?>
<svg width="57px" height="54px" viewBox="0 0 57 54" version="1.1" xmlns="http://www.w3.org/2000/svg" xmlns:xlink="http://www.w3.org/1999/xlink">
    <!-- Generator: sketchtool 48.1 (47250) - http://www.bohemiancoding.com/sketch -->
    <title>B886E010-066E-499D-8A74-9C2E7D796140</title>
    <desc>Created with sketchtool.</desc>
    <defs></defs>
    <g id="1.3-List-Mobil-Baru-1.4.8-Filter" stroke="none" stroke-width="1" fill="none" fill-rule="evenodd" transform="translate(-84.000000, -354.000000)">
        <g id="Group-3" transform="translate(14.000000, 327.000000)" fill="#F5A623" fill-rule="nonzero">
            <g id="star-with-number-two" transform="translate(70.000000, 27.000000)">
                <path d="M11.8711462,34.3802372 L10.4120553,46.737747 L10.4027668,46.8501976 C10.3436759,48.4551383 10.7911067,49.8017787 11.6978261,50.7424901 C12.9901186,52.0835968 15.0976285,52.3527668 17.1865613,51.4102767 L28.3784585,45.3171937 L39.476087,51.3624506 L39.5709486,51.4102767 C40.4130435,51.7893281 41.2432806,51.9822134 42.0371542,51.9822134 C43.2150198,51.9822134 44.287747,51.541502 45.0588933,50.7426877 C45.965415,49.8017787 46.4128458,48.455336 46.3537549,46.8503953 L44.8863636,34.3802372 L53.2041502,25.8332016 L53.3173913,25.7017787 C54.4786561,24.1725296 54.8458498,22.4187747 54.3209486,20.8909091 C53.7980237,19.3634387 52.4328063,18.2025692 50.5772727,17.7086957 L38.0849802,15.6952569 L32.637747,4.73557312 L32.5555336,4.59150198 C31.4818182,2.94743083 29.9057312,2.00395257 28.2306324,2.00395257 C26.6211462,2.00395257 25.122332,2.84565217 24.0090909,4.3715415 L17.5656126,15.6934783 L6.28339921,17.5879447 L6.1284585,17.6229249 C4.28656126,18.1486166 2.93616601,19.3343874 2.42332016,20.8754941 C1.91047431,22.4177866 2.28043478,24.1766798 3.43893281,25.701581 L11.8711462,34.3802372 Z M5.11126482,21.7717391 C5.3215415,21.1389328 5.93300395,20.6422925 6.83616601,20.3693676 L19.3634387,18.2640316 L26.3436759,5.98023715 C27.4828063,4.46897233 29.0802372,4.50869565 30.1401186,6.07667984 L36.1962451,18.2614625 L49.9124506,20.4648221 C50.8181818,20.720751 51.4306324,21.1966403 51.6409091,21.8104743 C51.8511858,22.4219368 51.6620553,23.1699605 51.1096838,23.9235178 L41.9140316,33.3711462 L43.5235178,47.0088933 C43.543083,47.7891304 43.3648221,48.4164032 43.0171937,48.776087 C42.5642292,49.2466403 41.7294466,49.2640316 40.7804348,48.8470356 L28.3774704,42.0909091 L15.9747036,48.8480237 C15.0256917,49.263834 14.1926877,49.2482213 13.7379447,48.7780632 C13.3913043,48.4183794 13.212253,47.7911067 13.2326087,47.0108696 L14.8420949,33.3719368 L5.64624506,23.9245059 C5.09090909,23.1650198 4.90177866,22.4039526 5.11126482,21.7717391 Z" id="Shape"></path>
                <path d="M26.4699605,28.6322134 C24.6529644,29.9272727 23.5009881,31.1565217 23.0130435,32.3160079 C22.508498,33.3492095 22.2401186,34.4891304 22.2086957,35.7371542 L34.1272727,35.7371542 L34.1272727,32.723913 L26.5298419,32.723913 C26.7466403,32.3642292 27.0112648,32.0486166 27.327668,31.7756917 C27.6440711,31.5045455 28.2306324,31.0634387 29.0883399,30.4557312 L30.4598814,29.4835968 C31.613834,28.6671937 32.4438735,27.927668 32.9494071,27.2636364 C33.7187747,26.2632411 34.1041502,25.1195652 34.1041502,23.8310277 C34.1041502,22.1509881 33.5590909,20.8001976 32.4697628,19.7800395 C31.3804348,18.7602767 29.9148221,18.2503953 28.0729249,18.2503953 C25.7420949,18.2503953 24.1205534,19.1183794 23.2075099,20.8551383 C22.726087,21.7673913 22.458498,22.9632411 22.4023715,24.4440711 L25.7274704,24.4440711 C25.7671937,23.4677866 25.8954545,22.7561265 26.1120553,22.3079051 C26.4873518,21.5312253 27.1958498,21.1428854 28.2353755,21.1428854 C28.9964427,21.1428854 29.5802372,21.3867589 29.987747,21.8752964 C30.3954545,22.3632411 30.6003953,22.9756917 30.6003953,23.7112648 C30.6003953,24.6152174 30.2442688,25.4470356 29.5314229,26.2075099 C29.0664032,26.6952569 28.0462451,27.5031621 26.4699605,28.6322134 Z" id="Shape"></path>
            </g>
        </g>
    </g>
</svg>