<?xml version="1.0" encoding="UTF-8"?>
<svg width="57px" height="54px" viewBox="0 0 57 54" version="1.1" xmlns="http://www.w3.org/2000/svg" xmlns:xlink="http://www.w3.org/1999/xlink">
    <!-- Generator: sketchtool 48.1 (47250) - http://www.bohemiancoding.com/sketch -->
    <title>5BEF9631-4A0E-4AB8-AB76-200C23C7D881</title>
    <desc>Created with sketchtool.</desc>
    <defs></defs>
    <g id="1.3-List-Mobil-Baru-1.4.8-Filter" stroke="none" stroke-width="1" fill="none" fill-rule="evenodd" transform="translate(-14.000000, -354.000000)">
        <g id="Group-3" transform="translate(14.000000, 327.000000)" fill="#F5A623" fill-rule="nonzero">
            <g id="star-for-number-one" transform="translate(0.000000, 27.000000)">
                <path d="M53.1199605,25.7031621 C54.2822134,24.1743083 54.6482213,22.4205534 54.1254941,20.8920949 C53.6005929,19.3646245 52.2363636,18.2039526 50.3806324,17.7100791 L37.8873518,15.6954545 L32.4407115,4.73577075 L32.3577075,4.5916996 C31.2839921,2.94762846 29.7079051,2.0041502 28.0337945,2.0041502 C26.4243083,2.0041502 24.9254941,2.8458498 23.8118577,4.37173913 L17.3677866,15.6938735 L6.08577075,17.5883399 L5.93083004,17.6233202 C4.08932806,18.15 2.73853755,19.3347826 2.2256917,20.8768775 C1.71284585,22.4181818 2.08320158,24.1778656 3.24209486,25.7021739 L11.6733202,34.3806324 L10.2152174,46.7381423 L10.206917,46.8505929 C10.1474308,48.4555336 10.594664,49.8021739 11.5013834,50.7428854 C12.7936759,52.0839921 14.8998024,52.3531621 16.9897233,51.4106719 L28.1820158,45.3175889 L39.2790514,51.3628458 L39.3741107,51.4106719 C40.2162055,51.7897233 41.0462451,51.9826087 41.8403162,51.9826087 C43.0181818,51.9826087 44.0918972,51.5418972 44.8618577,50.743083 C45.7685771,49.8021739 46.2167984,48.4557312 46.156917,46.8507905 L44.6885375,34.3806324 L53.0061265,25.8335968 L53.1199605,25.7031621 Z M50.9118577,23.923913 L41.7162055,33.3715415 L43.3256917,47.0092885 C43.3460474,47.7895257 43.166996,48.4167984 42.8193676,48.7764822 C42.3664032,49.2470356 41.5333992,49.2644269 40.5835968,48.8474308 L28.1802372,42.0911067 L15.7784585,48.8482213 C14.8302372,49.2640316 13.9960474,49.248419 13.5416996,48.7782609 C13.1940711,48.4166008 13.0156126,47.7913043 13.0353755,47.0110672 L14.6448617,33.3721344 L5.45039526,23.9247036 C4.89505929,23.1652174 4.70434783,22.4041502 4.91501976,21.7719368 C5.12529644,21.1391304 5.73636364,20.6424901 6.63932806,20.3695652 L19.1671937,18.2642292 L26.1480237,5.98043478 C27.286166,4.4701581 28.8826087,4.50889328 29.9442688,6.07687747 L36.0005929,18.2616601 L49.7175889,20.4650198 C50.6233202,20.7209486 51.2349802,21.1968379 51.4460474,21.8106719 C51.6535573,22.4221344 51.4644269,23.1703557 50.9118577,23.923913 Z" id="Shape"></path>
                <path d="M28.0450593,18.987747 C27.8942688,19.508498 27.6701581,19.923913 27.3745059,20.236166 C26.9438735,20.6926877 26.3847826,20.9966403 25.6982213,21.1488142 C25.2675889,21.2452569 24.5130435,21.3167984 23.436166,21.3652174 L23.436166,23.6932806 L27.5286561,23.6932806 L27.5286561,35.6956522 L31.0333992,35.6956522 L31.0333992,18.2920949 L28.1774704,18.2920949 C28.1774704,18.4436759 28.133004,18.676087 28.0450593,18.987747 Z" id="Shape"></path>
            </g>
        </g>
    </g>
</svg>