<?xml version="1.0" encoding="UTF-8"?>
<svg width="57px" height="54px" viewBox="0 0 57 54" version="1.1" xmlns="http://www.w3.org/2000/svg" xmlns:xlink="http://www.w3.org/1999/xlink">
    <!-- Generator: sketchtool 48.1 (47250) - http://www.bohemiancoding.com/sketch -->
    <title>E902C45D-8379-4D4E-B0D4-16803FB48A71</title>
    <desc>Created with sketchtool.</desc>
    <defs></defs>
    <g id="1.3-List-Mobil-Baru-1.4.8-Filter" stroke="none" stroke-width="1" fill="none" fill-rule="evenodd" transform="translate(-153.000000, -354.000000)">
        <g id="Group-3" transform="translate(14.000000, 327.000000)" fill="#F5A623" fill-rule="nonzero">
            <g id="star-number-3" transform="translate(139.000000, 27.000000)">
                <path d="M53.1211462,25.7031621 C54.2824111,24.1743083 54.6486166,22.41917 54.1247036,20.8920949 C53.6007905,19.3646245 52.2355731,18.2039526 50.38083,17.7100791 L37.887747,15.6956522 L32.4411067,4.73596838 L32.3590909,4.59189723 C31.2853755,2.94782609 29.7092885,2.00434783 28.0351779,2.00434783 C26.4256917,2.00434783 24.9258893,2.84604743 23.8130435,4.37193676 L17.36917,15.6938735 L6.08616601,17.5883399 L5.9312253,17.6233202 C4.08972332,18.15 2.73893281,19.3347826 2.22608696,20.8768775 C1.71225296,22.4189723 2.08359684,24.1778656 3.24249012,25.7021739 L11.6737154,34.3806324 L10.2156126,46.7381423 L10.2063241,46.8505929 C10.1468379,48.4555336 10.5940711,49.8021739 11.5007905,50.7428854 C12.7901186,52.0839921 14.9001976,52.3531621 16.9883399,51.4106719 L28.1816206,45.3175889 L39.2796443,51.3628458 L39.3747036,51.4106719 C40.2177866,51.7897233 41.0468379,51.9826087 41.8409091,51.9826087 C43.0187747,51.9826087 44.091502,51.5426877 44.8614625,50.743083 C45.76917,49.8021739 46.2164032,48.4557312 46.1575099,46.8507905 L44.6891304,34.3806324 L53.0086957,25.8335968 L53.1211462,25.7031621 Z M50.912253,23.923913 L41.7183794,33.3715415 L43.3280632,47.0092885 C43.3474308,47.7895257 43.1693676,48.4167984 42.8217391,48.7764822 C42.3679842,49.2470356 41.5339921,49.2644269 40.5859684,48.8474308 L28.1818182,42.0911067 L15.7780632,48.8474308 C14.8284585,49.2634387 13.994664,49.2468379 13.5422925,48.7764822 C13.1954545,48.4167984 13.0162055,47.791502 13.0367589,47.0092885 L14.6464427,33.3715415 L5.45197628,23.923913 C4.8958498,23.165415 4.70573123,22.4043478 4.91660079,21.7721344 C5.12687747,21.1393281 5.73695652,20.6426877 6.64011858,20.3697628 L19.1687747,18.2644269 L26.1496047,5.98063241 C27.284585,4.47035573 28.8853755,4.50711462 29.9460474,6.0770751 L36.0013834,18.2618577 L49.7175889,20.4652174 C50.6231225,20.7211462 51.2367589,21.1970356 51.4468379,21.8108696 C51.6539526,22.422332 51.4648221,23.1703557 50.912253,23.923913 Z" id="Shape"></path>
                <path d="M31.5401186,26.3201581 C31.956917,26.1606719 32.3565217,25.8598814 32.7409091,25.4199605 C33.3488142,24.7162055 33.6531621,23.8519763 33.6531621,22.8272727 C33.6531621,21.379249 33.1440711,20.2252964 32.1249012,19.3648221 C31.1057312,18.5043478 29.7646245,18.0749012 28.1021739,18.0749012 C27.2071146,18.0749012 26.4519763,18.1824111 25.8355731,18.3986166 C25.220751,18.6148221 24.6891304,18.9266798 24.2413043,19.3347826 C23.6422925,19.9108696 23.2023715,20.5389328 22.9219368,21.2187747 C22.6583004,21.9954545 22.5110672,22.815415 22.4788538,23.679249 L25.6715415,23.679249 C25.655336,22.8237154 25.8365613,22.1389328 26.2152174,21.6268775 C26.5938735,21.1150198 27.1873518,20.8590909 27.9938735,20.8590909 C28.6956522,20.8590909 29.2399209,21.0671937 29.6282609,21.4835968 C30.013834,21.8992095 30.2075099,22.4391304 30.2075099,23.1041502 C30.2075099,24.1280632 29.8294466,24.8081028 29.0711462,25.1442688 C28.6322134,25.3444664 27.8596838,25.4523715 26.7505929,25.4681818 L26.7505929,27.916996 C27.8832016,27.916996 28.7134387,28.0249012 29.2401186,28.2416996 C30.1652174,28.6254941 30.6282609,29.3901186 30.6282609,30.5337945 C30.6282609,31.3980237 30.3780632,32.0604743 29.8802372,32.5197628 C29.3812253,32.9800395 28.7954545,33.2104743 28.1258893,33.2104743 C27.0314229,33.2104743 26.2774704,32.7899209 25.8628458,31.9505929 C25.6401186,31.4940711 25.527668,30.9183794 25.527668,30.2221344 L22.1671937,30.2221344 C22.2229249,31.6067194 22.5039526,32.7262846 23.0061265,33.5822134 C23.9658103,35.1909091 25.6754941,35.9952569 28.1385375,35.9952569 C30.1367589,35.9952569 31.6458498,35.436166 32.6658103,34.3201581 C33.6841897,33.2041502 34.1940711,31.9100791 34.1940711,30.4371542 C34.1940711,29.0379447 33.756917,27.933004 32.8853755,27.1249012 C32.3001976,26.5885375 31.8527668,26.3201581 31.5401186,26.3201581 Z" id="Shape"></path>
            </g>
        </g>
    </g>
</svg>