<svg xmlns="http://www.w3.org/2000/svg" width="57" height="54" viewBox="0 0 57 54">
    <g fill="none" fill-rule="nonzero">
        <path fill="#9B9B9B" d="M53.12 25.703c1.162-1.529 1.528-3.282 1.005-4.81-.524-1.528-1.889-2.689-3.744-3.183l-12.494-2.015-5.446-10.96-.083-.143c-1.074-1.644-2.65-2.588-4.324-2.588-1.61 0-3.109.842-4.222 2.368l-6.444 11.322-11.282 1.894-.155.035c-1.842.527-3.192 1.712-3.705 3.254-.513 1.541-.143 3.3 1.016 4.825l8.431 8.679-1.458 12.357-.008.113c-.06 1.605.388 2.951 1.294 3.892 1.293 1.341 3.399 1.61 5.489.668l11.192-6.093 11.097 6.045.095.048c.842.379 1.672.572 2.466.572 1.178 0 2.252-.441 3.022-1.24.907-.94 1.355-2.287 1.295-3.892l-1.468-12.47 8.317-8.547.114-.13zm-2.208-1.78l-9.196 9.449 1.61 13.637c.02.78-.159 1.408-.507 1.767-.453.471-1.286.488-2.235.071L28.18 42.091l-12.402 6.757c-.948.416-1.782.4-2.236-.07-.348-.361-.526-.987-.507-1.767l1.61-13.639-9.195-9.447c-.555-.76-.746-1.52-.535-2.153.21-.633.821-1.13 1.724-1.402l12.528-2.106L26.148 5.98c1.138-1.51 2.735-1.471 3.796.097l6.057 12.185 13.717 2.203c.905.256 1.517.732 1.728 1.346.208.611.018 1.36-.534 2.113z"/>
        <path fill="#000" d="M28.045 18.988c-.15.52-.375.936-.67 1.248-.431.457-.99.76-1.677.913-.43.096-1.185.168-2.262.216v2.328h4.093v12.003h3.504V18.292h-2.856c0 .152-.044.384-.132.696z"/>
    </g>
</svg>
