<svg xmlns="http://www.w3.org/2000/svg" width="57" height="54" viewBox="0 0 57 54">
    <g fill="none" fill-rule="nonzero">
        <path fill="#9B9B9B" d="M50.38 17.708l-12.492-2.013-5.448-10.96-.082-.145c-1.074-1.644-2.65-2.586-4.325-2.586-1.61 0-3.108.84-4.22 2.366l-6.445 11.322-11.282 1.895-.155.035c-1.842.526-3.192 1.712-3.705 3.254-.513 1.542-.143 3.3 1.016 4.825l8.432 8.677-1.46 12.36-.009.114c-.059 1.605.389 2.95 1.295 3.89 1.292 1.34 3.4 1.61 5.49.668l11.191-6.093 11.098 6.046.095.047c.842.38 1.67.573 2.466.573 1.178 0 2.25-.44 3.021-1.24.907-.942 1.354-2.286 1.295-3.891L44.69 34.38l8.318-8.547.113-.132c1.161-1.529 1.528-3.282 1.005-4.81-.524-1.527-1.89-2.687-3.744-3.183zm.532 6.214l-9.196 9.448 1.61 13.639c.02.78-.159 1.406-.507 1.767-.452.47-1.286.489-2.236.07L28.18 42.092l-12.403 6.757c-.95.417-1.783.398-2.236-.07-.348-.362-.526-.987-.506-1.767l1.61-13.64-9.196-9.448c-.556-.76-.746-1.52-.535-2.152.21-.633.821-1.13 1.725-1.403l12.527-2.105 6.98-12.284c1.14-1.51 2.736-1.47 3.797.096L36 18.26l13.716 2.203c.906.256 1.519.733 1.73 1.347.209.612.02 1.36-.533 2.112z"/>
        <path fill="#000" d="M28.82 24.833c-.71 0-1.313.091-1.809.275-.295.113-.707.34-1.235.684l.623-3.804h7.107v-2.904h-9.574l-1.221 9.613 3.066.145c.272-.52.675-.876 1.21-1.068a3.322 3.322 0 0 1 1.077-.156c.878 0 1.525.305 1.94.918.414.612.622 1.362.622 2.25 0 .904-.221 1.655-.664 2.251-.442.596-1.087.895-1.934.895-.733 0-1.293-.202-1.676-.606-.383-.405-.643-.979-.778-1.723h-3.41c.12 1.631.712 2.891 1.775 3.78 1.064.89 2.423 1.333 4.077 1.333 2.054 0 3.596-.631 4.63-1.896 1.03-1.264 1.545-2.7 1.545-4.308 0-1.849-.536-3.258-1.607-4.226-1.07-.968-2.324-1.453-3.763-1.453z"/>
    </g>
</svg>
