<?xml version="1.0" encoding="UTF-8"?>
<svg width="57px" height="54px" viewBox="0 0 57 54" version="1.1" xmlns="http://www.w3.org/2000/svg" xmlns:xlink="http://www.w3.org/1999/xlink">
    <!-- Generator: sketchtool 48.1 (47250) - http://www.bohemiancoding.com/sketch -->
    <title>7E12A03D-FB3E-4404-BF72-3D1F1220C8FE</title>
    <desc>Created with sketchtool.</desc>
    <defs></defs>
    <g id="1.3-List-Mobil-Baru-1.4.8-Filter" stroke="none" stroke-width="1" fill="none" fill-rule="evenodd" transform="translate(-290.000000, -354.000000)">
        <g id="Group-3" transform="translate(14.000000, 327.000000)" fill="#F5A623" fill-rule="nonzero">
            <g id="star-number-five" transform="translate(276.000000, 27.000000)">
                <path d="M50.38083,17.7083004 L37.8875494,15.6948617 L32.4403162,4.73418972 L32.3581028,4.59031621 C31.2843874,2.94624506 29.7083004,2.00355731 28.0332016,2.00355731 C26.4237154,2.00355731 24.9249012,2.84367589 23.8126482,4.37035573 L17.3679842,15.6920949 L6.08577075,17.5865613 L5.93083004,17.6217391 C4.08893281,18.1482213 2.73873518,19.3339921 2.22588933,20.8762846 C1.71304348,22.4175889 2.08300395,24.1764822 3.24150198,25.7005929 L11.6737154,34.3778656 L10.2146245,46.7373518 L10.205336,46.8517787 C10.1462451,48.4565217 10.5936759,49.8013834 11.5003953,50.7422925 C12.7916996,52.0814229 14.9001976,52.3525692 16.9891304,51.4100791 L28.1810277,45.316996 L39.2786561,51.3632411 L39.3735178,51.4100791 C40.2156126,51.7901186 41.0448617,51.9828063 41.8397233,51.9828063 C43.0175889,51.9828063 44.0903162,51.5420949 44.8614625,50.7422925 C45.7679842,49.8013834 46.215415,48.4567194 46.1563241,46.8517787 L44.6889328,34.3798419 L53.0067194,25.8328063 L53.1199605,25.7013834 C54.2812253,24.1721344 54.648419,22.41917 54.1245059,20.8913043 C53.6005929,19.3640316 52.2353755,18.2041502 50.38083,17.7083004 Z M50.9118577,23.922332 L41.7162055,33.3699605 L43.3256917,47.0086957 C43.3452569,47.7889328 43.166996,48.415415 42.8193676,48.7758893 C42.3673913,49.2464427 41.5326087,49.2648221 40.5826087,48.8468379 L28.1798419,42.0905138 L15.7768775,48.8478261 C14.8278656,49.2646245 13.9940711,49.2464427 13.5411067,48.7778656 C13.1934783,48.4162055 13.015415,47.7909091 13.0347826,47.0106719 L14.6442688,33.3709486 L5.4486166,23.9231225 C4.89328063,23.1636364 4.70335968,22.4021739 4.91363636,21.7713439 C5.12391304,21.137747 5.73537549,20.6418972 6.63853755,20.3679842 L19.1658103,18.2626482 L26.1460474,5.97885375 C27.2851779,4.46936759 28.8818182,4.50909091 29.9434783,6.07529644 L35.9986166,18.2598814 L49.7148221,20.4632411 C50.6205534,20.71917 51.2339921,21.1960474 51.4442688,21.8098814 C51.6535573,22.4215415 51.4644269,23.1695652 50.9118577,23.922332 Z" id="Shape"></path>
                <path d="M28.820751,24.8326087 C28.1096838,24.8326087 27.5073123,24.9243083 27.0110672,25.1083004 C26.7158103,25.2209486 26.3035573,25.4482213 25.7758893,25.7922925 L26.3994071,21.9879447 L33.5059289,21.9879447 L33.5059289,19.0835968 L23.9320158,19.0835968 L22.7108696,28.6972332 L25.7766798,28.8418972 C26.0486166,28.3217391 26.4519763,27.9656126 26.9867589,27.773913 C27.2893281,27.6697628 27.6490119,27.6181818 28.0640316,27.6181818 C28.9420949,27.6181818 29.5885375,27.9233202 30.0037549,28.5359684 C30.4179842,29.148419 30.6262846,29.8982213 30.6262846,30.7865613 C30.6262846,31.6903162 30.4049407,32.4411067 29.962253,33.0371542 C29.5195652,33.633004 28.8749012,33.9318182 28.0280632,33.9318182 C27.2948617,33.9318182 26.7349802,33.7298419 26.3521739,33.3258893 C25.9685771,32.9209486 25.7092885,32.3472332 25.5737154,31.6027668 L22.1646245,31.6027668 C22.284585,33.2343874 22.8756917,34.4944664 23.9391304,35.3835968 C25.0025692,36.2727273 26.3620553,36.7164032 28.0158103,36.7164032 C30.0699605,36.7164032 31.6120553,36.084585 32.6450593,34.8199605 C33.6754941,33.5555336 34.1909091,32.11917 34.1909091,30.5116601 C34.1909091,28.6630435 33.6549407,27.2539526 32.5841897,26.2863636 C31.5140316,25.3181818 30.2596838,24.8326087 28.820751,24.8326087 Z" id="Shape"></path>
            </g>
        </g>
    </g>
</svg>