<svg xmlns="http://www.w3.org/2000/svg" width="57" height="54" viewBox="0 0 57 54">
    <g fill="none" fill-rule="nonzero">
        <path fill="#9B9B9B" d="M53.121 25.703c1.161-1.529 1.528-3.284 1.004-4.81-.524-1.528-1.89-2.689-3.744-3.183l-12.493-2.014-5.447-10.96-.082-.144c-1.074-1.644-2.65-2.588-4.324-2.588-1.61 0-3.11.842-4.222 2.368l-6.444 11.322-11.283 1.894-.155.035c-1.841.527-3.192 1.712-3.705 3.254-.514 1.542-.142 3.3 1.016 4.825l8.432 8.679-1.458 12.357-.01.113c-.06 1.605.388 2.951 1.295 3.892 1.29 1.341 3.4 1.61 5.487.668l11.194-6.093 11.098 6.045.095.048c.843.379 1.672.572 2.466.572 1.178 0 2.25-.44 3.02-1.24.908-.94 1.355-2.287 1.297-3.892l-1.469-12.47 8.32-8.547.112-.13zm-2.209-1.78l-9.194 9.449 1.61 13.637c.02.78-.159 1.408-.506 1.767-.454.471-1.288.488-2.236.071l-12.404-6.756-12.404 6.756c-.95.416-1.783.4-2.236-.07-.347-.36-.526-.985-.505-1.768l1.61-13.637-9.195-9.448c-.556-.759-.746-1.52-.535-2.152.21-.633.82-1.13 1.723-1.402l12.529-2.106 6.98-12.283c1.136-1.51 2.736-1.474 3.797.096l6.055 12.185 13.717 2.203c.905.256 1.519.732 1.729 1.346.207.611.018 1.36-.535 2.113z"/>
        <path fill="#000" d="M31.54 26.32c.417-.16.817-.46 1.2-.9.609-.704.913-1.568.913-2.593 0-1.448-.509-2.602-1.528-3.462-1.02-.86-2.36-1.29-4.023-1.29-.895 0-1.65.107-2.266.324a4.602 4.602 0 0 0-1.595.936c-.599.576-1.039 1.204-1.32 1.884a8.61 8.61 0 0 0-.442 2.46h3.193c-.017-.855.165-1.54.543-2.052.379-.512.972-.768 1.779-.768.702 0 1.246.208 1.634.625.386.415.58.955.58 1.62 0 1.024-.379 1.704-1.137 2.04-.439.2-1.211.308-2.32.324v2.449c1.132 0 1.962.108 2.49.325.924.383 1.387 1.148 1.387 2.292 0 .864-.25 1.526-.748 1.986-.499.46-1.085.69-1.754.69-1.095 0-1.849-.42-2.263-1.26-.223-.456-.335-1.032-.335-1.728h-3.36c.055 1.385.336 2.504.838 3.36.96 1.609 2.67 2.413 5.133 2.413 1.998 0 3.507-.559 4.527-1.675 1.018-1.116 1.528-2.41 1.528-3.883 0-1.4-.437-2.504-1.309-3.312-.585-.536-1.032-.805-1.345-.805z"/>
    </g>
</svg>
