<svg xmlns="http://www.w3.org/2000/svg" width="57" height="54" viewBox="0 0 57 54">
    <g fill="none" fill-rule="nonzero">
        <path fill="#9B9B9B" d="M11.871 34.38l-1.459 12.358-.01.112c-.058 1.605.39 2.952 1.296 3.892 1.292 1.342 3.4 1.61 5.489.668l11.191-6.093 11.098 6.045.095.048c.842.38 1.672.572 2.466.572 1.178 0 2.25-.44 3.022-1.24.906-.94 1.354-2.287 1.295-3.892l-1.468-12.47 8.318-8.547.113-.131c1.162-1.53 1.529-3.283 1.004-4.811-.523-1.528-1.888-2.688-3.744-3.182l-12.492-2.014-5.447-10.96-.082-.143c-1.074-1.645-2.65-2.588-4.325-2.588-1.61 0-3.109.842-4.222 2.368l-6.443 11.321-11.283 1.895-.155.035c-1.841.526-3.192 1.711-3.705 3.252-.513 1.543-.143 3.302 1.016 4.827l8.432 8.678zm-6.76-12.608c.21-.633.822-1.13 1.725-1.403l12.527-2.105 6.98-12.284c1.14-1.511 2.737-1.471 3.797.097l6.056 12.184 13.716 2.204c.906.256 1.519.732 1.729 1.345.21.612.021 1.36-.531 2.114l-9.196 9.447 1.61 13.638c.02.78-.16 1.407-.507 1.767-.453.47-1.288.488-2.237.071l-12.403-6.756-12.402 6.757c-.95.416-1.782.4-2.237-.07-.347-.36-.526-.987-.505-1.767l1.61-13.64-9.197-9.446c-.555-.76-.744-1.521-.535-2.153z"/>
        <path fill="#000" d="M26.47 28.632c-1.817 1.295-2.969 2.525-3.457 3.684-.505 1.033-.773 2.173-.804 3.421h11.918v-3.013H26.53a3.9 3.9 0 0 1 .798-.948c.316-.271.903-.713 1.76-1.32l1.372-.972c1.154-.817 1.984-1.556 2.49-2.22.769-1 1.154-2.144 1.154-3.433 0-1.68-.545-3.03-1.634-4.051-1.09-1.02-2.555-1.53-4.397-1.53-2.33 0-3.952.868-4.865 2.605-.482.912-.75 2.108-.806 3.59h3.325c.04-.977.168-1.689.385-2.137.375-.777 1.084-1.165 2.123-1.165.761 0 1.345.244 1.753.732.407.488.612 1.1.612 1.836 0 .904-.356 1.736-1.069 2.497-.465.487-1.485 1.295-3.061 2.424z"/>
    </g>
</svg>
