<?xml version="1.0" encoding="UTF-8"?>
<svg width="57px" height="54px" viewBox="0 0 57 54" version="1.1" xmlns="http://www.w3.org/2000/svg" xmlns:xlink="http://www.w3.org/1999/xlink">
    <!-- Generator: sketchtool 48.1 (47250) - http://www.bohemiancoding.com/sketch -->
    <title>C3170DDE-5247-4C36-AFEC-43F65460DB5E</title>
    <desc>Created with sketchtool.</desc>
    <defs></defs>
    <g id="1.3-List-Mobil-Baru-1.4.8-Filter" stroke="none" stroke-width="1" fill="none" fill-rule="evenodd" transform="translate(-221.000000, -354.000000)">
        <g id="Group-3" transform="translate(14.000000, 327.000000)" fill="#F5A623" fill-rule="nonzero">
            <g id="star-with-number-4" transform="translate(207.000000, 27.000000)">
                <path d="M10.2140316,46.7375494 L10.2057312,46.8519763 C10.1462451,48.4567194 10.5934783,49.801581 11.5001976,50.7424901 C12.7924901,52.0816206 14.8996047,52.3527668 16.9885375,51.4102767 L28.18083,45.3171937 L39.2778656,51.3634387 L39.3729249,51.4102767 C40.2150198,51.7903162 41.0440711,51.983004 41.8383399,51.983004 C43.0162055,51.983004 44.0899209,51.5422925 44.8600791,50.7424901 C45.7666008,49.801581 46.2148221,48.456917 46.1549407,46.8519763 L44.6885375,34.3800395 L53.0061265,25.833004 L53.1195652,25.701581 C54.2818182,24.172332 54.6478261,22.4185771 54.1250988,20.891502 C53.6011858,19.3640316 52.2369565,18.2033597 50.3802372,17.708498 L37.8873518,15.6940711 L32.4407115,4.73418972 L32.3577075,4.59031621 C31.2839921,2.94624506 29.7079051,2.00355731 28.034585,2.00355731 C26.4250988,2.00355731 24.9262846,2.84367589 23.8124506,4.37035573 L17.3687747,15.6922925 L6.08577075,17.5867589 L5.93083004,17.6219368 C4.08932806,18.1486166 2.73853755,19.3351779 2.2256917,20.8764822 C1.71284585,22.4177866 2.08320158,24.1766798 3.24209486,25.7007905 L11.6733202,34.3780632 L10.2140316,46.7375494 Z M5.45019763,23.9233202 C4.89486166,23.163834 4.7041502,22.4023715 4.91482213,21.7715415 C5.12509881,21.1387352 5.73616601,20.6420949 6.63913043,20.3681818 L19.166996,18.2628458 L26.1478261,5.97905138 C27.2859684,4.47055336 28.8816206,4.5083004 29.9440711,6.07549407 L36.0003953,18.2600791 L49.7166008,20.4634387 C50.6221344,20.7193676 51.2347826,21.1954545 51.4450593,21.8100791 C51.6551383,22.420751 51.465415,23.1687747 50.913834,23.922332 L41.7179842,33.3699605 L43.327668,47.0086957 C43.3480237,47.7889328 43.1689723,48.415415 42.8213439,48.7758893 C42.3675889,49.2464427 41.5355731,49.263834 40.5863636,48.8468379 L28.1822134,42.0905138 L15.7784585,48.8476285 C14.8278656,49.2644269 13.9950593,49.2462451 13.5416996,48.777668 C13.1940711,48.4160079 13.0156126,47.7907115 13.0353755,47.0104743 L14.6448617,33.370751 L5.45019763,23.9233202 Z" id="Shape"></path>
                <path d="M28.9646245,36.5456522 L32.3126482,36.5456522 L32.3126482,32.8009881 L34.2810277,32.8009881 L34.2810277,30.1262846 L32.3126482,30.1262846 L32.3126482,19.251581 L28.4729249,19.251581 L22.0758893,29.8144269 L22.0758893,32.8027668 L28.9644269,32.8027668 L28.9644269,36.5456522 L28.9646245,36.5456522 Z M24.6211462,30.126087 L28.9646245,22.6300395 L28.9646245,30.126087 L24.6211462,30.126087 Z" id="Shape"></path>
            </g>
        </g>
    </g>
</svg>