<?xml version="1.0" encoding="UTF-8"?>
<svg width="71px" height="71px" viewBox="0 0 71 71" version="1.1" xmlns="http://www.w3.org/2000/svg" xmlns:xlink="http://www.w3.org/1999/xlink">
    <!-- Generator: sketchtool 48.1 (47250) - http://www.bohemiancoding.com/sketch -->
    <title>7544DFB3-1745-4056-9F3C-8A115CB19F05</title>
    <desc>Created with sketchtool.</desc>
    <defs></defs>
    <g id="1.3-List-Mobil-Baru-1.4.8-Filter" stroke="none" stroke-width="1" fill="none" fill-rule="evenodd" transform="translate(-277.000000, -717.000000)">
        <g id="Group-6-Copy" transform="translate(13.000000, 693.000000)">
            <g id="Group-27" transform="translate(264.000000, 24.000000)">
                <rect id="Rectangle-Copy-2" fill="#2C8AFA" x="3" y="3" width="65" height="65" rx="8"></rect>
                <g id="car-suv" transform="translate(16.000000, 8.000000)" fill="#FFFFFF" fill-rule="nonzero">
                    <path d="M36.50545,18.08085 L36.26745,18.04375 C36.35285,14.78035 35.84045,14.12305 35.26715,12.12455 L35.5825,12.12455 C35.7323,12.12455 35.85305,12.0031 35.85305,11.85365 L35.85305,11.5425 C35.85305,11.39305 35.7316,11.27195 35.5825,11.27195 L16.39305,11.27195 C16.1113,11.27195 15.83515,11.34755 15.59295,11.4907 L9.777,14.9263 C9.777,14.9263 3.95475,15.16115 3.05245,16.054 C2.5964,16.50515 2.1841,17.3952 2.0336,18.42245 C1.8831,19.44935 2.27615,20.54415 2.49945,20.7804 C2.7231,21.01665 3.0815,21.1297 3.0815,21.1297 L3.2236,21.39955 C3.3153,21.57315 3.4966,21.6799 3.69295,21.675 L4.62885,21.6526 L4.62885,19.06855 C4.62885,18.0665 5.44225,17.25275 6.445,17.25275 L8.92965,17.25275 C9.8085,17.25275 10.52145,17.965 10.52145,18.8449 L10.52145,21.5091 L10.5638,21.50805 L25.7594,21.2746 L25.97815,21.29665 L25.97815,19.0682 C25.97815,18.06615 26.79155,17.2524 27.79395,17.2524 L30.2793,17.2524 C31.1585,17.2524 31.87075,17.96465 31.87075,18.84455 L31.87075,21.7576 L33.9676,21.3124 C34.07785,21.28895 34.17235,21.2158 34.22275,21.1143 L34.37605,20.8091 L36.4967,20.53155 C36.6822,20.5074 36.82115,20.34885 36.82115,20.16125 L36.82115,18.4487 C36.82045,18.266 36.68675,18.10955 36.50545,18.08085 Z M18.25225,15.09395 C18.2057,15.14365 18.1406,15.172 18.072,15.172 L13.44325,15.172 C13.44325,15.172 13.72745,15.02605 13.8762,14.8178 C14.0253,14.61025 13.9427,14.1185 13.7754,13.9526 C13.62175,13.8007 13.3127,13.69745 13.3127,13.69745 L15.64055,12.2642 C15.78965,12.17215 15.96115,12.12385 16.1365,12.12385 L18.1063,12.12385 C18.1721,12.12385 18.2351,12.1501 18.2813,12.197 C18.3275,12.2439 18.35305,12.3069 18.352,12.37305 L18.31805,14.90845 C18.3226,14.97705 18.29915,15.0439 18.25225,15.09395 Z M24.06575,14.88815 C23.91035,15.0768 23.6797,15.1881 23.4347,15.1937 L19.72995,15.2742 C19.6638,15.2756 19.5994,15.25075 19.55215,15.20455 C19.50455,15.158 19.47795,15.0943 19.47795,15.02815 L19.47795,12.3699 C19.47795,12.2341 19.58785,12.1242 19.72365,12.1242 L23.83545,12.1242 C23.96285,12.1242 24.0689,12.22115 24.0801,12.3482 L24.246,14.21125 C24.28695,14.4524 24.22115,14.69985 24.06575,14.88815 Z M35.0253,14.89025 C35.0036,14.927 34.96405,14.94905 34.92135,14.9494 L27.39565,15.0061 C27.0698,15.00855 26.766,14.8423 26.59135,14.56685 L25.80245,12.456 C25.7741,12.3804 25.7846,12.29605 25.83045,12.2299 C25.87665,12.16375 25.95225,12.1242 26.0324,12.1242 L33.9935,12.1242 C34.1006,12.1242 34.1944,12.1928 34.22765,12.2943 L35.02845,14.7702 C35.04875,14.80835 35.04735,14.85385 35.0253,14.89025 Z" id="Shape"></path>
                    <path d="M7.5741,17.7774 C6.09185,17.7774 4.88855,18.97895 4.88855,20.4626 C4.88855,20.57775 4.898,20.68905 4.912,20.8007 C5.07895,22.1244 6.2056,23.14885 7.57375,23.14885 C8.98145,23.14885 10.13225,22.06875 10.24915,20.69185 C10.2558,20.6152 10.2607,20.53995 10.2607,20.4626 C10.26105,18.97895 9.05845,17.7774 7.5741,17.7774 Z M6.22905,19.4511 L6.77785,19.99815 C6.7348,20.0727 6.7005,20.15145 6.6802,20.23545 L5.90775,20.23545 C5.94765,19.94215 6.05965,19.67545 6.22905,19.4511 Z M5.90495,20.70025 L6.68335,20.70025 C6.7054,20.78215 6.73725,20.8609 6.781,20.93335 L6.23115,21.4818 C6.06175,21.25885 5.94625,20.99145 5.90495,20.70025 Z M7.3417,22.13105 C7.05155,22.0922 6.7866,21.97775 6.56295,21.80905 L7.1093,21.26235 C7.18035,21.30435 7.2598,21.3348 7.3417,21.35685 L7.3417,22.13105 Z M7.3417,19.56975 C7.25805,19.59145 7.1786,19.6254 7.1044,19.66845 L6.55805,19.1214 C6.7824,18.95025 7.0491,18.8372 7.34135,18.79625 L7.3417,19.56975 Z M7.8065,18.7966 C8.1005,18.8372 8.3672,18.9499 8.5919,19.12245 L8.04485,19.6688 C7.9717,19.6261 7.89155,19.59145 7.80615,19.57045 L7.8065,18.7966 Z M7.8065,22.13105 L7.8065,21.3565 C7.88945,21.3348 7.9682,21.30435 8.04065,21.26165 L8.5863,21.80905 C8.363,21.9774 8.09805,22.0915 7.8065,22.13105 Z M8.91985,21.4832 L8.36965,20.93265 C8.41165,20.8609 8.44735,20.78355 8.46905,20.70025 L9.24045,20.70025 C9.19985,20.99145 9.0903,21.2606 8.91985,21.4832 Z M8.46905,20.23545 C8.44875,20.1518 8.41515,20.0727 8.3728,19.99815 L8.9202,19.4511 C9.0903,19.6765 9.2023,19.94215 9.2422,20.23545 L8.46905,20.23545 Z" id="Shape"></path>
                    <path d="M28.9234,17.7774 C27.4408,17.7774 26.23715,18.97895 26.23715,20.4626 C26.23715,20.57775 26.24625,20.68905 26.26095,20.8007 C26.42755,22.1244 27.55455,23.14885 28.9227,23.14885 C30.33005,23.14885 31.48085,22.06875 31.59775,20.69185 C31.60475,20.6152 31.6093,20.53995 31.6093,20.4626 C31.61,18.97895 30.4081,17.7774 28.9234,17.7774 Z M27.57835,19.4511 L28.12645,19.99815 C28.0834,20.0727 28.04945,20.15145 28.02915,20.23545 L27.25705,20.23545 C27.2966,19.94215 27.4086,19.67545 27.57835,19.4511 Z M27.2539,20.70025 L28.0323,20.70025 C28.05435,20.78215 28.08585,20.8609 28.1296,20.93335 L27.58045,21.4818 C27.4107,21.25885 27.2952,20.99145 27.2539,20.70025 Z M28.69065,22.13105 C28.40015,22.0922 28.1352,21.97775 27.91155,21.80905 L28.45825,21.26235 C28.5293,21.30435 28.6091,21.3348 28.69065,21.35685 L28.69065,22.13105 Z M28.69065,19.56975 C28.60735,19.59145 28.52755,19.6254 28.453,19.66845 L27.90665,19.1214 C28.13065,18.95025 28.39735,18.8372 28.68995,18.79625 L28.69065,19.56975 Z M29.15615,18.7966 C29.4498,18.8372 29.7165,18.9499 29.9412,19.12245 L29.39415,19.6688 C29.321,19.6261 29.24085,19.59145 29.1558,19.57045 L29.15615,18.7966 Z M29.15615,22.13105 L29.15615,21.3565 C29.2384,21.3348 29.3175,21.30435 29.38995,21.26165 L29.9356,21.80905 C29.71195,21.9774 29.44735,22.0915 29.15615,22.13105 Z M30.26915,21.4832 L29.7186,20.93265 C29.7606,20.8609 29.79665,20.78355 29.81835,20.70025 L30.58975,20.70025 C30.54915,20.99145 30.43925,21.2606 30.26915,21.4832 Z M29.81835,20.23545 C29.7977,20.1518 29.7641,20.0727 29.72245,19.99815 L30.2695,19.4511 C30.4389,19.6765 30.5516,19.94215 30.5915,20.23545 L29.81835,20.23545 Z" id="Shape"></path>
                </g>
                <text id="SUV" font-family="Roboto-Regular, Roboto" font-size="11" font-weight="normal" fill="#FFFFFF">
                    <tspan x="25" y="57">SUV</tspan>
                </text>
            </g>
        </g>
    </g>
</svg>