<svg xmlns="http://www.w3.org/2000/svg" xmlns:xlink="http://www.w3.org/1999/xlink" width="71" height="71" viewBox="0 0 71 71">
    <defs>
        <rect id="a" width="65" height="65" x="3" y="3" rx="8"/>
    </defs>
    <g fill="none" fill-rule="evenodd">
        <g>
            <use fill="#FFF" xlink:href="#a"/>
            <rect width="64" height="64" x="3.5" y="3.5" stroke="#E8E8E8" rx="8"/>
        </g>
        <g fill="#9B9B9B" fill-rule="nonzero">
            <path d="M52.505 26.08l-.238-.036c.086-3.264-.427-3.921-1-5.92h.316a.27.27 0 0 0 .27-.27v-.311a.27.27 0 0 0-.27-.271h-19.19c-.282 0-.558.076-.8.219l-5.816 3.435s-5.822.235-6.725 1.128c-.456.451-.868 1.341-1.018 2.368-.15 1.027.242 2.122.465 2.358.224.237.583.35.583.35l.142.27c.091.173.273.28.469.275l.936-.022v-2.584c0-1.002.813-1.816 1.816-1.816h2.485c.878 0 1.591.712 1.591 1.592v2.664h.043l15.195-.234.22.022v-2.229c0-1.002.813-1.816 1.815-1.816h2.485c.88 0 1.592.713 1.592 1.593v2.913l2.097-.446a.372.372 0 0 0 .255-.198l.153-.305 2.12-.277a.373.373 0 0 0 .325-.37v-1.713a.375.375 0 0 0-.316-.368zm-18.253-2.986a.247.247 0 0 1-.18.078h-4.629s.284-.146.433-.354c.15-.208.067-.7-.1-.865-.154-.152-.463-.256-.463-.256l2.328-1.433c.149-.092.32-.14.496-.14h1.97a.245.245 0 0 1 .245.249l-.034 2.535a.246.246 0 0 1-.066.186zm5.814-.206a.842.842 0 0 1-.631.306l-3.705.08a.247.247 0 0 1-.252-.246V20.37c0-.136.11-.246.246-.246h4.111c.128 0 .234.097.245.224l.166 1.863a.843.843 0 0 1-.18.677zm10.96.002a.121.121 0 0 1-.105.06l-7.525.056a.944.944 0 0 1-.805-.44l-.789-2.11a.245.245 0 0 1 .23-.332h7.962c.107 0 .2.069.234.17l.8 2.476a.121.121 0 0 1-.003.12z"/>
            <path d="M23.574 25.777a2.686 2.686 0 1 0 0 5.372 2.686 2.686 0 0 0 0-5.372zm-1.345 1.674l.549.547a.896.896 0 0 0-.098.237h-.772c.04-.293.152-.56.321-.784zm-.324 1.25h.778c.022.081.054.16.098.232l-.55.549a1.681 1.681 0 0 1-.326-.782zm1.437 1.43a1.655 1.655 0 0 1-.779-.322l.546-.547c.071.042.15.073.233.095v.774zm0-2.561a.948.948 0 0 0-.238.098l-.546-.547c.224-.17.491-.284.783-.325v.774zm.465-.773c.294.04.56.153.785.325l-.547.547a.903.903 0 0 0-.239-.099v-.773zm0 3.334v-.774a.913.913 0 0 0 .234-.095l.545.547a1.662 1.662 0 0 1-.78.322zm1.113-.648l-.55-.55a.922.922 0 0 0 .099-.233h.771c-.04.291-.15.56-.32.783zm-.451-1.248a.92.92 0 0 0-.096-.237l.547-.547c.17.226.282.491.322.784h-.773zM44.923 25.777a2.686 2.686 0 0 0-2.686 2.686c0 .115.01.226.024.338a2.684 2.684 0 0 0 5.348-.338 2.684 2.684 0 0 0-2.686-2.686zm-1.345 1.674l.548.547a.895.895 0 0 0-.097.237h-.772c.04-.293.152-.56.321-.784zm-.324 1.25h.778c.022.081.054.16.098.232l-.55.549a1.678 1.678 0 0 1-.326-.782zm1.437 1.43a1.655 1.655 0 0 1-.78-.322l.547-.547a.94.94 0 0 0 .233.095v.774zm0-2.561a.961.961 0 0 0-.238.098l-.546-.547c.224-.17.49-.284.783-.325v.774zm.465-.773c.294.04.56.153.785.325l-.547.547a.905.905 0 0 0-.238-.099v-.773zm0 3.334v-.774a.921.921 0 0 0 .234-.095l.546.547a1.664 1.664 0 0 1-.78.322zm1.113-.648l-.55-.55a.923.923 0 0 0 .1-.233h.77c-.04.291-.15.56-.32.783zm-.45-1.248a.959.959 0 0 0-.097-.237l.548-.547c.169.226.282.491.322.784h-.774z"/>
        </g>
        <text fill="#000" fill-opacity=".87" font-family="Roboto-Regular, Roboto" font-size="11">
            <tspan x="25" y="57">SUV</tspan>
        </text>
    </g>
</svg>
