<svg xmlns="http://www.w3.org/2000/svg" width="24" height="24" viewBox="0 0 24 24">
    <path fill="#EE5A2A" fill-rule="nonzero" d="M19.611 11.389a1.21 1.21 0 0 0 .308-1.249 1.21 1.21 0 0 0-.983-.829l-4.111-.597a.537.537 0 0 1-.405-.294l-1.838-3.725a1.21 1.21 0 0 0-1.092-.679c-.467 0-.886.26-1.092.679L8.56 8.42a.538.538 0 0 1-.405.294l-4.112.598a1.21 1.21 0 0 0-.982.828 1.21 1.21 0 0 0 .308 1.249l2.974 2.9a.538.538 0 0 1 .155.475l-.702 4.095c-.079.46.107.916.484 1.19.378.275.869.311 1.283.093l3.677-1.933a.538.538 0 0 1 .5 0l3.677 1.933a1.216 1.216 0 0 0 1.767-1.283l-.703-4.095a.538.538 0 0 1 .155-.476l2.975-2.9zm-3.8 3.49l.703 4.095a.528.528 0 0 1-.214.526.53.53 0 0 1-.566.04l-3.677-1.933a1.223 1.223 0 0 0-1.134 0l-3.676 1.934a.53.53 0 0 1-.567-.041.528.528 0 0 1-.214-.526l.702-4.095a1.218 1.218 0 0 0-.35-1.077l-2.975-2.9a.527.527 0 0 1-.136-.551.528.528 0 0 1 .434-.367l4.111-.597c.397-.057.74-.306.917-.666l1.838-3.725a.527.527 0 0 1 .482-.3c.21 0 .39.112.483.3L13.81 8.72c.177.36.52.609.917.666l4.111.597c.207.03.37.167.434.367a.528.528 0 0 1-.136.55l-2.975 2.9c-.287.28-.417.683-.35 1.078z"/>
</svg>
