<?xml version="1.0" encoding="UTF-8"?>
<svg width="30px" height="30px" viewBox="0 0 30 30" version="1.1" xmlns="http://www.w3.org/2000/svg" xmlns:xlink="http://www.w3.org/1999/xlink">
    <!-- Generator: Sketch 47.1 (45422) - http://www.bohemiancoding.com/sketch -->
    <title>Group 3</title>
    <desc>Created with Sketch.</desc>
    <defs></defs>
    <g id="WWW&gt;Web" stroke="none" stroke-width="1" fill="none" fill-rule="evenodd">
        <g id="listing-mobil-baru" transform="translate(-691.000000, -703.000000)">
            <g id="Group-32" transform="translate(481.000000, 693.000000)">
                <g id="Group-28-Copy">
                    <g id="Group-24">
                        <g id="Group-25-+-Sopan-Sopian-Li-+-Kijang-+-TOYOTA-Kijang-Innova-+-Individu-|-2500-cc-|-+-Rp-168.000.000-+-Group-24-+-Line-2-Mask-Copy-3">
                            <g id="Group-3" transform="translate(210.000000, 10.000000)">
                                <g id="Group-3-Copy" transform="translate(1.034483, 1.034483)">
                                    <circle id="Oval-6" stroke="#F4F4F4" fill="#FFFFFF" cx="13.9655172" cy="13.9655172" r="13.9655172"></circle>
                                    <g id="ic_favorite" transform="translate(5.137931, 7.172414)" stroke="#F54B5E" stroke-width="2">
                                        <g id="Icon-24px" transform="translate(0.000000, 0.000000)">
                                            <path d="M8.31034483,14.5646552 L7.18534483,13.5405172 C3.18965517,9.91724138 0.551724138,7.52758621 0.551724138,4.59482759 C0.551724138,2.20517241 2.42931034,0.327586207 4.81896552,0.327586207 C6.16896552,0.327586207 7.46465517,0.956034483 8.31034483,1.94913793 C9.15603448,0.956034483 10.4517241,0.327586207 11.8017241,0.327586207 C14.1913793,0.327586207 16.0689655,2.20517241 16.0689655,4.59482759 C16.0689655,7.52758621 13.4310345,9.91724138 9.43534483,13.5482759 L8.31034483,14.5646552 L8.31034483,14.5646552 Z" id="Shape"></path>
                                        </g>
                                    </g>
                                </g>
                            </g>
                        </g>
                    </g>
                </g>
            </g>
        </g>
    </g>
</svg>