<?xml version="1.0" encoding="UTF-8"?>
<svg width="71px" height="71px" viewBox="0 0 71 71" version="1.1" xmlns="http://www.w3.org/2000/svg" xmlns:xlink="http://www.w3.org/1999/xlink">
    <!-- Generator: sketchtool 48.1 (47250) - http://www.bohemiancoding.com/sketch -->
    <title>AAF99CD2-5E15-483E-ACE1-0E10BD7D45C8</title>
    <desc>Created with sketchtool.</desc>
    <defs></defs>
    <g id="1.3-List-Mobil-Baru-1.4.8-Filter" stroke="none" stroke-width="1" fill="none" fill-rule="evenodd" transform="translate(-277.000000, -797.000000)">
        <g id="Group-6-Copy" transform="translate(13.000000, 693.000000)">
            <g id="Group-32" transform="translate(264.000000, 104.000000)">
                <rect id="Rectangle-Copy-5" fill="#2C8AFA" x="3" y="3" width="65" height="65" rx="8"></rect>
                <text id="Van" font-family="Roboto-Regular, Roboto" font-size="11" font-weight="normal" fill="#FFFFFF">
                    <tspan x="26" y="57">Van</tspan>
                </text>
                <g id="van-black-transport-side-view-pointing-to-left" transform="translate(16.000000, 8.000000)" fill="#FFFFFF" fill-rule="nonzero">
                    <path d="M6.87935,19.30095 C5.6064,19.3132 4.58475,20.35445 4.59665,21.62705 C4.5977,21.7254 4.6068,21.82165 4.61975,21.91615 C4.77305,23.0512 5.74885,23.92095 6.9231,23.9094 C8.13025,23.89855 9.1092,22.96195 9.1981,21.77965 C9.203,21.7149 9.20685,21.64945 9.20615,21.58295 C9.19425,20.3107 8.1523,19.28905 6.87935,19.30095 Z M6.6879,20.17805 L6.6942,20.84095 C6.62175,20.8609 6.5542,20.88995 6.4912,20.92845 L6.0173,20.4633 C6.20875,20.3149 6.43695,20.21515 6.6879,20.17805 Z M5.73835,20.74785 L6.2133,21.2137 C6.1769,21.27775 6.1489,21.3453 6.1314,21.41705 L5.4692,21.42405 C5.50105,21.1717 5.59485,20.94245 5.73835,20.74785 Z M5.47025,21.822 L6.1377,21.81535 C6.1573,21.88675 6.18565,21.95395 6.2231,22.01485 L5.75655,22.49015 C5.60955,22.30045 5.5077,22.07225 5.47025,21.822 Z M6.0439,22.76875 L6.50835,22.29485 C6.5703,22.33055 6.63855,22.3568 6.70925,22.3743 L6.71555,23.0386 C6.4653,23.00675 6.2371,22.9112 6.0439,22.76875 Z M8.3301,21.39675 L7.6672,21.4034 C7.6483,21.33095 7.6189,21.2648 7.5818,21.2011 L8.04765,20.7272 C8.195,20.91725 8.293,21.14545 8.3301,21.39675 Z M7.0869,20.17385 C7.3389,20.20675 7.5685,20.3016 7.76275,20.44615 L7.29795,20.92005 C7.23425,20.8833 7.166,20.85495 7.0932,20.83675 L7.0869,20.17385 Z M7.1142,23.0351 L7.1079,22.37115 C7.17895,22.3512 7.2458,22.32425 7.3074,22.2875 L7.7806,22.75265 C7.58985,22.8986 7.36375,22.99905 7.1142,23.0351 Z M8.06375,22.4702 L7.5867,22.0019 C7.62275,21.93995 7.6525,21.87345 7.6707,21.8017 L8.3329,21.79505 C8.3,22.0453 8.2076,22.27735 8.06375,22.4702 Z" id="Shape"></path>
                    <path d="M29.1831,19.30095 C27.91015,19.3132 26.88815,20.35445 26.90075,21.62705 C26.90145,21.7254 26.91055,21.82165 26.9235,21.91615 C27.0768,23.0512 28.0526,23.92095 29.22685,23.9094 C30.434,23.89855 31.41295,22.96195 31.50185,21.77965 C31.50675,21.7149 31.5106,21.64945 31.5099,21.58295 C31.49765,20.3107 30.45605,19.28905 29.1831,19.30095 Z M28.992,20.17805 L28.9983,20.84095 C28.92585,20.8609 28.85865,20.88995 28.79565,20.92845 L28.32175,20.4633 C28.51285,20.3149 28.7407,20.21515 28.992,20.17805 Z M28.0421,20.74785 L28.5167,21.2137 C28.4803,21.27775 28.4523,21.3453 28.43515,21.41705 L27.7726,21.42405 C27.80515,21.1717 27.8986,20.94245 28.0421,20.74785 Z M27.77435,21.822 L28.44145,21.81535 C28.4614,21.88675 28.4894,21.95395 28.52685,22.01485 L28.0603,22.49015 C27.9133,22.30045 27.8118,22.07225 27.77435,21.822 Z M28.34765,22.76875 L28.81175,22.29485 C28.87405,22.33055 28.9423,22.3568 29.01265,22.3743 L29.01895,23.0386 C28.7694,23.00675 28.5412,22.9112 28.34765,22.76875 Z M30.63385,21.39675 L29.97095,21.4034 C29.95205,21.33095 29.92265,21.2648 29.88555,21.2011 L30.3514,20.7272 C30.49875,20.91725 30.5971,21.14545 30.63385,21.39675 Z M29.391,20.17385 C29.64335,20.20675 29.8726,20.3016 30.0672,20.44615 L29.6024,20.92005 C29.53835,20.8833 29.47045,20.85495 29.3973,20.83675 L29.391,20.17385 Z M29.4183,23.0351 L29.412,22.37115 C29.48305,22.3512 29.5499,22.32425 29.6115,22.2875 L30.0847,22.75265 C29.89395,22.8986 29.6675,22.99905 29.4183,23.0351 Z M30.3675,22.4702 L29.8908,22.0019 C29.92685,21.93995 29.9566,21.87345 29.97445,21.8017 L30.63665,21.79505 C30.60375,22.0453 30.5117,22.27735 30.3675,22.4702 Z" id="Shape"></path>
                    <path d="M36.41935,20.163 L35.62415,19.81405 C35.62415,19.81405 36.31715,15.6907 34.47825,11.96495 C34.39985,11.8064 34.25915,11.6874 34.08975,11.63735 C31.4798,10.867 16.2954,10.9559 12.63965,11.5922 C12.3236,11.6475 12.02505,11.78225 11.7755,11.98385 C10.7227,12.83505 8.0074,15.2105 8.0074,15.2105 C8.0074,15.2105 4.9071,15.75825 3.876,15.95425 C2.9772,16.12505 2.5544,16.5972 2.55825,17.22825 C2.5621,17.78755 2.57295,19.4658 2.57295,19.4658 L2.2303,19.56905 C2.09345,19.60965 2,19.736 2,19.87915 L2,20.814 C2,20.814 2.105,21.35755 2.5733,21.69635 C2.6419,21.7464 3.19315,21.78035 4.08075,21.80485 C4.0762,21.74815 4.06815,21.6925 4.06745,21.63405 C4.05275,20.07165 5.3117,18.7882 6.8741,18.77315 C8.4498,18.77315 9.721,20.0321 9.73535,21.58015 C9.73605,21.661 9.7259,21.82095 9.7259,21.82095 L26.37785,21.71245 C26.37785,21.71245 26.3719,21.66135 26.37155,21.63335 C26.35685,20.07095 27.6158,18.7875 29.17855,18.77245 C30.75425,18.77245 32.02545,20.0314 32.03945,21.57945 C32.0405,21.6526 32.0314,21.79715 32.0314,21.79715 L34.24375,21.43175 L34.24375,21.8472 C34.24375,21.94205 34.3211,22.0194 34.4163,22.0194 L34.80585,22.0194 C34.9007,22.0194 34.97805,21.94205 34.97805,21.8472 L34.97805,21.40235 L36.23385,21.40235 C36.4897,21.40235 36.69725,21.19445 36.69725,20.9386 L36.69725,20.58895 C36.6969,20.4038 36.5877,20.23685 36.41935,20.163 Z M15.17855,15.3694 C15.1719,15.47755 15.0823,15.5619 14.9738,15.5619 L11.1497,15.5619 C11.1497,15.5619 11.1539,14.5434 11.13325,14.28825 C11.1007,13.8875 10.9348,13.73525 10.9348,13.73525 L12.33725,12.44445 C12.5042,12.29115 12.72155,12.20365 12.948,12.1991 L15.15825,12.1529 C15.21565,12.15185 15.27095,12.17495 15.31085,12.21625 C15.35075,12.25755 15.37105,12.3139 15.3679,12.3713 L15.17855,15.3694 Z" id="Shape"></path>
                </g>
            </g>
        </g>
    </g>
</svg>