<svg xmlns="http://www.w3.org/2000/svg" xmlns:xlink="http://www.w3.org/1999/xlink" width="71" height="71" viewBox="0 0 71 71">
    <defs>
        <rect id="a" width="65" height="65" x="3" y="3" rx="8"/>
    </defs>
    <g fill="none" fill-rule="evenodd">
        <g>
            <use fill="#FFF" xlink:href="#a"/>
            <rect width="64" height="64" x="3.5" y="3.5" stroke="#E8E8E8" rx="8"/>
        </g>
        <text fill="#000" fill-opacity=".87" font-family="Roboto-Regular, Roboto" font-size="11">
            <tspan x="26" y="57">Van</tspan>
        </text>
        <g fill="#9B9B9B" fill-rule="nonzero">
            <path d="M22.88 27.3a2.305 2.305 0 1 0 .043 4.61 2.305 2.305 0 0 0-.044-4.609zm-.192.878l.006.663a.788.788 0 0 0-.203.087l-.474-.465c.192-.148.42-.248.67-.285zm-.95.57l.475.466a.789.789 0 0 0-.082.203l-.662.007c.032-.252.126-.482.27-.676zm-.268 1.074l.668-.007c.02.072.048.139.085.2l-.466.475a1.437 1.437 0 0 1-.287-.668zm.574.947l.464-.474c.062.036.13.062.201.08l.007.664a1.433 1.433 0 0 1-.672-.27zm2.286-1.372l-.663.006a.8.8 0 0 0-.085-.202l.466-.474c.147.19.245.418.282.67zm-1.243-1.223c.252.033.482.128.676.272l-.465.474a.794.794 0 0 0-.205-.083l-.006-.663zm.027 2.861l-.006-.664a.818.818 0 0 0 .2-.083l.473.465a1.43 1.43 0 0 1-.667.282zm.95-.565l-.477-.468a.78.78 0 0 0 .084-.2l.662-.007a1.44 1.44 0 0 1-.27.675zM45.183 27.3a2.304 2.304 0 1 0 .043 4.608 2.304 2.304 0 0 0-.043-4.607zm-.191.878l.006.663a.786.786 0 0 0-.202.087l-.474-.465c.19-.148.419-.248.67-.285zm-.95.57l.475.466a.776.776 0 0 0-.082.203l-.662.007c.032-.252.126-.482.27-.676zm-.268 1.074l.667-.007a.78.78 0 0 0 .086.2l-.467.475a1.437 1.437 0 0 1-.286-.668zm.574.947l.464-.474c.062.036.13.062.2.08l.007.664a1.436 1.436 0 0 1-.671-.27zm2.286-1.372l-.663.006a.8.8 0 0 0-.085-.202l.465-.474c.148.19.246.418.283.67zm-1.243-1.223c.252.033.482.128.676.272l-.465.474a.796.796 0 0 0-.205-.083l-.006-.663zm.027 2.861l-.006-.664a.818.818 0 0 0 .2-.083l.473.465c-.191.146-.418.246-.667.282zm.95-.565l-.477-.468a.767.767 0 0 0 .083-.2l.663-.007c-.033.25-.125.482-.27.675z"/>
            <path d="M52.42 28.163l-.796-.349s.693-4.123-1.146-7.85a.634.634 0 0 0-.388-.327c-2.61-.77-17.795-.681-21.45-.045-.316.056-.615.19-.865.392-1.052.851-3.768 3.227-3.768 3.227s-3.1.547-4.131.743c-.899.171-1.322.643-1.318 1.274l.015 2.238-.343.103a.323.323 0 0 0-.23.31v.935s.105.544.573.882c.069.05.62.084 1.508.109-.005-.057-.013-.112-.014-.17a2.838 2.838 0 0 1 2.807-2.862c1.576 0 2.847 1.26 2.861 2.807.001.081-.01.241-.01.241l16.653-.109s-.006-.05-.006-.079a2.838 2.838 0 0 1 2.807-2.86c1.575 0 2.846 1.258 2.86 2.806.002.074-.008.218-.008.218l2.213-.365v.415c0 .095.077.172.172.172h.39a.173.173 0 0 0 .172-.172v-.445h1.256a.464.464 0 0 0 .463-.463v-.35a.466.466 0 0 0-.278-.426zm-21.241-4.794a.205.205 0 0 1-.205.193H27.15s.004-1.019-.017-1.274c-.032-.4-.198-.553-.198-.553l1.402-1.29a.931.931 0 0 1 .611-.246l2.21-.046a.207.207 0 0 1 .21.218l-.19 2.998z"/>
        </g>
    </g>
</svg>
