<svg height="17" viewBox="0 0 20 17" width="20" xmlns="http://www.w3.org/2000/svg"><path d="m2.073 5.95a.421.421 0 0 0 -.417.425v9.35c0 .699.564 1.275 1.25 1.275h4.17c.23 0 .417-.19.417-.425v-4.675c0-1.42 1.108-2.55 2.502-2.55 1.393 0 2.502 1.13 2.502 2.55v4.675c0 .235.187.425.417.425h4.17c.686 0 1.25-.576 1.25-1.275l.004-9.35c.004-.287-.209-.425-.42-.425-.212 0-.418.138-.414.425l-.004 9.35a.41.41 0 0 1 -.417.425h-3.752v-4.25c0-1.876-1.495-3.4-3.336-3.4-1.843 0-3.336 1.524-3.336 3.4v4.25h-3.752a.41.41 0 0 1 -.417-.425v-9.35a.41.41 0 0 0 -.417-.425zm7.922-5.95c-.384 0-.73.13-.999.246-.27.12-.467.24-.467.24l-8.324 4.665c-.467.272-.05.996.4.744l8.34-4.673.014-.01s.147-.092.363-.187c.22-.09.498-.175.673-.175s.455.083.671.178c.217.094.365.188.365.188l.015.008 8.337 4.672c.488.274.875-.481.402-.746l-8.324-4.666s-.198-.12-.467-.237c-.27-.12-.618-.247-.999-.247z" fill="#ee5a2a"/></svg>