<svg height="15" viewBox="0 0 20 15" width="20" xmlns="http://www.w3.org/2000/svg"><g fill="none"><path d="m13.354 11.12h-7.133l-.633 1.548-.11.268h1.376a.235.235 0 0 1 -.004-.036v-.672c0-.13.105-.236.234-.236s.234.106.234.236v.672a.235.235 0 0 1 -.004.036h2.244a.235.235 0 0 1 -.004-.036v-.672c0-.13.104-.236.234-.236.129 0 .233.106.233.236v.672a.235.235 0 0 1 -.003.036h2.243a.235.235 0 0 1 -.003-.036v-.672c0-.13.104-.236.233-.236.13 0 .234.106.234.236v.672a.235.235 0 0 1 -.004.036h1.376l-.11-.268z" fill="#9b59b6"/><path d="m19.44 5.192a.398.398 0 0 0 -.35-.243h-1.789a.398.398 0 0 0 -.349.243 2.497 2.497 0 0 0 -.123.497c-.787-1.525-1.658-3.224-1.658-3.224a.712.712 0 0 0 -.543-.463 27.079 27.079 0 0 0 -4.84-.443c-1.6 0-3.229.15-4.84.443a.712.712 0 0 0 -.544.463s-.87 1.699-1.658 3.224c-.018-.15-.06-.31-.123-.497a.398.398 0 0 0 -.35-.243h-1.787a.398.398 0 0 0 -.35.243c-.18.53-.18.835 0 1.366a.398.398 0 0 0 .35.243h1.784c0 .022.002.045.004.067a.923.923 0 0 0 -.65.884v6.103c0 .246.197.444.44.444h2.22c.243 0 .44-.198.44-.444v-1.072h.359l.765-1.873a.234.234 0 0 1 .216-.146h7.447c.094 0 .18.058.216.146l.765 1.873h.36v1.072c0 .246.196.444.44.444h2.218c.244 0 .441-.198.441-.444v-6.103a.923.923 0 0 0 -.65-.884.716.716 0 0 0 .004-.067h1.785a.398.398 0 0 0 .35-.243c.18-.53.18-.835 0-1.366zm-14.053-2.204s1.065-.272 4.4-.272c3.334 0 4.4.272 4.4.272l1.563 3.813h-11.926l1.564-3.813zm-1.943 6.598v-1.253h2.694l.8 1.253zm12.686 0h-3.493l.8-1.253h2.693z" fill="#9b59b6"/><path d="m18.578 1.433a1.47 1.47 0 0 0 -1.046-.433 1.47 1.47 0 0 0 -1.045.433l-.567.567a.846.846 0 0 0 0 1.195l.007.007-.372.372a.12.12 0 0 0 -.016.02l-.195.303-.303.195a.12.12 0 0 0 -.036.036l-.195.303-.302.195a.12.12 0 0 0 -.036.036l-.195.302-.303.195a.12.12 0 0 0 -.036.036l-.194.301-.259.154a.12.12 0 0 0 -.059.108l.028.684a.12.12 0 0 0 .115.115l.684.028h.005a.12.12 0 0 0 .085-.035l2.466-2.466.007.007a.843.843 0 0 0 1.195 0l.566-.566a1.48 1.48 0 0 0 0-2.09zm-4.686 4.255a.12.12 0 0 0 .04-.039l.195-.302.303-.195a.12.12 0 0 0 .036-.036l.195-.303.303-.195a.12.12 0 0 0 .036-.036l.195-.303.302-.195a.12.12 0 0 0 .036-.036l.202-.314.363-.362.284.283-2.667 2.666h-.024l-.02-.502zm.319.653-.168-.007 2.509-2.509.087.088zm4.197-2.987-.566.566a.605.605 0 0 1 -.855 0l-.896-.896a.6.6 0 0 1 0-.855l.566-.566a1.23 1.23 0 0 1 .875-.362c.33 0 .642.129.875.362l.086-.085-.085.085a1.24 1.24 0 0 1 0 1.751z" stroke="#9b59b6"/><path d="m18.18 1.85a.909.909 0 0 0 -1-.202.12.12 0 0 0 -.039.196l1.018 1.033a.12.12 0 0 0 .196-.037.901.901 0 0 0 -.175-.99zm.005.71-.727-.738a.655.655 0 0 1 .727.738z" fill="#9b59b6"/></g></svg>