<svg height="17" viewBox="0 0 20 17" width="20" xmlns="http://www.w3.org/2000/svg"><g fill="none"><g fill="#2c8afa"><path d="m13.441 13.36h-7.18l-.636 1.558-.11.27h1.384a.236.236 0 0 1 -.004-.037v-.676c0-.13.105-.237.235-.237s.235.106.235.237v.676a.236.236 0 0 1 -.003.037h2.258a.236.236 0 0 1 -.004-.037v-.676c0-.13.106-.237.236-.237s.235.106.235.237v.676a.236.236 0 0 1 -.004.037h2.258a.236.236 0 0 1 -.003-.037v-.676c0-.13.105-.237.235-.237s.235.106.235.237v.676a.236.236 0 0 1 -.004.037h1.385l-.11-.27z"/><path d="m19.566 7.277a.4.4 0 0 0 -.351-.244h-1.8a.4.4 0 0 0 -.352.244 2.513 2.513 0 0 0 -.124.5c-.792-1.535-1.67-3.245-1.67-3.245a.717.717 0 0 0 -.546-.466 27.256 27.256 0 0 0 -4.871-.445c-1.61 0-3.25.15-4.872.445a.717.717 0 0 0 -.547.466s-.877 1.71-1.669 3.246a2.514 2.514 0 0 0 -.124-.501.4.4 0 0 0 -.351-.244h-1.8a.4.4 0 0 0 -.352.244c-.183.534-.182.84 0 1.375a.4.4 0 0 0 .351.245h1.797c0 .022.002.045.004.067a.93.93 0 0 0 -.655.89v6.144c0 .246.199.446.444.446h2.233c.245 0 .444-.2.444-.447v-1.08h.361l.77-1.885a.235.235 0 0 1 .218-.146h7.496c.095 0 .181.058.217.146l.77 1.886h.362v1.08c0 .246.199.446.444.446h2.233c.245 0 .444-.2.444-.447v-6.143a.93.93 0 0 0 -.655-.89.721.721 0 0 0 .004-.067h1.797a.4.4 0 0 0 .351-.245c.183-.534.182-.84 0-1.375zm-14.143-2.218s1.072-.274 4.428-.274c3.357 0 4.429.274 4.429.274l1.574 3.838h-12.005zm-1.956 6.64v-1.26h2.711l.806 1.26zm12.769 0h-3.517l.806-1.26h2.71v1.26z"/></g><g fill="#3498db"><path d="m17.216 1.046-.006-.018zm-.002-.007-.002-.005zm0 .001-.006-.017.006.016z"/><path d="m17.22 1.057a1.956 1.956 0 0 0 -.007-.021zm.009.028a8.96 8.96 0 0 1 -.014-.042z"/><path d="m17.22 1.057a.348.348 0 0 0 -.284-.236l-.57-.082-.256-.511a.35.35 0 0 0 -.315-.194.35.35 0 0 0 -.316.194l-.255.51-.57.083a.348.348 0 0 0 -.284.236.342.342 0 0 0 .089.356l.413.398-.098.562c-.048.278.257.497.51.366l.51-.265.511.265c.253.131.559-.088.51-.367l-.097-.561.413-.398a.342.342 0 0 0 .089-.356zm-1.024.416a.345.345 0 0 0 -.1.308l.031.186-.169-.088a.355.355 0 0 0 -.327 0l-.169.088.033-.186a.345.345 0 0 0 -.102-.308l-.136-.131.189-.027a.351.351 0 0 0 .264-.19l.085-.17.084.17c.051.102.15.173.265.19l.189.027z"/><path d="m17.23 1.09c.005.013.004.011 0 0zm-.02-.062c-.003-.01-.003-.009 0 0zm.02.059.004.012-.005-.012z"/><path d="m17.22 1.057.01.031-.01-.03zm.003.011.019.056zm-3.063 1.825a.355.355 0 0 0 -.468.12 17.507 17.507 0 0 1 -1.653 2.28 18.02 18.02 0 0 1 -2.246 2.199.312.312 0 0 0 -.034.457.352.352 0 0 0 .26.111c.08 0 .16-.026.225-.08a18.68 18.68 0 0 0 2.33-2.28 18.158 18.158 0 0 0 1.714-2.365.314.314 0 0 0 -.127-.442z"/><path d="m9.887 3.499v-.002c.018.076.024.101 0 .002z"/><path d="m10.48 3.358c-.121-.499-.326-.99-.594-1.42a.306.306 0 0 0 -.419-.099.299.299 0 0 0 -.1.414c.235.376.414.806.52 1.244-.02-.08-.08-.332 0 0 .04.163.211.264.374.221a.303.303 0 0 0 .218-.36z"/><path d="m9.052 7.402c-.003-.003-.003-.003 0 0zm.08.08a88.411 88.411 0 0 1 -.081-.082zm1.348-2.79c-.217-.099-.464.026-.55.279a7.186 7.186 0 0 1 -.857 1.735.546.546 0 0 0 .07.69c.182.167.453.13.596-.081.41-.603.74-1.271.982-1.985.085-.253-.022-.538-.24-.638z"/><path d="m15.413 8.095.136.118zm.005.005c-.01-.01-.01-.009 0 0z"/><path d="m15.549 8.213c-.368-.318-1.38-1.054-2.832-1.024a4.226 4.226 0 0 0 -2.57.947.298.298 0 0 0 -.04.424.307.307 0 0 0 .429.04 3.61 3.61 0 0 1 2.193-.81c1.239-.026 2.105.604 2.42.875a.31.31 0 0 0 .448-.053.3.3 0 0 0 -.048-.4z"/><path d="m11.83.358c-.596 0-1.08.479-1.08 1.067s.484 1.066 1.08 1.066c.594 0 1.078-.478 1.078-1.066s-.484-1.067-1.079-1.067zm0 1.532a.468.468 0 0 1 -.471-.465c0-.257.21-.465.47-.465s.47.208.47.465a.468.468 0 0 1 -.47.465zm4.3 2.41c-.596 0-1.08.478-1.08 1.066s.484 1.067 1.08 1.067c.594 0 1.078-.479 1.078-1.067s-.484-1.066-1.078-1.066zm0 1.531a.468.468 0 0 1 -.471-.465c0-.256.21-.465.47-.465s.47.209.47.465a.468.468 0 0 1 -.47.465z"/></g></g></svg>