<svg height="18" viewBox="0 0 18 18" width="18" xmlns="http://www.w3.org/2000/svg"><path d="m9 3.75c-1.59 0-3 1.294-3 3v1.5c0 .075.022.146.063.208l.687 1.031v1.174l-3.568 2.14a.376.376 0 0 0 -.182.322v.75c0 .492.75.501.75 0v-.538l3.569-2.14a.376.376 0 0 0 .181-.322v-1.5a.376.376 0 0 0 -.063-.208l-.687-1.031v-1.386c0-1.294 1.065-2.25 2.25-2.25s2.25.956 2.25 2.25v1.386l-.687 1.031a.372.372 0 0 0 -.063.208v1.5c0 .132.069.255.181.322l3.569 2.14v.538c0 .51.75.48.75 0v-.75a.376.376 0 0 0 -.181-.322l-3.569-2.14v-1.174l.687-1.031a.376.376 0 0 0 .063-.208v-1.5c0-1.706-1.41-3-3-3zm0-3.75c-4.965 0-9 4.035-9 9s4.035 9 9 9 9-4.035 9-9-4.035-9-9-9zm0 .75c4.56 0 8.25 3.69 8.25 8.25s-3.69 8.25-8.25 8.25-8.25-3.69-8.25-8.25 3.69-8.25 8.25-8.25z" fill="#ee5a2a"/></svg>