<svg height="18" viewBox="0 0 18 18" width="18" xmlns="http://www.w3.org/2000/svg"><path d="m9.375 12.75a1.13 1.13 0 0 0 -1.125 1.125 1.13 1.13 0 0 0 1.125 1.125 1.13 1.13 0 0 0 1.125-1.125 1.13 1.13 0 0 0 -1.125-1.125zm0 .75a.37.37 0 0 1 .375.375.37.37 0 0 1 -.375.375.37.37 0 0 1 -.375-.375.37.37 0 0 1 .375-.375zm0-10.5a4.669 4.669 0 0 0 -2.921.982c-.274.21-.454.51-.454.803 0 .285.095.561.263.771.167.21.453.444.862.444.28 0 .489-.08.69-.237l.003-.002c.421-.327 1.021-.511 1.557-.511.384 0 .669.085.857.21.188.126.268.308.268.54 0 .27-.147.345-.37.569-.242.237-.588.524-.928.93a3.999 3.999 0 0 0 -.794 1.477c-.164.571-.158 1.104-.158 1.524v.375c0 .347.14.655.36.85s.494.28.765.275.55-.098.765-.293a1.11 1.11 0 0 0 .36-.832v-.375c0-.398 0-.723.053-.908.06-.211.185-.44.356-.643.172-.206.46-.454.787-.777.334-.33.765-.803.96-1.497.068-.244.094-.428.094-.675 0-.322-.062-.644-.15-.902-.17-.488-.461-.9-.817-1.22-.708-.635-1.598-.868-2.408-.878zm0 .75c.675.009 1.363.198 1.905.686.272.242.486.547.61.907.058.167.11.438.11.657 0 .21-.008.26-.068.473-.14.502-.455.859-.764 1.165-.305.3-.598.547-.835.829a2.512 2.512 0 0 0 -.501.92c-.102.358-.083.728-.083 1.112v.375c0 .146-.045.218-.11.275a.41.41 0 0 1 -.265.1.407.407 0 0 1 -.266-.086c-.062-.055-.109-.125-.109-.289v-.374c0-.422.002-.87.13-1.32.127-.45.36-.855.648-1.2.29-.345.603-.606.88-.88h.003c.205-.207.59-.518.59-1.099 0-.466-.246-.925-.604-1.162-.356-.24-.78-.338-1.271-.338-.705 0-1.452.229-2.02.671h-.003c-.105.085-.176.09-.26.075a.447.447 0 0 1 -.337-.419c.005-.08.028-.152.155-.249l.002-.002v-.001a3.959 3.959 0 0 1 2.464-.825h-.001zm-.375-3.75c-4.965 0-9 4.035-9 9s4.035 9 9 9 9-4.035 9-9-4.035-9-9-9zm0 .75c4.56 0 8.25 3.69 8.25 8.25s-3.69 8.25-8.25 8.25-8.25-3.69-8.25-8.25 3.69-8.25 8.25-8.25z" fill="#fff"/></svg>