<svg height="18" viewBox="0 0 20 18" width="20" xmlns="http://www.w3.org/2000/svg"><g fill="none" fill-rule="evenodd"><path d="m13.441 14.36h-7.18l-.636 1.558-.11.27h1.384a.236.236 0 0 1 -.004-.037v-.676c0-.13.105-.237.235-.237s.235.106.235.237v.676a.236.236 0 0 1 -.003.037h2.258a.236.236 0 0 1 -.004-.037v-.676c0-.13.106-.237.236-.237s.235.106.235.237v.676a.236.236 0 0 1 -.004.037h2.258a.236.236 0 0 1 -.003-.037v-.676c0-.13.105-.237.235-.237s.235.106.235.237v.676a.236.236 0 0 1 -.004.037h1.385l-.11-.27z" fill="#1abc9c" fill-rule="nonzero"/><path d="m19.566 8.277a.4.4 0 0 0 -.351-.244h-1.8a.4.4 0 0 0 -.352.244 2.513 2.513 0 0 0 -.124.5c-.792-1.535-1.67-3.245-1.67-3.245a.717.717 0 0 0 -.546-.466 27.256 27.256 0 0 0 -4.871-.445c-1.61 0-3.25.15-4.872.445a.717.717 0 0 0 -.547.466s-.877 1.71-1.669 3.246a2.514 2.514 0 0 0 -.124-.501.4.4 0 0 0 -.351-.244h-1.8a.4.4 0 0 0 -.352.244c-.183.534-.182.84 0 1.375a.4.4 0 0 0 .351.245h1.797c0 .022.002.045.004.067a.93.93 0 0 0 -.655.89v6.144c0 .246.199.446.444.446h2.233c.245 0 .444-.2.444-.447v-1.08h.361l.77-1.885a.235.235 0 0 1 .218-.146h7.496c.095 0 .181.058.217.146l.77 1.886h.362v1.08c0 .246.199.446.444.446h2.233c.245 0 .444-.2.444-.447v-6.143a.93.93 0 0 0 -.655-.89.721.721 0 0 0 .004-.067h1.797a.4.4 0 0 0 .351-.245c.183-.534.182-.84 0-1.375zm-14.143-2.218s1.072-.274 4.428-.274c3.357 0 4.429.274 4.429.274l1.574 3.838h-12.005zm-1.956 6.64v-1.26h2.711l.806 1.26zm12.769 0h-3.517l.806-1.26h2.71v1.26z" fill="#1abc9c" fill-rule="nonzero"/><path d="m13.844 6.607a.135.135 0 0 1 .003-.19l.268-.267c.124-.123.312.067.19.19l-.269.267a.135.135 0 0 1 -.192 0zm4.303-4.303a.135.135 0 0 1 .003-.19l.268-.267c.118-.12.31.073.19.19l-.268.267a.135.135 0 0 1 -.193 0zm-4.303-.457a.135.135 0 0 0 .003.19l.268.267c.12.12.313-.069.19-.19l-.269-.267a.135.135 0 0 0 -.192 0zm-.844 2.246c0-.075.06-.135.134-.135h.538a.134.134 0 1 1 0 .27h-.538a.134.134 0 0 1 -.134-.136zm3.362-3.093c.074 0 .134.06.134.134v.538a.134.134 0 1 1 -.269 0v-.538c0-.074.06-.134.135-.134zm-1.206 2.049 1.076 4.304a.134.134 0 0 0 .22.068l1.12-.992.98.986a.135.135 0 0 0 .19 0l.673-.672a.135.135 0 0 0 0-.19l-.98-.981.98-.981a.135.135 0 0 0 -.049-.221l-4.034-1.48c-.146-.04-.197.082-.176.159zm.322.18 3.598 1.32-.927.927a.135.135 0 0 0 0 .19l.98.982-.481.482-.98-.98a.135.135 0 0 0 -.185-.006l-1.044.928-.961-3.842z" stroke="#1abc9c" stroke-width=".5"/></g></svg>