<svg height="17" viewBox="0 0 17 17" width="17" xmlns="http://www.w3.org/2000/svg"><path d="m7.438 4.958a.353.353 0 0 0 -.251.605l2.583 2.583-2.583 2.582c-.347.335.167.849.501.502l2.834-2.833a.355.355 0 0 0 0-.502l-2.834-2.833a.347.347 0 0 0 -.25-.104zm-7.084 2.834h7.083a.353.353 0 1 1 0 .708h-7.083a.353.353 0 1 1 0-.708zm4.25-7.792c-.582 0-1.062.48-1.062 1.063v3.541c0 .471.708.466.708 0v-3.542c0-.202.152-.354.354-.354h11.334c.202 0 .354.152.354.355v14.874a.346.346 0 0 1 -.355.355h-11.333a.346.346 0 0 1 -.354-.355v-4.25c0-.473-.708-.462-.708 0v4.25c0 .583.48 1.063 1.062 1.063h11.334c.582 0 1.062-.48 1.062-1.063v-14.874c0-.583-.48-1.063-1.063-1.063z" fill="#ee5a2a"/></svg>