<svg height="17" viewBox="0 0 20 17" width="20" xmlns="http://www.w3.org/2000/svg"><path d="m8.375 15.938c0 .633.635 1.062 1.417 1.062.78 0 1.416-.429 1.416-1.063 0-.47-.708-.46-.708 0 0 .076-.204.355-.708.355-.503 0-.709-.282-.709-.355 0-.47-.708-.46-.708 0zm1.417-15.938c-1.214 0-2.125.85-2.125 1.77 0 .487.708.447.708 0 0-.445.531-1.062 1.417-1.062.885 0 1.416.612 1.416 1.063 0 .462.709.474.709 0 0-.922-.913-1.771-2.125-1.771zm-4.604 2.125h-.355a2.12 2.12 0 0 0 -2.125 2.125v.354a.364.364 0 0 1 -.354.354.363.363 0 0 1 -.354-.354v-.354a2.838 2.838 0 0 1 2.833-2.833h.355c.238 0 .355.177.354.354-.002.177-.12.354-.355.354zm9.208 0h.354a2.12 2.12 0 0 1 2.125 2.125v.354a.364.364 0 0 0 .354.354.364.364 0 0 0 .354-.354v-.354a2.839 2.839 0 0 0 -2.833-2.833h-.354c-.239 0-.356.177-.354.354 0 .177.12.354.354.354zm-4.604.708c-1.791 0-3.103.782-3.917 1.927-.817 1.143-1.042 2.62-1.042 4.094 0 2.778-.738 4.049-2.036 5.423-.184.195-.05.598.266.598h13.457c.326 0 .453-.399.265-.598-1.298-1.374-2.036-2.645-2.036-5.423 0-1.473-.225-2.95-1.041-4.094-.815-1.145-2.125-1.927-3.917-1.927zm0 .709c1.593 0 2.642.634 3.343 1.615.698.983.907 2.337.907 3.697 0 2.529.752 3.997 1.815 5.313h-12.13c1.062-1.316 1.815-2.784 1.815-5.313 0-1.361.207-2.715.906-3.697.702-.98 1.75-1.615 3.344-1.615z"/></svg>