<svg height="22" viewBox="0 0 22 22" width="22" xmlns="http://www.w3.org/2000/svg"><g fill="none"><path d="m16.294 5.127v-2.127h-13.294v14.092a2.396 2.396 0 0 0 2.393 2.393h11.699a2.396 2.396 0 0 0 2.393-2.393v-11.965h-3.19zm-10.901 12.763a.799.799 0 0 1 -.798-.798v-12.497h10.105v12.497c0 .28.049.548.137.798zm12.497-.798a.799.799 0 0 1 -1.596 0v-10.37h1.596z" fill="#ee5a2a"/><path d="m11.814 7.126a.096.096 0 0 0 -.085-.06h-.431a.096.096 0 0 0 -.085.06.631.631 0 0 0 -.03.123l-.4-.798a.173.173 0 0 0 -.13-.115 6.377 6.377 0 0 0 -1.17-.11c-.385 0-.778.038-1.168.11a.173.173 0 0 0 -.13.115l-.4.798a.632.632 0 0 0 -.03-.123.096.096 0 0 0 -.085-.06h-.432a.096.096 0 0 0 -.084.06.453.453 0 0 0 0 .338c.011.034.051.06.084.06h.431l.001.017a.228.228 0 0 0 -.157.219v1.511c0 .061.048.11.107.11h.535c.059 0 .107-.049.107-.11v-.265h.086l.185-.464a.056.056 0 0 1 .052-.036h1.798c.022 0 .043.014.052.036l.184.464h.087v.265c0 .061.048.11.106.11h.536c.059 0 .106-.049.106-.11v-1.511a.228.228 0 0 0 -.157-.219l.001-.016h.431a.096.096 0 0 0 .085-.06.453.453 0 0 0 0-.339zm-3.392-.546s.257-.067 1.062-.067 1.062.067 1.062.067l.377.945h-2.879zm-.47 1.634v-.31h.65l.194.31h-.843zm3.063 0h-.843l.193-.31h.65z" fill="#e74c3c"/><path d="m6.191 10.445h6.913v1.595h-6.913zm0 2.659h6.913v1.595h-6.913z" fill="#ee5a2a"/></g></svg>