<svg height="13" viewBox="0 0 21 13" width="21" xmlns="http://www.w3.org/2000/svg"><path d="m1.396 8.125h1.583a.395.395 0 1 1 0 .792h-1.583a.395.395 0 1 1 0-.792zm0-3.167h1.583a.395.395 0 1 1 0 .792h-1.583a.395.395 0 1 1 0-.792zm0-3.166h1.583a.395.395 0 1 1 0 .791h-1.583a.395.395 0 1 1 0-.791zm9.777 2.487a.394.394 0 0 0 -.559.006l-2.093 2.095-1.3-1.302c-.357-.356-.918.21-.56.56l1.582 1.58a.395.395 0 0 0 .559 0l2.372-2.372a.397.397 0 0 0 0-.566h-.001zm5.644 4.638c-.869 0-1.583.712-1.583 1.583 0 .87.714 1.583 1.583 1.583.871 0 1.584-.712 1.584-1.583 0-.87-.713-1.583-1.584-1.583zm0 .791c.444 0 .792.35.792.792a.785.785 0 0 1 -.792.792.786.786 0 0 1 -.791-.792c0-.442.35-.792.791-.792zm-8.692-.791c-.87 0-1.583.712-1.583 1.583 0 .87.712 1.583 1.583 1.583.87 0 1.583-.712 1.583-1.583 0-.87-.712-1.583-1.583-1.583zm0 .791c.442 0 .792.35.792.792s-.35.792-.792.792a.786.786 0 0 1 -.792-.792c0-.442.35-.792.792-.792zm6.73 0c.512 0 .531-.791 0-.791h-.397v-5.542h2.182l2.568 3.303v2.239h-.395c-.52 0-.526.791 0 .791h.395a.8.8 0 0 0 .792-.791v-2.375a.398.398 0 0 0 -.083-.243l-2.771-3.563a.393.393 0 0 0 -.313-.153h-2.375v-.791a.8.8 0 0 0 -.791-.792h-8.709a.8.8 0 0 0 -.791.792v7.125a.8.8 0 0 0 .791.791h1.188c.513.008.53-.791 0-.791h-1.188v-7.125h8.709v7.125h-3.563c-.513 0-.522.8 0 .791h4.75z" fill="#27ae60" stroke="#27ae60" stroke-width=".7"/></svg>